<svg width="150" height="150" viewBox="0 0 150 150" fill="none" xmlns="http://www.w3.org/2000/svg">
<path d="M71.0402 19.3279C68.178 20.0868 65.5109 21.9082 63.8196 24.2284L62.7571 25.7028H47.492H32.2486L30.2971 27.3291C29.2346 28.2398 27.8035 29.4757 27.153 30.1046C26.0254 31.167 25.9387 31.3188 25.9387 32.2078C25.9387 32.815 26.0905 33.3571 26.329 33.639C27.0662 34.528 31.7498 38.496 32.3136 38.7129C32.6389 38.8213 34.3085 38.9297 36.0432 38.9297H39.1656V42.0738C39.1656 45.1528 39.1656 45.2179 38.6668 45.3046C32.8774 46.3888 29.4514 48.0367 25.8953 51.4627C22.838 54.4117 21.0166 57.404 19.7156 61.6105C19.1518 63.4319 19.1301 63.7789 19.1301 67.6602C19.1301 72.4306 19.3903 73.7532 21.0382 77.2009C22.3826 80.0414 23.5535 81.6894 25.7652 83.8577L27.6734 85.7659H23.9655H20.2576L19.6288 86.3947C19.1301 86.9151 19 87.2186 19 87.9992C19 88.8883 19.2168 89.2352 22.4693 93.5936C24.7678 96.6726 26.1772 98.3639 26.6326 98.6024C27.2831 98.971 28.4323 98.9927 41.4423 98.9927C54.4524 98.9927 55.6016 98.971 56.2521 98.6024C56.7074 98.3639 58.1169 96.6726 60.4153 93.5936C63.6678 89.2352 63.8846 88.8883 63.8846 87.9992C63.8846 87.2186 63.7545 86.9151 63.2558 86.3947L62.627 85.7659H58.9191H55.2113L57.1194 83.8794C59.3311 81.6894 60.4803 80.0848 61.8247 77.2443C63.451 73.8617 63.7762 72.2354 63.7545 67.5518C63.7545 63.8223 63.7112 63.4103 63.1691 61.6105C61.8681 57.404 60.0467 54.4117 56.9893 51.4627C53.4116 48.015 50.0289 46.3888 44.1961 45.3046C43.7191 45.2179 43.7191 45.1528 43.7191 42.0738V38.9297H53.3248H62.9523L63.1691 39.4284C63.5594 40.2524 65.7928 42.5508 66.942 43.3097L68.0045 43.9819V74.6423V105.281H66.0313C62.7571 105.281 62.5836 105.541 62.5836 110.485V113.954H51.5468H40.4883L39.4908 114.822C35.6095 118.183 26.394 126.596 26.2856 126.878C25.9604 127.723 26.1555 128.742 26.7843 129.371L27.4132 130H46.603H65.7711L66.3566 129.436C67.1588 128.612 67.1588 127.051 66.3566 126.227L65.7711 125.663L50.094 125.62L34.4169 125.555L38.3416 122.042L42.288 118.508H74.5095H106.731L110.677 122.021L114.624 125.555L98.925 125.62L83.2479 125.663L82.6625 126.227C81.8602 127.051 81.8602 128.612 82.6625 129.436L83.2479 130H102.416H121.606L122.235 129.371C122.863 128.742 123.059 127.723 122.733 126.878C122.625 126.596 113.41 118.183 109.528 114.822L108.531 113.954H97.4722H86.4354V110.485C86.4354 105.541 86.2619 105.281 82.9877 105.281H81.0145V74.6423V43.9819L82.077 43.3097C83.2262 42.5508 85.4596 40.2524 85.8499 39.4284L86.0668 38.9297H95.6942H105.3V42.0738C105.3 45.1528 105.3 45.2179 104.823 45.3046C98.8166 46.4322 95.6075 48.015 91.8345 51.7229C88.3435 55.1706 86.5004 58.5315 85.5247 63.2151C84.8959 66.1857 85.0693 70.9344 85.8716 73.7316C87.0642 77.8514 89.7963 82.2098 92.7453 84.66L94.0679 85.7659H90.23H86.392L85.7632 86.3947C85.2645 86.8934 85.1344 87.2186 85.1344 87.9559C85.1344 88.8015 85.3946 89.2352 88.6688 93.5719C90.5986 96.1739 92.3766 98.429 92.6152 98.5807C92.9621 98.8193 95.6942 98.906 107.1 98.9494C116.315 98.9927 121.432 98.9277 121.974 98.7759C122.733 98.5807 123.145 98.1037 126.42 93.7453C129.889 89.1051 130.019 88.9099 130.019 87.9125C130.019 87.0452 129.932 86.8067 129.347 86.3296C128.696 85.7659 128.653 85.7659 124.967 85.7659H121.237L122.69 84.4432C125.682 81.7544 128.328 77.4394 129.412 73.4063C129.846 71.7801 129.911 71.0862 129.889 67.5518C129.889 63.8223 129.846 63.4103 129.303 61.5889C126.897 53.7178 120.955 47.9066 113.236 45.8901C112.282 45.6299 111.285 45.4347 111.024 45.4347C109.875 45.4347 109.853 45.3914 109.853 42.0521V38.9297H112.976C114.711 38.9297 116.38 38.8213 116.705 38.7129C117.269 38.496 121.953 34.528 122.69 33.639C122.929 33.3571 123.08 32.815 123.08 32.2078C123.08 31.3188 122.994 31.167 121.866 30.1046C121.216 29.4757 119.784 28.2398 118.722 27.3291L116.77 25.7028H101.527H86.2619L85.1777 24.185C83.4431 21.8215 80.8411 20.0868 77.8704 19.3062C76.2442 18.8942 72.6447 18.8942 71.0402 19.3279ZM78.1957 24.3151C81.665 25.963 83.8551 29.9311 83.2262 33.5089C82.6842 36.5228 80.9712 38.8213 78.2391 40.1657C76.6779 40.9463 76.4827 40.9896 74.5095 40.9896C72.5363 40.9896 72.3412 40.9463 70.78 40.1657C68.0479 38.8213 66.3349 36.5228 65.7928 33.5089C65.229 30.213 67.2673 26.0931 70.2379 24.5753C72.0159 23.6863 72.6231 23.5345 74.7263 23.5995C76.5261 23.6429 76.9597 23.7296 78.1957 24.3151ZM61.1742 32.3163V34.3762H47.6221H34.07L32.8774 33.3137L31.6848 32.2729L32.769 31.2755L33.8531 30.278L47.5137 30.2563H61.1742V32.3163ZM116.25 31.2755L117.334 32.2729L116.142 33.3137L114.949 34.3762H101.397H87.8448V32.3163V30.2563H101.505L115.166 30.278L116.25 31.2755ZM76.6779 75.4012V105.281H74.5095H72.3412V75.4012V45.5431H74.5095H76.6779V75.4012ZM44.9767 50.1183C53.3248 51.8313 59.3311 59.182 59.3311 67.6385C59.3311 75.8565 54.2138 82.6001 46.1693 85.0286C44.5214 85.5273 43.8709 85.6141 41.4423 85.6141C39.0138 85.6141 38.3633 85.5273 36.7153 85.0286C30.6657 83.2072 26.3073 79.0223 24.2908 73.0811C23.792 71.6283 23.6836 70.8477 23.5969 68.4191C23.5101 65.9039 23.5752 65.21 23.9655 63.6488C25.7652 56.4716 31.5113 51.1375 38.7319 49.9232C40.0763 49.7064 43.4589 49.7931 44.9767 50.1183ZM112.13 50.2918C115.231 51.1375 118.332 53.0456 120.739 55.5826C122.517 57.469 123.731 59.5289 124.642 62.1526C125.227 63.9307 125.335 64.5595 125.422 67.0097C125.487 69.3515 125.444 70.1538 125.054 71.7801C123.514 78.2417 118.375 83.4674 111.913 85.137C109.853 85.6791 106.081 85.7659 104.107 85.3539C97.0602 83.836 91.5743 78.3935 90.0131 71.3247C89.4927 69.0263 89.6445 64.8197 90.3384 62.673C92.3766 56.2764 97.4939 51.5494 103.891 50.1183C105.799 49.6847 110.244 49.7931 112.13 50.2918ZM56.7942 90.6013C56.7074 90.7747 56.0353 91.6854 55.3197 92.6612L54.0187 94.4175H41.4423H28.8659L27.5649 92.6612C26.8494 91.6854 26.1772 90.7747 26.0905 90.6013C25.9387 90.3627 28.4973 90.3194 41.4423 90.3194C54.3873 90.3194 56.946 90.3627 56.7942 90.6013ZM122.929 90.6013C122.842 90.7747 122.17 91.6854 121.454 92.6612L120.153 94.4175H107.577H95.0003L93.6993 92.6612C92.9838 91.6854 92.3116 90.7747 92.2248 90.6013C92.0731 90.3627 94.6317 90.3194 107.577 90.3194C120.522 90.3194 123.08 90.3627 122.929 90.6013ZM81.8819 111.894V113.954H74.5095H67.1372V111.894V109.834H74.5095H81.8819V111.894Z" fill="#002172"/>
<path d="M39.9025 54.4333C39.6206 54.7152 39.3171 55.2573 39.252 55.6042C39.1436 56.0596 38.9051 56.3198 38.2763 56.6017C37.1054 57.1438 35.4141 58.9869 34.9153 60.2879C34.2865 61.9358 34.3516 64.5161 35.0454 65.9255C36.1513 68.224 38.6883 69.937 40.9216 69.937C43.1117 69.937 44.5211 71.8451 43.6321 73.5798C42.9165 74.9458 41.2903 75.2928 39.9242 74.3821C38.8834 73.6665 38.0378 73.4931 37.2355 73.84C36.3681 74.1869 35.9128 74.9458 35.9128 76.03C35.9128 76.8106 36.0429 77.0708 36.7801 77.7647C37.2355 78.1984 37.9727 78.6971 38.4064 78.8489C38.9701 79.0657 39.1653 79.2608 39.1653 79.6295C39.1653 79.8897 39.4472 80.4317 39.7941 80.822C40.3362 81.4292 40.5747 81.5376 41.442 81.5376C42.3094 81.5376 42.5479 81.4292 43.09 80.822C43.4369 80.4317 43.7188 79.8897 43.7188 79.6295C43.7188 79.2608 43.914 79.0657 44.456 78.8705C45.6053 78.4586 47.1014 76.9841 47.7736 75.618C48.294 74.5555 48.3807 74.1219 48.3807 72.539C48.3807 70.2189 47.817 68.8528 46.2991 67.4434C44.9981 66.2291 43.7839 65.6653 42.0709 65.4702C40.4446 65.275 39.7074 64.9064 39.252 64.0391C38.6232 62.8031 39.1436 61.4154 40.5097 60.6998C41.3553 60.2662 41.7673 60.3095 42.9165 61.0468C44.3259 61.9358 45.4752 61.9358 46.3425 61.0685C47.6435 59.7458 46.9496 57.881 44.7162 56.7101C44.0224 56.3198 43.7188 56.0162 43.6321 55.5826C43.4152 54.5418 42.5913 53.8913 41.442 53.8913C40.6614 53.8913 40.3145 54.0214 39.9025 54.4333Z" fill="#002172"/>
<path d="M100.4 59.5288C99.2937 59.9625 98.8601 61.7839 99.5539 62.868C100.313 64.0173 102.178 64.1257 103.153 63.0849C103.544 62.6729 103.674 62.2826 103.674 61.5454C103.674 60.7214 103.565 60.4829 102.958 59.9408C102.243 59.2903 101.332 59.1385 100.4 59.5288Z" fill="#002172"/>
<path d="M106.124 65.9688C101.983 70.1104 100.031 72.192 99.9009 72.6473C99.4456 74.382 100.92 75.8998 102.655 75.4662C103.414 75.2927 114.754 64.039 115.209 63.0199C115.86 61.4804 114.841 59.9625 113.15 59.9625H112.152L106.124 65.9688Z" fill="#002172"/>
<path d="M112.304 71.9969C111.61 72.4956 111.284 73.6665 111.588 74.5989C111.913 75.5963 112.542 76.0083 113.778 76.0083C114.645 76.0083 114.884 75.9216 115.361 75.3361C115.751 74.8808 115.925 74.4254 115.925 73.84C115.925 73.2545 115.751 72.7992 115.361 72.3438C114.884 71.7584 114.645 71.6716 113.778 71.6716C113.236 71.6716 112.564 71.8234 112.304 71.9969Z" fill="#002172"/>
<path d="M72.9048 126.227C72.4495 126.682 72.3411 127.008 72.3411 127.832C72.3411 129.263 73.0783 130 74.5094 130C75.9405 130 76.6777 129.263 76.6777 127.832C76.6777 126.401 75.9405 125.663 74.5094 125.663C73.6854 125.663 73.3602 125.772 72.9048 126.227Z" fill="#002172"/>
</svg>
