<svg width="150" height="150" viewBox="0 0 150 150" fill="none" xmlns="http://www.w3.org/2000/svg">
<path d="M19.7637 20.4535C16.3372 21.3605 13.6413 23.6533 12.0036 27.0547L11.0966 28.9443L11.021 66.7877C10.9706 104.606 10.9706 104.656 11.4997 106.218C12.8098 110.174 15.8837 113.046 19.9653 114.104C21.1747 114.432 24.2233 114.482 39.1137 114.482C48.8643 114.482 56.826 114.508 56.826 114.558C56.826 114.583 55.9946 117.229 54.9868 120.403L53.1475 126.198L50.5524 126.324C48.1841 126.45 47.9321 126.501 47.4534 127.08C46.8235 127.861 46.9747 129.272 47.7809 129.902C48.2848 130.33 49.9729 130.355 75.4706 130.355C100.968 130.355 102.656 130.33 103.16 129.902C103.966 129.272 104.118 127.861 103.488 127.08C103.009 126.501 102.757 126.45 100.389 126.324L97.7936 126.198L95.9544 120.403C94.9466 117.229 94.1151 114.583 94.1151 114.558C94.1151 114.508 98.1967 114.482 103.185 114.482H112.281L112.886 113.853C113.641 113.122 113.692 111.988 113.037 111.182L112.558 110.577L66.7278 110.451L20.9227 110.325L19.4866 109.62C17.7733 108.788 16.438 107.352 15.5561 105.437C14.9514 104.102 14.901 103.749 14.8003 99.0629L14.6743 94.0742H75.4706H136.267L136.141 99.0377C136.04 103.749 135.99 104.102 135.385 105.437C134.503 107.352 133.168 108.788 131.455 109.62C130.044 110.3 129.892 110.325 124.652 110.451L124.588 110.453C119.36 110.577 119.258 110.58 118.781 111.182C118.126 111.988 118.177 113.122 118.932 113.853C119.537 114.482 119.562 114.482 124.526 114.482C129.892 114.482 131.379 114.256 133.621 113.122C136.368 111.736 138.812 108.763 139.567 105.866C139.971 104.404 139.996 101.104 139.92 66.6113L139.845 28.9443L138.938 27.0547C137.3 23.6533 134.604 21.3605 131.177 20.4535C129.641 20.0504 126.516 20.0252 90.0083 20.0252L50.502 20L49.8973 20.6299C49.1415 21.3605 49.0911 22.4943 49.7462 23.3006L50.2249 23.9053L90.1342 24.0312L130.018 24.1572L131.177 24.7367C133.873 26.0721 135.461 28.1885 135.914 31.0859C136.09 32.1693 136.191 42.575 136.191 61.3707V90.043H75.4706H14.7499V61.3707C14.7499 42.575 14.8507 32.1693 15.027 31.0859C15.4805 28.1885 17.0678 26.0721 19.7637 24.7367C20.8941 24.159 21.0478 24.1572 32.11 24.0324L32.2102 24.0312L43.5229 23.9053L44.0016 23.3006C44.6567 22.4943 44.6063 21.3605 43.8505 20.6299L43.2458 20L32.3362 20.0252C22.8628 20.0252 21.1999 20.0756 19.7637 20.4535ZM91.0665 118.438C91.4581 119.7 91.9081 121.12 92.282 122.3C92.5576 123.17 92.7919 123.91 92.9309 124.359L93.5608 126.324H75.4706H57.3803L58.363 123.225C58.6911 122.226 59.1164 120.882 59.5134 119.628C59.7869 118.763 60.047 117.942 60.2526 117.304L61.1344 114.482H75.4706H89.8067L91.0665 118.438Z" fill="#002172"/>
<path d="M19.7637 20.4535C16.3372 21.3605 13.6413 23.6533 12.0036 27.0547L11.0966 28.9443L11.021 66.7877C10.9706 104.606 10.9706 104.656 11.4997 106.218C12.8098 110.174 15.8837 113.046 19.9653 114.104C21.1747 114.432 24.2233 114.482 39.1137 114.482C48.8643 114.482 56.826 114.508 56.826 114.558C56.826 114.583 55.9946 117.229 54.9868 120.403L53.1475 126.198L50.5524 126.324C48.1841 126.45 47.9321 126.501 47.4534 127.08C46.8235 127.861 46.9747 129.272 47.7809 129.902C48.2848 130.33 49.9729 130.355 75.4706 130.355C100.968 130.355 102.656 130.33 103.16 129.902C103.966 129.272 104.118 127.861 103.488 127.08C103.009 126.501 102.757 126.45 100.389 126.324L97.7936 126.198L95.9544 120.403C94.9466 117.229 94.1151 114.583 94.1151 114.558C94.1151 114.508 98.1967 114.482 103.185 114.482H112.281L112.886 113.853C113.641 113.122 113.692 111.988 113.037 111.182L112.558 110.577L66.7278 110.451L20.9227 110.325L19.4866 109.62C17.7733 108.788 16.438 107.352 15.5561 105.437C14.9514 104.102 14.901 103.749 14.8003 99.0629L14.6743 94.0742H75.4706H136.267L136.141 99.0377C136.04 103.749 135.99 104.102 135.385 105.437C134.503 107.352 133.168 108.788 131.455 109.62C130.044 110.3 129.892 110.325 124.652 110.451L124.588 110.453C119.36 110.577 119.258 110.58 118.781 111.182C118.126 111.988 118.177 113.122 118.932 113.853C119.537 114.482 119.562 114.482 124.526 114.482C129.892 114.482 131.379 114.256 133.621 113.122C136.368 111.736 138.812 108.763 139.567 105.866C139.971 104.404 139.996 101.104 139.92 66.6113L139.845 28.9443L138.938 27.0547C137.3 23.6533 134.604 21.3605 131.177 20.4535C129.641 20.0504 126.516 20.0252 90.0083 20.0252L50.502 20L49.8973 20.6299C49.1415 21.3605 49.0911 22.4943 49.7462 23.3006L50.2249 23.9053L90.1342 24.0312L130.018 24.1572L131.177 24.7367C133.873 26.0721 135.461 28.1885 135.914 31.0859C136.09 32.1693 136.191 42.575 136.191 61.3707V90.043H75.4706H14.7499V61.3707C14.7499 42.575 14.8507 32.1693 15.027 31.0859C15.4805 28.1885 17.0678 26.0721 19.7637 24.7367C20.8941 24.159 21.0478 24.1572 32.11 24.0324L32.2102 24.0312L43.5229 23.9053L44.0016 23.3006C44.6567 22.4943 44.6063 21.3605 43.8505 20.6299L43.2458 20L32.3362 20.0252C22.8628 20.0252 21.1999 20.0756 19.7637 20.4535ZM91.0665 118.438C91.4581 119.7 91.9081 121.12 92.282 122.3C92.5576 123.17 92.7919 123.91 92.9309 124.359L93.5608 126.324H75.4706H57.3803L58.363 123.225C58.6911 122.226 59.1164 120.882 59.5134 119.628C59.7869 118.763 60.047 117.942 60.2526 117.304L61.1344 114.482H75.4706H89.8067L91.0665 118.438Z" stroke="#002172"/>
<path d="M27.3978 31.4891C26.6671 31.8418 25.7097 32.5977 25.231 33.152C24.9719 33.4523 24.7532 33.6855 24.5684 33.9432C23.5134 35.4144 23.5681 37.6815 23.5681 57.793C23.5681 77.9045 23.5134 80.1716 24.5684 81.6428C24.7532 81.9004 24.9719 82.1336 25.231 82.434C25.7097 83.0135 26.7427 83.7693 27.549 84.1725L28.9851 84.8779H59.0935H89.2019L90.638 84.1725C91.4443 83.7693 92.4773 83.0135 92.956 82.434C93.2151 82.1336 93.4338 81.9004 93.6186 81.6428C94.6736 80.1716 94.6189 77.9045 94.6189 57.793C94.6189 37.6815 94.6736 35.4144 93.6186 33.9432C93.4338 33.6855 93.2151 33.4523 92.956 33.152C92.4773 32.5977 91.5199 31.8418 90.7892 31.4891L89.479 30.834H59.0935H28.708L27.3978 31.4891ZM89.0255 35.0668C89.3531 35.2432 89.8318 35.7723 90.0837 36.2006C90.5625 36.9816 90.5876 37.6619 90.5876 57.8182V78.6295L90.0082 79.4861C89.6806 79.9648 89.0507 80.4688 88.572 80.6451C87.3123 81.0734 30.8748 81.0734 29.615 80.6451C29.1363 80.4688 28.5064 79.9648 28.1789 79.4861L27.5994 78.6295V57.8686C27.5994 40.3326 27.6498 37.0068 27.9521 36.4021C28.4308 35.4951 28.9347 35.092 29.9425 34.8652C30.3708 34.7393 43.7244 34.6889 59.5974 34.6889C82.9031 34.7393 88.5468 34.8148 89.0255 35.0668Z" fill="#002172"/>
<path d="M27.3978 31.4891C26.6671 31.8418 25.7097 32.5977 25.231 33.152C24.9719 33.4523 24.7532 33.6855 24.5684 33.9432C23.5134 35.4144 23.5681 37.6815 23.5681 57.793C23.5681 77.9045 23.5134 80.1716 24.5684 81.6428C24.7532 81.9004 24.9719 82.1336 25.231 82.434C25.7097 83.0135 26.7427 83.7693 27.549 84.1725L28.9851 84.8779H59.0935H89.2019L90.638 84.1725C91.4443 83.7693 92.4773 83.0135 92.956 82.434C93.2151 82.1336 93.4338 81.9004 93.6186 81.6428C94.6736 80.1716 94.6189 77.9045 94.6189 57.793C94.6189 37.6815 94.6736 35.4144 93.6186 33.9432C93.4338 33.6855 93.2151 33.4523 92.956 33.152C92.4773 32.5977 91.5199 31.8418 90.7892 31.4891L89.479 30.834H59.0935H28.708L27.3978 31.4891ZM89.0255 35.0668C89.3531 35.2432 89.8318 35.7723 90.0837 36.2006C90.5625 36.9816 90.5876 37.6619 90.5876 57.8182V78.6295L90.0082 79.4861C89.6806 79.9648 89.0507 80.4688 88.572 80.6451C87.3123 81.0734 30.8748 81.0734 29.615 80.6451C29.1363 80.4688 28.5064 79.9648 28.1789 79.4861L27.5994 78.6295V57.8686C27.5994 40.3326 27.6498 37.0068 27.9521 36.4021C28.4308 35.4951 28.9347 35.092 29.9425 34.8652C30.3708 34.7393 43.7244 34.6889 59.5974 34.6889C82.9031 34.7393 88.5468 34.8148 89.0255 35.0668Z" stroke="#002172"/>
<path d="M73.1777 40.3326C71.666 41.1137 70.5322 42.4994 70.1795 44.0867C70.0535 44.6158 69.9275 51.1162 69.9275 58.4732V71.9023H67.9119H65.8963V61.925V51.9477L65.216 50.7131C64.4098 49.2266 62.7973 48.0676 61.1848 47.8156C60.5801 47.74 59.1691 47.7148 58.1109 47.7652C55.5158 47.9164 54.1301 48.6975 53.0467 50.5619L52.2908 51.8721V61.8746V71.9023H50.3004H48.2848L48.2092 65.5279C48.1336 59.5566 48.1084 59.1283 47.5793 58.1457C46.8738 56.8355 45.5133 55.6262 44.2787 55.2482C43.7244 55.0971 42.2127 55.0215 40.6758 55.0719C38.2822 55.1475 37.9043 55.223 36.9721 55.8529C36.3926 56.2309 35.6115 57.0119 35.2336 57.5914L34.5281 58.6244L34.4525 65.276L34.377 71.9023H33.7471C33.3943 71.9023 32.84 72.1795 32.5125 72.5322C31.6811 73.3385 31.6811 74.4975 32.5125 75.3037L33.1172 75.9336H59.0936H85.0699L85.6746 75.3037C86.0777 74.9258 86.3045 74.3967 86.3045 73.918C86.3045 72.9605 85.3219 71.9023 84.4148 71.9023H83.785V57.9693C83.785 45.4795 83.833 43.3599 82.8194 42.083C82.5612 41.7577 82.2341 41.4871 81.8197 41.1137C80.56 39.9547 79.4766 39.6523 76.7051 39.6523C74.8658 39.6523 74.3619 39.7531 73.1777 40.3326ZM79.1742 44.2379L79.7537 44.767V58.3473V71.9023H76.8563H73.9336L74.0092 58.2717L74.0848 44.641L74.6895 44.1623C75.5713 43.4316 78.368 43.482 79.1742 44.2379ZM61.21 52.2752L61.865 52.7791V62.3533V71.9023H59.0936H56.3221V62.3785C56.3221 57.1631 56.4229 52.7539 56.5236 52.6027C57.1787 51.6201 60.1014 51.3934 61.21 52.2752ZM43.6992 59.7078C44.2031 60.3377 44.2283 60.6904 44.2283 66.1326V71.9023H41.3309H38.4334V65.9814C38.4334 61.4478 38.3929 59.8777 39.1195 59.3357C39.5396 59.0223 40.2163 59.0527 41.3057 59.0527C43.0441 59.0527 43.2205 59.1031 43.6992 59.7078Z" fill="#002172"/>
<path d="M73.1777 40.3326C71.666 41.1137 70.5322 42.4994 70.1795 44.0867C70.0535 44.6158 69.9275 51.1162 69.9275 58.4732V71.9023H67.9119H65.8963V61.925V51.9477L65.216 50.7131C64.4098 49.2266 62.7973 48.0676 61.1848 47.8156C60.5801 47.74 59.1691 47.7148 58.1109 47.7652C55.5158 47.9164 54.1301 48.6975 53.0467 50.5619L52.2908 51.8721V61.8746V71.9023H50.3004H48.2848L48.2092 65.5279C48.1336 59.5566 48.1084 59.1283 47.5793 58.1457C46.8738 56.8355 45.5133 55.6262 44.2787 55.2482C43.7244 55.0971 42.2127 55.0215 40.6758 55.0719C38.2822 55.1475 37.9043 55.223 36.9721 55.8529C36.3926 56.2309 35.6115 57.0119 35.2336 57.5914L34.5281 58.6244L34.4525 65.276L34.377 71.9023H33.7471C33.3943 71.9023 32.84 72.1795 32.5125 72.5322C31.6811 73.3385 31.6811 74.4975 32.5125 75.3037L33.1172 75.9336H59.0936H85.0699L85.6746 75.3037C86.0777 74.9258 86.3045 74.3967 86.3045 73.918C86.3045 72.9605 85.3219 71.9023 84.4148 71.9023H83.785V57.9693C83.785 45.4795 83.833 43.3599 82.8194 42.083C82.5612 41.7577 82.2341 41.4871 81.8197 41.1137C80.56 39.9547 79.4766 39.6523 76.7051 39.6523C74.8658 39.6523 74.3619 39.7531 73.1777 40.3326ZM79.1742 44.2379L79.7537 44.767V58.3473V71.9023H76.8563H73.9336L74.0092 58.2717L74.0848 44.641L74.6895 44.1623C75.5713 43.4316 78.368 43.482 79.1742 44.2379ZM61.21 52.2752L61.865 52.7791V62.3533V71.9023H59.0936H56.3221V62.3785C56.3221 57.1631 56.4229 52.7539 56.5236 52.6027C57.1787 51.6201 60.1014 51.3934 61.21 52.2752ZM43.6992 59.7078C44.2031 60.3377 44.2283 60.6904 44.2283 66.1326V71.9023H41.3309H38.4334V65.9814C38.4334 61.4478 38.3929 59.8777 39.1195 59.3357C39.5396 59.0223 40.2163 59.0527 41.3057 59.0527C43.0441 59.0527 43.2205 59.1031 43.6992 59.7078Z" stroke="#002172"/>
<path d="M104.823 33.8324C103.538 34.4119 102.026 36.0747 101.699 37.3093C101.548 37.8384 101.422 40.358 101.422 42.9279C101.422 47.3371 101.472 47.6646 102.026 48.8992C102.782 50.4865 104.193 51.5951 105.982 51.973C107.67 52.3509 121.15 52.3257 122.838 51.973C124.4 51.6455 126.012 50.4613 126.718 49.1007C127.196 48.1937 127.247 47.589 127.322 43.079C127.423 37.4353 127.247 36.629 125.785 35.1173C124.097 33.404 123.946 33.3537 114.397 33.3537C106.637 33.3537 105.73 33.404 104.823 33.8324ZM122.762 37.9392C123.316 38.4683 123.342 38.6195 123.342 42.7011C123.342 46.4552 123.291 46.9591 122.863 47.4882L122.384 48.0929L114.977 48.1685C110.92 48.2189 107.343 48.1685 107.015 48.0929C106.713 48.0173 106.234 47.7402 105.957 47.463C105.503 47.0095 105.453 46.6064 105.453 42.8271C105.453 39.0478 105.503 38.6699 105.982 38.04L106.486 37.3849H114.347C122.031 37.3849 122.183 37.3849 122.762 37.9392Z" fill="#002172"/>
<path d="M104.823 33.8324C103.538 34.4119 102.026 36.0747 101.699 37.3093C101.548 37.8384 101.422 40.358 101.422 42.9279C101.422 47.3371 101.472 47.6646 102.026 48.8992C102.782 50.4865 104.193 51.5951 105.982 51.973C107.67 52.3509 121.15 52.3257 122.838 51.973C124.4 51.6455 126.012 50.4613 126.718 49.1007C127.196 48.1937 127.247 47.589 127.322 43.079C127.423 37.4353 127.247 36.629 125.785 35.1173C124.097 33.404 123.946 33.3537 114.397 33.3537C106.637 33.3537 105.73 33.404 104.823 33.8324ZM122.762 37.9392C123.316 38.4683 123.342 38.6195 123.342 42.7011C123.342 46.4552 123.291 46.9591 122.863 47.4882L122.384 48.0929L114.977 48.1685C110.92 48.2189 107.343 48.1685 107.015 48.0929C106.713 48.0173 106.234 47.7402 105.957 47.463C105.503 47.0095 105.453 46.6064 105.453 42.8271C105.453 39.0478 105.503 38.6699 105.982 38.04L106.486 37.3849H114.347C122.031 37.3849 122.183 37.3849 122.762 37.9392Z" stroke="#002172"/>
<path d="M103.362 61.5217C102.606 62.3532 102.556 63.4114 103.261 64.2428L103.891 64.9735L114.322 65.0491C120.041 65.0994 125.105 65.0491 125.559 64.9735C126.012 64.8979 126.617 64.5955 126.894 64.3184C127.549 63.6633 127.524 62.2272 126.869 61.5721C126.39 61.0934 126.038 61.0682 115.078 61.0682C104.47 61.0682 103.74 61.0934 103.362 61.5217Z" fill="#002172"/>
<path d="M103.362 61.5217C102.606 62.3532 102.556 63.4114 103.261 64.2428L103.891 64.9735L114.322 65.0491C120.041 65.0994 125.105 65.0491 125.559 64.9735C126.012 64.8979 126.617 64.5955 126.894 64.3184C127.549 63.6633 127.524 62.2272 126.869 61.5721C126.39 61.0934 126.038 61.0682 115.078 61.0682C104.47 61.0682 103.74 61.0934 103.362 61.5217Z" stroke="#002172"/>
<path d="M103.513 70.0127C102.404 70.7938 102.581 72.8094 103.84 73.3889C104.269 73.5904 107.796 73.666 115.304 73.666H126.138L126.743 73.0361C127.625 72.1795 127.6 70.8693 126.718 70.1639C126.063 69.6348 125.786 69.6348 115.052 69.6348C105.755 69.6348 103.966 69.6852 103.513 70.0127Z" fill="#002172"/>
<path d="M103.513 70.0127C102.404 70.7938 102.581 72.8094 103.84 73.3889C104.269 73.5904 107.796 73.666 115.304 73.666H126.138L126.743 73.0361C127.625 72.1795 127.6 70.8693 126.718 70.1639C126.063 69.6348 125.786 69.6348 115.052 69.6348C105.755 69.6348 103.966 69.6852 103.513 70.0127Z" stroke="#002172"/>
<path d="M103.387 78.9569C102.757 79.612 102.656 79.8639 102.782 80.5442C102.853 80.9199 102.892 81.2121 103.035 81.4393C103.552 82.2632 105.431 82.2323 115.128 82.2323H126.289L126.819 81.6528C127.499 80.9221 127.524 79.7127 126.894 78.9317L126.415 78.327L115.279 78.2514L104.168 78.1758L103.387 78.9569Z" fill="#002172"/>
<path d="M103.387 78.9569C102.757 79.612 102.656 79.8639 102.782 80.5442C102.853 80.9199 102.892 81.2121 103.035 81.4393C103.552 82.2632 105.431 82.2323 115.128 82.2323H126.289L126.819 81.6528C127.499 80.9221 127.524 79.7127 126.894 78.9317L126.415 78.327L115.279 78.2514L104.168 78.1758L103.387 78.9569Z" stroke="#002172"/>
<path d="M72.4471 100.877C71.7416 101.582 71.7668 103.145 72.4723 103.8C72.9258 104.203 73.4045 104.278 75.4705 104.278C78.4184 104.278 78.9979 103.951 78.9979 102.338C78.9979 100.701 78.4436 100.373 75.4705 100.373C73.2785 100.373 72.8754 100.449 72.4471 100.877Z" fill="#002172"/>
<path d="M72.4471 100.877C71.7416 101.582 71.7668 103.145 72.4723 103.8C72.9258 104.203 73.4045 104.278 75.4705 104.278C78.4184 104.278 78.9979 103.951 78.9979 102.338C78.9979 100.701 78.4436 100.373 75.4705 100.373C73.2785 100.373 72.8754 100.449 72.4471 100.877Z" stroke="#002172"/>
</svg>
