<svg width="150" height="150" viewBox="0 0 150 150" fill="none" xmlns="http://www.w3.org/2000/svg">
<path d="M72.0258 21.0994C66.0988 24.4212 55.0696 29.5232 47.753 32.3239C41.8042 34.6036 36.0291 36.4707 27.0408 38.9892C26.3244 39.1846 25.7599 39.5102 25.4559 39.8793L25 40.4655L25.0868 56.5533C25.152 71.8812 25.1737 72.7496 25.6513 75.6589C28.3001 92.4197 36.0726 106.184 49.3379 117.713C55.4604 123.01 63.7974 127.982 70.3975 130.284C72.2647 130.935 72.6989 131 74.9568 131C77.2147 131 77.649 130.935 79.5161 130.284C86.1162 127.982 94.4532 123.01 100.576 117.713C113.841 106.184 121.614 92.4197 124.262 75.6589C124.74 72.7496 124.762 71.8812 124.827 56.5316L124.914 40.4221L124.414 39.8576C124.002 39.3583 123.242 39.076 120.029 38.1859C106.155 34.3213 91.2834 28.3291 78.6911 21.5336C75.0654 19.5796 74.7831 19.5579 72.0258 21.0994ZM78.0398 26.4186C89.4597 32.5193 105.287 38.8589 117.901 42.3544L120.55 43.0925V53.4052C120.55 65.064 120.311 70.7739 119.681 75.0727C116.989 93.4836 106.221 109.441 89.134 120.405C84.1188 123.618 77.3233 126.571 74.9568 126.571C72.5903 126.571 65.7948 123.618 60.7796 120.405C43.6931 109.463 32.9245 93.4836 30.2323 75.0727C29.6027 70.7739 29.3639 65.064 29.3639 53.4052V43.0925L32.4686 42.2458C41.218 39.8359 52.5294 35.6674 62.3645 31.1515C65.4691 29.7403 73.5673 25.6153 74.414 25.0508C74.6529 24.8771 74.8482 24.7468 74.87 24.7468C74.8917 24.7468 76.3246 25.485 78.0398 26.4186Z" fill="#002172"/>
<path d="M74.0665 28.7414C73.6323 28.8934 72.373 29.5013 71.2441 30.1092C62.2775 34.9508 46.7542 41.1818 35.4645 44.5036C34.4224 44.8075 33.6408 45.1983 33.2283 45.5891L32.6204 46.197V58.0078C32.6204 70.7738 32.7506 72.8363 33.8362 78.1555C36.9843 93.3965 46.1463 106.749 60.0847 116.388C63.7538 118.95 69.6375 122.033 72.7204 123.075C75.1303 123.879 76.433 123.618 81.014 121.447C87.6575 118.299 93.9103 113.87 99.3814 108.464C109.499 98.4335 115.339 86.5359 116.967 72.6192C117.228 70.4264 117.293 67.1698 117.293 58.0078V46.197L116.685 45.5891C116.272 45.1766 115.447 44.8075 114.123 44.4167C103.311 41.1818 91.3918 36.4488 80.8186 31.1731C78.1264 29.827 75.6731 28.6763 75.3909 28.5895C75.0869 28.5243 74.5007 28.5895 74.0665 28.7414ZM78.2784 35.081C88.0917 40.0094 98.6215 44.3082 109.108 47.6517L112.951 48.8675V56.2926C112.951 71.1646 112.321 76.4837 109.694 84.126C105.634 95.8933 96.7327 106.662 84.9002 114.109C82.3601 115.694 78.0613 117.886 76.2159 118.516C74.9566 118.95 74.9566 118.95 73.7191 118.516C71.852 117.886 67.5532 115.694 65.013 114.109C53.1806 106.662 44.3008 95.915 40.2192 84.126C37.5922 76.5272 36.9625 71.1646 36.9625 56.3143V48.8892L40.8271 47.6517C51.4654 44.2213 60.8011 40.4436 70.3973 35.6672C72.8507 34.4514 74.8698 33.4527 74.9132 33.4527C74.9349 33.431 76.4547 34.1692 78.2784 35.081Z" fill="#002172"/>
<path d="M73.1113 47.5863C71.9172 47.912 70.1369 49.1278 69.4639 50.1048C68.0744 52.1022 68.1178 51.6463 68.1178 63.0662V73.4874L68.6823 74.6815C69.7027 76.8309 71.3962 78.1336 73.7192 78.5678C76.8673 79.154 79.8417 77.6125 81.2312 74.6815L81.7957 73.4874V63.0662C81.7957 53.5134 81.774 52.5798 81.4049 51.7765C79.8634 48.3679 76.5634 46.6962 73.1113 47.5863ZM75.9338 52.2107C77.2581 52.8404 77.2364 52.7535 77.2364 63.1748C77.2364 72.3802 77.2147 72.7058 76.8022 73.1618C76.5634 73.444 76.0423 73.7914 75.6732 73.9651C75.0653 74.2039 74.8482 74.2039 74.262 73.9651C73.8712 73.7914 73.3502 73.444 73.1113 73.1618C72.6988 72.7058 72.6771 72.3802 72.6771 63.1748C72.6771 52.7969 72.6771 52.8621 73.9581 52.2325C74.8048 51.7982 75.0436 51.7982 75.9338 52.2107Z" fill="#002172"/>
<path d="M73.3284 81.9334C71.9823 82.3676 71.2007 82.8235 70.2454 83.8005C66.8802 87.1657 67.6184 92.8106 71.7435 95.3725C72.7856 96.0238 74.8915 96.458 76.2376 96.2843C83.0331 95.481 85.2042 86.471 79.4508 82.867C77.5186 81.6512 75.3041 81.3038 73.3284 81.9334ZM76.7153 86.5144C78.7344 87.5565 78.6258 90.5309 76.5633 91.5079C75.0652 92.2027 73.2632 91.3125 72.7422 89.6191C72.5033 88.8375 72.5468 88.6421 72.981 87.8171C73.7626 86.3407 75.304 85.7979 76.7153 86.5144Z" fill="#002172"/>
<path d="M54.6789 97.044C53.7888 97.3263 53.2677 97.8691 53.1158 98.7158C52.8335 100.214 53.8322 101.386 55.3954 101.386C57.827 101.386 58.4132 98.0645 56.1336 97.1309C55.7428 96.9572 55.3954 96.8269 55.3737 96.8487C55.3303 96.8487 55.0263 96.9572 54.6789 97.044Z" fill="#002172"/>
<path d="M58.1958 101.972C57.4359 102.797 57.2622 103.709 57.7399 104.578C58.2175 105.425 61.5176 108.16 64.492 110.179C66.4025 111.46 66.8802 111.677 67.6183 111.677C68.6822 111.634 69.4855 110.917 69.6592 109.832C69.8546 108.573 69.4855 108.03 67.2058 106.467C66.0334 105.663 64.2966 104.361 63.3413 103.557C60.888 101.538 60.6491 101.386 59.6504 101.386C58.9557 101.386 58.63 101.517 58.1958 101.972Z" fill="#002172"/>
</svg>
