<svg width="39" height="39" viewBox="0 0 39 39" fill="none" xmlns="http://www.w3.org/2000/svg">
<path d="M7.50849 29.4454C9.19276 28.1631 11.0668 27.1515 13.063 26.4471C15.1286 25.7128 17.3058 25.3418 19.498 25.3504C21.6903 25.3418 23.8674 25.7128 25.933 26.4471C27.9293 27.1515 29.8033 28.1631 31.4876 29.4454C32.6317 28.1014 33.531 26.5669 34.1443 24.9119C34.7837 23.18 35.104 21.3465 35.0898 19.5004C35.1246 17.4462 34.7381 15.4066 33.9541 13.5075C33.1701 11.6084 32.0053 9.89011 30.5315 8.45865C29.1012 6.98623 27.3847 5.82221 25.4875 5.03827C23.5904 4.25434 21.5529 3.8671 19.5004 3.90039C17.4462 3.86564 15.4066 4.2522 13.5075 5.03618C11.6085 5.82016 9.89017 6.98492 8.45867 8.45865C6.98494 9.89015 5.82015 11.6085 5.03618 13.5076C4.2522 15.4066 3.86566 17.4462 3.90041 19.5004C3.88612 21.3465 4.20644 23.18 4.84585 24.9119C5.461 26.5674 6.36225 28.1018 7.50849 29.4454ZM19.5004 21.4504C18.6007 21.4693 17.7067 21.3037 16.8734 20.9641C16.0401 20.6245 15.2851 20.1179 14.6549 19.4756C14.0125 18.8454 13.5059 18.0905 13.1663 17.2572C12.8267 16.4238 12.6612 15.5298 12.6801 14.6302C12.6613 13.7305 12.8268 12.8365 13.1664 12.0032C13.506 11.1699 14.0126 10.4149 14.6549 9.78466C15.2851 9.14231 16.0401 8.63576 16.8734 8.29614C17.7067 7.95651 18.6007 7.79098 19.5004 7.80982C20.4001 7.79098 21.2941 7.95651 22.1274 8.29614C22.9607 8.63576 23.7157 9.14231 24.3459 9.78466C24.9882 10.4149 25.4948 11.1699 25.8344 12.0032C26.174 12.8365 26.3395 13.7305 26.3207 14.6302C26.3396 15.5298 26.1741 16.4238 25.8345 17.2572C25.4949 18.0905 24.9883 18.8454 24.3459 19.4756C23.7157 20.1179 22.9607 20.6245 22.1274 20.9641C21.2941 21.3037 20.4001 21.4693 19.5004 21.4504ZM19.5004 39.0004C16.8867 39.0172 14.2976 38.4942 11.8954 37.4641C9.58465 36.4821 7.48304 35.0672 5.70385 33.2957C3.93239 31.5165 2.51756 29.415 1.53559 27.1042C0.506035 24.7023 -0.0166019 22.1136 0.000401968 19.5004C-0.0163235 16.8867 0.506717 14.2977 1.53677 11.8954C2.51882 9.58472 3.93365 7.48312 5.70504 5.70384C7.4843 3.93243 9.58589 2.51762 11.8966 1.5356C14.2985 0.506075 16.8872 -0.0165696 19.5004 0.000400384C22.1141 -0.0163591 24.7032 0.506664 27.1054 1.53675C29.4161 2.51877 31.5177 3.93365 33.2969 5.70507C35.0683 7.48435 36.4832 9.58588 37.4652 11.8966C38.4947 14.2985 39.0174 16.8872 39.0004 19.5004C39.0172 22.1141 38.4942 24.7032 37.464 27.1054C36.4821 29.4161 35.0672 31.5177 33.2958 33.297C31.5166 35.0685 29.415 36.4833 27.1042 37.4652C24.7023 38.4948 22.1136 39.0174 19.5004 39.0004Z" fill="#002172"/>
</svg>
