<svg width="38" height="38" viewBox="0 0 38 38" fill="none" xmlns="http://www.w3.org/2000/svg">
<path d="M7.31581 28.6898C8.95686 27.4404 10.7828 26.4548 12.7278 25.7685C14.7404 25.053 16.8617 24.6915 18.9977 24.6999C21.1337 24.6915 23.255 25.053 25.2676 25.7685C27.2126 26.4548 29.0385 27.4404 30.6796 28.6898C31.7944 27.3803 32.6705 25.8852 33.2681 24.2727C33.8911 22.5852 34.2032 20.7988 34.1893 19C34.2232 16.9985 33.8467 15.0112 33.0828 13.1609C32.3189 11.3105 31.184 9.63632 29.748 8.24159C28.3545 6.80696 26.6819 5.67281 24.8335 4.90899C22.985 4.14517 20.9998 3.76786 19 3.8003C16.9985 3.76644 15.0112 4.14309 13.1609 4.90695C11.3106 5.67081 9.63638 6.80568 8.24161 8.24159C6.80569 9.63636 5.6708 11.3106 4.90694 13.1609C4.14308 15.0113 3.76646 16.9985 3.80032 19C3.78639 20.7988 4.09849 22.5852 4.7215 24.2727C5.32087 25.8856 6.19899 27.3807 7.31581 28.6898ZM19 20.9C18.1234 20.9183 17.2524 20.7571 16.4404 20.4262C15.6285 20.0952 14.8929 19.6017 14.2789 18.9758C13.653 18.3618 13.1593 17.6262 12.8284 16.8143C12.4975 16.0024 12.3363 15.1313 12.3547 14.2547C12.3364 13.3782 12.4976 12.5071 12.8285 11.6952C13.1594 10.8832 13.653 10.1476 14.2789 9.53358C14.8929 8.90771 15.6285 8.41416 16.4404 8.08325C17.2524 7.75234 18.1234 7.59106 19 7.60941C19.8766 7.59106 20.7476 7.75234 21.5596 8.08325C22.3715 8.41416 23.1071 8.90771 23.7211 9.53358C24.347 10.1476 24.8406 10.8832 25.1715 11.6952C25.5024 12.5071 25.6636 13.3782 25.6453 14.2547C25.6637 15.1313 25.5025 16.0024 25.1716 16.8143C24.8407 17.6262 24.347 18.3618 23.7211 18.9758C23.1071 19.6017 22.3715 20.0952 21.5596 20.4262C20.7476 20.7571 19.8766 20.9183 19 20.9ZM19 37.9996C16.4533 38.016 13.9307 37.5064 11.5902 36.5027C9.3387 35.546 7.29102 34.1674 5.55748 32.4413C3.83148 30.7078 2.45296 28.6601 1.49618 26.4087C0.49305 24.0684 -0.0161759 21.5462 0.000391653 19C-0.0159047 16.4534 0.493714 13.9308 1.49733 11.5902C2.45418 9.33877 3.83271 7.2911 5.55864 5.55747C7.29225 3.83152 9.33991 2.45301 11.5913 1.49619C13.9316 0.493089 16.4538 -0.0161444 19 0.000390109C21.5467 -0.0159393 24.0692 0.493663 26.4098 1.49731C28.6612 2.45414 30.7089 3.83271 32.4425 5.55867C34.1685 7.29229 35.547 9.33989 36.5038 11.5913C37.5069 13.9316 38.0161 16.4538 37.9996 19C38.016 21.5467 37.5063 24.0693 36.5027 26.4098C35.5459 28.6613 34.1674 30.709 32.4414 32.4425C30.7078 34.1686 28.6601 35.5471 26.4087 36.5038C24.0684 37.507 21.5462 38.0162 19 37.9996Z" fill="#002172"/>
</svg>
