<svg width="48" height="48" viewBox="0 0 48 48" fill="none" xmlns="http://www.w3.org/2000/svg">
<path d="M9.24103 36.2397C11.3139 34.6615 13.6204 33.4166 16.0773 32.5496C18.6195 31.6459 21.299 31.1892 23.9971 31.1999C26.6952 31.1892 29.3747 31.6459 31.9169 32.5496C34.3738 33.4166 36.6802 34.6615 38.7531 36.2397C40.1613 34.5856 41.268 32.6971 42.0229 30.6602C42.8098 28.5286 43.2041 26.2721 43.1865 24C43.2294 21.4718 42.7537 18.9615 41.7888 16.6243C40.8239 14.287 39.3903 12.1722 37.5764 10.4104C35.8162 8.59826 33.7035 7.16565 31.3686 6.20083C29.0337 5.236 26.526 4.75941 24 4.80038C21.4718 4.75761 18.9616 5.23338 16.6243 6.19825C14.287 7.16313 12.1723 8.59664 10.4105 10.4104C8.59667 12.1722 7.16312 14.2871 6.19824 16.6244C5.23337 18.9616 4.75764 21.4718 4.8004 24C4.78281 26.2721 5.17705 28.5286 5.96401 30.6602C6.7211 32.6976 7.8303 34.5862 9.24103 36.2397ZM24 26.4C22.8927 26.4232 21.7925 26.2194 20.7669 25.8015C19.7413 25.3835 18.8121 24.76 18.0365 23.9695C17.2459 23.1939 16.6223 22.2647 16.2043 21.2391C15.7863 20.2135 15.5827 19.1132 15.606 18.006C15.5828 16.8987 15.7865 15.7984 16.2045 14.7728C16.6225 13.7472 17.2459 12.818 18.0365 12.0424C18.8121 11.2518 19.7413 10.6284 20.7669 10.2104C21.7925 9.79243 22.8927 9.5887 24 9.61189C25.1073 9.5887 26.2075 9.79243 27.2331 10.2104C28.2587 10.6284 29.1879 11.2518 29.9635 12.0424C30.7541 12.818 31.3775 13.7472 31.7955 14.7728C32.2135 15.7984 32.4172 16.8987 32.394 18.006C32.4173 19.1132 32.2137 20.2135 31.7957 21.2391C31.3777 22.2647 30.7541 23.1939 29.9635 23.9695C29.1879 24.76 28.2587 25.3835 27.2331 25.8015C26.2075 26.2194 25.1073 26.4232 24 26.4ZM24 47.9995C20.7832 48.0202 17.5967 47.3765 14.6402 46.1087C11.7963 44.9002 9.2097 43.1588 7.01998 40.9785C4.83977 38.7888 3.09847 36.2023 1.88992 33.3584C0.6228 30.4022 -0.0204327 27.2162 0.00049472 24C-0.0200901 20.7832 0.623638 17.5967 1.89137 14.6402C3.10002 11.7963 4.84131 9.20981 7.02145 7.01997C9.21126 4.83981 11.7978 3.09855 14.6417 1.88992C17.5978 0.622849 20.7838 -0.0203929 24 0.00049277C27.2168 -0.0201339 30.4033 0.623574 33.3598 1.89135C36.2037 3.09997 38.7902 4.84132 40.98 7.02148C43.1602 9.21131 44.9014 11.7978 46.1101 14.6416C47.3772 17.5978 48.0204 20.7838 47.9995 24C48.0202 27.2168 47.3764 30.4033 46.1086 33.3598C44.9001 36.2037 43.1588 38.7903 40.9786 40.98C38.7888 43.1603 36.2023 44.9016 33.3584 46.1101C30.4022 47.3772 27.2162 48.0205 24 47.9995Z" fill="#002172"/>
</svg>
