<svg width="586" height="134" viewBox="0 0 586 134" fill="none" xmlns="http://www.w3.org/2000/svg">
<path d="M584.772 100.158C583.978 106.847 582.277 113.159 578.082 118.677C572.791 125.594 565.496 128.731 557.408 130.545C554.422 131.225 551.399 131.603 548.337 131.868C542.706 132.359 537.036 132.057 531.367 132.095C520.822 132.17 510.277 132.095 499.732 132.132H499.506C494.63 131.792 489.792 131.301 485.106 129.978C482.082 129.109 479.096 128.126 476.375 126.501C469.95 122.646 465.377 117.203 462.655 110.249C461.219 106.658 460.388 102.879 459.858 99.0615C459.405 95.8867 459.103 92.6741 459.103 89.4615L458.951 88.63C458.725 87.5717 458.951 87.3072 460.047 87.1938C460.501 87.3072 460.917 87.3072 461.37 87.1938H483.858H484.047H484.841L485.106 87.4961V87.9119L485.03 88.3654C484.841 92.1827 485.559 95.8111 487.411 99.1749C489.225 102.425 491.909 104.617 495.462 105.789C497.956 106.621 500.526 106.998 503.134 107.074H503.739C504.948 107.263 506.195 107.112 507.405 107.112C518.063 107.112 528.722 107.112 539.342 107.112H540.098L540.362 107.074C543.499 106.961 546.712 106.923 549.773 106.091C555.745 104.504 558.58 101.065 559.109 94.4127C559.298 92.1071 559.033 89.8772 558.542 87.6851C557.597 83.452 554.649 81.1843 550.643 80.0505C548.186 79.3701 545.616 78.9922 543.084 78.7654C539.984 78.5008 536.885 78.3497 533.786 78.0851C531.065 77.8583 528.381 77.6693 525.66 77.4048C521.087 76.9512 516.476 76.8379 511.94 76.3087C510.391 76.1198 508.803 76.1575 507.254 76.082C505.855 76.0064 504.457 75.8552 503.058 75.704C500.526 75.4016 497.956 75.326 495.386 74.9859C490.624 74.3812 485.899 73.6253 481.288 72.2268C477.018 70.9418 473.087 69.0142 469.647 66.1796C465.452 62.6646 463.033 58.0158 461.559 52.8379C460.577 49.3229 460.236 45.7323 460.01 42.104C459.896 40.1386 459.821 38.1355 459.896 36.2079C460.01 33.6756 460.35 31.1056 460.766 28.6111C461.635 23.5843 463.26 18.8221 466.208 14.6268C469.496 9.90241 473.881 6.53863 479.172 4.30871C483.632 2.41894 488.281 1.36068 493.081 0.755952C494.252 0.642566 495.424 0.52918 496.633 0.415795C496.293 -0.075544 495.84 0.226818 495.537 0.0378418H545.805C545.503 0.377999 545.729 0.491385 546.032 0.52918C547.09 0.680362 548.148 0.869338 549.207 0.755952C551.436 0.982724 553.629 1.39847 555.783 1.92761C561.755 3.36383 567.159 5.9717 571.733 10.0914C576.533 14.4001 579.178 19.9938 580.917 26.041C581.862 29.2914 582.24 32.6552 582.655 35.9812C583.033 38.8914 582.958 41.8016 582.958 44.7119L582.807 44.7875C574.227 44.7875 565.685 44.7875 557.106 44.7875L556.955 44.7119C556.955 44.0693 556.879 43.4646 556.955 42.8221C557.106 39.8363 556.577 36.9638 555.594 34.167C554.271 30.463 551.89 27.8174 548.148 26.4567C544.936 25.2851 541.496 24.9827 538.17 25.0205C525.962 25.0961 513.792 24.5292 501.584 25.3229C499.544 25.4741 497.503 25.5119 495.499 25.9276C489.528 27.0993 486.126 30.8788 485.824 36.6615V36.7371V36.8882C485.521 39.0048 485.597 41.1213 485.937 43.2001C486.655 47.3953 489.225 50.0788 493.307 51.4394C498.485 53.178 503.852 53.178 509.181 53.6693C511.562 53.8961 513.981 54.0473 516.4 54.1985C519.273 54.3497 522.145 54.652 525.018 54.841C527.436 54.9922 529.893 55.1434 532.312 55.4457C533.37 55.5969 534.429 55.4457 535.487 55.6347C537.566 55.9371 539.72 55.9371 541.799 56.2016C543.273 56.3906 544.747 56.315 546.221 56.4662C549.471 56.8442 552.721 57.2599 555.972 57.8268C561.414 58.8095 566.668 60.4347 571.43 63.2693C579.783 68.2583 583.487 76.082 584.545 85.4174C584.621 86.2867 584.696 87.1938 584.734 88.0631L585.074 88.441V96.189C584.696 97.4741 584.696 98.8347 584.696 100.158" fill="black"/>
<path d="M404.488 107.15C407.21 106.998 409.931 106.885 412.577 106.129C417.566 104.693 420.173 101.178 421.307 96.3402C421.95 93.5433 422.025 90.7087 422.063 87.8362C422.441 67.4646 422.139 47.1307 422.214 26.7591C422.252 18.1417 422.214 9.52441 422.252 0.869292V0.0377953H448.331C448.596 1.20945 448.52 2.4189 448.52 3.62835C448.52 31.7858 448.52 59.9811 448.482 88.1386C448.482 91.1244 448.218 94.1103 447.84 97.1339C447.046 103.143 445.421 108.813 442.322 113.991C437.899 121.361 431.663 126.576 423.386 129.298C419.607 130.545 415.751 131.301 411.821 131.868C410.082 132.132 408.344 132.132 406.567 132.132C391.185 132.132 375.84 132.132 360.457 132.132C360.079 132.132 359.701 132.132 359.323 132.132H359.096L358.378 132.095H358.189C354.372 131.906 350.592 131.376 346.888 130.507C339.859 128.806 333.547 125.669 328.52 120.302C325.232 116.787 323.002 112.63 321.225 108.17C319.751 104.504 318.958 100.649 318.353 96.7937C317.824 93.3166 317.71 89.8016 317.71 86.2866C317.71 58.0536 317.71 29.8205 317.71 1.5874C317.71 1.05827 317.597 0.529134 317.521 0H343.6C344.054 29.9339 343.676 59.8299 343.827 89.7638C343.827 92.7118 344.243 95.6221 345.301 98.4189C346.964 102.765 350.139 105.373 354.674 106.318C356.904 106.772 359.134 107.074 361.364 107.112H361.591C363.027 107.339 364.463 107.15 365.937 107.15C378.259 107.15 390.618 107.15 402.939 107.15C403.317 107.15 403.695 107.15 404.073 107.15H404.488Z" fill="black"/>
<path d="M137.654 132.17H137.087L136.936 132.057C136.936 131.717 136.936 131.376 136.936 130.999V0.0378418H163.014C162.561 0.52918 163.014 1.05831 163.014 1.54965C163.014 14.589 163.052 27.5906 163.052 40.63C163.052 70.4505 163.052 100.309 163.052 130.129C163.052 130.734 163.052 131.339 163.052 131.906L162.863 132.095H162.485L162.296 132.132H161.389H161.162C153.414 132.057 145.666 132.057 137.956 132.132H137.767L137.654 132.17Z" fill="black"/>
<path d="M177.943 0.831497C179.418 0.642521 180.892 0.793702 182.366 0.793702C208.406 0.793702 234.447 0.793702 260.488 0.793702C261.055 0.793702 261.622 0.793702 262.189 0.793702C267.896 1.13386 273.301 2.4189 278.366 5.21575C286.907 9.94016 292.501 16.9323 295.222 26.2677C296.394 30.2362 297.036 34.3181 296.772 38.4756C296.394 44.1827 295.336 49.7386 291.821 54.5008C291.405 55.0677 291.254 55.5969 292.01 56.0504C297.641 59.4898 301.534 64.441 304.671 70.1103C307.052 74.4945 308.602 79.1433 309.395 84.0567C309.811 86.6268 310.038 89.1969 309.962 91.8047C309.736 101.14 306.712 109.38 300.854 116.712C297.49 120.945 293.635 124.498 288.91 127.143C284.526 129.6 279.877 131.339 274.888 132.132C272.167 132.586 269.484 132.699 266.725 132.699C237.849 132.699 208.973 132.699 180.098 132.699H179.153L178.888 132.775H178.057L177.641 132.624C177.641 132.208 177.641 131.792 177.641 131.414C177.641 88.441 177.641 45.4677 177.641 2.49449C177.641 1.92756 177.528 1.36063 177.83 0.831497M260.904 48.2268C262.567 48.189 264.117 47.811 265.666 47.1685C271.373 44.7118 273.528 39.4205 272.923 34.7339C272.243 29.4803 267.405 25.2095 262.076 24.7937L261.66 24.7181L260.715 24.6425C241.477 24.6425 222.24 24.6425 203.002 24.6425C202.208 24.6425 201.906 24.8315 201.906 25.7008C201.943 32.8441 201.943 39.9874 201.906 47.1307C201.906 48.0378 202.208 48.3402 203.04 48.2646H203.833C204.438 48.2646 205.043 48.3024 205.61 48.3024C221.899 48.3024 238.227 48.3024 254.517 48.3024C256.52 48.3024 258.485 48.3024 260.451 48.2646H260.866L260.904 48.2268ZM285.849 92.4473L285.925 92.0315C286 90.8977 286.038 89.7638 285.849 88.6299V88.252C285.433 85.6063 284.64 83.1496 283.203 80.8819C279.688 75.3638 274.548 72.6425 268.085 72.1512H267.858C267.178 71.9622 266.498 72 265.78 72C245.975 72 226.17 72 206.328 72C205.043 72 203.758 72 202.473 72.0378L202.057 72.1512C201.755 72.4536 201.906 72.8693 201.906 73.2095C201.906 83.3764 201.906 93.5433 201.906 103.71C201.906 104.882 201.717 106.091 201.679 107.263C201.679 108.472 202.019 108.85 203.229 108.813C207.499 108.661 211.77 108.661 216.079 108.775H216.306L217.137 108.813C231.084 108.813 245.03 108.813 258.977 108.813C261.736 108.813 264.495 108.699 267.292 108.661H267.707C269.635 108.699 271.449 108.132 273.263 107.528C276.627 106.394 279.499 104.542 281.729 101.783C283.959 99.0236 285.471 96 285.887 92.4473" fill="black"/>
<path d="M0.0788996 93.0142C0.267876 91.5024 -0.0344862 89.9906 0.00330905 88.5166C3.82063 88.5166 7.63796 88.5166 11.4175 88.5166C15.8017 88.5166 20.186 88.5166 24.5702 88.5166C25.4773 88.5166 25.7041 88.7811 25.6663 89.6504C25.5151 92.6362 25.9309 95.5087 27.0269 98.3055C29.1057 103.559 32.9608 106.658 38.4411 107.792C40.3309 108.17 42.2206 108.397 44.1482 108.397C57.3765 108.397 70.6049 108.397 83.8332 108.359C87.0836 108.359 90.2962 107.792 93.3577 106.432C96.5703 104.995 98.46 102.539 99.2915 99.2126C100.047 96.189 100.085 93.0898 99.4805 89.9906C98.6112 85.4173 95.8521 82.7339 91.5057 81.4866C89.0112 80.7685 86.4411 80.3528 83.8332 80.2016C81.4521 80.0504 79.1088 79.7103 76.7277 79.5213C75.4049 79.4079 74.0443 79.3701 72.6836 79.2945C70.9451 79.2189 69.2443 79.0299 67.5435 78.841C65.7293 78.652 63.9151 78.6142 62.101 78.5386C60.438 78.463 58.8128 78.274 57.1876 78.0851C55.638 77.8961 54.0506 77.8961 52.501 77.7827C50.6112 77.6693 48.7214 77.4803 46.8317 77.2158C45.66 77.0646 44.4506 77.1024 43.2789 77.0268C40.9734 76.9134 38.7057 76.6488 36.4002 76.3843C32.4317 75.9685 28.5387 75.326 24.6836 74.3055C20.2616 73.1717 15.9529 71.6221 12.2112 68.9008C7.82693 65.726 4.80331 61.5307 2.98914 56.4284C1.40173 51.9685 0.910396 47.3575 0.683624 42.6709C0.532443 39.8362 0.683624 37.0394 0.910396 34.2425C1.59071 26.3811 3.74504 19.0488 9.14977 13.0394C13.0427 8.69292 17.9561 6.00945 23.4364 4.23307C26.649 3.2126 29.9372 2.53228 33.2632 2.07874C35.2285 1.81417 37.1939 1.70079 39.1592 1.5874C52.5765 0.869292 66.0317 1.43622 79.449 1.28504C82.1702 1.28504 84.8537 1.6252 87.575 1.81417C91.5813 2.04095 95.512 2.75906 99.2915 3.96851C109.118 7.10551 116.337 13.1528 120.155 22.9417C121.288 25.8898 122.233 28.8756 122.687 31.9748C123.103 34.5071 123.405 37.0016 123.556 39.5717C123.707 41.6882 123.669 43.7669 123.707 45.8457L123.518 46.0347H123.14L122.951 46.0725H122.006H121.78C114.485 46.0347 107.191 45.9969 99.8584 46.0725H98.649C97.7041 46.2992 97.4773 45.8835 97.5529 45.0142C97.7797 42.2929 97.4017 39.6473 96.7592 37.0394C95.2096 30.9543 91.2411 27.5906 84.7781 26.7213C82.964 26.4945 81.1498 26.3811 79.3356 26.3811C67.1277 26.3811 54.9199 26.3811 42.712 26.3811C42.2962 26.3811 41.9183 26.4189 41.5025 26.4567H41.2758C38.8947 26.6079 36.5891 26.9858 34.3214 27.6661C30.0506 28.9512 27.5939 31.8614 26.7624 36.2079C26.3466 38.4 26.1576 40.5921 26.4222 42.7843C27.0647 48.1134 29.1435 51.5528 35.9088 53.178C39.7262 54.0851 43.6191 54.3874 47.512 54.652C50.9513 54.8787 54.4285 55.1433 57.8679 55.4079C60.3246 55.5969 62.7813 55.7858 65.238 56.0126C67.9214 56.2772 70.6427 56.3528 73.364 56.6551C75.3671 56.8819 77.4081 56.9953 79.449 57.1087C82.2836 57.2977 85.1183 57.6 87.9529 57.8268C91.8081 58.1291 95.6254 58.7339 99.3671 59.5654C106.17 61.0772 112.482 63.6095 117.509 68.6362C121.326 72.4536 123.48 77.2158 124.614 82.4693C125.219 85.2662 125.635 88.1008 125.635 91.011C125.635 91.8047 125.824 92.5984 125.824 93.4299C125.748 96.9449 125.559 100.46 125.106 103.975C124.463 109.002 122.951 113.688 120.23 117.883C117.093 122.721 112.86 126.387 107.493 128.731C103.336 130.583 99.0269 131.679 94.6049 132.472C92.0726 132.926 89.5025 133.039 86.9325 133.077C84.8159 133.077 82.6616 132.926 80.5451 133.191C79.3734 133.342 78.164 133.191 76.9545 133.191C66.5608 133.191 56.1671 133.228 45.7734 133.191C43.1655 133.191 40.5576 132.964 37.9498 133.077C31.5246 132.661 25.2884 131.641 19.4301 128.882C15.3104 126.917 11.4931 124.422 8.69622 120.756C5.21906 116.183 2.68677 111.08 1.47732 105.373C0.608034 101.291 0.00330906 97.2095 0.116695 93.0142" fill="black"/>
</svg>
