<?xml version="1.0" encoding="UTF-8"?>
<svg id="Capa_1" data-name="Capa 1" xmlns="http://www.w3.org/2000/svg" viewBox="0 0 740 184">
  <defs>
    <style>
      .cls-1 {
        fill: #ffff01;
      }

      .cls-1, .cls-2 {
        stroke-width: 0px;
      }

      .cls-2 {
        fill: #038219;
      }
    </style>
  </defs>
  <path class="cls-1" d="M316.62,136.33h33.37l2.8-2.58,1.29-6.46,2.58-3.87,5.17,10.33,18.08,9.04,23.25-5.17,3.87-2.58,1.29-3.87,6.46-5.17h6.46l2.58,6.46,41.33,3.87,15.5-1.29,3.87-2.58,5.17-3.87,3.87-6.46,5.17-3.87-2.58,20.66h24.54l10.33-2.58,2.58-6.46,2.57-9.93,1.3-4.28,2.58-6.46,3.87-5.17,15.5-6.46,5.16-1.2,14.22-1.38,3.87,2.58-2.58,9.04-5.17,21.96,2.58,10.33,15.5,1.29h14.21l3.87-2.58,5.17-1.29h1.29l3.87-12.92s12.32,10.84,11.97,11.23,46.15,6.85,46.15,6.85l11.62-2.58,7.75-3.87,6.46-19.37v-2.19l-3.87-.39-4.52-3.23,11.62-5.17,3.87-20.66,2.58-11.62-1.18-4.74-3.99-3.01-3.87-1.29h-45.2l-11.62,6.46-10.33,12.92-6.06,3.43-1.69-.84,6.05-20.18-2.31-1.26-7.61.78,5.17-25.83h-31.79l-9.54,10.33-3.87,14.21-5.71,2.99-8.5,8.63-2.58-2.58,1.29-7.75s-12.92,2.58-15.5,3.87l-7.75,6.46,2.58-10.33-31.27-.24-11.36,10.57h-1.29l-1.29-6.46-5.17-5.17-46.5-1.29s-16.79,0-25.83,16.79l-7.75,3.87,2.58-7.75,9.24-36.16h-35.07l-11.62,18.08-3.87-5.17-2.74-12.92h-36s-10.33,9.04-10.33,9.04l-16.79,89.12.65-.65Z"/>
  <polygon class="cls-1" points="233.96 74.33 227.1 95.52 224.92 107.91 223.63 118.24 217.75 140.2 266.89 136.97 277.36 134.64 281.75 131.16 284.33 125.99 288.2 114.37 289.56 107.27 292.08 100.16 289.5 96.29 286.91 93.7 284.33 92.41 281.75 89.83 286.91 87.25 288.2 85.96 290.79 83.37 294.66 64 246.73 64 235.25 70.46 233.96 74.33"/>
  <polygon class="cls-1" points="54.43 39.46 28.6 135.03 29.89 140.2 98.99 138.26 111.93 134.28 117.07 130.51 118.37 127.93 119.66 125.35 127.41 95.64 120.95 89.18 115.36 87.37 122.24 85.31 129.99 81.44 135.16 68.52 136.45 62.06 139.03 55.6 140.32 45.27 137.74 41.4 135.16 40.11 122.24 38.81 110.62 38.81 54.43 39.46"/>
  <polygon class="cls-1" points="152.59 65.29 182.91 65.29 170.67 111.79 182.17 112.04 197.15 64.64 227.1 65.5 208.77 135.68 162.28 136.97 137.15 136.97 133.86 127.93 135.16 113.72 144.2 89.18 152.59 65.29"/>
  <g>
    <path class="cls-2" d="M141.39,50.43c-.65,2.35-1.22,4.54-1.7,6.56-.49,2.03-.99,4.05-1.52,6.08-.53,2.03-1.09,4.11-1.7,6.26-.61,2.15-1.32,4.56-2.13,7.23-.65,2.03-1.78,3.85-3.4,5.47-1.62,1.62-3.52,3.08-5.71,4.37-.41.24-.99.47-1.76.67-.77.2-1.28.47-1.52.79.89.57,1.8,1.21,2.73,1.94.93.73,1.72,1.54,2.37,2.43.65.89,1.13,1.84,1.46,2.86.32,1.01.32,2.13,0,3.34-1.3,4.7-2.59,9.5-3.89,14.4-1.3,4.9-2.43,9.1-3.4,12.58-.65,2.19-1.94,4.15-3.89,5.89-1.94,1.74-4.21,3.71-6.81,5.89-1.22.97-2.51,1.98-3.89,3.04-1.38,1.05-2.88,1.98-4.5,2.79-1.62.81-3.4,1.48-5.35,2.01-1.94.53-4.05.79-6.32.79H17.07l26.74-99.89,10.82-8.51h74.49c2.02,0,3.91.26,5.65.79,1.74.53,3.2,1.34,4.37,2.43,1.17,1.09,1.98,2.45,2.43,4.07.44,1.62.38,3.52-.18,5.71ZM138.23,50.43c.81-3.08.26-5.51-1.64-7.29-1.9-1.78-4.68-2.67-8.32-2.67H56.69l-25.15,93.81h70.36c2.35,0,4.48-.28,6.38-.85,1.9-.57,3.54-1.29,4.92-2.19,1.38-.89,2.47-1.84,3.28-2.86.81-1.01,1.34-2.01,1.58-2.98.97-3.48,2.11-7.67,3.4-12.58,1.29-4.9,2.59-9.7,3.89-14.4.4-1.54.1-2.92-.91-4.13-1.01-1.21-2.33-2.31-3.95-3.28-1.62-.97-3.38-1.8-5.29-2.49-1.9-.69-3.54-1.23-4.92-1.64,1.62-.4,3.52-.93,5.71-1.58,2.19-.65,4.35-1.4,6.5-2.25,2.15-.85,4.03-1.84,5.65-2.98,1.62-1.13,2.63-2.35,3.04-3.65.81-2.67,1.52-5.08,2.13-7.23.61-2.15,1.17-4.23,1.7-6.26.53-2.02,1.03-4.03,1.52-6.02.49-1.98,1.05-4.15,1.7-6.5ZM90.47,112.28h-20.54l4.5-16.89h20.54l-4.5,16.89ZM74.43,106.93l-.73,2.31h5.95l.61-2.31h-5.83ZM99.22,79.59h-20.54l4.5-16.89h20.54l-4.5,16.89ZM83.18,74.24l-.73,2.31h5.95l.73-2.31h-5.96Z"/>
    <path class="cls-2" d="M210.17,137.8l-10.82,8.51h-34.51l1.46-5.1-6.2,5.1h-19.56c-6.4,0-10.98-1.62-13.73-4.86-2.75-3.24-3.44-7.53-2.07-12.88l15.31-56.99,10.69-8.51h34.88l-12.64,47.39h1.46l10.45-38.89,10.82-8.51h34.51l-20.05,74.74ZM197.9,66.1l-12.64,47.39h-16.16l12.76-47.39h-28.8l-14.46,53.96c-1.14,4.38-.61,7.92,1.58,10.63,2.19,2.72,6.2,4.07,12.03,4.07h18.23l11.67-9.72-2.55,9.72h28.44l18.35-68.66h-28.44Z"/>
    <path class="cls-2" d="M290.37,87.37l-4.98,3.89c2.59.89,4.58,2.37,5.96,4.44,1.38,2.07,1.62,4.72.73,7.96-1.05,3.81-2.05,7.43-2.98,10.88-.93,3.44-1.88,6.99-2.86,10.63-.73,2.84-2.07,5.21-4.01,7.11-1.94,1.9-4.34,3.91-7.17,6.02-1.22.89-2.39,1.8-3.52,2.73-1.14.93-2.35,1.78-3.65,2.55-1.3.77-2.65,1.4-4.07,1.88-1.42.49-3.06.73-4.92.73h-51.28l6.93-25.64,5.95-4.62c-1.94-.89-3.4-2.21-4.37-3.95-.97-1.74-1.09-3.91-.36-6.5.57-2.11,1.14-4.19,1.7-6.26.57-2.07,1.11-4.05,1.64-5.95.53-1.9.99-3.66,1.4-5.29.41-1.62.77-3,1.09-4.13.65-2.59,2.04-4.86,4.19-6.8,2.15-1.94,4.48-3.97,6.99-6.08,2.59-2.11,5.41-4.05,8.45-5.83,3.04-1.78,6.58-2.67,10.63-2.67h45.21l-6.68,24.91ZM251,65.5c-4.13,0-7.59,1.01-10.39,3.04-2.79,2.03-4.56,4.3-5.29,6.81-.65,2.27-1.48,5.41-2.49,9.42-1.01,4.01-2.09,8.08-3.22,12.21-.73,2.67-.2,4.82,1.58,6.44,1.78,1.62,4.33,2.43,7.66,2.43h19.57l-2.43,9.24h-28.44l-5.35,19.56h48.37c3.56,0,6.4-.93,8.51-2.79,2.11-1.86,3.48-4.09,4.13-6.68.97-3.65,1.92-7.19,2.86-10.63.93-3.44,1.92-7.07,2.98-10.88.4-1.54.44-2.93.12-4.19-.32-1.25-.95-2.35-1.88-3.28-.93-.93-2.15-1.64-3.65-2.13-1.5-.49-3.18-.73-5.04-.73h-19.81l2.31-8.99h26.98l5.1-18.84h-42.17Z"/>
    <path class="cls-2" d="M407.39,137.68l-10.69,8.51h-36.82l-4.86-16.77-2.19,8.26-10.82,8.51h-36.94l26.73-100.26,10.82-8.51h37.92l3.16,15.19,1.82-6.68,10.82-8.51h37.92l-26.86,100.26ZM398.52,40.46l-11.67,43.38-9.11-43.38h-32.81l-25.28,94.18h30.87l10.94-40.59,11.79,40.59h31.96l25.28-94.18h-31.96Z"/>
    <path class="cls-2" d="M507.33,74.37c-.32,1.21-.81,2.98-1.46,5.29-.65,2.31-1.38,4.94-2.19,7.9-.81,2.96-1.66,6.1-2.55,9.42-.89,3.32-1.76,6.58-2.61,9.78-.85,3.2-1.64,6.2-2.37,8.99s-1.34,5.16-1.82,7.11c-.65,2.59-2.03,4.9-4.13,6.93-2.11,2.03-4.5,4.09-7.17,6.2-2.43,1.94-5,3.79-7.72,5.53-2.71,1.74-5.85,2.61-9.42,2.61h-44.23c-1.78,0-3.56-.26-5.35-.79-1.78-.53-3.34-1.32-4.68-2.37-1.34-1.05-2.31-2.35-2.92-3.89-.61-1.54-.63-3.28-.06-5.23.73-2.67,1.66-6.14,2.79-10.39,1.14-4.25,2.35-8.73,3.65-13.43,1.3-4.7,2.53-9.36,3.71-13.97,1.18-4.62,2.21-8.59,3.1-11.91.49-1.86,1.76-3.79,3.83-5.77,2.07-1.98,4.39-4.03,6.99-6.14,1.13-.89,2.41-1.86,3.83-2.92,1.42-1.05,2.96-2.02,4.62-2.92,1.66-.89,3.42-1.62,5.29-2.19,1.86-.57,3.81-.85,5.83-.85h42.9c2.11,0,4.03.29,5.77.85,1.74.57,3.18,1.4,4.31,2.49,1.13,1.09,1.9,2.45,2.31,4.07.4,1.62.32,3.48-.24,5.59ZM504.3,74.37c.89-3,.4-5.41-1.46-7.23-1.86-1.82-4.66-2.73-8.38-2.73h-43.02c-2.03,0-3.95.32-5.77.97-1.82.65-3.44,1.46-4.86,2.43-1.42.97-2.55,1.99-3.4,3.04-.85,1.05-1.4,1.99-1.64,2.79-.89,3.32-1.94,7.29-3.16,11.91-1.22,4.62-2.45,9.28-3.71,13.97-1.26,4.7-2.47,9.17-3.65,13.43-1.18,4.25-2.13,7.72-2.86,10.39-.32,1.3-.26,2.49.18,3.58.44,1.09,1.17,2.07,2.19,2.92,1.01.85,2.25,1.52,3.71,2,1.46.49,3.04.73,4.74.73h44.23c1.78,0,3.44-.28,4.98-.85,1.54-.57,2.92-1.3,4.13-2.19,1.22-.89,2.23-1.9,3.04-3.04.81-1.13,1.38-2.31,1.7-3.52.49-1.94,1.09-4.31,1.82-7.11.73-2.79,1.52-5.79,2.37-8.99.85-3.2,1.74-6.48,2.67-9.84.93-3.36,1.78-6.52,2.55-9.48.77-2.96,1.48-5.59,2.13-7.9.65-2.31,1.13-4.07,1.46-5.29ZM468.57,111.31h-15.8l8.38-31.35h15.8l-8.38,31.35ZM461.03,91.51l-4.5,16.77h1.34l4.5-16.77h-1.34Z"/>
    <path class="cls-2" d="M564.73,97.58l-10.82,8.38c-2.35.08-4.56.36-6.62.85s-3.95,1.05-5.65,1.7c-.65,1.21-1.09,2.31-1.34,3.28l-6.93,25.89-10.82,8.51h-34.63l19.93-74.37,10.69-8.51h34.63l-1.94,7.53c1.46-1.13,2.92-2.13,4.37-2.98,1.46-.85,3.08-1.58,4.86-2.19,1.78-.61,3.75-1.07,5.89-1.4,2.15-.32,4.64-.57,7.47-.73l-9.11,34.03ZM563.33,67.8c-1.9.49-3.75,1.22-5.53,2.19-1.78.97-3.63,2.23-5.53,3.77-1.9,1.54-4.03,3.44-6.38,5.71l3.52-13.12h-28.56l-18.35,68.3h28.56l6.2-22.85c.57-2.11,1.56-4.13,2.98-6.08,1.42-1.94,3.22-3.71,5.41-5.29,2.19-1.58,4.7-2.88,7.53-3.89,2.83-1.01,5.91-1.64,9.24-1.88l7.41-27.95c-2.43.24-4.6.61-6.5,1.09Z"/>
    <path class="cls-2" d="M632.02,90.16l-10.82,8.51h-2.31l-2.55,9.48h10.82l-7.78,29.41-10.82,8.51h-28.68c-2.43,0-4.64-.41-6.62-1.22-1.98-.81-3.62-2.03-4.92-3.65-1.29-1.62-2.11-3.65-2.43-6.08-.32-2.43-.04-5.3.85-8.63.41-1.62.97-3.72,1.7-6.32.73-2.59,1.46-5.29,2.19-8.08.73-2.79,1.42-5.43,2.07-7.9.65-2.47,1.14-4.31,1.46-5.53h-10.21l7.29-27.22,10.82-8.51h1.7l4.62-17.01,10.69-8.51h36.21l-6.93,25.52h10.94l-7.29,27.22ZM624.61,65.98l6.81-25.52h-30.02l-6.93,25.52h-10.21l-5.59,21.15h10.21c-1.22,4.46-2.35,8.67-3.4,12.64-.89,3.4-1.78,6.83-2.67,10.27-.89,3.44-1.62,6.1-2.19,7.96-.81,2.84-1.08,5.31-.79,7.41.28,2.11.95,3.83,2.01,5.16,1.05,1.34,2.41,2.33,4.07,2.98,1.66.65,3.5.97,5.53.97h25.64l6.32-23.33h-10.94l6.44-24.06h10.94l5.59-21.15h-10.82Z"/>
    <path class="cls-2" d="M708.38,107.06l-5.95,4.62h4.74l-6.93,25.88-10.82,8.51h-53.96c-2.92,0-5.39-.57-7.41-1.7-2.02-1.14-3.6-2.55-4.74-4.25-1.13-1.7-1.84-3.57-2.13-5.59-.28-2.02-.18-3.97.3-5.83.65-2.59,1.52-5.91,2.61-9.97,1.09-4.05,2.21-8.18,3.34-12.39,1.14-4.21,2.19-8.16,3.16-11.85.97-3.69,1.7-6.46,2.19-8.32.24-.97.79-2.13,1.64-3.46s1.88-2.71,3.1-4.13c1.22-1.42,2.57-2.84,4.07-4.25,1.5-1.42,3.02-2.65,4.56-3.71,1.22-.89,2.51-1.82,3.89-2.79,1.38-.97,2.77-1.88,4.19-2.73,1.42-.85,2.87-1.56,4.37-2.13,1.5-.57,3.02-.85,4.56-.85h43.14c1.94,0,3.66.41,5.16,1.21,1.5.81,2.71,1.9,3.65,3.28.93,1.38,1.52,2.98,1.76,4.8.24,1.82.08,3.75-.49,5.77l-8.02,29.89ZM713.79,72.54c-.2-1.46-.67-2.73-1.4-3.83-.73-1.09-1.7-1.96-2.92-2.61-1.22-.65-2.55-.97-4.01-.97h-43.14c-1.7,0-3.42.47-5.16,1.4-1.74.93-3.34,2.07-4.8,3.4s-2.72,2.72-3.77,4.13c-1.05,1.42-1.7,2.61-1.94,3.58-.49,1.87-1.22,4.64-2.19,8.32-.97,3.69-2.03,7.64-3.16,11.85-1.14,4.21-2.25,8.35-3.34,12.4-1.09,4.05-2,7.37-2.73,9.96-.41,1.46-.49,3.04-.24,4.74.24,1.7.85,3.26,1.82,4.68.97,1.42,2.31,2.59,4.01,3.52,1.7.93,3.81,1.4,6.32,1.4l50.92.12,5.23-19.93h-37.67l2.92-10.69h37.67l7.17-26.86c.49-1.62.63-3.16.43-4.62ZM686.63,92.47h-15.07l2.43-8.99h15.07l-2.43,8.99Z"/>
  </g>
</svg>