<svg width="400" height="100" viewBox="0 0 400 100" fill="none" xmlns="http://www.w3.org/2000/svg">
<path d="M205.296 37.1812L197.849 63.0217H187.678L196.291 25.9979H204.913V29.3508C207.675 26.9487 211.514 25.2207 216.027 25.2207C220.203 25.2207 223.369 26.4924 224.986 29.813C227.478 27.1283 231.183 25.2207 235.898 25.2207C242.903 25.2207 246.406 29.2478 246.406 37.4432L242.432 63.0217H232.261L236.235 39.1388C236.235 35.677 235.224 33.84 232.261 33.84C230.375 33.84 229.179 33.6575 227.613 35.2236C227.034 35.8022 226.535 36.9487 226.535 37.3019L219.488 63.0217H209.317L216.364 39.1388C217.042 36.0066 214.301 33.84 212.457 33.84C210.369 33.84 208.037 33.266 205.296 37.1812Z" fill="#B3382A"/>
<path d="M190.028 17.6879C190.028 21.256 188.04 23.3122 184.547 23.3122C181.114 23.3122 179.065 21.256 179.065 17.6879C179.065 14.1803 181.114 12.2451 184.547 12.2451C188.04 12.2451 190.028 14.1803 190.028 17.6879ZM167.71 76.3331C164.457 76.3331 162.078 75.8176 160.934 75.0314V68.1112C163.012 68.8942 163.862 69.2722 165.752 68.8942C167.71 68.5027 169.276 67.3282 170.451 63.0214L177.799 27.1229H186.111L178.281 64.6901C176.534 71.5112 174.335 76.3331 167.71 76.3331Z" fill="#B3382A"/>
<path d="M160.05 35.2042L160.05 35.2042L160.05 35.1997C160.098 34.9679 160.258 34.7412 160.588 34.5283C160.905 34.3294 161.415 34.2126 162.155 34.2126C163.046 34.2126 163.532 34.4421 163.749 34.7982C163.861 34.9979 163.914 35.2943 163.876 35.7141L163.851 35.9867H164.125H167.612H167.834L167.86 35.7653C168.052 34.0907 167.691 32.8335 166.683 32.0972C165.718 31.3849 164.374 31.0454 162.681 31.0454C160.884 31.0454 159.371 31.5017 158.161 32.4306C156.971 33.3418 156.227 34.4469 155.952 35.7453C155.714 36.8315 155.846 37.7258 156.426 38.363C156.976 38.9837 158 39.4674 159.436 39.8448L159.436 39.8448L159.439 39.8455C160.432 40.0939 161.21 40.3047 161.772 40.4781C162.054 40.5649 162.279 40.6414 162.449 40.7077C162.624 40.7762 162.724 40.8271 162.768 40.8586C162.873 40.9339 162.935 41.0185 162.967 41.1124C163 41.2085 163.008 41.3331 162.975 41.496C162.905 41.8119 162.699 42.0607 162.308 42.2384C161.902 42.423 161.374 42.5219 160.711 42.5219C160.142 42.5219 159.691 42.4648 159.351 42.3588C159.011 42.2529 158.798 42.1038 158.677 41.9309L158.677 41.9308L158.672 41.9245C158.535 41.7419 158.457 41.3833 158.513 40.776L158.538 40.5031H158.264H154.728H154.525L154.483 40.7021C154.185 42.136 154.455 43.3516 155.326 44.3103L155.326 44.3103L155.328 44.312C156.216 45.2713 157.762 45.7136 159.879 45.7136C161.965 45.7136 163.63 45.292 164.845 44.4186L164.846 44.418C166.051 43.544 166.81 42.4114 167.11 41.0261L167.11 41.025C167.334 39.9631 167.161 39.0457 166.557 38.307L166.557 38.3069L166.555 38.3044C165.952 37.5861 164.959 37.0743 163.622 36.7421L163.622 36.742L163.618 36.7411C162.628 36.5131 161.852 36.3194 161.287 36.1599C161.004 36.0801 160.777 36.0096 160.603 35.9483C160.425 35.8854 160.319 35.8374 160.268 35.8058L160.268 35.8057L160.261 35.8018C160.148 35.7361 160.086 35.6604 160.055 35.5775C160.022 35.4912 160.012 35.3713 160.05 35.2042Z" fill="#B3382A" stroke="#B3382A" stroke-width="0.5"/>
<path d="M149.393 40.8456H149.264L149.189 40.9511C148.922 41.3282 148.657 41.6137 148.397 41.8146C147.905 42.187 147.331 42.375 146.665 42.375C146.029 42.375 145.548 42.2185 145.196 41.93L145.196 41.93L145.193 41.9277C144.654 41.499 144.418 40.743 144.59 39.5593H153.504H153.704L153.748 39.3646C154.009 38.2122 154.16 37.3153 154.194 36.6819C154.269 35.6068 154.123 34.6478 153.745 33.8129C153.341 32.8679 152.707 32.1661 151.845 31.7218C151.003 31.2836 150.007 31.0698 148.867 31.0698C146.939 31.0698 145.229 31.7076 143.749 32.9776L143.749 32.978C142.27 34.2536 141.29 36.0773 140.792 38.4255L140.792 38.4255C140.264 40.9163 140.516 42.8022 141.665 43.9859L141.665 43.9866C142.786 45.1332 144.236 45.7013 145.992 45.7013C148.105 45.7013 149.903 45.0328 151.372 43.6911C152.295 42.8591 152.912 42.021 153.191 41.1739L153.299 40.8456H152.954H149.393ZM149.776 35.0766L149.776 35.0767L149.779 35.0802C150.092 35.443 150.234 35.9873 150.152 36.7591H145.311C145.583 36.0829 145.941 35.5451 146.381 35.1377C146.886 34.6778 147.505 34.4451 148.255 34.4451C148.939 34.4451 149.433 34.6634 149.776 35.0766Z" fill="#B3382A" stroke="#B3382A" stroke-width="0.5"/>
<path d="M132.154 35.2042L132.154 35.2042L132.155 35.1997C132.203 34.9679 132.363 34.7412 132.693 34.5283C133.009 34.3294 133.519 34.2126 134.259 34.2126C135.151 34.2126 135.637 34.4421 135.854 34.7982C135.965 34.9979 136.018 35.2943 135.98 35.7141L135.955 35.9867H136.229H139.716H139.939L139.964 35.7653C140.157 34.0907 139.796 32.8335 138.787 32.0972C137.823 31.3849 136.478 31.0454 134.785 31.0454C132.988 31.0454 131.476 31.5017 130.265 32.4306C129.076 33.3418 128.332 34.4469 128.056 35.7453C127.819 36.8315 127.951 37.7258 128.531 38.363C129.08 38.9837 130.105 39.4674 131.541 39.8448L131.541 39.8448L131.544 39.8455C132.537 40.0939 133.314 40.3047 133.877 40.4781C134.158 40.5649 134.383 40.6414 134.553 40.7077C134.729 40.7762 134.828 40.8271 134.872 40.8586C134.978 40.9339 135.04 41.0185 135.072 41.1124C135.105 41.2085 135.113 41.3331 135.079 41.496C135.009 41.8119 134.804 42.0607 134.413 42.2384C134.007 42.423 133.478 42.5219 132.815 42.5219C132.246 42.5219 131.796 42.4648 131.455 42.3588C131.115 42.2529 130.902 42.1038 130.781 41.9309L130.781 41.9308L130.776 41.9245C130.64 41.7419 130.561 41.3833 130.617 40.776L130.643 40.5031H130.368H126.833H126.629L126.588 40.7021C126.289 42.136 126.56 43.3516 127.431 44.3103L127.431 44.3103L127.432 44.312C128.32 45.2713 129.866 45.7136 131.983 45.7136C134.069 45.7136 135.734 45.292 136.95 44.4186L136.951 44.418C138.156 43.544 138.915 42.4114 139.214 41.0261L139.214 41.025C139.439 39.9631 139.265 39.0457 138.662 38.307L138.662 38.3069L138.66 38.3044C138.057 37.5861 137.064 37.0743 135.727 36.7421L135.727 36.742L135.722 36.7411C134.733 36.5131 133.956 36.3194 133.391 36.1599C133.108 36.0801 132.881 36.0096 132.708 35.9483C132.529 35.8854 132.423 35.8374 132.372 35.8058L132.372 35.8057L132.366 35.8018C132.252 35.7361 132.191 35.6604 132.159 35.5775C132.126 35.4912 132.116 35.3713 132.154 35.2042Z" fill="#B3382A" stroke="#B3382A" stroke-width="0.5"/>
<path d="M119.64 44.2331C119.749 44.1531 119.854 44.0671 119.953 43.9752L119.748 44.9601L119.686 45.261H119.993H123.382H123.585L123.627 45.0628L126.453 31.7266L126.517 31.4248H126.208H122.672H122.47L122.428 31.6228L120.886 38.8782L120.886 38.8789C120.711 39.7156 120.459 40.3722 120.139 40.8598C119.543 41.75 118.705 42.1916 117.595 42.1916C117.157 42.1916 116.838 42.1114 116.616 41.9748C116.4 41.8425 116.257 41.6458 116.186 41.3648L116.185 41.3643C116.103 41.0395 116.124 40.5162 116.286 39.7658L116.286 39.765L117.986 31.7266L118.05 31.4248H117.742H114.169H113.967L113.925 31.6231L112.224 39.6609C112.224 39.661 112.224 39.6611 112.224 39.6612C111.896 41.1957 111.828 42.3984 112.056 43.2411C112.263 44.0082 112.691 44.5961 113.34 44.9866C113.981 45.3729 114.819 45.5546 115.833 45.5546C116.54 45.5546 117.182 45.4621 117.758 45.2731C118.347 45.0826 118.974 44.7323 119.64 44.2331Z" fill="#B3382A" stroke="#B3382A" stroke-width="0.5"/>
<path d="M102.351 32.6479L103.537 27.0528L103.601 26.751H103.292H99.8173H99.6148L99.5728 26.9491L95.7554 44.9591L95.6915 45.2609H96H99.4136H99.6162L99.6582 45.0627L99.875 44.0382C100.111 44.4122 100.358 44.7039 100.62 44.9035C101.252 45.391 102.151 45.6157 103.28 45.6157C105.107 45.6157 106.681 44.9024 107.99 43.493C109.297 42.0933 110.172 40.3335 110.621 38.2235L110.621 38.2235C111.052 36.1893 110.907 34.4893 110.141 33.1536C109.368 31.7941 108.038 31.1311 106.216 31.1311C105.211 31.1311 104.328 31.3422 103.574 31.7745C103.156 32.0008 102.749 32.2925 102.351 32.6479ZM106.4 38.4859L106.4 38.4863C106.154 39.6364 105.718 40.548 105.1 41.2345C104.491 41.9129 103.781 42.2405 102.962 42.2405C102.473 42.2405 102.084 42.1518 101.784 41.9892C101.487 41.8286 101.263 41.5888 101.109 41.26C100.796 40.5752 100.742 39.6888 100.979 38.5788L100.98 38.5778C101.18 37.6257 101.461 36.8641 101.816 36.2843C102.492 35.2016 103.406 34.6776 104.577 34.6776C105.163 34.6776 105.597 34.8152 105.907 35.0633C106.216 35.3103 106.431 35.6906 106.533 36.2352C106.639 36.81 106.6 37.5567 106.4 38.4859Z" fill="#B3382A" stroke="#B3382A" stroke-width="0.5"/>
<path d="M240.028 10.7296C226.513 8.85345 210.825 15.9413 204.671 19.7197C218.421 8.38423 227.456 6.43 238.063 6.03903C265.291 5.03542 273.513 23.6285 273.42 34.182C273.289 49.0352 264.856 77.8033 230.599 89.6859C196.342 101.568 177.564 86.1681 174.421 76.3962C179.921 84.6046 192.361 87.6012 198.385 87.7315C235.313 88.1224 258.492 62.3249 263.992 42.7813C269.492 23.2376 256.92 13.0749 240.028 10.7296Z" fill="#B3382A"/>
</svg>
