<svg width="400" height="100" viewBox="0 0 400 100" fill="none" xmlns="http://www.w3.org/2000/svg">
<path fill-rule="evenodd" clip-rule="evenodd" d="M14.832 77.7045C15.4627 78.3608 16.3247 77.7534 17.1634 77.1624C17.4683 76.9475 17.7701 76.7349 18.0566 76.5859C25.9881 72.1115 36.8669 72.6702 40.6289 76.5857C44.3909 80.5012 40.0915 82.1789 38.4792 81.0603C38.0421 80.757 37.5862 80.2625 37.088 79.7222C36.1444 78.699 35.0491 77.5109 33.6423 77.145C30.9551 76.446 22.3561 76.3619 18.0566 79.9416C13.7571 83.5213 11.6074 83.8569 10.5325 82.1789C7.33629 76.0013 19.2696 65.3826 26.5567 58.8982C27.8467 57.7504 28.9911 56.7321 29.8802 55.8909C34.6096 51.4163 35.9794 51.611 36.8669 52.5349C37.4043 53.0945 37.9417 55.3308 33.6422 57.5688C28.0164 60.4972 13.7571 76.5859 14.832 77.7045ZM52.9899 60.3647C54.0648 60.924 54.0648 61.4833 53.5273 63.1613C53.0644 64.6066 50.3027 66.1444 50.3027 65.3986C50.3027 64.9714 50.3654 64.6094 50.419 64.3002C50.5057 63.7999 50.5684 63.4379 50.3027 63.1613C49.7653 62.602 42.2412 67.0766 42.2412 70.4325C42.2412 72.8195 46.5913 70.1133 50.0703 67.9489C51.4826 67.0703 52.7514 66.281 53.5273 65.9579C55.6771 65.063 55.1396 66.3309 54.6022 67.0766C54.2881 67.5125 53.9739 67.8369 53.6867 68.1336C52.9909 68.8522 52.4525 69.4084 52.4525 70.9918C52.4525 73.2291 56.7519 69.6868 58.9017 67.6359C62.1263 64.8393 69.6503 59.5816 73.9498 60.924C78.2493 62.2664 76.4578 65.5851 75.0247 67.0766C73.9498 68.3817 72.3375 70.88 74.4873 70.4325C76.637 69.9851 78.9659 68.0089 79.8616 67.0766C81.6531 64.6529 86.3108 60.0291 90.6103 60.924C94.6975 61.7747 92.8788 65.2136 91.7733 67.3039C91.4251 67.9621 91.1477 68.4866 91.1477 68.7546C91.1477 69.6679 91.8643 69.4627 93.2974 69.0521C93.6195 68.9598 93.9778 68.8572 94.3723 68.7546C95.3605 68.4975 95.8944 68.1222 96.2873 67.846C96.7492 67.5213 97.0162 67.3338 97.5969 67.6359C98.6718 68.1952 97.5969 69.8732 94.3723 70.9918C91.7926 71.8868 89.7146 70.9918 88.998 70.4325C88.1023 71.9241 85.4509 75.019 82.0113 75.4664C78.5718 75.9139 78.0701 73.0428 78.2493 71.5512C78.0701 71.3648 76.207 71.8868 70.1878 75.4664C67.9172 76.8168 65.7446 78.3198 63.7733 79.6836C59.212 82.8392 55.7279 85.2497 54.6022 83.297C52.9899 80.5004 59.4391 77.7037 62.6637 76.5857C67.5044 74.9071 69.1179 73.2543 69.6553 72.1357C69.445 72.2086 69.0909 72.4082 68.6291 72.6684C66.7295 73.7389 63.0077 75.8363 59.9815 74.373C58.3692 73.5934 58.5434 72.297 58.9017 71.5512C57.2894 73.0428 53.9573 74.4597 51.3776 74.9071C48.7109 75.3697 48.9846 73.1548 49.1592 71.7418C49.1956 71.446 49.2279 71.1855 49.2279 70.9918C49.2279 70.0969 48.5112 70.619 48.153 70.9918C46.3615 72.8563 42.0262 76.0258 39.0166 73.7885C36.007 71.5512 40.808 65.9579 43.8535 63.7206C46.0033 62.0427 51.0671 59.3642 52.9899 60.3647ZM64.8134 67.076C62.2338 68.8659 62.3055 70.432 62.6637 70.9913C63.022 71.5506 64.491 71.998 67.5006 69.3132C71.2626 65.9573 70.6946 65.1023 70.1878 64.8387C69.1129 64.28 68.038 64.8387 64.8134 67.076ZM82.4865 71.3649C82.078 70.8443 81.8612 69.2927 84.2625 67.2518C87.2642 64.7006 88.2821 64.0362 89.4038 64.4842C89.9328 64.6955 90.5776 65.4893 87.1449 69.208C84.3987 72.183 82.8951 71.8855 82.4865 71.3649Z" fill="#FE6307"/>
<path d="M117.067 75.1533C114.902 77.6958 116.526 79.3908 117.608 79.9205C120.315 80.4502 120.856 78.3315 123.562 73.5642C125.727 69.7504 132.223 64.0291 135.47 61.3806C136.192 60.4978 138.989 59.2529 137.635 58.1936C134.929 56.0747 119.774 71.9751 117.067 75.1533Z" fill="#FE6307"/>
<path d="M130.157 72.2232C127.609 72.2232 126.972 73.5235 126.972 74.4523C127.503 77.7961 138.393 75.1905 143.428 71.6659C149.799 67.2076 151.697 60.5032 151.922 58.8482C152.453 54.9472 150.308 52.9261 144.49 52.1607C135.997 51.0431 125.38 56.0617 122.194 57.7337C119.009 59.4058 113.17 63.3065 111.047 67.2076C108.923 71.1086 110.516 73.3349 111.577 73.3349C112.639 73.3349 113.701 72.7776 114.763 69.4367C115.824 66.0958 118.479 63.3036 118.479 63.3036C121.133 60.5172 127.503 57.9565 131.75 56.619C137.058 54.9472 143.959 54.387 147.144 56.0588C149.692 57.3963 148.383 61.2631 147.675 62.7492C146.967 64.4211 144.384 68.3221 139.712 70.5513C133.873 73.3378 133.342 72.2232 130.157 72.2232Z" fill="#FE6307"/>
<path fill-rule="evenodd" clip-rule="evenodd" d="M158.764 68.8718C157.091 69.2661 156.069 68.8721 154.991 67.3469C151.217 73.4475 159.843 71.9223 161.46 70.9057C161.914 70.6204 162.538 70.2949 163.259 69.9182C165.11 68.9527 167.607 67.6502 169.546 65.8217C169.999 65.3945 170.446 64.9515 170.885 64.5168C172.6 62.818 174.188 61.2461 175.475 61.2461C176.769 61.2461 176.374 62.2629 176.015 62.7713C175.295 63.4492 174.397 64.6015 176.554 63.7881C179.249 62.7713 183.562 61.2461 186.257 62.2629C188.413 63.0763 185.718 64.9744 184.101 65.8217C181.46 67.3468 176.255 71.0073 180.866 71.4141C185.842 71.853 194.676 65.0964 198.389 62.2573C198.978 61.8068 199.438 61.4549 199.734 61.2461C201.89 59.7209 202.968 59.7209 204.046 60.2293C204.909 60.636 204.046 61.7545 203.507 62.2629C200.632 64.4659 195.421 69.0751 197.577 69.8887C199.734 70.7022 204.226 66.8385 206.202 64.8049C208 62.9408 212.132 59.4158 214.288 60.2293C216.445 61.0427 214.108 63.2797 212.671 64.2965C209.976 65.8216 205.448 69.0751 208.898 69.8887C212.348 70.7022 215.726 67.5164 216.984 65.8217C218.781 63.4492 223.345 59.0091 227.226 60.2293C232.078 61.7545 227.226 67.8553 224.531 68.3637C222.374 68.7704 221.116 68.1942 220.757 67.8553C220.398 67.8553 219.787 68.4654 220.218 70.9055C220.649 73.3457 227.226 69.5497 230.46 67.3467C235.671 61.7543 246.74 50.8745 249.328 52.0946C251.915 53.3148 249.687 55.6534 248.25 56.6702C243.218 60.0596 233.479 67.4483 234.773 69.8887C236.067 72.329 238.906 70.5666 240.164 69.3803C242.679 66.8383 248.681 61.5509 252.562 60.7375C257.414 59.7207 257.414 62.2627 256.875 63.2795C256.336 64.2963 253.64 64.2963 253.101 63.7879C252.562 63.2795 242.859 69.8887 245.554 70.9055C247.728 71.7253 252.004 68.579 254.426 66.7964C255.009 66.3682 255.483 66.0184 255.797 65.8215C257.414 64.8047 259.031 63.7879 259.57 64.8047C260.001 65.6181 259.39 66.1604 259.031 66.3299C257.414 66.8383 254.072 67.9567 255.797 70.3971C257.522 72.8374 266.758 65.8217 271.43 61.7545C272.003 61.2553 272.373 60.5989 272.708 60.0047C273.317 58.923 273.811 58.0477 275.203 58.7039C276.167 59.1586 275.742 60.2291 275.203 61.2459C274.943 61.7351 275.184 62.2245 275.562 62.9972C275.971 63.8302 276.541 64.9923 276.82 66.8385C277.172 69.1605 276.592 70.062 276.073 70.8672C275.956 71.0492 275.841 71.2265 275.742 71.4139L278.438 70.3973C278.834 70.21 279.407 69.6359 280.015 69.0262C281.057 67.981 282.203 66.8314 282.75 67.3467C283.665 68.2098 281.862 69.8052 280.637 70.8897L280.636 70.89C280.418 71.0832 280.218 71.2601 280.055 71.4139C280.026 71.4415 279.995 71.4717 279.962 71.505C279.563 71.9032 278.745 72.7212 274.125 74.4645C271.762 75.3562 267.251 75.0988 266.039 73.9561C264.422 72.4309 264.278 71.7355 264.961 71.4139C266.039 70.9056 266.735 71.5628 267.117 71.9224C268.734 73.4476 272.451 72.7785 273.586 70.9057C275.742 67.3469 272.55 62.8393 272.28 63.2795C271.969 63.7881 267.767 68.5655 260.648 71.9225C255.258 74.4645 252.203 73.1086 252.023 70.9055C243.829 76.5996 241.422 73.617 241.242 71.4139C232.617 77.5147 230.101 73.278 229.921 70.3971C228.663 71.2444 224.962 73.2441 220.218 74.4643C215.474 75.6844 215.367 71.9223 215.906 69.8887C214.288 71.2444 210.084 73.8542 206.202 73.4475C202.968 73.1086 203.866 71.075 204.585 69.8887C201.351 73.4475 195.421 74.4643 193.265 73.4475C191.54 72.634 192.187 70.0581 192.726 68.8718C192.089 69.1491 191.277 69.578 190.335 70.0758C187.827 71.402 184.394 73.2166 180.866 73.9559C175.684 75.0421 174.397 72.4307 176.554 69.8887C178.154 68.0032 178.567 67.5163 178.673 66.9755C178.71 66.7872 178.71 66.5925 178.71 66.3299C178.71 65.5164 177.273 65.9909 176.554 66.3298C174.936 67.5161 171.486 70.1937 170.624 71.4139C169.546 72.9391 167.389 73.9559 166.311 72.9391C165.449 72.1256 167.748 69.211 168.468 68.3637L165.233 70.9055C160.921 73.9561 153.913 74.4645 152.296 72.9393C150.678 71.4141 150.279 69.6778 152.835 65.8217C155.53 61.7545 160.382 59.9239 162.538 60.7374C165.233 61.7542 165.233 64.2965 163.616 65.8217C161.999 67.3469 160.921 68.3637 158.764 68.8718ZM158.225 63.7876C157.147 64.2964 156.069 65.3132 156.608 66.3296C156.608 66.8384 158.764 67.3472 160.382 65.822C161.46 64.8052 161.349 63.6839 160.921 63.2799C160.689 63.0613 159.963 62.9671 158.225 63.7876ZM221.44 66.3296C220.901 65.3132 221.979 64.2964 223.057 63.7876C224.795 62.9671 225.522 63.0613 225.752 63.2799C226.18 63.6839 226.291 64.8052 225.213 65.822C223.596 67.3472 221.44 66.8384 221.44 66.3296Z" fill="#FE6307"/>
<path d="M176.739 55.718C176.016 56.7935 175.69 58.4163 176.383 58.8959C177.275 59.5125 177.863 58.5496 177.934 57.9141C178.077 56.6428 178.572 54.7941 181.292 57.9536C184.692 61.9031 186.927 59.1111 188.008 58.0325C188.863 57.18 189.304 56.1024 188.763 55.5867C187.895 54.7593 187.283 55.9333 186.202 57.0115C185.819 57.3928 185.12 58.0895 183.711 57.8002C182.302 57.5108 182.445 56.2397 180.71 54.5828C179.545 53.4713 177.892 54.0041 176.739 55.718Z" fill="#FE6307"/>
<path fill-rule="evenodd" clip-rule="evenodd" d="M352.386 71.963C350.947 73.6572 347.528 77.1587 345.368 77.6105C344.592 77.7729 343.546 77.7017 342.427 77.6254C339.654 77.4364 336.419 77.2159 335.65 80.4342C334.727 84.2959 341.298 82.794 343.564 82.2761C343.949 82.1881 344.209 82.1285 344.288 82.1285C344.828 82.1285 351.307 79.3047 355.626 73.0925L359.405 68.5745H368.043C367.143 70.457 365.559 74.5608 366.423 75.9162C367.503 77.6105 370.742 78.74 375.061 75.3515C375.939 74.6625 376.755 73.9589 377.527 73.2926C379.793 71.3376 381.686 69.7041 383.699 69.7041C384.779 68.5745 384.455 67.8969 383.159 67.4451C381.864 66.9933 377.401 70.0806 375.061 71.963C374.341 72.716 372.578 74.109 371.282 73.6572C369.662 73.0925 371.282 69.1393 372.362 68.5745C373.442 68.0098 375.061 68.0098 375.061 68.5745C375.061 69.1393 378.3 68.0098 377.221 66.8803C376.357 65.9767 375.061 65.7508 374.521 65.7508L383.159 57.2795C384.419 55.7736 386.291 52.6486 383.699 52.1968C380.46 51.632 376.681 52.1968 371.822 55.0205C367.935 57.2795 361.564 63.1153 358.865 65.7508C358.145 66.3155 356.382 67.4451 355.086 67.4451C353.466 67.4451 348.894 68.6627 345.908 69.7041C342.669 70.8336 342.129 73.0924 342.669 73.6572C343.101 74.1092 344.288 73.4691 344.828 73.0926C347.528 71.7748 352.818 69.704 352.386 71.963ZM318.374 58.4093C317.078 58.8611 316.755 59.5388 317.294 60.6682C318.374 61.7977 320.174 60.8565 321.074 60.1035C322.693 58.4093 321.613 55.5855 321.613 55.5855C321.613 55.5855 320.534 53.3264 315.675 53.8913C309.773 54.5775 303.643 60.1035 303.258 62.9272C302.718 66.8805 308.117 67.4451 311.356 65.751C315.249 63.715 320.534 68.5746 311.896 74.7868C303.258 80.9991 298.939 79.3048 296.779 77.0458C294.218 74.3669 297.859 70.2689 299.479 70.8336C300.774 71.2854 301.818 70.6453 302.178 70.2689C303.258 69.1394 302.826 67.1063 298.939 68.0099C294.08 69.1394 293 72.5279 293 75.3516C293 78.1753 294.499 79.5236 296.239 80.4343C297.319 80.9991 305.957 84.3876 315.675 74.7868C322.663 67.8828 318.914 64.6214 316.755 63.4919C314.595 62.3624 311.552 62.8588 308.117 64.0567C306.497 64.6215 306.497 61.7976 309.736 58.9739C312.975 56.1501 318.232 55.7931 318.914 56.1503C319.994 56.715 319.994 57.8445 318.374 58.4093ZM324.313 74.7868C323.449 72.9797 325.393 71.3982 326.472 70.8335C327.193 70.0805 330.432 69.704 331.331 70.2687C333.491 71.6241 330.791 73.8455 329.172 74.7867C327.912 75.5398 325.177 76.594 324.313 74.7868ZM369.123 65.7503C367.554 66.3986 365.883 65.7475 365.883 65.7475C364.984 65.5593 364.804 64.6152 365.883 63.4885C366.963 62.3619 376.141 56.1502 377.761 56.7115C379.239 57.2239 375.061 61.2323 372.902 62.9266C372.902 62.9266 370.378 65.2314 369.123 65.7503Z" fill="#FE6307"/>
<path d="M387.159 74.0446C388.728 72.9439 389.493 71.3292 388.869 70.4381C388.244 69.547 386.466 69.7169 384.897 70.8176C383.328 71.9183 382.563 73.5329 383.188 74.4241C383.812 75.3152 385.591 75.1453 387.159 74.0446Z" fill="#FE6307"/>
<path fill-rule="evenodd" clip-rule="evenodd" d="M181.872 16H169.52L153.945 48H165.76L181.872 16ZM91.6483 16.5614L75 47.4386H87.352L91.6483 39.0175H106.686C108.834 39.0175 113.667 38.3439 115.815 35.6491C117.963 32.9544 120.649 29.2865 121.723 27.7895C124.05 24.0468 126.341 16.5614 116.889 16.5614H91.6483ZM126.556 27.2281H138.908L133.538 39.0175C133.18 40.3275 133.108 42.9474 135.686 42.9474C138.908 42.9474 140.519 41.2632 141.056 39.5789C141.486 38.2316 145.532 30.7837 147.501 27.2281H160.39L151.797 42.9474C151.439 44.4444 149.327 47.4386 143.742 47.4386H119.575C118.501 47.0644 116.782 45.4175 118.501 41.8246C120.219 38.2316 124.587 30.5965 126.556 27.2281ZM186.168 16H197.983L181.872 48H169.52L186.168 16ZM187.242 47.4386L198.52 26.1053H209.798C209.798 26.3255 209.55 26.684 209.249 27.1196C208.782 27.7945 208.187 28.6548 208.187 29.4737C208.187 30.3928 208.936 29.7967 209.754 29.1467C210.135 28.8439 210.53 28.5293 210.872 28.3509C214.631 25.5439 224.835 26.1053 226.446 28.3509C227.761 30.183 228.415 29.8479 229.131 29.4737L229.254 29.3716C231.835 27.211 232.486 26.6667 240.946 26.6667C247.821 26.6667 248.107 30.7837 247.391 32.8421L240.409 48H228.057L232.891 37.8947C233.965 35.6491 234.502 32.2807 230.743 31.7193C227.735 31.2702 225.552 34.1521 224.835 35.6491L220.002 48H207.65C208.366 46.503 210.228 42.4982 211.946 38.4561C214.094 33.4035 213.557 32.8421 210.872 31.7193C208.724 30.8211 206.396 32.8421 205.502 33.9649L198.52 47.4386H187.242ZM267.262 40.7018L264.039 48H253.835C251.687 48 247.391 45.7544 248.465 41.8246L248.526 41.5994L248.586 41.3807C250.002 36.1761 252.437 27.2281 259.743 27.2281C261.379 27.2281 262.888 27.175 264.264 27.1265C269.212 26.9521 272.445 26.8382 273.706 29.4737C274.995 32.1684 276.391 30.5965 276.928 29.4737L277.465 26.6667H290.354L280.151 48H267.262L272.095 38.4561C273.169 36.5848 274.028 32.8421 268.873 32.8421H264.039C262.786 33.0293 260.173 33.9649 259.743 36.2105C259.206 39.0175 259.206 40.7018 261.891 40.7018H267.262ZM284.447 48L295.188 26.6667H307.003L306.466 28.3509C306.823 29.2865 307.862 30.5965 309.151 28.3509C310.517 25.9712 313.427 26.0124 318.208 26.0801C319.066 26.0922 319.985 26.1053 320.966 26.1053C326.122 26.1053 326.336 30.5965 325.799 32.8421L318.818 48H304.855C306.466 45.3802 309.795 39.8035 310.225 38.4561C310.294 38.2395 310.389 37.9859 310.495 37.707L310.496 37.7064C311.208 35.8164 312.357 32.7699 308.614 32.2807C305.177 31.8316 303.601 33.5907 303.243 34.5263L297.336 48H284.447ZM94.8706 32.2807L99.167 23.8596H107.76C109.371 23.8596 112.378 24.4211 111.519 26.6667C110.66 28.9123 110.087 30.2223 109.908 30.5965C109.55 31.1579 108.297 32.2807 106.149 32.2807C105.555 32.2807 104.648 32.295 103.585 32.3117C100.799 32.3555 96.9439 32.4161 94.8706 32.2807Z" fill="#1A2090"/>
</svg>
