<?xml version="1.0" encoding="UTF-8"?>
<svg id="Capa_1" data-name="Capa 1" xmlns="http://www.w3.org/2000/svg" viewBox="0 0 635 263">
  <defs>
    <style>
      .cls-1 {
        fill: #000;
        font-family: Gilroy-ExtraBold, Gilroy-ExtraBold;
        font-size: 51.57px;
        font-weight: 700;
      }

      .cls-2 {
        letter-spacing: 0em;
      }

      .cls-3 {
        letter-spacing: 0em;
      }

      .cls-4 {
        fill: #f21d1d;
        stroke-width: 0px;
      }
    </style>
  </defs>
  <path class="cls-4" d="M135.67,13.67l-47.58,190.31H24.66l-5.29,42.29h81.65c17.35,0,32.57-11.57,37.21-28.29L194.89,13.67h-59.22Z"/>
  <path class="cls-4" d="M340.35,98.26l-23.49,112.84h51.41l14.51-65.81c1.21-8.6,8.57-15,17.25-15h0c10.94,0,19.18,9.97,17.11,20.71l-11.56,60.1h51.29l15.26-83.2c2.83-15.43-9.02-29.65-24.7-29.65h-36.7c-8.54,0-16.6,3.91-21.9,10.61l-2.06,2.61v-13.22h-46.42Z"/>
  <path class="cls-4" d="M618.84,98.26h-89.42c-11.39,0-22.29,5.12-29.13,14.22-6.53,8.69-12.26,21.72-10.84,40.04,1.1,14.18,13.16,25.04,27.39,25.04h32.5c3.65,0,6.61,2.96,6.61,6.61h0c0,3.65-2.96,6.61-6.61,6.61h-71.76v20.33h90.32c10.61,0,20.74-4.69,27.34-12.99,8.9-11.19,18.12-28.68,11.84-48.72-3.18-10.13-12.92-16.77-23.54-16.77h-30.24c-4.38,0-7.93-3.55-7.93-7.93h0c0-4.38,3.55-7.93,7.93-7.93h66.08l-.53-18.5Z"/>
  <text class="cls-1" transform="translate(204.4 78.66)"><tspan class="cls-2" x="0" y="0">B</tspan><tspan class="cls-3" x="30.69" y="0">U</tspan><tspan class="cls-2" x="64.21" y="0">S</tspan><tspan x="94.12" y="0">ES</tspan></text>
  <path class="cls-4" d="M293.36,98.26h-94.25l-13.22,18.5h71.37c4.38,0,7.93,3.55,7.93,7.93s-3.55,7.93-7.93,7.93h-44.12c-13.03,0-25.47,6.08-33.01,16.7-10.12,14.25-13.69,30.88-11.72,49.53.63,5.96,5.81,10.42,11.8,10.42h61.92s9.84-13.22,9.84-13.22v13.22h47.58l16.83-82.85c2.96-14.55-8.17-28.16-23.02-28.16ZM239.21,169.86l-9.12,18.83c-1.28,2.64-3.95,4.31-6.88,4.31h-2.2c-5.95,0-9.62-6.49-6.55-11.59l11.32-18.83c1.38-2.3,3.87-3.71,6.55-3.71,5.64,0,9.34,5.9,6.88,10.98Z"/>
</svg>