<?xml version="1.0" encoding="UTF-8"?>
<svg id="Capa_1" data-name="Capa 1" xmlns="http://www.w3.org/2000/svg" viewBox="0 0 622 114">
  <defs>
    <style>
      .cls-1 {
        fill: #074297;
        stroke-width: 0px;
      }
    </style>
  </defs>
  <polygon class="cls-1" points="165.19 92.01 192.06 92.01 207.73 71.86 223.77 92.01 256.98 92.01 232.54 57.78 283.85 20.36 252.5 20.36 209.97 49.47 220.91 20.36 194.3 20.36 165.19 92.01"/>
  <path class="cls-1" d="M405.97,20.69l-22.32,56.67c-2.77,7.04,2.41,14.65,9.98,14.65h67.36c3.97,0,7.61-2.19,9.47-5.69l23.07-60.28c1.37-2.57-.5-5.67-3.41-5.67h-14.44c-1.52,0-2.89.89-3.52,2.27l-22.64,51.46-39.18-1.12,20.26-48.63c1.03-2.48-.71-5.22-3.39-5.34l-17.48-.76c-1.65-.07-3.15.91-3.76,2.44Z"/>
  <polyline class="cls-1" points="117.06 93.13 145.65 93.13 175.27 19.24 146.16 19.24 117.06 93.13"/>
  <path class="cls-1" d="M109.02,39.14l7.79-17.88c.64-1.48-.44-3.13-2.05-3.13H47.79c-11.68,0-21.88,7.25-24.82,17.63l-14.06,41.85c-2.22,7.86,4.24,15.52,13.08,15.52h82.25c1.02,0,1.91-.69,2.17-1.68l3.73-14.55c.36-1.42-.71-2.79-2.17-2.79H38.32l14.63-34.7,53.97,1.09c.91.02,1.73-.51,2.09-1.34Z"/>
  <path class="cls-1" d="M487.58,74.1l-6.77,17.91h74.52c10.97,0,21.79-3.55,30.12-10.69,6.33-5.43,11.15-12.72,8.04-21.45-2.76-7.77-10.51-12.64-18.75-12.64h-30.46c-3.31,0-5.13-3.86-3.02-6.41h0c.74-.9,1.85-1.42,3.02-1.42h53.42l10.77-19.77h-59.86c-10.06,0-20.03,2.75-28.29,8.49-7.83,5.44-14.46,13.52-10.45,24.28,3.17,8.51,11.64,13.87,20.71,13.87h29.71c2.38,0,4.21,2.11,3.88,4.47h0c-.28,1.93-1.93,3.36-3.88,3.36h-72.72Z"/>
  <path class="cls-1" d="M372.31,25.1c-5.17-3.17-11.14-4.77-17.2-4.96l-57.7-1.89-28.2,74.88h65.62c6.83,0,13.64-1.12,19.98-3.66,11.96-4.79,25.02-15.37,9.63-37.76,0,0,29.43-13.39,7.86-26.61ZM340.09,72.98h-37.22l2.24-9.25,38.06.29-3.08,8.96ZM346.57,48.35h-34.74l4.48-11.19h36.74l-6.48,11.19Z"/>
</svg>