<?xml version="1.0" encoding="UTF-8"?>
<svg id="Capa_1" data-name="Capa 1" xmlns="http://www.w3.org/2000/svg" viewBox="0 0 724 138">
  <defs>
    <style>
      .cls-1 {
        fill: #1b1464;
        stroke-width: 0px;
      }
    </style>
  </defs>
  <path class="cls-1" d="M463.87,90.57c-1.79,1.44-3.45,2.9-5.23,4.19-3.22,2.33-6.68,4.22-10.7,4.76-6.74.91-13.26-1.66-16.31-6.89-.37-.63-.69-1.31-.94-1.99-.25-.65-.38-1.35-.61-2.21-.44.53-.83.99-1.22,1.45-2.47,2.97-5.11,5.75-8.42,7.83-4.02,2.52-9.18,2.85-12.72-.21-1.57-1.36-2.52-3.09-3-5.09-.07-.29-.13-.58.03-.57-1.59,1.42-3.13,2.89-4.77,4.24-2.21,1.81-4.51,3.47-7.55,3.6-4.97.2-8.51-2.09-10.7-6.39-2.71-5.31-1.58-10.36,1.66-15.03,3.58-5.17,8.41-8.95,13.88-11.94,3.65-1.99,7.54-3.28,11.75-3.38,1.19-.03,2.41.04,3.58.27,1.72.34,3.04,1.33,3.88,3.02,3.89-6.27,7.73-12.46,11.56-18.64h15.36c-.78,1.26-1.49,2.42-2.21,3.57-7.29,11.66-14.6,23.3-21.86,34.98-1.55,2.5-2.94,5.1-4.38,7.66-.21.36-.29.79-.47,1.28,1.18.51,2.26.28,3.12-.34,1.87-1.34,3.83-2.64,5.38-4.31,2.81-3.04,5.4-6.29,7.95-9.56,1.33-1.7,2.18-3.8,3.59-5.42,5.55-6.39,12.31-10.89,20.82-12.28,3.12-.51,6.26-.55,9.2,1.07,3.26,1.8,4.29,5.19,2.5,8.46-1.06,1.94-2.7,3.3-4.55,4.43-4.19,2.55-8.82,3.97-13.51,5.21-1.52.4-3.05.76-4.63,1.16-1.51,2.53-2.52,5.26-2.63,8.28-.09,2.69,1.11,3.9,3.82,4.04,3.57.18,6.7-1.05,9.62-2.93,4.57-2.94,8.2-6.9,11.32-11.27,2.07-2.9,3.68-6.13,5.55-9.18,4.96-8.1,9.95-16.18,14.93-24.27.12-.2.26-.38.4-.59h15.05c-.32.56-.57,1.01-.83,1.45-8.66,14.2-17.32,28.39-25.96,42.59-.63,1.04-1.11,2.18-1.8,3.54.77.05,1.28.17,1.76.09,1.86-.29,3.3-1.41,4.69-2.57,3.51-2.91,6.3-6.46,9.04-10.06,1.32-1.73,2.53-3.53,3.84-5.27.37-.5.85-.96,1.36-1.3.75-.5,1.59-.55,2.32.09.72.63.74,1.46.28,2.19-1.05,1.7-2.06,3.46-3.32,5.01-3.04,3.73-6.1,7.46-9.37,10.99-2.28,2.46-5.07,4.36-8.46,5.13-5.83,1.33-11.32-2.58-11.98-8.52-.01-.09-.05-.18-.09-.35ZM391.22,93.46c.19,1.61.71,2.09,2.25,1.79.68-.13,1.4-.33,1.96-.71,1.16-.78,2.3-1.62,3.31-2.58,2.78-2.65,5.05-5.73,7.04-8.99,2.26-3.71,4.39-7.5,6.45-11.32.5-.93.7-2.1.78-3.18.09-1.22-.56-1.67-1.78-1.51-1.66.21-2.9,1.23-4.04,2.29-5.98,5.58-10.84,12.01-14.39,19.39-.73,1.51-1.06,3.21-1.57,4.82ZM459.16,66.66c-.16-.12-.32-.24-.47-.36-.92.41-1.95.68-2.73,1.27-3.87,2.9-6.3,6.99-8.81,11.04,1.23-.46,2.43-.94,3.55-1.56,3.48-1.91,6.34-4.47,7.98-8.18.3-.68.33-1.47.49-2.22Z"/>
  <path class="cls-1" d="M591.36,51.43c2.72-1.28,5.26-2.45,7.76-3.71.51-.26.94-.84,1.24-1.36,2.64-4.73,5.7-9.16,9.76-12.79,4.37-3.92,9.13-7.25,15-8.55,1.31-.29,2.73-.28,4.07-.12,2.29.28,3.53,2.52,2.49,4.57-.71,1.41-1.69,2.74-2.79,3.88-4.27,4.41-9.34,7.78-14.57,10.93-.89.53-1.79,1.05-2.81,1.64-.86,3.48-1.77,7.03-2.61,10.61-1.08,4.62-2.13,9.25-3.93,13.67-2.88,7.06-7.58,12.62-13.76,17-9.56,6.77-20.09,11.31-31.67,13.15-6.76,1.07-13.6,1.42-20.34-.19-2.71-.65-5.3-1.75-8.08-2.69-1.49,2.75-2.71,5.78-2,9.24.33,1.63,1.19,2.97,2.47,4.02.49.4,1.09.73,1.44,1.23.33.47.67,1.22.5,1.66-.19.51-.87,1.03-1.43,1.17-1.15.3-2.24-.06-3.19-.81-2.05-1.6-3.03-3.84-3.85-6.21-.96-2.76-.44-5.42.57-8.02.63-1.61,1.4-3.17,2.01-4.51-1.78-2.14-3.67-4.1-5.17-6.32-2.69-3.95-3.58-8.46-3.33-13.19.44-8.48,4.18-15.53,9.62-21.79,7.02-8.08,15.91-13.4,25.78-17.2,5.17-1.99,10.49-3.39,16.04-3.78,4.23-.3,8.35.18,12.27,1.88,6.01,2.61,9.47,8.69,8.68,15.19-.05.43-.09.85-.15,1.4ZM613.8,40.08c.24-.08.51-.12.71-.25,1.52-1.03,3.09-2,4.52-3.15,2.62-2.12,5.16-4.33,7.69-6.55.45-.4.73-1,1.08-1.51-.05-.08-.1-.16-.15-.24-.59.15-1.24.19-1.77.47-1.48.76-2.97,1.53-4.35,2.46-3.33,2.26-5.7,5.4-7.74,8.8.01.01.02.02.04.03,0-.02-.01-.05-.02-.07ZM541.58,80.07c-1.44-2.39-2.13-5.1-1.93-8.02.34-5.03,2.64-9.23,5.84-12.94,5.62-6.53,12.63-10.87,21.09-12.7,3.53-.76,7.1-.95,10.62.13,2.63.81,4.57,2.42,5.28,5.14.34,1.29.3,2.69.43,4.07,1.22-.6,2.52-1.25,3.96-1.96.19-1.44.42-2.92.57-4.42.54-5.43-2.65-10.12-7.87-11.72-4.16-1.28-8.34-1.07-12.49-.14-6.6,1.48-12.45,4.59-17.85,8.59-7.61,5.63-13.95,12.39-18.23,20.91-2.66,5.28-3.94,10.86-3.1,16.8.36,2.55,1.22,4.89,2.71,6.83,3.66-3.52,7.26-6.99,10.98-10.57ZM590.44,55.95c-1.06,2.38-1.94,4.63-3.04,6.76-3.22,6.23-7.86,11.29-13.33,15.59-4.65,3.65-9.68,6.58-15.62,7.58-3.33.56-6.68.63-9.91-.51-1.52-.54-2.94-1.39-4.52-2.15-3.74,3.04-7.4,6.39-10.43,10.41,2.2,1.6,4.56,2.62,7.1,3.16,5.85,1.24,11.63.81,17.3-1.07,9.14-3.03,16.74-8.41,23.22-15.43,4.98-5.38,8.64-11.64,11.76-18.22,1.45-3.06,2.82-6.16,4.33-9.47-2.47,1.21-4.72,2.31-6.85,3.35ZM546.33,76.44c.11.03.22.07.33.1,10.47-7.46,21.85-13.35,33.24-19.28-1.12-.85-1.18-1.03-1.03-2.49.04-.39,0-.8-.06-1.2-.48-2.82-3.38-4.06-6.04-4.07-3.46-.03-6.62,1.1-9.58,2.84-4.17,2.45-7.67,5.68-10.81,9.33-2.65,3.07-4.85,6.41-5.66,10.46-.28,1.41-.27,2.88-.39,4.32ZM548.12,80.05c1.53,1.84,3.45,2.58,5.63,2.69,4.66.25,8.9-1.17,12.86-3.49,6.94-4.07,12.24-9.77,16.4-16.59.73-1.2,1.32-2.48,1.98-3.73-12.68,6.41-25.2,12.88-36.87,21.11Z"/>
  <path class="cls-1" d="M166.4,95.21c-1.23.72-2.45,1.47-3.7,2.15-4.13,2.22-8.5,2.96-13.1,1.85-2.6-.63-4.78-2.03-6.6-4-.23-.25-.46-.49-.72-.76-1.97.92-3.91,1.87-5.89,2.73-3.33,1.45-6.74,2.61-10.44,2.51-3.48-.09-5.73-1.94-6.4-5.35-.19-.94-.28-1.93-.23-2.89.23-3.96,1.64-7.41,4.62-10.13.06-.06.09-.16.14-.25-2.14-.31-2.75-1.43-1.56-3.23,3.16-4.82,6.74-9.28,11.68-12.4,3.4-2.15,7.1-2.89,11.05-1.78,2.38.67,4.23,2.09,5.66,4.09.11.16.24.32.4.53,1.19-.63,2.36-1.27,3.55-1.85,3.57-1.76,7.29-2.97,11.3-3.24,5.59-.37,8.65,2.45,8.5,8.05-.09,3.55-1.26,6.78-3.49,9.54-2.01,2.49-4.61,3.73-7.88,3.02-2.1-.45-3.42-2.02-3.55-4.17-.25-4.03,1.84-7.31,5.81-9.08,1.07-.48,2.16-.89,3.23-1.37.85-.38,1.07-1.03.68-1.95-1.34-.64-2.6-.22-3.59.66-2.02,1.79-4.06,3.6-5.82,5.64-3.52,4.09-6.69,8.45-8.93,13.4-.48,1.06-.84,2.19-1.1,3.32-.61,2.66.71,4.59,3.39,5.16,1.77.38,3.46.11,5.13-.48,3.58-1.27,6.45-3.61,9.18-6.16,5.27-4.92,9.25-10.8,12.8-17.02,2.89-5.05,5.92-10.02,8.89-15.03.13-.23.3-.44.46-.67h14.18c-1.7,2.89-3.33,5.66-4.92,8.37,1.45-.46,2.88-1.14,4.38-1.35,4.53-.63,8.05,1.23,10.58,4.92,3.38,4.93,3.09,11.02-.7,16.34-4.02,5.64-9.33,9.72-15.52,12.7-3.89,1.87-7.99,2.82-12.32,2.67-2.37-.08-4.3-.92-5.42-3.37-2.37,4.05-4.69,8-7.01,11.96-2.32,3.95-4.64,7.91-6.97,11.89h-14.93c.6-.99,1.13-1.9,1.68-2.79,4.43-7.21,8.86-14.42,13.29-21.64.1-.16.13-.36.19-.54.04-.02.08-.04.04-.02.03-.06,0-.01-.02.04ZM183.67,93.18c-.02,2.27.62,2.8,2.24,2.2,1.01-.38,2.04-.91,2.85-1.62,6.59-5.73,11.42-12.81,15.28-20.56.74-1.48.98-3.24,1.26-4.9.17-.97-.52-1.58-1.49-1.35-1.08.25-2.25.58-3.12,1.22-1.47,1.09-2.85,2.35-4.05,3.73-4.14,4.76-7.62,10-10.7,15.49-1.11,1.98-2.14,4.02-2.28,5.79ZM124.07,94.01c-.12,1.25.35,1.57,1.16,1.56,1.46-.03,2.61-.78,3.7-1.62,3.27-2.52,5.77-5.74,8.09-9.11,2.49-3.62,4.82-7.34,6.15-11.55.39-1.23.39-2.62.35-3.93-.03-1.01-.74-1.65-1.77-1.92-1.66-.43-3.21-.04-4.64.72-5.03,2.69-8.14,7.25-11.52,11.95,2.37-1.05,4.52-1.11,6.68-.32,1.27.47,2.16,1.38,2.54,2.66.72,2.44.28,4.69-1.4,6.65-1.53,1.79-3.57,2.75-5.74,3.51-1.24.43-2.45.94-3.6,1.39Z"/>
  <path class="cls-1" d="M53.56,96.16c-.33-1.32-.69-2.55-.94-3.81-1.29-6.56.6-12.23,4.9-17.2,4.27-4.94,9.63-8.35,15.47-11.09,6.12-2.87,12.5-4.96,19.24-5.72,5.16-.58,10.36-.86,15.4.9,3.93,1.37,6.95,3.77,7.68,8.07.8,4.7-.25,9.12-2.82,13.14-2.91,4.56-6.8,8.15-11.2,11.23-6.7,4.68-14.15,7.46-22.19,8.79-4.85.8-9.72.92-14.61.85-.13,0-.26,0-.38,0-.04.09-.07.17-.11.26,1.2.54,2.37,1.18,3.62,1.61,3.9,1.34,7.9,1.42,11.99,1.14,3.82-.26,7.28-1.61,10.82-2.8.61-.2,1.43-.28,1.99-.03,1.13.5,1.31,1.7.4,2.54-.64.6-1.46,1.07-2.27,1.4-3.38,1.37-6.98,1.77-10.57,2.22-4.35.55-8.62.22-12.81-1.03-3.44-1.02-6.56-2.62-9.25-5.06-.72-.65-1.75-1.13-2.71-1.33-4.03-.82-8.11-1.4-11.92-3.04-4.37-1.88-8.46-4.18-10.94-8.42-2.79-4.77-3.32-9.75-.94-14.95,2.64-5.77,7.22-9.53,12.53-12.57,5.77-3.3,11.99-5.44,18.48-6.74,4.67-.93,9.4-1.62,13.98-2.39-.72-.67-1.67-1.41-2.43-2.3-3.64-4.25-2.16-9.66,1.05-12.75,1.22-1.17,2.61-2.18,4-3.32-1.23-.22-2.47-.46-3.72-.66-6.17-.95-12.38-1.6-18.61-1.14-5.26.39-10.48,1.26-15.71,2.02-3.87.56-7.7,1.35-11.57,1.88-1.61.22-3.27.04-5.02.04-.3-.32-.66-.69-1.1-1.16.81-.54,1.5-1.08,2.25-1.49,5.66-3.17,11.79-4.85,18.2-5.56,7.49-.83,14.98-.63,22.43.38,5.69.77,11.37,1.7,17.03,2.71,1.73.31,3.27-.02,4.9-.4,3.41-.79,6.83-1.61,10.29-2.07,4.69-.62,9.42-.54,14.12-.05,4.23.44,8.46.97,12.41,2.65,1.29.55,2.56,1.34,3.59,2.3,2.12,1.96,1.5,5.16-1.11,6.41-1.85.89-3.84,1.11-5.86,1.15-5.28.1-10.47-.7-15.62-1.74-4.39-.89-8.77-1.79-13.32-2.71-3.52,2.27-7.18,4.55-8.83,8.81-.43,1.12-.52,2.41-.56,3.63-.03,1.02.47,1.93,1.57,2.8,2.59,0,5.43-.08,8.27.04,1.38.06,2.77.41,4.1.8.83.24,1.39.92,1.28,1.93-.11.99-.81,1.57-1.64,1.64-1.82.16-3.67.22-5.49.09-1.96-.14-3.9-.6-5.86-.81-3.25-.34-6.4.33-9.5,1.17-8.22,2.23-15.64,6.02-22.14,11.56-3.28,2.8-6.28,5.87-8.09,9.85-1.74,3.85-2.24,7.85-.59,11.88,1.06,2.59,3.28,4.07,5.7,5.25.89.43,1.81.79,2.72,1.19ZM59.54,97.39c.93.09,1.83.22,2.72.26,6.23.24,12.35-.4,18.35-2.14,8.84-2.56,16.77-6.79,23.7-12.84,3.47-3.03,6.15-6.63,6.86-11.35.39-2.59-.1-4.9-2.17-6.74-2.04-1.81-4.5-2.47-7.09-2.68-5.96-.47-11.65.84-17.12,3.08-7.17,2.94-13.51,7.19-19.13,12.49-2.57,2.42-4.92,5.04-6.35,8.33-1.69,3.87-1.9,7.74.24,11.6ZM98.85,33.59c0,.1.02.21.02.31.11.05.22.11.34.14,3.87.75,7.73,1.55,11.61,2.24,3.69.65,7.4,1.21,11.16,1,1.25-.07,2.63.09,3.73-1.19-.38-.4-.66-.9-1.09-1.12-1.18-.6-2.39-1.23-3.66-1.6-4.47-1.3-9.06-1.76-13.69-1.21-2.83.34-5.62.94-8.43,1.43Z"/>
  <path class="cls-1" d="M243.3,80.05c.28,1.23.37,2.57.89,3.71.83,1.82,2.72,2.62,4.73,2.07,1.13-.31,2.27-.85,3.23-1.53,2.32-1.63,4.08-3.75,5.57-6.21,3.02-4.99,7.51-8.49,12.51-11.34,4.01-2.29,8.3-3.67,12.95-3.85,2.71-.1,5.28.34,7.5,2,2.19,1.64,2.9,4.24,1.91,6.8-1.08,2.8-3.32,4.46-5.8,5.87-4.94,2.81-10.39,4.18-15.85,5.54-.48.12-.97.23-1.49.35-1.53,2.63-2.59,5.41-2.62,8.51-.02,2.52,1.18,3.69,3.73,3.82,3.46.18,6.55-.9,9.37-2.75,1.75-1.15,3.36-2.53,4.98-3.88.34-.28.57-.82.65-1.27.63-3.67,2.15-6.87,4.78-9.53,2.07-2.09,4.57-3.09,7.57-2.94,1.9-2.06,3.81-4.12,5.71-6.18,1.57-1.7,3.16-3.37,4.67-5.12.43-.49.77-1.16.9-1.8.54-2.72,1.31-5.33,2.94-7.61,1.21-1.7,2.74-2.91,4.95-3,1.3-.05,2.42.27,3.08,1.45.69,1.22.49,2.45-.21,3.62-1.52,2.56-3.6,4.65-5.71,6.71-.57.56-1.1,1.17-1.72,1.84.2,3.03,1.35,5.89,2.79,8.68,1.1,2.14,2.4,4.21,3.18,6.46,1.65,4.75.34,8.96-3.06,12.54-2.61,2.75-5.95,4.28-9.52,5.31-3.69,1.07-7.47,1.49-11.31,1.09-2.66-.28-5.13-1.12-6.93-3.21-.74-.86-1.22-1.95-1.72-2.78-2.47,1.45-4.89,3.15-7.53,4.39-6.02,2.84-12.04,2.64-17.69-.98-3.49-2.23-5.38-5.6-5.63-9.87-1.21.66-2.34,1.33-3.52,1.91-3.23,1.6-7.17,1.03-9.41-1.5-.73-.82-1.14-1.94-1.66-2.94-.18-.34-.25-.74-.41-1.24-4.68,5.05-8.14,10.75-11.29,16.78-5.34-1.48-10.65-.85-16.2.44.27-.49.42-.78.59-1.07,5.29-8.64,10.61-17.28,15.87-25.94.95-1.57,1.71-3.26,2.52-4.9.17-.34.21-.73.33-1.18-1.05-.16-1.72.33-2.36.84-2.83,2.26-4.96,5.14-7.1,8.02-.84,1.13-1.62,2.3-2.42,3.45-.88,1.25-1.9,1.62-2.98,1.07-.78-.39-1.16-1.02-.9-1.89.17-.54.37-1.09.68-1.55,2.99-4.51,6.26-8.77,10.5-12.19,3.29-2.65,7.66-2.95,10.93-.74,2.29,1.55,3.33,3.85,3.7,6.51.04.32.07.64.08.73,1.48-1.82,2.89-3.86,4.61-5.58,2.29-2.29,5.17-3.51,8.48-3.04,2.83.41,4,3.11,2.28,5.41-1.23,1.64-2.71,3.15-4.3,4.45-2.33,1.9-4.86,3.56-7.3,5.32-.76.55-1.51,1.11-2.54,1.87ZM301.58,77.43c.05.18.06.28.11.37,1.91,3.45,1.24,6.8-2,8.91-1.14.74-2.57,1.06-3.91,1.45-1.37.4-2.84.49-4.16,1.01-2.04.8-2.4,2.82-.94,4.48,1.75,2,5.07,2.06,7.48.2,3.21-2.48,5.38-5.76,7.04-9.37,1.72-3.75,2.22-7.82,2.66-11.88.08-.73.13-1.46.22-2.47-2.31,2.61-4.42,4.97-6.5,7.31ZM272.21,78.52c.06.06.11.13.17.19,1.17-.56,2.38-1.05,3.51-1.68,3.5-1.94,6.37-4.53,7.97-8.29.27-.63.28-1.37.42-2.15-1.38-.14-2.32.3-3.19.96-3.85,2.95-6.29,7.02-8.89,10.97Z"/>
  <path class="cls-1" d="M614.75,95.47c1-.22,1.8-.28,2.5-.58,2.93-1.22,5.04-3.5,7.09-5.79,4.58-5.09,8.38-10.77,12.02-16.55,2-3.17,3.92-6.38,5.93-9.65,5.15,1.31,10.31.48,15.72-.14-3.49,5.5-6.88,10.74-10.18,16.05-3.28,5.27-6.73,10.44-9.33,16.09.05.12.11.23.16.35.63-.03,1.36.14,1.86-.12,1.52-.8,3.09-1.62,4.4-2.71,3.79-3.14,6.79-7.02,9.7-10.95,2.36-3.2,4.49-6.58,6.97-9.68,1.89-2.36,4.05-4.54,6.32-6.55,2.06-1.83,4.59-2.69,7.44-2.22,4.1.66,7.01,3.84,7.29,8.01.02.26.03.52.07,1.03.58-.94,1.02-1.7,1.51-2.43,2.06-3.08,4.59-5.6,8.36-6.46,1.02-.23,2.14-.32,3.17-.17,2.8.4,4.01,3.08,2.37,5.38-1.04,1.45-2.28,2.84-3.68,3.94-3.18,2.5-6.51,4.81-9.77,7.2-.14.1-.27.2-.39.3-.55,2.89.71,5.42,3.15,6.03,1.97.49,3.68-.33,5.25-1.43,2.55-1.8,4.51-4.17,6.36-6.65.38-.51.76-1.03,1.24-1.44.92-.81,1.96-.86,2.76-.25.71.55.82,1.55.19,2.65-1.5,2.61-3.49,4.81-5.78,6.76-1.98,1.68-4.07,3.16-6.59,3.91-4.01,1.19-8.49-.49-9.78-5.2-.08-.28-.18-.55-.32-.96-4.67,5.04-8.11,10.75-11.27,16.76-5.37-1.46-10.67-.84-16.19.46.24-.43.37-.7.53-.96,5.53-9.08,11.08-18.16,16.59-27.26.72-1.2,1.28-2.5,1.88-3.77.15-.31.2-.68.33-1.14-1.07-.09-1.77.38-2.44.93-3.37,2.78-6.04,6.2-8.33,9.86-2.72,4.34-5.95,8.24-9.2,12.15-2.36,2.84-4.92,5.48-8.1,7.43-3.18,1.96-6.56,2.73-10.14,1.3-3.39-1.37-5.34-4.01-6.07-7.57-.04-.2-.06-.4-.1-.59,0-.03-.05-.04-.17-.15-1.49,1.5-2.93,3.07-4.51,4.49-2.13,1.91-4.52,3.44-7.33,4.21-6.95,1.91-13.39-4.2-11.9-11.28.69-3.26,2.23-6.15,3.89-8.97,3.11-5.27,6.27-10.52,9.41-15.77.07-.11.16-.21.15-.21,2.7.15,5.3.46,7.89.39,2.55-.07,5.1-.54,7.8-.85-.94,1.57-1.85,3.07-2.75,4.58-4.46,7.43-8.93,14.85-13.36,22.3-.85,1.43-1.53,2.97-2.26,4.48-.16.34-.19.74-.35,1.43Z"/>
  <path class="cls-1" d="M351.19,85.93c1.89.13,3.28-.72,4.59-1.7,2.46-1.85,4.37-4.22,6.2-6.66.43-.58.97-1.11,1.54-1.55.76-.59,1.63-.46,2.32.1.71.58.77,1.45.32,2.2-.7,1.17-1.42,2.37-2.35,3.35-1.85,1.96-3.75,3.92-5.82,5.64-2.65,2.2-5.74,2.89-8.49,2.04-2.32,2.07-4.35,3.96-6.46,5.76-2.44,2.08-5.14,3.7-8.35,4.35-8.16,1.66-15.41-4.51-15.05-12.83.17-4.07,1.89-7.5,4.48-10.5,5.12-5.92,11.33-10.26,18.94-12.39,2.82-.79,5.71-1.09,8.64-.72,3.47.44,5.67,2.85,5.79,6.32.14,3.91-1.18,7.43-2.93,10.82-.86,1.66-1.89,3.23-2.85,4.83-.16.28-.33.55-.55.92ZM353.61,69.79c.06-1.83-.69-2.7-2.35-2.84-1.34-.12-2.52.35-3.55,1.13-1.09.82-2.2,1.66-3.14,2.64-4.66,4.9-8.46,10.42-11.63,16.38-.99,1.87-1.83,3.8-2.05,5.93-.18,1.82.49,2.53,2.33,2.54,2.16.01,4.02-.81,5.77-2.01,2.67-1.83,4.83-4.17,6.82-6.65-1.64-2.28-2.15-4.74-1.39-7.31.53-1.81,1.22-3.62,2.16-5.24,1.53-2.63,3.59-4.69,7.04-4.56Z"/>
  <path class="cls-1" d="M613.8,40.08s.01.05.02.07c-.01-.01-.02-.02-.04-.03,0,0,.02-.04.02-.04Z"/>
  <path class="cls-1" d="M166.4,95.21s.04-.1.02-.04c.05-.02,0,0-.04.02l.02.02Z"/>
</svg>