<?xml version="1.0" encoding="UTF-8"?>
<svg id="Capa_1" data-name="Capa 1" xmlns="http://www.w3.org/2000/svg" xmlns:xlink="http://www.w3.org/1999/xlink" viewBox="0 0 618 282">
  <defs>
    <style>
      .cls-1 {
        fill: url(#Degradado_sin_nombre_26);
      }

      .cls-1, .cls-2, .cls-3 {
        stroke-width: 0px;
      }

      .cls-2 {
        fill: #fff;
      }

      .cls-3 {
        fill: #003187;
      }
    </style>
    <linearGradient id="Degradado_sin_nombre_26" data-name="Degradado sin nombre 26" x1="33.55" y1="226.9" x2="601.01" y2="41.77" gradientUnits="userSpaceOnUse">
      <stop offset="0" stop-color="#fa0008"/>
      <stop offset=".09" stop-color="#f90907"/>
      <stop offset=".25" stop-color="#f92206"/>
      <stop offset=".45" stop-color="#f94c05"/>
      <stop offset=".68" stop-color="#f98603"/>
      <stop offset=".95" stop-color="#f9ce00"/>
      <stop offset=".99" stop-color="#f9dd00"/>
    </linearGradient>
  </defs>
  <path class="cls-1" d="M47.5,249.5l40-28,82-7,133-35-165,95,80-35s32-7,29,7l47.63-17.28c3.12-1.13,4.37-4.88,2.55-7.65h0c-1.03-1.58-2.85-2.47-4.73-2.31l-28.98,2.41c-2.23.19-4.22-1.4-4.54-3.61h0c-.26-1.82.69-3.6,2.34-4.4l43.89-21.28c12.63-6.12,26.74-8.52,40.68-6.91h0c2.65.31,4.66,2.55,4.66,5.22v6.43s50.32-17.62,50.32-17.62v-12l-36.43,2.05c-4.03.23-7.2-3.37-6.48-7.34h0c.37-2.01,1.7-3.72,3.56-4.56l242.91-106.47c7.45-3.27,10.29-12.37,6-19.29h0c-2.94-4.75-8.52-7.17-14-6.08l-10.89,2.18s-24-22-59-4l-134,56-96-7-15.47,7.73c-1.21.6-1.42,2.23-.42,3.13,6.92,6.18,28.24,25.83,24.88,30.53l-157,59.6-21-1-94-35-18,11,52.89,59.28c2.81,3.15,2.52,7.99-.65,10.78l-27.24,23.94,7.5,6.5Z"/>
  <g>
    <path class="cls-3" d="M18.81,99.35c.18-1.16.7-2.24,1.55-3.24.85-1,1.88-2,3.09-2.99.39-1.11.92-2.44,1.59-3.98.2-.46.52-.99.96-1.57.44-.59.95-1.19,1.54-1.8.93-.88,1.74-1.67,2.41-2.39,1.29-.51,2.65.08,4.08,1.75,1.43,1.68,2.91,4.45,4.44,8.33,2.33,5.93,4.08,11.46,5.23,16.6,1.16,5.14,1.72,9.86,1.68,14.16,0,.51.02,1.08.05,1.71.02.63.03,1.33.01,2.11.23,1.06.45,2.32.67,3.77.22,1.45.48,3.14.79,5.06.13.65.34,1.39.62,2.2.29.82.55,1.85.79,3.1.17.76.32,2.13.46,4.09.13,1.96.18,4.52.14,7.67l1.05,1.7c.17,1.73.32,3.87.47,6.44.14,2.57.27,5.52.37,8.87.23,1.57.42,3.5.55,5.78.13,2.28.25,4.94.35,7.97.4,1.51.72,2.82.97,3.93.06.49.17,1.82.32,4,.15,2.18.21,5.26.18,9.24-.02,1.1-.38,2.25-1.09,3.45-.71,1.21-1.81,2.52-3.3,3.94-1.26,1.2-2.5,2.23-3.73,3.1s-2.45,1.54-3.67,2.02c-1.83.72-3.56.94-5.21.66-1.64-.28-3.07-1.05-4.26-2.3-4.25-4.47-7.52-8.09-9.79-10.87-2.28-2.78-3.58-4.68-3.92-5.7-.47-.39-1.22-1.12-2.25-2.18-1.03-1.07-2.25-2.6-3.68-4.6-1.34-1.78-2.4-3.31-3.2-4.59-.79-1.29-1.34-2.32-1.65-3.09-1.42-3.6-2.2-6.41-2.36-8.43-.15-2.02.32-3.25,1.43-3.68,1.94-.76,3.73-1.15,5.36-1.15,1.63,0,3.14.3,4.53.9.82.45,1.81,1.23,3,2.36,1.18,1.13,2.61,2.61,4.29,4.44,2.09,2.05,3.7,3.75,4.84,5.09,1.14,1.34,1.8,2.26,2,2.76.39,1,.07,2.17-.97,3.51-1.04,1.34-1.43,2.34-1.17,3.01.87.75,1.68,1.55,2.44,2.41.75.86,1.49,1.63,2.21,2.31,1.2,1.26,2.25,2.11,3.17,2.55.91.44,1.7.53,2.36.27.89-.35,1.41-1.99,1.56-4.94.16-2.94-.09-7.19-.75-12.76-.41-4.13-.81-7.87-1.2-11.24-.4-3.36-.9-6.4-1.52-9.1-.03-1.2-.11-2.63-.24-4.27-.13-1.64-.33-3.6-.58-5.87,0-.51-.12-1.08-.35-1.73-.22-.65-.43-1.45-.61-2.4-.65-2.95-1.27-5.95-1.86-9.01-.6-3.06-1.2-6.1-1.81-9.13-.75-3.54-1.58-6.78-2.48-9.73-.9-2.94-1.82-5.6-2.76-7.99-.78-1.99-2.61-2.65-5.48-1.97-2.87.68-4.47.58-4.82-.31-.3-.77-.19-1.85.35-3.25.54-1.39,1.48-3.06,2.82-4.99Z"/>
    <path class="cls-3" d="M67.71,175.8c.21-1.43.6-2.94,1.19-4.54.58-1.6,1.43-3.36,2.53-5.27-.27-1.17-.53-2.33-.79-3.48-.26-1.14-.58-2.28-.96-3.41-.14-.84-.24-1.86-.29-3.05-.05-1.19-.1-2.49-.14-3.88.02-1.41.1-3.21.24-5.37s.46-4.66.95-7.47c.66-1.73,1.33-3.61,2.01-5.63.67-2.02,1.34-4.06,2.01-6.11.41-.74.89-1.47,1.44-2.2.54-.73,1.07-1.51,1.57-2.35.58-.48,1.25-.97,2.01-1.46.77-.49,1.65-.94,2.64-1.33,1.38-.54,2.56-.85,3.53-.91.97-.06,1.86.13,2.67.58.56.29,1.2.81,1.91,1.55.71.75,1.48,1.69,2.31,2.83.6,1.04,1.27,2.18,2.02,3.43-.13-.33-.17-.16-.13.53.05.69.14,1.77.27,3.25l.3,2.95c.27,2.96-.27,6.72-1.61,11.28-1.34,4.56-3.43,9.98-6.26,16.28-.24.54-.38,1.16-.42,1.85-.05.69.06,1.37.32,2.03.46,1.16,1.07,2.11,1.83,2.83.76.72,1.62,1.15,2.57,1.29.57.16,1.41.21,2.51.16,1.1-.05,2.37-.2,3.81-.44,2.09-1.02,3.92-2.15,5.47-3.4,1.55-1.25,2.87-2.54,3.95-3.86.21-.28.56-.68,1.05-1.23.49-.54.94-1.19,1.35-1.92,1.35,1.32,2.56,2.51,3.61,3.57,1.06,1.06,1.94,1.99,2.64,2.8-1.94,4.34-3.88,7.81-5.84,10.4-1.95,2.59-4.01,4.31-6.17,5.16-.67.9-1.52,1.7-2.56,2.4-1.04.7-2.33,1.35-3.88,1.96-2.05.81-3.98,1.22-5.8,1.23-1.82.01-3.48-.36-4.99-1.11-.77-.33-1.65-.94-2.63-1.8-.98-.86-2.07-1.92-3.26-3.18-.98-1.02-1.8-1.74-2.47-2.14-.67-.41-1.29-.5-1.84-.28-.44.17-.86.58-1.25,1.21-.39.63-.75,1.5-1.09,2.59-.55-.74-1.34-1.62-2.37-2.62-1.03-1-2.35-2.24-3.96-3.72ZM83.67,138.34c-1.22.48-2.23,2.72-3.02,6.71-.8,3.99-.9,6.73-.31,8.23.13.33.29.54.49.62.19.09.51.04.95-.14.61-.24.98-.75,1.12-1.54.14-.79.26-1.53.38-2.21.39-.79.75-1.62,1.08-2.49.33-.86.65-1.71.97-2.54.36-1.04.55-2.01.58-2.91.03-.91-.11-1.75-.42-2.52-.2-.5-.45-.86-.76-1.09-.31-.23-.67-.27-1.05-.11Z"/>
    <path class="cls-3" d="M109.33,159.42l.07-.8c.16-.57.37-1.3.63-2.17.27-.87.58-1.89.95-3.06,2.49-5.2,4.61-11.07,6.36-17.61,1.74-6.54,3.15-13.82,4.21-21.85.2-.78.39-1.78.55-3,.16-1.21.28-2.7.36-4.46-.13-.33-.31-.55-.54-.65-.23-.1-.54-.07-.93.08-.33.13-.83.44-1.51.93-.67.49-1.2.81-1.59.96l-10.39,4.09c-.44.17-1.19.44-2.23.78-1.05.35-1.79.61-2.23.78-.66-.06-1.27-.09-1.81-.1-.55,0-1.09-.04-1.62-.08-.75.04-1.38-.05-1.88-.27-.5-.22-.85-.58-1.05-1.07-1.39-3.54-2.09-6.41-2.08-8.58,0-2.18.79-3.57,2.34-4.18,1.55-.61,3.03-1.11,4.45-1.51,1.41-.4,2.69-.69,3.83-.88.77-.49,1.48-.96,2.13-1.41,1.5-.59,2.79-1.03,3.89-1.34,1.1-.3,1.95-.48,2.58-.53.65-.45,1.3-.88,1.94-1.29.64-.41,1.34-.86,2.11-1.36l3.07-.25c1.85-.98,2.85-4.51,3-10.58.14-6.07,1.46-9.59,3.96-10.58,1.33-.52,2.52-.51,3.56.04,1.05.55,1.89,1.62,2.52,3.23.5,1.27.79,3.1.85,5.47.07,2.37.25,4.11.56,5.2.2.18.44.36.73.53.29.17.69.35,1.2.53.42.09.79.38,1.14.85.34.47.67,1.1.97,1.87,1.31,3.32,2.16,5.95,2.57,7.86.4,1.92.29,3.04-.35,3.35l-5.17,3.38c.11.6.23,1.33.38,2.2.15.87.29,1.88.43,3.05.15,3.14.48,7.07.99,11.8.51,4.72,1.19,10.28,2.03,16.66.94,5,1.74,9.04,2.41,12.1.66,3.07,1.19,5.1,1.58,6.09.35.89.75,1.5,1.2,1.83.45.33.95.39,1.51.17.33-.13,1.22-1.41,2.67-3.83,1.45-2.42,3.4-5.94,5.87-10.56l6.25,6.37c-.31.83-.81,1.85-1.48,3.08-.67,1.22-1.51,2.58-2.53,4.06-.31.83-.74,1.78-1.28,2.85-.54,1.07-1.11,2.31-1.71,3.7-.56,1.5-1.11,3-1.64,4.48-.53,1.49-1.09,2.96-1.67,4.4-.76,1.96-1.66,3.51-2.68,4.65-1.02,1.14-2.09,1.92-3.2,2.36-2.44.96-4.54.95-6.29-.02-1.76-.97-3.21-2.92-4.37-5.86-1.26-3.21-2.25-6.04-2.95-8.48-.7-2.44-1.09-4.48-1.16-6.12.05-.53.06-.98.04-1.36-.22-.55-.43-1.33-.63-2.34-.2-1.01-.45-2.19-.73-3.55-.52-2.29-1.01-4.59-1.47-6.91.09-1.57.17-3.23.24-4.99-.11-.28-.43-.44-.96-.49l-.63.82c-.31,1.66-.84,3.48-1.59,5.47-.75,1.99-1.73,4.15-2.92,6.48-1.76,3.83-3.56,7.7-5.41,11.62-.06.34-.2.88-.42,1.61-.23.73-.45,1.62-.68,2.67-.54-.56-1.22-1.26-2.04-2.13-.82-.86-1.71-1.87-2.68-3.02-.24-.29-.5-.54-.77-.75-.28-.21-.56-.36-.84-.44Z"/>
    <path class="cls-3" d="M256.43,101.46l6.33,6.34c-.54.91-2.03,2.11-4.49,3.58-2.46,1.48-5.73,3.21-9.8,5.2-3.01,6.67-6.31,12.53-9.92,17.59-3.61,5.06-7.5,9.27-11.67,12.64-.98.77-2.11,1.63-3.4,2.58-.89.35-1.93.55-3.12.6-1.19.05-2.56,0-4.09-.16-1.66-.31-3-.71-4.02-1.2-1.03-.49-1.7-1.15-2.03-1.98-.65-1.66-.48-3.58.51-5.77,1-2.18,2.77-4.58,5.33-7.18,5.07-5.32,10.05-10.64,14.93-15.95.89-.35,1.59-.42,2.12-.21.53.21.9.59,1.12,1.14.59,1.5.02,3.18-1.71,5.04-1.73,1.86-2.51,3.02-2.33,3.46.6.4,1.05.55,1.32.44.72-.28,1.89-1.99,3.5-5.12,1.62-3.13,2.29-4.96,2.01-5.49l-1.17-1.75.04-.4c.94-1.84,1.56-3.4,1.86-4.66.3-1.27.33-2.21.09-2.82-.54-1.38-1.97-2.97-4.27-4.75-2.3-1.78-5.48-3.76-9.53-5.94-3.11-1.72-6.11-3.18-9.01-4.37-2.9-1.19-5.62-2.18-8.17-2.97-1.04-.36-1.96-.75-2.76-1.17-.8-.42-1.48-.84-2.03-1.26-1.05-.87-1.89-1.59-2.53-2.17-.64-.58-1.15-.92-1.51-1.04-.41-.22-.94-.48-1.6-.76-.66-.28-1.44-.6-2.34-.95-1.64-.76-3.21-2.1-4.69-4.01-1.49-1.91-2.86-4.47-4.13-7.68-.83-2.1-1.34-4.26-1.53-6.45-.19-2.19-.04-4.29.46-6.27.04-.4.05-.85.04-1.36,0-.51-.01-1.08,0-1.72.25-3.1,1.3-6.77,3.16-10.98,1.86-4.22,4.59-8.98,8.19-14.3.53-.59,1.16-1.35,1.89-2.28.72-.92,1.49-2.06,2.31-3.4.45-.81.99-1.6,1.61-2.36.63-.76,1.42-1.55,2.38-2.37,1.26-1.2,2.68-2.53,4.28-3.99,2.2-2.53,4.09-4.49,5.65-5.87,1.57-1.38,2.82-2.26,3.76-2.63,1.83-.72,3.42-.7,4.77.04,1.35.75,2.44,2.18,3.27,4.28.92,2.33,1.48,4.3,1.7,5.9.22,1.61.12,2.78-.29,3.52-4.49,7.78-8.21,13.77-11.16,17.97-2.95,4.2-5.23,6.62-6.84,7.25-.78.31-1.47.32-2.09.05-.62-.27-1.1-.84-1.45-1.73-.59-1.49,0-3.63,1.79-6.41,1.78-2.78,2.46-4.63,2.04-5.55l-.94-.21c-.28.11-.56.32-.86.63-.29.31-.58.68-.86,1.11-3.33,5.85-5.61,10.83-6.84,14.92-1.23,4.1-1.39,7.31-.48,9.64.72,1.83,1.77,3.56,3.15,5.19,1.38,1.63,3.07,3.21,5.07,4.72,1.43,1.04,3.41,2.29,5.94,3.76,2.53,1.47,5.68,3.19,9.46,5.15,5.23,2.74,9.27,4.86,12.1,6.37,2.83,1.51,4.38,2.27,4.65,2.3,1.67,1.01,3.18,2.08,4.52,3.21,1.34,1.14,2.41,2.31,3.21,3.53.69.94,1.4,2.17,2.12,3.68.72,1.51,1.52,3.37,2.39,5.58.51,1.3,1,1.97,1.46,2.02.46.04,1.14-.11,2.03-.46.33-.13.57-.3.71-.52.14-.21.28-.48.41-.79Z"/>
    <path class="cls-3" d="M256.21,101.64c.16-.25.26-.52.31-.79.05-.27.01-.58-.12-.91.64-1.15,1.28-2.63,1.94-4.46.66-1.82,1.37-3.95,2.15-6.36.56-2.14,1.17-4.3,1.82-6.47.65-2.17,1.39-4.39,2.23-6.64.56-2.14,1.09-4.34,1.57-6.62.48-2.27,1.05-4.52,1.7-6.76,1.8-1.92,3.22-3.35,4.27-4.27,1.04-.92,1.79-1.47,2.23-1.65.83-.33,1.57-.31,2.22.04.65.35,1.17,1.03,1.56,2.02.13.33.23.84.31,1.51.07.67.14,1.42.2,2.22.05,1.26.05,2.57.01,3.93.32,2.11.56,4.26.71,6.44.15,2.18.32,4.32.51,6.42.38,2.6.81,4.96,1.29,7.07.48,2.11,1.05,4,1.7,5.66,1.22,3.1,2.28,5.34,3.17,6.72.89,1.38,1.58,1.87,2.07,1.49.42-.55.96-1.22,1.6-2.02.65-.8,1.4-1.72,2.27-2.76.58-1.44,1.19-3.19,1.83-5.23.64-2.04,1.43-4.46,2.37-7.26.39-1.94.81-3.87,1.28-5.78.21-.59.46-1.3.75-2.12.29-.82.53-1.62.73-2.4,0-3.07.4-5.52,1.19-7.33.79-1.81,1.99-3.04,3.59-3.67,1.44-.57,2.66-.84,3.66-.82,1,.02,1.81.33,2.42.92.32.32.72.93,1.2,1.83.48.9,1.03,2.12,1.64,3.67.24.61.71,1.45,1.42,2.51.71,1.06,1.17,1.88,1.39,2.43.81,2.05,1.77,3.45,2.89,4.19,1.12.74,2.43.82,3.93.23.44-.17.94-.46,1.48-.87.54-.4,1.08-.84,1.6-1.3l6.33,6.34c-2.54,3.3-4.67,5.88-6.4,7.75-1.73,1.86-3.12,3-4.17,3.42-2.77,1.09-5.32,1.26-7.66.52-2.34-.74-4.48-2.36-6.42-4.86-.37-.62-.87-1.19-1.49-1.72-.62-.52-1.34-1.01-2.16-1.46-.28.75-.59,1.64-.92,2.66-.33,1.03-.71,2.07-1.12,3.13-.78,2.42-1.57,4.79-2.38,7.12s-1.65,4.67-2.53,6.99c-1.05,3.04-2.35,5.45-3.91,7.25-1.56,1.8-3.2,3.04-4.92,3.71-2.55,1-4.9,1.05-7.05.13-2.15-.91-4.04-2.78-5.66-5.59-1.63-2.68-2.85-4.8-3.64-6.34-.8-1.54-1.21-2.5-1.23-2.88-.74-1.56-1.38-2.72-1.9-3.48-.52-.75-.98-1.06-1.36-.9l-.4.45-2.81,6.76c-.01.45-.1,1.05-.26,1.78-.16.73-.41,1.65-.75,2.74-.55-.74-1.34-1.62-2.37-2.62-1.03-1-2.35-2.24-3.96-3.72Z"/>
    <path class="cls-3" d="M325.16,74.51c.43-1.51.84-3.08,1.22-4.7,2.73-4.91,4.79-9.42,6.15-13.5,1.37-4.09,2.11-7.69,2.23-10.81l-2.4-3.66c.17-1.67,1.32-4,3.43-7.01,2.11-3,4.05-4.86,5.83-5.55,1.88-.74,3.69-.81,5.43-.22,1.74.6,3.46,1.26,5.15,2,.76.15,1.32.28,1.69.39,2.87.79,5.43,2.43,7.7,4.93,2.26,2.5,4.22,5.85,5.88,10.06.87,2.22,1.26,5.72,1.17,10.53-.09,4.8.27,8.26,1.1,10.36.11.28.29.46.55.55.26.09.56.07.89-.06.72-.28,1.45-.94,2.2-1.97.75-1.03,1.48-2.33,2.21-3.89,1.8-4.03,2.95-6.32,3.44-6.87.49-.54,1.04-1.35,1.64-2.42.88.93,1.87,1.92,2.98,2.95,1.11,1.03,2.23,2.16,3.35,3.38-.32.64-.68,1.39-1.08,2.25-.4.86-.89,1.85-1.47,2.98-1.34,2.13-3.13,4.77-5.38,7.92-2.25,3.16-4.97,6.83-8.18,11.04-.83,1.16-1.87,2.24-3.14,3.25-2.33.92-4.21,1.26-5.64,1.02-1.44-.23-2.46-1.13-3.07-2.68-.24-.61-.39-1.36-.46-2.27-.07-.9-.06-1.91,0-3.03.05-.85.12-1.73.21-2.63.09-.9.13-1.79.1-2.68-.16-3.97-.5-7.57-1.04-10.82-.54-3.24-1.28-6.05-2.21-8.43-1.15-2.94-2.49-5-4.02-6.19-1.52-1.19-3.24-1.54-5.16-1.04-.96,1.14-1.92,2.61-2.88,4.39-.96,1.79-1.83,3.89-2.61,6.3-.82,2.63-1.62,4.83-2.39,6.6-.77,1.77-1.49,3.05-2.14,3.82-.17,1.03-.6,2.29-1.3,3.77-.69,1.49-1.71,3.2-3.06,5.14-.02.27-.06.66-.11,1.19-.05.53-.21,1.17-.49,1.92-.94-1.1-1.94-2.16-2.98-3.19-1.04-1.03-2.16-2.08-3.35-3.14Z"/>
  </g>
  <g>
    <rect class="cls-2" x="226.94" y="165.85" width="11" height="11" rx="1.82" ry="1.82" transform="translate(-47.52 100.56) rotate(-22.21)"/>
    <rect class="cls-2" x="241.14" y="160.06" width="11" height="11" rx="1.82" ry="1.82" transform="translate(-44.28 105.5) rotate(-22.21)"/>
    <rect class="cls-2" x="255.33" y="154.26" width="11" height="11" rx="1.82" ry="1.82" transform="translate(-41.03 110.43) rotate(-22.21)"/>
    <rect class="cls-2" x="269.53" y="148.47" width="11" height="11" rx="1.82" ry="1.82" transform="translate(-37.79 115.37) rotate(-22.21)"/>
    <rect class="cls-2" x="283.73" y="142.67" width="11" height="11" rx="1.82" ry="1.82" transform="translate(-34.55 120.31) rotate(-22.21)"/>
    <rect class="cls-2" x="297.92" y="136.87" width="11" height="11" rx="1.82" ry="1.82" transform="translate(-31.3 125.24) rotate(-22.21)"/>
    <rect class="cls-2" x="312.12" y="131.08" width="11" height="11" rx="1.82" ry="1.82" transform="translate(-28.06 130.18) rotate(-22.21)"/>
    <rect class="cls-2" x="326.31" y="125.28" width="11" height="11" rx="1.82" ry="1.82" transform="translate(-24.82 135.11) rotate(-22.21)"/>
    <rect class="cls-2" x="340.51" y="119.49" width="11" height="11" rx="1.82" ry="1.82" transform="translate(-21.57 140.05) rotate(-22.21)"/>
    <rect class="cls-2" x="354.71" y="113.69" width="11" height="11" rx="1.82" ry="1.82" transform="translate(738.74 93.4) rotate(157.79)"/>
    <rect class="cls-2" x="368.9" y="107.9" width="11" height="11" rx="1.82" ry="1.82" transform="translate(763.89 76.88) rotate(157.79)"/>
    <rect class="cls-2" x="383.1" y="102.1" width="11" height="11" rx="1.82" ry="1.82" transform="translate(-11.84 154.86) rotate(-22.21)"/>
    <rect class="cls-2" x="397.29" y="96.31" width="11" height="11" rx="1.82" ry="1.82" transform="translate(-8.6 159.79) rotate(-22.21)"/>
    <rect class="cls-2" x="411.49" y="90.51" width="11" height="11" rx="1.82" ry="1.82" transform="translate(-5.36 164.73) rotate(-22.21)"/>
    <rect class="cls-2" x="425.69" y="84.72" width="11" height="11" rx="1.82" ry="1.82" transform="translate(-2.11 169.66) rotate(-22.21)"/>
    <rect class="cls-2" x="439.88" y="78.92" width="11" height="11" rx="1.82" ry="1.82" transform="translate(1.13 174.6) rotate(-22.21)"/>
    <rect class="cls-2" x="454.08" y="73.13" width="11" height="11" rx="1.82" ry="1.82" transform="translate(4.37 179.53) rotate(-22.21)"/>
    <rect class="cls-2" x="468.27" y="67.33" width="11" height="11" rx="1.82" ry="1.82" transform="translate(7.62 184.47) rotate(-22.21)"/>
    <rect class="cls-2" x="482.47" y="61.53" width="11" height="11" rx="1.82" ry="1.82" transform="translate(10.86 189.4) rotate(-22.21)"/>
  </g>
</svg>