<?xml version="1.0" encoding="UTF-8"?>
<svg id="Capa_1" data-name="Capa 1" xmlns="http://www.w3.org/2000/svg" xmlns:xlink="http://www.w3.org/1999/xlink" viewBox="0 0 611 182">
  <defs>
    <style>
      .cls-1 {
        fill: none;
        stroke: url(#Degradado_sin_nombre_6-3);
        stroke-miterlimit: 10;
        stroke-width: 3px;
      }

      .cls-2 {
        fill: #000;
      }

      .cls-2, .cls-3, .cls-4, .cls-5 {
        stroke-width: 0px;
      }

      .cls-3 {
        fill: url(#Degradado_sin_nombre_6-2);
      }

      .cls-4 {
        fill: #f8b01a;
      }

      .cls-5 {
        fill: url(#Degradado_sin_nombre_6);
      }
    </style>
    <linearGradient id="Degradado_sin_nombre_6" data-name="Degradado sin nombre 6" x1="51.53" y1="109.36" x2="40.74" y2="59.29" gradientUnits="userSpaceOnUse">
      <stop offset="0" stop-color="#f2a04d"/>
      <stop offset=".9" stop-color="#e54325"/>
      <stop offset="1" stop-color="#e43921"/>
    </linearGradient>
    <linearGradient id="Degradado_sin_nombre_6-2" data-name="Degradado sin nombre 6" x1="140.69" y1="92.88" x2="161.72" y2="5" xlink:href="#Degradado_sin_nombre_6"/>
    <linearGradient id="Degradado_sin_nombre_6-3" data-name="Degradado sin nombre 6" x1="25.71" y1="94.31" x2="201.65" y2="94.31" xlink:href="#Degradado_sin_nombre_6"/>
  </defs>
  <g>
    <path class="cls-2" d="M432.96,142.66v7.37c-13.91,8.1-37.73.92-43.95-19.63-4.21-13.93-.79-26.51,10.96-35.75,10-7.86,21.3-9.39,33.07-4.31,11.75,5.07,18.73,14.21,19.51,26.98.71,11.66.15,23.4.15,35.51h-7.4c0-6.63,0-13.04,0-19.45,0-4.7-.24-9.4.01-14.09.54-10.16-8.51-22.11-21.53-24.05-11.14-1.66-23.24,4.89-27.19,15.81-3.6,9.99-2.13,19.39,5.6,27.06,7.24,7.19,15.96,9.42,25.84,6.32,1.47-.46,2.9-1.04,4.93-1.78Z"/>
    <path class="cls-2" d="M544.45,142.74v7.51c-6.65,3.46-13.69,3.94-20.85,1.87-13.44-3.88-21.96-12.75-24.15-26.6-2.11-13.29,2.56-24.46,13.74-32.12,11.37-7.78,23.62-8,35.4-1.11,9.67,5.66,15.3,14.68,15.86,25.96.56,11.32.12,22.68.12,34.68-2.21.11-4.23.21-6.94.35-.14-2.37-.35-4.43-.36-6.49-.04-8.62.17-17.24-.08-25.84-.4-13.98-9.11-23.76-22.58-25.8-15.38-2.32-30.09,12.07-28.17,27.54,2.14,17.21,18.11,27.09,34.41,21.3,1.08-.38,2.17-.76,3.58-1.25Z"/>
    <path class="cls-2" d="M322.7,153.06h-7.62c0-3.8,0-7.47,0-11.13,0-6.85-.1-13.7.02-20.55.45-26.02,24.93-41.36,48.23-29.95,9.27,4.54,15.73,12.56,16.67,22.74,1.18,12.75.28,25.69.28,38.92-1.27.08-2.39.21-3.51.21-.93,0-1.86-.14-3.33-.27,0-10.8-.05-21.33.02-31.85.04-6.34-1.97-11.88-5.89-16.79-6.32-7.92-17.27-11.35-26.89-8.38-10.28,3.17-17.61,12.31-17.9,22.9-.26,9.39-.08,18.79-.09,28.18,0,1.91,0,3.82,0,5.97Z"/>
    <path class="cls-2" d="M554.46,152.98h-6.92c-.11-1.65-.31-3.34-.32-5.03-.03-9.19.14-18.38-.07-27.56-.21-9.45-6.88-15.48-16.24-15.38-6.77.07-10.87,3.91-13.55,9.48-2.65,5.49-1.21,12.24,3.39,16.71,4.57,4.45,10.05,5.96,16.11,3.56,2.64-1.04,5-2.78,7.59-4.26v8.27c-7.48,6.99-21.35,4.95-27.9-1.12-8.98-8.32-10.49-20.71-3.76-30.25,6.02-8.54,16.28-11.96,26.43-8.83,8.45,2.61,14.98,11.31,15.18,20.95.22,10.93.05,21.87.05,33.47Z"/>
    <path class="cls-2" d="M442.55,152.95h-6.41c-.14-1.33-.43-2.8-.43-4.27-.04-9.19.07-18.39-.05-27.58-.13-10.2-6.77-16.41-16.76-16.07-6.49.22-10.56,3.92-12.98,9.39-2.6,5.88-1.53,11.56,2.86,16.31,4.17,4.52,9.45,6.29,15.38,4.41,3.03-.96,5.75-2.91,8.78-4.5v8.36c-11.86,7.68-26.14,4.32-32.87-7.63-6.52-11.57-1.67-26.95,10.89-31.98,14.26-5.72,28.99,1.42,31.21,16,1.85,12.16.38,24.83.38,37.56Z"/>
    <path class="cls-2" d="M332.27,153.2h-6.59c-.16-1.56-.43-3.05-.44-4.55-.04-9.39-.09-18.77,0-28.16.13-13.16,9.33-22.63,22.23-23.01,12.43-.37,22.92,9.32,23.37,22.09.34,9.57.08,19.16.09,28.74,0,1.35,0,2.71,0,4.69-2.25.12-4.28.22-6.85.35-.18-1.95-.46-3.62-.47-5.29-.05-8.21.08-16.43-.08-24.64-.06-2.9-.28-5.94-1.22-8.64-2.53-7.31-9.8-11.02-17.95-9.61-6.2,1.08-11.86,7.77-12.02,14.81-.21,8.99-.06,17.99-.07,26.98,0,1.91,0,3.83,0,6.22Z"/>
    <path class="cls-2" d="M461.84,58.12h6.81c0,2.27,0,4.35,0,6.43,0,17.02.44,34.06-.13,51.07-.54,16.12,8.17,28.18,23.69,30.48.37.05.71.3,1.39.6v6.33c-7.71.68-14.02-2.43-19.54-6.7-7.76-6-12.4-14.22-12.53-24.18-.27-20.54-.1-41.09-.09-61.64,0-.57.18-1.13.4-2.4Z"/>
    <path class="cls-2" d="M275.87,146.54v6.61c-8.2.25-14.88-3.02-20.65-8.05-7.43-6.48-11.14-14.86-11.12-24.85.03-19.36-.03-38.73-.03-58.09,0-1.15.16-2.29.27-3.85h6.91c0,2.18,0,4.28,0,6.38,0,17.6.36,35.22-.11,52.81-.42,15.44,9.43,26.38,22.53,28.32.57.08,1.11.36,2.21.72Z"/>
    <path class="cls-2" d="M572.9,58.15h6.94v6.46c0,17.43.55,34.88-.17,52.27-.6,14.76,8.71,26.86,22.58,28.94.74.11,1.44.47,2.36.78v6.31c-6.4.87-11.8-1.7-16.86-4.92-8.36-5.32-14.32-13.03-14.64-22.88-.7-22.07-.22-44.18-.22-66.98Z"/>
    <path class="cls-2" d="M275.85,136.3v6.5c-9.98,1.14-21.66-8.37-21.88-20.18-.39-21.29-.11-42.59-.11-64.31h7.55c0,2.41,0,4.52,0,6.63,0,17.61.27,35.22-.09,52.83-.24,11.52,5.43,16.5,14.53,18.54Z"/>
    <path class="cls-2" d="M582.44,58.13h7.03c.12,2.13.33,4.2.33,6.26.03,17.03.15,34.06-.03,51.09-.11,11.08,1.86,17.28,14.98,21.18.09,1.07.26,2.21.25,3.36-.01.94-.25,1.87-.38,2.76-11.6.18-21.76-8.48-22.03-19.99-.51-21.3-.14-42.63-.14-64.66Z"/>
    <path class="cls-2" d="M471.33,89.02h22.49c.09,2.15.18,4.03.3,6.73h-14.99c0,9.93-.41,19.08.16,28.18.33,5.17,4.03,8.78,8.91,10.76,1.77.72,3.65,1.18,5.67,1.82v6.24c-5.35,1.06-9.75-1.26-13.78-4.26-5.48-4.09-8.46-9.87-8.66-16.61-.32-10.73-.09-21.48-.09-32.85Z"/>
    <path class="cls-2" d="M293.74,153.13h-6.65v-65.24h6.65v65.24Z"/>
    <path class="cls-2" d="M297.35,87.75h6.39v65.27h-6.39v-65.27Z"/>
    <path class="cls-2" d="M478.74,78.71h15.01v7.12h-22.03v-27.48h7.02v20.36Z"/>
    <path class="cls-2" d="M296.33,73.07v-15.65c4.49.57,7.16,3.16,7.44,7.18.28,4.05-2.01,6.73-7.44,8.47Z"/>
    <path class="cls-2" d="M293.6,56.98v16.26c-4.41-1.06-6.6-3.64-6.97-7.69-.35-3.9,1.73-6.5,6.97-8.57Z"/>
  </g>
  <g>
    <polygon class="cls-5" points="24.95 126.38 67.2 28.98 5 46.58 24.95 126.38"/>
    <polygon class="cls-4" points="61.33 176.84 210.33 176.84 200.97 138.11 61.33 176.84"/>
    <polygon class="cls-3" points="95.36 105.26 185.72 81.79 163.42 3.16 135.83 11.47 95.36 105.26"/>
    <polygon class="cls-1" points="71.61 28.98 130.56 12.55 89.49 111.12 185.72 85.18 199.8 135.77 47.64 176.84 39.55 176.84 27.3 129.9 71.61 28.98"/>
  </g>
</svg>