<?xml version="1.0" encoding="UTF-8"?>
<svg id="Capa_1" data-name="Capa 1" xmlns="http://www.w3.org/2000/svg" viewBox="0 0 632 139">
  <defs>
    <style>
      .cls-1 {
        fill: #000;
        stroke-width: 0px;
      }
    </style>
  </defs>
  <path class="cls-1" d="M37.74,35.66l-21.37,58.85c-3.46,9.52,3.59,19.59,13.73,19.59h72.03l7.36-20.5h-58.49c-3.09,0-5.23-3.07-4.17-5.97l19.02-51.97h-28.11Z"/>
  <polygon class="cls-1" points="111.4 114.1 138.45 114.1 167.06 35.66 139.23 35.66 111.4 114.1"/>
  <polygon class="cls-1" points="354.22 114.1 381.27 114.1 409.88 35.66 382.05 35.66 354.22 114.1"/>
  <polygon class="cls-1" points="195 74.88 177.08 126.26 205.81 126.26 223.18 74.88 195 74.88"/>
  <path class="cls-1" d="M279.18,37.04l-20.44,57.6c-3.37,9.49,3.67,19.46,13.75,19.46h51.27c11.6,0,22.05-7.04,26.41-17.79l24.02-59.27h-31.23l-20.08,53.36c-.83,2.21-2.94,3.67-5.3,3.67h-22c-3.94,0-6.67-3.92-5.31-7.61l18.17-49.41h-29.25Z"/>
  <polygon class="cls-1" points="391.95 114.1 418.98 114.1 433.52 75.57 459.58 114.1 483.37 114.1 512.42 37.04 483.54 37.04 469.92 75.57 443.61 37.04 418.25 37.04 391.95 114.1"/>
  <polygon class="cls-1" points="428.18 37.04 456.69 13.13 474.17 13.13 476.93 22.32 486.12 14.97 507.28 14.97 483.54 37.04 465.69 37.04 461.29 28.76 452.19 37.04 428.18 37.04"/>
  <path class="cls-1" d="M615.47,35.66h-66.83c-15.92,0-30.16,9.9-35.7,24.83l-11.32,30.5c-4.16,11.2,4.13,23.12,16.08,23.12h68.67l7.36-20.04h-58.41c-2.79,0-5.06-2.26-5.06-5.06h0c0-2.79,2.26-5.06,5.06-5.06h62.08l5.52-18.4h-60.7c-2.54,0-4.6-2.06-4.6-4.6h0c0-2.54,2.06-4.6,4.6-4.6h65.3l7.94-20.69Z"/>
  <path class="cls-1" d="M242.76,35.66h-42.07c-14.2,0-26.92,8.79-31.93,22.08l-12.76,33.82c-4.11,10.89,3.94,22.54,15.59,22.54h49.49c12.76,0,24.13-8.05,28.37-20.09l11.5-32.68c4.41-12.54-4.89-25.68-18.18-25.68ZM229.52,70.09l-4.64,14.56c-1.71,5.36-6.3,8.95-11.45,8.95h-19.97c-4.7,0-7.95-5.19-6.29-10.04l5.15-15.07c2.02-5.92,7.15-9.84,12.88-9.84h16.97c5.36,0,9.12,5.85,7.34,11.44Z"/>
</svg>