<?xml version="1.0" encoding="UTF-8"?>
<svg id="Capa_1" data-name="Capa 1" xmlns="http://www.w3.org/2000/svg" viewBox="0 0 612 157">
  <defs>
    <style>
      .cls-1, .cls-2 {
        fill: #1f3663;
        stroke: #fff;
        stroke-miterlimit: 10;
      }

      .cls-3 {
        fill: #009038;
      }

      .cls-3, .cls-4 {
        stroke-width: 0px;
      }

      .cls-2 {
        stroke-width: .5px;
      }

      .cls-5 {
        fill: none;
        stroke: #009038;
        stroke-linecap: round;
        stroke-linejoin: round;
        stroke-width: 12px;
      }

      .cls-4 {
        fill: #fff;
      }
    </style>
  </defs>
  <path class="cls-5" d="M12.5,130.5S121.5,62,206.5,48.75l-18,46.75S371.5,22.5,598.5,20.5"/>
  <path class="cls-1" d="M38.8,98h0c3.48,0,6.53-2.36,7.39-5.74l10.31-40.31c.15-.57.94-.59,1.13-.04l13.79,42.22c.96,2.95,3.59,5.05,6.69,5.33h0c3.49.32,6.75-1.74,7.98-5.01l24.49-65.31c1.71-4.56-1.46-9.47-6.32-9.79h0c-3.13-.21-6.05,1.62-7.22,4.54l-16.43,40.86c-.32.8-1.5.69-1.66-.16l-6.86-36.59c-.91-4.84-5.29-8.24-10.21-7.91h0c-3.87.26-7.22,2.79-8.52,6.45l-21.75,61.29c-1.76,4.97,1.92,10.18,7.19,10.18Z"/>
  <path class="cls-1" d="M159.04,66.29l-2.04-.29,1.75-42.79c.14-3.49-2.46-6.48-5.93-6.83-2.36-.24-4.66.81-6.03,2.74l-48.43,68.15c-1.86,2.62-1.27,6.25,1.32,8.14h0c2.92,2.14,7.05,1.16,8.7-2.06l7.29-14.22c.51-1.01,1.55-1.64,2.68-1.64h21.15c1.66,0,3,1.35,2.99,3.01l-.05,8.91c-.02,3.9,3.13,7.08,7.04,7.08s7.04-3.15,7.04-7.04v-10.96l3.31-.94c2.48-.71,4.19-2.97,4.19-5.55,0-2.87-2.11-5.31-4.96-5.71ZM144.32,63.94c0,1.97-1.6,3.56-3.56,3.56h-12.45c-1.96,0-3.07-2.26-1.87-3.81l15.52-20.12c.77-1,2.37-.45,2.37.81v19.56Z"/>
  <path class="cls-1" d="M239.34,28.24c-3.88-3.52-11.37-7.3-25.84-8.74,0,0-8.01-8-13.01,0h-5.78c-1.41,0-2.74.61-3.67,1.66-2.47,2.82-.96,7.25,2.71,7.99l1.74.35c1.58,1.47-17.38,13.39-25.01,61.94-.6,3.8,2.2,7.3,6.04,7.57,3.62.26,6.77-2.44,7.04-6.06.65-8.61,2.65-23.55,8.73-31.24,1.35-1.7,4.01-1.42,5.01.51,3.69,7.19,12.2,23.41,17.62,31.18,1.75,2.51,5.04,3.41,7.82,2.13,4.01-1.85,4.94-7.15,1.77-10.23-6.77-6.57-16.03-17.29-16.03-26.81,0,0,24.39-3.15,32.7-17.12,2.54-4.28,1.84-9.78-1.85-13.13ZM231.88,37.66c-.11,1.39-.73,2.68-1.62,3.75-2.52,3.01-9.75,8.63-28.98,9.9-1.73.11-2.98-1.63-2.28-3.22,2.08-4.73,5.82-13.23,7.93-18.03.97-2.2,3.24-3.5,5.62-3.23,6.85.77,19.92,3.24,19.33,10.83Z"/>
  <path class="cls-1" d="M374.5,31.5s0-17-45-14c0,0-22,0-8.5,11.5l-9,23-4.52-.36c-2.28-.18-4.35,1.32-4.89,3.54-.6,2.51.96,5.04,3.48,5.61l.92.21-11.36,25.66c-1.2,2.71.25,5.86,3.1,6.69,10.06,2.91,32.94,6.46,53.81-12.19,9.1-8.13,7.15-23.15-3.96-28.19-.35-.16-.72-.32-1.09-.47,0,0,29-7,27-21ZM343.83,78.86c-11.81,9.72-33.33,7.64-33.33,7.64l9-27c11.4-1.18,18.47.42,22.86,2.8,6.31,3.42,7.02,12,1.48,16.56ZM360.31,38.8c-3.31,3.75-12.17,8.88-35.81,10.7l10.41-21.73s16.82-1.58,24.26,3.14c2.71,1.72,3.27,5.49,1.15,7.9Z"/>
  <path class="cls-1" d="M401.45,14.84c-8.29,9.56-33.53,41.53-26.58,69.02,1.74,6.89,7.78,12.01,14.88,12.26,6.68.23,15.56-2.72,24.88-15.04.76-1.01,2.34-.7,2.65.52.34,1.37.76,3.05,1.18,4.74,1.13,4.5,5.69,7.24,10.19,6.11h0c2.44-.61,4.37-2.24,5.44-4.32s.4-4.54-1.11-6.35c-1.2-1.45-1.37-4.88-.48-10.29,0,0,11.13-33.38,20.14-50.37,2.32-4.36-.28-9.71-5.15-10.57h0c-3.44-.61-6.82,1.32-8.06,4.59-5.82,15.38-23.16,57.57-42.08,68.39-1.71.98-3.67,1.48-5.64,1.34-6.63-.46-14.19-20.31,18.6-62.99,2.33-3.03,1-7.45-2.63-8.66l-.13-.04c-2.21-.74-4.61-.08-6.12,1.65Z"/>
  <path class="cls-1" d="M482.51,56.42l-7.27-4.69c-2.27-1.47-2.61-4.66-.67-6.55,6.21-6.06,20.24-17.22,39.58-17.66,1.28-.03,2.33,1,2.29,2.28-.07,2.34-.94,6.35-4.95,11.39-1.44,1.81-.95,4.47,1.05,5.61h0c1.68.96,3.82.48,4.94-1.11l10.74-15.35c1.38-1.96,2.4-4.17,2.86-6.52.91-4.6-.02-10.57-12.33-7.88-1.33.29-2.66.59-4.01.81-6.35,1.08-28.82,6.14-51.13,25.84-2.07,1.83-3.65,4.19-4.33,6.87-.83,3.24-.6,7.36,4.22,10.03l25.7,12.41c2.51,1.21,3.4,4.44,1.7,6.65-2.71,3.53-9.9,6.93-28.78,2.79-2-.44-3.74-1.63-4.87-3.33-1.86-2.8-5.9-6.05-12.75,1.48,0,0-12,16,26,15,0,0,32.52-2.38,36.81-17.74.92-3.29-.69-6.76-3.66-8.43l-21.14-11.91Z"/>
  <g>
    <polyline class="cls-3" points="281.01 29 255.19 52.98 264.98 38.78 256.09 30 271.03 30 280.81 15.8 280.26 30"/>
    <polyline class="cls-2" points="281.64 29.05 256.04 53.23 271.17 44.09 280.46 52.49 280.53 38.44 295.67 29.3 280.57 29.75"/>
  </g>
  <g>
    <g>
      <rect class="cls-3" x="197.04" y="120.61" width="9.96" height="25.38"/>
      <path class="cls-4" d="M206.5,121.11v24.38h-8.96v-24.38h8.96M207.5,120.11h-10.96v26.38h10.96v-26.38h0Z"/>
    </g>
    <g>
      <path class="cls-3" d="M229.43,145.98l-8.14-10.97c-.51-.69-1.03-1.46-1.55-2.3.03.34.05.66.05.96v12.3h-8.27v-25.38h9.21l6.95,9.13c.65.85,1.23,1.66,1.73,2.42-.16-1.26-.24-2.55-.24-3.83v-7.71h8.29v25.38h-8.04Z"/>
      <path class="cls-4" d="M236.97,121.11v24.38h-7.29l-7.99-10.77c-1.03-1.38-2.06-3.06-3.1-5.03.47,1.57.71,2.9.71,4v11.8h-7.27v-24.38h8.46l6.8,8.93c1.35,1.77,2.38,3.33,3.08,4.68-.46-2.08-.68-4.21-.68-6.39v-7.21h7.29M237.97,120.11h-9.29v8.21c0,.67.02,1.33.06,1.99-.21-.29-.43-.58-.66-.88l-6.8-8.93-.3-.39h-9.96v26.38h9.27v-12.01c.2.29.4.57.59.83l7.99,10.77.3.4h8.79v-26.38h0Z"/>
    </g>
    <g>
      <polygon class="cls-3" points="245.5 145.98 245.5 127.45 239.45 127.45 239.45 120.61 261.03 120.61 261.03 127.45 254.98 127.45 254.98 145.98 245.5 145.98"/>
      <path class="cls-4" d="M260.53,121.11v5.84h-6.05v18.54h-8.49v-18.54h-6.05v-5.84h20.58M261.53,120.11h-22.58v7.84h6.05v18.54h10.49v-18.54h6.05v-7.84h0Z"/>
    </g>
    <g>
      <polygon class="cls-3" points="263.01 145.98 263.01 120.61 285.97 120.61 285.97 127.23 272.8 127.23 272.8 129.77 283.44 129.77 283.44 136.18 272.8 136.18 272.8 139.16 285.97 139.16 285.97 145.98 263.01 145.98"/>
      <path class="cls-4" d="M285.47,121.11v5.62h-13.17v3.54h10.64v5.41h-10.64v3.98h13.17v5.82h-21.95v-24.38h21.95M286.47,120.11h-23.95v26.38h23.95v-7.82h-13.17v-1.98h10.64v-7.41h-10.64v-1.54h13.17v-7.62h0Z"/>
    </g>
    <g>
      <path class="cls-3" d="M305.17,145.98l-4.26-9.32h-2v9.32h-9.96v-25.38h15.74c3.45,0,6.19.69,8.12,2.06,1.99,1.41,3,3.3,3,5.61,0,1.49-.37,2.84-1.1,3.99-.69,1.09-1.96,2.02-3.88,2.84l5.4,10.87h-11.06ZM302.23,130.45c1.03,0,1.86-.18,2.47-.52.53-.3.77-.72.77-1.3,0-.5,0-1.84-2.94-1.84h-3.62v3.66h3.33Z"/>
      <path class="cls-4" d="M304.69,121.11c3.36,0,5.97.66,7.83,1.97,1.86,1.32,2.79,3.05,2.79,5.21,0,1.4-.34,2.65-1.03,3.72-.68,1.08-2.07,2.03-4.15,2.85l5.28,10.62h-9.93l-4.26-9.32h-2.82v9.32h-8.96v-24.38h15.24M298.41,130.95h3.83c1.13,0,2.03-.2,2.71-.59.68-.39,1.03-.97,1.03-1.73,0-1.56-1.15-2.34-3.44-2.34h-4.12v4.66M304.69,120.11h-16.24v26.38h10.96v-9.32h1.18l3.99,8.74.27.58h12.18l-.72-1.45-4.81-9.68c1.75-.81,2.94-1.74,3.62-2.82.78-1.23,1.18-2.67,1.18-4.26,0-2.49-1.08-4.51-3.21-6.02-2.02-1.43-4.85-2.16-8.41-2.16h0ZM299.41,127.29h3.12c2.44,0,2.44.9,2.44,1.34,0,.4-.15.65-.52.86-.53.3-1.27.46-2.22.46h-2.83v-2.66h0Z"/>
    </g>
    <g>
      <path class="cls-3" d="M337.5,145.98l-8.14-10.97c-.51-.69-1.03-1.46-1.55-2.3.03.34.05.66.05.96v12.3h-8.27v-25.38h9.21l6.95,9.13c.65.85,1.23,1.66,1.73,2.42-.16-1.26-.24-2.55-.24-3.83v-7.71h8.29v25.38h-8.04Z"/>
      <path class="cls-4" d="M345.04,121.11v24.38h-7.29l-7.99-10.77c-1.03-1.38-2.06-3.06-3.1-5.03.47,1.57.71,2.9.71,4v11.8h-7.27v-24.38h8.46l6.8,8.93c1.35,1.77,2.38,3.33,3.08,4.68-.46-2.08-.68-4.21-.68-6.39v-7.21h7.29M346.04,120.11h-9.29v8.21c0,.67.02,1.33.06,1.99-.21-.29-.43-.58-.66-.88l-6.8-8.93-.3-.39h-9.96v26.38h9.27v-12.01c.2.29.4.57.59.83l7.99,10.77.3.4h8.79v-26.38h0Z"/>
    </g>
    <g>
      <path class="cls-3" d="M366.29,145.98l-1.65-4.8h-7.11l-1.75,4.8h-8.34l9.38-25.38h10.16l9.53,25.38h-10.22ZM362.73,134.86l-1.67-4.99-1.67,4.99h3.33Z"/>
      <path class="cls-4" d="M366.64,121.11l9.15,24.38h-9.14l-1.65-4.8h-7.82l-1.75,4.8h-7.27l9.01-24.38h9.47M358.71,135.36h4.72l-2.36-7.07-2.36,7.07M367.33,120.11h-10.86l-.24.65-9.01,24.38-.5,1.35h9.41l.24-.66,1.51-4.15h6.4l1.42,4.13.23.68h11.3l-.51-1.35-9.15-24.38-.24-.65h0ZM360.09,134.36l.97-2.91.97,2.91h-1.94Z"/>
    </g>
    <g>
      <path class="cls-3" d="M389.98,146.36c-4.07,0-7.41-1.15-9.93-3.41-2.53-2.28-3.82-5.46-3.82-9.44s1.21-7.17,3.61-9.6c2.4-2.43,5.77-3.67,10.02-3.67,3.97,0,7.07.94,9.23,2.8,2.17,1.86,3.41,4.37,3.69,7.44l.05.52-9.4.42v-.52c0-1.48-.33-2.55-.97-3.18-.66-.64-1.41-.95-2.29-.95s-3.73,0-3.73,6.61c0,2.53.34,4.25,1,5.11.64.83,1.52,1.23,2.69,1.23,2.11,0,3.22-1.14,3.48-3.59l.05-.47,9.2.46-.07.54c-.4,3.12-1.81,5.55-4.17,7.22-2.33,1.65-5.23,2.48-8.61,2.48Z"/>
      <path class="cls-4" d="M389.86,120.73c3.86,0,6.83.89,8.9,2.68s3.25,4.15,3.52,7.11l-8.36.38c0-1.63-.37-2.81-1.12-3.54-.75-.73-1.63-1.09-2.64-1.09-2.82,0-4.23,2.37-4.23,7.11,0,2.65.37,4.46,1.1,5.41.73.95,1.76,1.43,3.09,1.43,2.37,0,3.69-1.35,3.98-4.04l8.19.41c-.38,2.99-1.71,5.28-3.96,6.88-2.26,1.6-5.03,2.39-8.33,2.39-3.96,0-7.16-1.1-9.6-3.29-2.44-2.19-3.65-5.21-3.65-9.07s1.15-6.9,3.46-9.25c2.31-2.35,5.53-3.52,9.66-3.52M389.86,119.73c-4.39,0-7.88,1.28-10.37,3.82-2.49,2.53-3.75,5.88-3.75,9.95s1.34,7.44,3.99,9.82c2.61,2.35,6.07,3.54,10.27,3.54,3.49,0,6.48-.87,8.9-2.58,2.49-1.76,3.96-4.3,4.38-7.56l.14-1.07-1.08-.05-8.19-.41-.94-.05-.1.94c-.3,2.78-1.75,3.14-2.98,3.14-1.02,0-1.75-.33-2.3-1.04-.41-.53-.89-1.79-.89-4.8,0-6.11,2.43-6.11,3.23-6.11.75,0,1.38.26,1.94.81.54.53.82,1.48.82,2.82v1.05l1.04-.05,8.36-.38,1.05-.05-.1-1.04c-.29-3.21-1.59-5.82-3.86-7.77-2.25-1.94-5.47-2.92-9.55-2.92h0Z"/>
    </g>
    <g>
      <rect class="cls-3" x="405.48" y="120.61" width="9.96" height="25.38"/>
      <path class="cls-4" d="M414.94,121.11v24.38h-8.96v-24.38h8.96M415.94,120.11h-10.96v26.38h10.96v-26.38h0Z"/>
    </g>
    <g>
      <path class="cls-3" d="M433.07,146.36c-4.21,0-7.7-1.19-10.37-3.54-2.69-2.36-4.05-5.56-4.05-9.5s1.3-6.93,3.86-9.39c2.56-2.46,6.14-3.7,10.64-3.7,4.17,0,7.62,1.17,10.26,3.48,2.66,2.33,4.01,5.47,4.01,9.34s-1.36,7.25-4.03,9.67c-2.66,2.41-6.13,3.63-10.32,3.63ZM433.2,126.77c-2.63,0-3.9,2.21-3.9,6.75,0,6.3,2.81,6.3,3.73,6.3,1.33,0,2.26-.46,2.83-1.41.61-1.02.92-2.96.92-5.79,0-5.86-2.7-5.86-3.58-5.86Z"/>
      <path class="cls-4" d="M433.16,120.73c4.06,0,7.37,1.12,9.93,3.36,2.56,2.24,3.84,5.23,3.84,8.96s-1.29,6.97-3.87,9.3-5.91,3.5-9.98,3.5-7.45-1.14-10.04-3.41-3.88-5.32-3.88-9.13,1.24-6.65,3.71-9.03c2.47-2.38,5.9-3.56,10.29-3.56M433.03,140.32c1.51,0,2.6-.55,3.26-1.65s.99-3.12.99-6.04c0-4.24-1.36-6.36-4.08-6.36-2.94,0-4.4,2.42-4.4,7.25,0,4.54,1.41,6.8,4.23,6.8M433.16,119.73c-4.64,0-8.33,1.29-10.98,3.84-2.66,2.56-4.02,5.84-4.02,9.75s1.42,7.42,4.22,9.88c2.76,2.43,6.36,3.66,10.7,3.66s7.9-1.26,10.65-3.76c2.79-2.52,4.2-5.9,4.2-10.05s-1.41-7.29-4.18-9.72c-2.73-2.39-6.3-3.6-10.59-3.6h0ZM433.03,139.32c-.88,0-3.23,0-3.23-5.8,0-6.25,2.56-6.25,3.4-6.25s3.08,0,3.08,5.36c0,3.4-.46,4.88-.85,5.53-.3.5-.88,1.17-2.4,1.17h0Z"/>
    </g>
    <g>
      <path class="cls-3" d="M468.55,145.98l-8.14-10.97c-.51-.69-1.03-1.46-1.55-2.3.03.34.05.66.05.96v12.3h-8.27v-25.38h9.21l6.95,9.13c.65.85,1.23,1.66,1.73,2.42-.16-1.26-.24-2.55-.24-3.83v-7.71h8.29v25.38h-8.04Z"/>
      <path class="cls-4" d="M476.09,121.11v24.38h-7.29l-7.99-10.77c-1.03-1.38-2.06-3.06-3.1-5.03.47,1.57.71,2.9.71,4v11.8h-7.27v-24.38h8.46l6.8,8.93c1.35,1.77,2.38,3.33,3.08,4.68-.46-2.08-.68-4.21-.68-6.39v-7.21h7.29M477.09,120.11h-9.29v8.21c0,.67.02,1.33.06,1.99-.21-.29-.43-.58-.66-.88l-6.8-8.93-.3-.39h-9.96v26.38h9.27v-12.01c.2.29.4.57.59.83l7.99,10.77.3.4h8.79v-26.38h0Z"/>
    </g>
    <g>
      <path class="cls-3" d="M497.35,145.98l-1.65-4.8h-7.11l-1.75,4.8h-8.34l9.38-25.38h10.16l9.53,25.38h-10.22ZM493.79,134.86l-1.67-4.99-1.67,4.99h3.33Z"/>
      <path class="cls-4" d="M497.69,121.11l9.15,24.38h-9.14l-1.65-4.8h-7.82l-1.75,4.8h-7.27l9.01-24.38h9.47M489.76,135.36h4.72l-2.36-7.07-2.36,7.07M498.38,120.11h-10.86l-.24.65-9.01,24.38-.5,1.35h9.41l.24-.66,1.51-4.15h6.4l1.42,4.13.23.68h11.3l-.51-1.35-9.15-24.38-.24-.65h0ZM491.15,134.36l.97-2.91.97,2.91h-1.94Z"/>
    </g>
    <g>
      <polygon class="cls-3" points="509.47 145.98 509.47 120.61 519.42 120.61 519.42 139 530.92 139 530.92 145.98 509.47 145.98"/>
      <path class="cls-4" d="M518.92,121.11v18.39h11.5v5.98h-20.46v-24.38h8.96M519.92,120.11h-10.96v26.38h22.46v-7.98h-11.5v-18.39h0Z"/>
    </g>
  </g>
</svg>