<?xml version="1.0" encoding="UTF-8"?>
<svg id="Capa_1" data-name="Capa 1" xmlns="http://www.w3.org/2000/svg" viewBox="0 0 644 135">
  <defs>
    <style>
      .cls-1 {
        fill: #f15a24;
        stroke-width: 0px;
      }
    </style>
  </defs>
  <path class="cls-1" d="M224.23,111.6c-.42-1.77-.99-3.81-1.39-5.88-1.03-5.34-1.97-10.69-3-16.03-.29-1.5-.72-2.99-1.13-4.46-.69-2.47-2.39-3.72-4.9-3.91-.81-.06-1.63,0-2.19,0-1.4.88-1.48,2.17-1.85,3.24-2.7,7.82-5.33,15.67-7.99,23.51-.42,1.22-.86,2.44-1.32,3.76-.86.22-1.64.6-2.42.6-6.62.03-13.25,0-19.87-.06-.56,0-1.12-.24-1.69-.38-.51-1.34.16-2.4.52-3.48,2.45-7.28,4.92-14.56,7.4-21.83,5.4-15.9,10.8-31.79,16.2-47.69.38-1.11.81-2.21,1.25-3.4.7-.2,1.35-.48,2.02-.56.82-.1,1.65-.06,2.48-.06,11.83.02,23.66,0,35.49.08,3.19.02,6.39.17,9.56.5,1.98.21,3.95.72,5.84,1.34,5.35,1.77,7.89,5.76,8.35,11.19.12,1.39.02,2.86-.26,4.23-2.48,12.17-9.89,20.12-21.27,24.59-1.08.42-2.2.74-3.3,1.11.1.35.09.67.23.76,3.58,2.22,5.26,5.74,6.16,9.6,1.15,4.95,1.98,9.97,2.92,14.96.31,1.63.54,3.27.85,4.89.08.44.34.84.64,1.54,2.74-2.93,4.69-6.16,6.91-9.17,2.25-3.05,4.41-6.15,6.61-9.24,2.2-3.08,4.39-6.17,6.59-9.25,2.27-3.18,4.53-6.36,6.8-9.54,2.2-3.08,4.43-6.14,6.63-9.22,2.2-3.08,4.4-6.17,6.58-9.26,2.18-3.1,4.32-6.22,6.51-9.3,2.19-3.08,4.44-6.12,6.61-9.11.73-.22,1.28-.53,1.84-.54,7.81-.05,15.61-.07,23.42-.06.44,0,.87.28,1.32.43.63,1.39.68,2.81.74,4.22.09,2.01.11,4.02.16,6.03.33,12.9.65,25.79,1,38.69.19,6.86.43,13.72.68,20.58.05,1.3.23,2.59.3,3.89.05.92,0,1.84,0,2.58-1.27.99-2.49.83-3.66.85-13.48.31-18.47.17-21.36-.63-1.13-3.71.74-7.63-.29-11.37-2.84-.67-15.59-.85-25.31-.37-1.89,1.54-2.88,3.87-4.28,5.89-1.41,2.03-2.72,4.13-4.15,6.31-1.26.09-2.42.23-3.58.23-14.55.02-29.1.02-43.65,0-1.16,0-2.38.18-3.74-.8ZM221.2,51.54c-1.32,2.13-1.74,4.6-2.52,6.92-.79,2.39-2.16,4.65-2.04,7.5,4.3.01,8.39.16,12.49-.49,6.08-.97,9.1-3.71,10.43-9.82-.23-2.38-1.83-3.43-3.92-3.96-.45-.12-.93-.19-1.4-.2-3.88-.13-7.77-.26-11.65-.35-.44-.01-.89.25-1.41.4ZM309.89,81.93c.22-7.99,1.11-15.79.71-23.92-.48.39-.79.54-.96.79-4.73,7.32-9.45,14.66-14.15,22-.22.34-.2.84-.3,1.28,3.6.44,11.56.38,14.69-.15Z"/>
  <path class="cls-1" d="M624.12,56.99c-1.35.23-2.38.52-3.43.58-6.02.35-12.04.65-18.06.94-.33.02-.66-.18-.97-.27-.82-.95-.58-2.06-.61-3.09-.13-3.58-2.02-5.47-5.3-6-2.29-.37-4.49-.39-6.64.34-2.93.98-5.3,2.63-5.98,6.16.25.59.57,1.33.86,2.02,2.53,1.35,5.16,2,7.78,2.72,3.3.91,6.61,1.79,9.9,2.75,2.96.86,5.8,2.06,8.43,3.67,1.4.86,2.77,1.84,3.97,2.95,2.45,2.26,3.71,5.11,3.85,8.49.19,4.48-.65,8.72-2.75,12.67-5.24,9.86-13.18,16.58-23.76,20.11-6.46,2.15-13.16,2.84-19.94,2.58-3.3-.13-6.59-.53-9.86-.99-1.74-.25-3.43-.84-5.12-1.36-5.34-1.66-8.41-5.45-9.89-10.7-1.22-4.34-1.03-8.66.26-12.95.1-.33.34-.61.57-1,.39-.13.83-.39,1.27-.41,7.08-.39,14.15-.75,21.45-1.13.11.79.28,1.44.28,2.09,0,1.06-.17,2.13-.16,3.19.04,3.58,2.68,6.59,6.24,7.04,4.54.58,8.74-.01,12.31-3.1,2.39-2.06,3.77-4.54,2.96-7.81-.69-1.51-1.85-2.5-3.33-3.05-2.1-.78-4.24-1.46-6.37-2.15-3.71-1.19-7.49-2.18-11.11-3.61-2.39-.94-4.7-2.28-6.76-3.82-4.24-3.16-5.84-7.54-5.22-12.8.47-3.97,1.94-7.54,4.15-10.82,5.12-7.63,12.36-12.28,21.1-14.63,6.21-1.67,12.58-2.13,18.99-1.74,2.71.16,5.44.39,8.08.97,2.28.5,4.57,1.29,6.65,2.36,4.33,2.21,6.67,5.93,7.01,10.78.15,2.11,0,4.26-.12,6.38-.05.8-.4,1.57-.69,2.63Z"/>
  <path class="cls-1" d="M139.5,35.43c1.02-.16,1.83-.39,2.64-.39,7.45,0,14.9.04,22.34.11.44,0,.88.29,1.2.4.82,1.04.66,2.14.69,3.18.25,8.75.44,17.51.72,26.26.31,9.7.72,19.39,1.05,29.08.19,5.56.34,11.12.48,16.68,0,.33-.18.66-.31,1.11-.55.13-1.11.37-1.68.37-7.09.01-14.19,0-21.28-.04-.56,0-1.12-.29-1.74-.45-.92-3.78.39-7.6-.43-11.42-.44-.15-.87-.43-1.29-.44-7.92-.03-15.83-.02-23.92-.02-3.26,3.73-5.32,8.32-8.24,12.06-2.39.47-19.6.76-22.89.4-.43-.05-.84-.3-1.2-.43-.19-1.39.68-2.13,1.27-2.96,3.62-5.12,7.27-10.21,10.92-15.31,12.99-18.19,25.98-36.39,38.97-54.58.82-1.15,1.69-2.27,2.69-3.61ZM145.24,58.03c-.46.15-.76.15-.85.29-4.85,7.52-9.68,15.05-14.49,22.59-.17.26-.15.64-.21.96,2.82.71,11.64.69,14.3-.02.13-.29.39-.6.4-.92.3-7.06.57-14.11.85-21.17.02-.55,0-1.09,0-1.72Z"/>
  <path class="cls-1" d="M506.55,35.33c1.08-.11,2.12-.3,3.16-.3,7.44.03,14.88.09,22.32.17.3,0,.6.33.97.55.1.56.27,1.13.29,1.71.76,24.69,1.51,49.39,2.27,74.24-.78.22-1.42.57-2.07.57-6.86.04-13.71.05-20.57.01-.79,0-1.57-.32-2.37-.49-.81-3.88.34-7.69-.43-11.53-.46-.14-.89-.39-1.32-.39-7.92-.02-15.83-.02-23.96-.02-3.11,3.66-5.16,8.1-8.02,11.82-2.81.92-6.12,1.03-21.28.71-1.03-.02-2.14.23-3.07-.71-.04-1.28.91-2.09,1.57-3.01,4.8-6.74,9.63-13.46,14.44-20.2,11.82-16.55,23.62-33.11,35.44-49.66.82-1.15,1.7-2.25,2.64-3.48ZM510.65,82.25c.25-.65.55-1.07.57-1.5.32-7.41.61-14.83.89-22.25,0-.1-.07-.24-.16-.31-.08-.07-.22-.07-.33-.09-.09.07-.22.12-.27.21-4.86,7.52-9.71,15.04-14.54,22.58-.22.35-.26.82-.45,1.48,4.94-.03,9.62.13,14.29-.11Z"/>
  <path class="cls-1" d="M50.51,35.72c1.46-.93,2.67-.75,3.84-.75,12.17,0,24.34.02,36.51.07,3.08.01,6.14.28,9.09,1.23,1.93.62,3.72,1.51,5.3,2.78,2.72,2.2,4.2,5,4.37,8.55.28,5.69-.87,11.04-3.43,16.1-5.96,11.79-15.46,18.42-28.61,19.91-4.13.47-8.25.41-12.39.44-2,.02-4,0-5.71,0-1.34.99-1.51,2.21-1.88,3.31-2.35,6.93-4.69,13.87-7.05,20.81-.41,1.22-.92,2.4-1.23,3.22-1.23,1.05-2.31,1.07-3.37,1.07-6.14-.01-12.29-.02-18.43-.07-.79,0-1.57-.26-2.38-.41-.39-1.4.25-2.46.61-3.54,2.91-8.61,5.86-17.22,8.78-25.83,4.85-14.32,9.69-28.64,14.55-42.95.45-1.33.98-2.65,1.45-3.93ZM69.79,51.64c-1.25,2.63-1.96,5.37-2.83,8.04-.85,2.62-2.2,5.13-2.37,8.17,3.53-.05,6.8-.26,10.07-.59.81-.08,1.62-.33,2.39-.62,4.31-1.62,7.56-5.96,7.27-10.29-.16-2.44-1.07-3.63-3.5-4.18-3.6-.83-7.23-.73-11.03-.53Z"/>
  <path class="cls-1" d="M353.82,35.74c.56-.21.99-.52,1.42-.52,7.1-.06,14.19-.09,21.29-.09.68,0,1.37.25,2.23.41.1.86.27,1.65.25,2.43-.09,3.07-.3,6.14-.37,9.22-.29,12.43-.55,24.85-.82,37.28-.02.92,0,1.83,0,2.7,1.24.28,1.36-.68,1.68-1.18,5.75-8.82,11.48-17.66,17.19-26.51,4.55-7.06,9.08-14.14,13.62-21.2.57-.89,1.2-1.75,1.81-2.64.72-.2,1.4-.54,2.07-.55,6.86-.04,13.72-.04,20.58-.02.43,0,.86.26,1.18.36.52,1.12-.17,1.74-.61,2.39-2.62,3.8-5.26,7.59-7.93,11.35-13.9,19.59-27.81,39.18-41.72,58.76-.95,1.34-1.94,2.67-2.87,3.95-2.94.93-5.8.42-8.61.5-2.96.08-5.92.06-8.87,0-2.8-.06-5.64.31-8.55-.4-.2-.79-.39-1.45-.53-2.12-.07-.34-.05-.71-.06-1.06-.26-8.52-.47-17.04-.78-25.55-.34-9.7-.77-19.4-1.15-29.09-.1-2.6-.14-5.21-.23-7.81-.1-2.72-.26-5.44-.36-8.16-.03-.81.08-1.62.12-2.46Z"/>
  <path class="cls-1" d="M468.59,35.7c0,.58.09.96-.01,1.28-8.24,24.41-16.49,48.81-24.75,73.22-.19.55-.5,1.05-.83,1.72-.75.17-1.54.5-2.32.5-6.5.02-13.01-.01-19.51-.06-.56,0-1.11-.25-1.57-.36-.59-1.12-.12-1.98.18-2.87,3.26-9.63,6.51-19.26,9.78-28.88,4.63-13.65,9.28-27.3,13.93-40.95.42-1.22.87-2.43,1.2-3.35,1.27-1.09,2.5-.9,3.66-.93,14.55-.29,17.44-.2,20.25.68Z"/>
</svg>