<?xml version="1.0" encoding="UTF-8"?>
<svg id="Capa_1" data-name="Capa 1" xmlns="http://www.w3.org/2000/svg" viewBox="0 0 634 160">
  <defs>
    <style>
      .cls-1 {
        fill: #741a17;
        stroke-width: 0px;
      }

      .cls-2 {
        fill: #d34953;
        stroke: #5b0000;
        stroke-miterlimit: 10;
      }
    </style>
  </defs>
  <g>
    <path class="cls-2" d="M354.49,105.04c-2.67,1.6-5.17,3.1-7.54,4.51-2.9-1.75-2.34-4.3-2.41-6.56-.32-9.75-1.16-10.71-10.46-11.35,2.83-2.59,5.54-5.35,8.54-7.73,3.59-2.85,5.75-6.32,3.54-10.59-2.34-4.53-6.73-3.88-10.83-2.59-6.52,2.05-11.69,6.3-16.86,10.53-10.08,8.25-20.15,16.51-30.19,24.73-3.01-1.85-3.16-4.88-4.12-7.4-3.67-9.65-10.7-12.52-19.91-7.57-3.73,2.01-7.01,4.86-10.5,7.33,0,0-.05-.05-.1-.1h0c-.05-.06-.1-.11-.1-.11h0s0,0,0,0c.68-3.37,1.45-6.73,2.02-10.11,1.62-9.55-4.19-14.61-13.4-11.63-1.82.59-3.47,1.7-5.19,2.58-.58.26-1.05.65-1.37,1.21h-.01c-.53.33-.96.75-1.27,1.3v.02c-.59.29-.98.76-1.21,1.36-3.99,4.23-7.97,8.47-11.96,12.7-.34.5-.74.94-1.22,1.31h-.01c-.36.51-.79.93-1.28,1.3h-.01c-.36.51-.79.93-1.28,1.3h-.01c-.37.49-.81.9-1.31,1.24-1.34,1.29-2.69,2.58-4.03,3.87-.25.55-.63.99-1.17,1.28l-.04.02c-.52.98-1.82.64-2.45,1.44h0c-.71.77-1.9.5-2.63,1.21-.38.09-.77.16-1.16.24-1.2.92-2.86,0-4.03,1.03-.4.03-.81.03-1.21,0-.79-.68-1.91-.47-2.76-.99-.35-.09-.69-.21-1.01-.36-.54-.33-.72-.73-.75-1.17.11.42.37.8.75,1.17-.17-.87-.34-1.73-.52-2.6,0,0,0,0,0,0,0,0,0,0,0,0,2.78-2.93,5.55-5.86,8.33-8.79.27-.54.66-.98,1.17-1.31l.02-.04c.31-.53.77-.93,1.2-1.35h0c.42-.44.88-.84,1.2-1.37v-.02c.57-.32.97-.77,1.16-1.4.14-.33.29-.66.43-.99.28-.53.64-1.01,1.06-1.43h0c.82-.66.55-1.88,1.32-2.57h0c.8-.72.57-1.87,1.12-2.7.16-.78.33-1.56.49-2.33.21-.56.53-1.05.96-1.46h0c.82-.83.78-1.7.13-2.61-.08-.82-.16-1.64-.24-2.46-.61-.82-.41-1.92-.96-2.76-.09-.39-.17-.78-.24-1.18-.74-.7-.43-1.95-1.32-2.58h.02c-.36-.5-.81-.91-1.25-1.34h0c-.42-.46-.85-.89-1.44-1.12-.37-.08-.75-.16-1.12-.24-3.04-1.48-6.07-1.4-9.11,0,0,0,0,0,0,0-.38.07-.76.14-1.15.2-.54.28-.98.7-1.51,1.01-.33.13-.66.26-1,.39-.66.14-1.09.58-1.47,1.09h0c-.48.37-.88.83-1.38,1.2h-.02c-.36.51-.8.92-1.26,1.33h0c-.4.47-.85.88-1.23,1.35h0c-.47.39-.92.8-1.25,1.33v.02c-.57.31-.96.78-1.21,1.36l-2.94,3.63c-.3.52-.66,1-1.07,1.43h0c-.51.39-.97.81-1.03,1.5-.12.34-.24.69-.36,1.03-.43.44-.83.9-1.02,1.51-.09.36-.19.72-.3,1.07-.39.47-.83.9-.96,1.53-.08.37-.17.73-.28,1.09-.41.44-.58.9-.56,1.37-.19.46-.38.93-.57,1.39,0,0,0,0,0,0,0,0,0,0,0,0-.08.36-.16.72-.26,1.08-.68.79-.44,1.93-1.04,2.75-.08,1.24-.17,2.48-.25,3.73-.68.71-.34,1.96-1.34,2.49-1.28,1.32-2.57,2.64-3.85,3.96-.35.49-.75.94-1.19,1.35h0c-.4.45-.86.84-1.37,1.16-.79.53-1.59,1.06-2.38,1.59-.47-.04-.93-.08-1.4-.13,0-.02,0-.04,0-.06-.02,0-.04,0-.06,0-.04-.89-.09-1.78-.13-2.67-.12.27-.23.54-.35.82.08-.28.19-.55.35-.82.07-.38.15-.77.24-1.15.71-.8.5-1.91.97-2.79.01-2.49.03-4.98.04-7.48-.84-1.24-.04-2.86-.94-4.08-.15-.76-.29-1.52-.44-2.28-.1-.66-.53-1.12-.96-1.58-.11-.33-.22-.66-.33-1-.09-.7-.53-1.14-1.09-1.49h0c-.34-.52-.8-.92-1.2-1.38h0c-.46-.41-.89-.84-1.29-1.3h0c-.46-.4-.86-.87-1.37-1.21h0c-.34-.55-.8-.96-1.43-1.17-1.21-.95-2.43-1.9-3.64-2.86-.46-.41-.93-.8-1.49-1.07-.37-.08-.73-.17-1.1-.27-2.17-1.2-4.37-1.36-6.6-.15,0,0,0,0,0,0-.76.17-1.52.33-2.29.5-.64.15-1.11.56-1.55,1.02-.32.13-.65.24-.98.35-.73.03-1.16.49-1.52,1.05h0c-.47.38-.94.75-1.42,1.11l-3.93,3.94c-.24.4-.38.79-.46,1.18-.22.93-.08,1.86.5,2.79.02.39,0,.79-.07,1.18-.32.51-.71.98-1.02,1.5-.51.8-1.01,1.6-1.52,2.4-.36.49-.75.94-1.19,1.37h0c-.44.43-.89.84-1.24,1.35h0c-.52.35-.95.78-1.28,1.31h0c-.53.33-.96.77-1.29,1.3h0c-.53.33-.95.78-1.34,1.26h0c-.48.38-.89.83-1.35,1.23h0c-.39.46-.84.86-1.35,1.19-1.32,1.31-2.64,2.61-3.96,3.92-.3.52-.7.95-1.21,1.28h-.03c-.56.93-1.84.61-2.47,1.43h0c-.72.75-1.92.47-2.63,1.23-.37.1-.75.18-1.12.25-1.23.84-2.89-.04-4.07,1-.41.03-.81.03-1.22,0-.79-.71-1.91-.5-2.78-.99-.34-.09-.68-.21-1-.36-.51-.33-.69-.71-.72-1.12.11.4.35.77.72,1.12-.16-.88-.32-1.76-.48-2.64,0,0,0,0,0,0,0,0,0,0,0,0,3.17-3.37,6.34-6.74,9.51-10.11.36-.49.76-.94,1.2-1.35h0c.41-.45.88-.85,1.2-1.38h0c.57-.34.99-.79,1.15-1.45.14-.32.28-.65.43-.97.29-.52.65-1,1.06-1.43h-.01c.84-.65.58-1.87,1.32-2.57h0c.83-.71.59-1.88,1.15-2.7,2.19-7.62.82-14.44-3.44-17.09-5.01-3.12-13.13-.99-18.67,4.63-7.14,7.25-12.23,15.55-14.04,25.69-.43,2.45-1.41,4.5-4.94,4.8-.46-8.39-5.7-14.08-11.08-19.79-5.61-5.96-11.59-11.66-16.08-18.56-3.06-4.7-5.14-9.69.96-14.52,2.9,1.48,6.13,2.16,9.24.78,8.15-3.63,15.35-8.81,21.95-14.7,3.46-3.08,3.77-11.69,1.11-15.17-3.41-4.47-7.87-3.7-12.32-2.03-4.04,1.51-8.21,2.83-11.98,4.86-12.57,6.76-25.2,13.59-31.46,27.58-3.57,7.96-4.14,16.1,1.14,23.36,4.14,5.69,8.71,11.11,14.32,15.68,5.77,4.69,11.07,10.09,13.8,16.63-1.06,2.99-2.67,3.71-4.7,4.23-8.61,2.23-16.41,6.48-24.35,10.32-3.99,1.93-7.47,4.96-6.53,10.08.98,5.31,5.52,6.77,10.02,7.82,2.8.66,5.57-.03,8.28-.86,6.25-1.92,12.49-4.39,17.19-8.76,7.92-7.36,17.31-9.8,27.59-10.58,7.87,10.38,13.21,12.54,26.04,7.95,13-4.65,21.38-15.53,30.47-25.26h0c2.21-1.01,3.51-3.99,6.73-3.14,1.62,2.31,1.35,4.86,1.06,7.45-.68,6.09-2.91,11.66-5.47,17.15-1.43,3.07-2.09,6.36.63,9.02,2.66,2.61,6.07,3.24,9.59,1.98,2.21-.79,4.33-1.9,6.39-3.07,6.87-3.9,13.63-8.01,20.48-13.27,4.09,10.01,11.52,12.3,20.81,10.58,8.14-1.5,14.79-5.53,20.39-11.58,2.82-3.05,6.05-5.71,10.15-9.53-.79,7.05-3.14,11.92-4.63,17.02-1.23,4.2-1.48,8.48,2.56,11.04,3.87,2.45,8.1,1.22,11.35-1.7,4.63-4.17,9-8.65,13.31-13.16,3.6-3.77,7.7-6.74,12.1-9.24,5.07,2.44,6,8.1,9.85,11.2h0c3.22,4.75,8.47,3.2,12.8,3.97,5.39,10.05,9.69,11.26,19.81,5.91,4.23-2.24,7.81-5.26,11.37-8.41,2.3-2.04,4.17-4.96,7.68-5.22,9.55,14.36,24.27,13.29,34.27-2.52-.54-3.92-1.61-7.7-5.46-10.38Z"/>
    <path class="cls-2" d="M614.11,105.54c-4.04.02-5.97,3.77-9.41,4.27.18-1.01.3-2.04.59-3.01,4.09-13.55.65-23.1-11.02-30.53-7.01-4.46-19.28.41-20.97,8.34-2.7,12.63-14.76,16.63-21.3,25.71-3.39-3.01-2.79-5.52-2.88-7.82-.37-9.11-1.3-10.13-10.42-10.87,2.71-3.36,6.12-5.96,9.43-8.69,3.12-2.58,4.48-6.07,2.45-9.8-1.95-3.59-5.64-3.88-9.12-2.82-3.06.93-6.26,2.07-8.8,3.93-8.68,6.38-17.72,12.48-25.38,19.97-4.63,4.53-12.05,6.5-13.97,14.01.71,2.35,1.46,4.8,2.18,7.19-.55,1.11-1.04,2.07-1.5,3.04-2.2,4.62-2.76,9.33,1.03,13.26,4.08,4.23,8.99,3.29,13.78,1.03,5.53-2.61,10.28-6.27,14.65-10.52,1.93-1.88,3.66-4.29,7.15-4.3,2.74,6.41,7.07,10.62,14.7,10.24,5.04-.25,9.21-2.33,12.78-5.58,7.18-6.52,14.16-13.26,21.26-19.88,2.11-1.97,3.59-4.96,7.51-4.84,2.07,3.4,1.26,7.04.61,10.55-.9,4.91-2.82,9.49-4.93,14-1.34,2.85-1.91,5.91.27,8.57,2.24,2.74,5.71,3.97,8.77,2.77,10.24-4.02,19.63-9.54,27.43-17.04-.3-4.96-1.74-8.55-4.89-11.18Z"/>
    <path class="cls-2" d="M500.28,40.04c.21-4.28.46-8.76-4.54-11.75-8.23.88-13.38,6.65-17.88,13-7.65,10.79-16.1,20.8-26.45,29.1-.33.09-.56.3-.68.62,0,0,0,0,0,0,0,0,0,0,0,0,0,0,0,0,0,0,0,0-.18.11-.18.11h0c-5.43,1.87-8.05-1.53-10.1-5.6-6.2-12.32-8.13-25.33-5.97-38.96,1.18-7.47-1.77-11.35-7.42-9.9-10.79,2.75-16.88,10.56-17.82,21.66-1.96,23.11-4.44,46.19-6.33,69.31-.62,7.56-3.33,15.22-.46,22.71,9.19,3.14,14.72-.11,16.03-8.91,1.64-11.09,3.34-22.18,5.13-33.25.35-2.14.26-4.61,2.24-6.29,12.75,12.77,19.51,13.19,31.47,2.23h0c6.76-3.27,10.76-9.71,16.43-14.24-3.09,19.61-6.19,39.22-9.16,58.08,2.63,2.75,4.83,3.1,6.67,1.54,4.51-3.8,9.9-6.72,11.2-13.51,3.36-17.57,8.59-34.66,13.75-51.77,2.38-7.87,3.7-15.98,4.1-24.19Z"/>
  </g>
  <path class="cls-1" d="M97.02,89.99c-.05.34,2.21-3.48,3.55-5.77.48-.83,1.62-.96,2.28-.26h0c.61.64.5,1.67-.23,2.17l-5.6,3.86Z"/>
  <path class="cls-1" d="M192.86,89.99c-.05.34,2.21-3.48,3.55-5.77.48-.83,1.62-.96,2.28-.26h0c.61.64.5,1.67-.23,2.17l-5.6,3.86Z"/>
  <path class="cls-1" d="M512.74,114.57c-.09.65,4.25-6.69,6.83-11.08.93-1.59,3.12-1.84,4.38-.5h0c1.17,1.23.96,3.21-.44,4.18l-10.77,7.41Z"/>
  <path class="cls-1" d="M304.23,117.16c-.09.65,4.25-6.69,6.83-11.08.93-1.59,3.12-1.84,4.38-.5h0c1.17,1.23.96,3.21-.44,4.18l-10.77,7.41Z"/>
</svg>