<svg width="309" height="46" viewBox="0 0 309 46" fill="none" xmlns="http://www.w3.org/2000/svg">
<g clip-path="url(#clip0_28_60)">
<mask id="mask0_28_60" style="mask-type:luminance" maskUnits="userSpaceOnUse" x="0" y="0" width="309" height="46">
<path d="M309 0H0V46H309V0Z" fill="white"/>
</mask>
<g mask="url(#mask0_28_60)">
<path d="M32.8014 17.7193C28.3732 18.1801 23.9329 18.5523 19.5193 19.1283C14.5324 19.6397 9.62458 20.7429 4.90016 22.4144C4.04036 22.708 3.23724 23.146 2.52548 23.7094C2.3025 23.8336 2.11423 24.0114 1.97778 24.2266C1.84134 24.4418 1.76106 24.6876 1.74425 24.9417C1.72744 25.1957 1.77465 25.4499 1.88156 25.6811C1.98847 25.9123 2.1517 26.1132 2.35638 26.2655C3.42305 27.2602 4.70763 27.9934 6.10818 28.4069C9.85754 29.8268 13.7724 30.7775 17.4974 32.2519C19.6851 33.0455 21.8014 34.0227 23.8234 35.173C24.605 35.6729 25.3078 36.2859 25.9085 36.9919C27.2102 38.447 26.5594 39.7905 25.3002 40.763C23.6698 41.8533 21.8533 42.6378 19.9402 43.0777C14.9863 44.454 9.92642 45.4181 4.81257 45.96C4.20689 46.0433 3.5903 45.9948 3.00519 45.818C2.42008 45.6411 1.88033 45.3401 1.42304 44.9356C0.965752 44.5311 0.601769 44.0326 0.356112 43.4746C0.110455 42.9165 -0.0110487 42.312 -4.67012e-05 41.7027C0.0348273 29.4768 0.091599 17.2513 0.170268 5.02614C0.142428 4.2955 0.301709 3.56983 0.633099 2.91753C0.964489 2.26522 1.45707 1.70778 2.06441 1.29773C2.67176 0.887686 3.37386 0.638548 4.10453 0.573802C4.83521 0.509055 5.57039 0.630832 6.24078 0.927654C10.8636 2.68103 15.4633 4.50109 20.074 6.29327C20.3888 6.46114 20.7379 6.55528 21.0947 6.56852C21.2674 6.89107 21.6129 6.93229 21.9061 7.04506C23.6445 7.72774 25.383 8.41163 27.1275 9.07611C29.1103 9.71984 30.7853 11.0699 31.8318 12.8678C32.5798 14.3707 32.9156 16.0441 32.805 17.7181" fill="#E91E63"/>
<path d="M21.9049 7.04376C23.6434 7.72644 25.3818 8.40911 27.1263 9.07481C29.1092 9.71843 30.7843 11.0685 31.8307 12.8665C32.5784 14.3695 32.9141 16.0428 32.8039 17.7168C33.5131 17.6622 34.2211 17.6028 34.9304 17.5519C40.6408 17.1493 46.3658 16.9456 52.0835 16.8025C52.6066 16.7892 52.8135 16.6813 52.8062 16.1065C52.7806 12.6252 52.8378 9.14272 52.7806 5.66265C52.8326 4.82718 52.688 3.99117 52.3584 3.22129C52.0287 2.45141 51.5231 1.76898 50.8819 1.22843C50.2406 0.687889 49.4815 0.304192 48.6651 0.107952C47.8487 -0.0882867 46.9976 -0.0916369 46.1797 0.098169C39.1384 1.25738 32.1015 2.44206 25.0691 3.65221C24.2158 3.7692 23.4053 4.09663 22.7111 4.60481C22.0169 5.11299 21.4609 5.78584 21.0935 6.56237C21.2663 6.88613 21.6118 6.92614 21.9049 7.03891" fill="#002172"/>
<path d="M52.8097 17.8624C52.8097 17.0669 52.4301 17.1348 51.9168 17.1967C49.7671 17.4489 47.6139 17.6817 45.4691 17.9497C41.238 18.4771 37.0033 18.9816 32.7953 19.6873C30.2398 20.0031 27.7111 20.5056 25.2296 21.1909C24.029 21.4468 22.8862 21.9216 21.8586 22.5914C20.9584 23.2328 20.9717 23.8452 21.8501 24.5242C22.3938 24.9333 23.0001 25.2522 23.6457 25.4688C26.6299 26.5153 29.7053 27.2489 32.749 28.094C35.8609 28.9668 38.905 30.0638 41.8572 31.3764C46.1492 33.3166 50.4472 35.3003 52.7963 39.942C52.7963 32.4847 52.7829 25.1729 52.8158 17.8612" fill="#002172"/>
<path d="M60.7805 26.2981C60.7805 20.1928 65.5067 15.8579 72.1235 15.8579C76.396 15.8579 79.7621 17.7047 81.2366 21.021L76.6612 23.4704C76.2362 22.6258 75.5823 21.9168 74.7736 21.4238C73.9648 20.9309 73.0337 20.6737 72.0858 20.6815C71.354 20.6613 70.6262 20.7951 69.9499 21.0742C69.2736 21.3534 68.6639 21.7716 68.1607 22.3015C67.6575 22.8314 67.2721 23.4612 67.0297 24.1496C66.7872 24.8381 66.6932 25.5698 66.7537 26.2969C66.6932 27.0241 66.7872 27.7557 67.0297 28.4442C67.2721 29.1326 67.6575 29.7624 68.1607 30.2923C68.6639 30.8222 69.2736 31.2404 69.9499 31.5196C70.6262 31.7987 71.354 31.9325 72.0858 31.9123C73.0353 31.9282 73.9698 31.6743 74.78 31.1805C75.5902 30.6866 76.2427 29.9731 76.6612 29.1234L81.2366 31.6104C79.7621 34.8516 76.3972 36.7359 72.1235 36.7359C65.5067 36.7359 60.7805 32.4022 60.7805 26.2957" fill="#002172"/>
<path d="M105.284 24.8285V36.4364H99.3848V25.7331C99.3848 22.4591 97.8726 20.9471 95.2631 20.9471C92.4274 20.9471 90.386 22.681 90.386 26.4121V36.4376H84.4871V8.47095H90.386V18.2697C91.2496 17.4606 92.266 16.8307 93.376 16.4166C94.486 16.0026 95.6676 15.8127 96.8519 15.8579C101.655 15.8579 105.285 18.6468 105.285 24.8309" fill="#002172"/>
<path d="M109.894 10.0533C109.905 9.5934 110.009 9.14044 110.202 8.72251C110.395 8.30459 110.672 7.93059 111.016 7.62368C111.36 7.31676 111.763 7.08348 112.201 6.93825C112.639 6.79303 113.103 6.73896 113.562 6.77941C114.015 6.73027 114.473 6.77473 114.908 6.91C115.342 7.04527 115.744 7.26844 116.089 7.56557C116.433 7.8627 116.712 8.2274 116.908 8.63688C117.105 9.04636 117.214 9.49182 117.23 9.94542C117.16 10.8585 116.751 11.7127 116.082 12.3404C115.413 12.968 114.533 13.3238 113.614 13.3379C112.695 13.352 111.804 13.0235 111.116 12.4167C110.428 11.8099 109.992 10.9687 109.894 10.0582M110.612 16.1635H116.511V36.4364H110.609L110.612 16.1635Z" fill="#002172"/>
<path d="M121.994 29.7273V8.47095H127.893V29.3878C127.842 29.7379 127.872 30.095 127.979 30.4324C128.086 30.7697 128.268 31.0786 128.512 31.3359C128.755 31.5932 129.054 31.7924 129.386 31.9184C129.717 32.0445 130.073 32.0942 130.427 32.0639C131.003 32.0635 131.572 31.9347 132.091 31.6868L132.355 36.2473C131.368 36.5732 130.334 36.737 129.293 36.7323C124.718 36.7323 121.994 34.2453 121.994 29.7224" fill="#002172"/>
<path d="M150.24 30.0668L153.378 33.462C152.304 34.586 150.996 35.4617 149.546 36.0273C148.095 36.593 146.538 36.8348 144.984 36.7359C137.951 36.7359 133.376 32.3258 133.376 26.2957C133.376 20.2328 137.989 15.8555 144.266 15.8555C150.013 15.8555 154.741 19.6241 154.778 26.1065L139.729 29.0082C140.599 31.0065 142.489 32.0239 145.136 32.0239C146.077 32.0621 147.016 31.908 147.894 31.571C148.773 31.234 149.573 30.7212 150.246 30.0643M139.167 25.6918L149.074 23.7699C148.793 22.7314 148.163 21.8206 147.289 21.1895C146.415 20.5583 145.35 20.245 144.272 20.302C141.324 20.302 139.285 22.2627 139.163 25.6918" fill="#002172"/>
<path d="M180.904 26.2981C180.904 32.6678 176.479 36.7384 170.77 36.7384C169.632 36.7946 168.495 36.6049 167.438 36.1821C166.381 35.7593 165.428 35.1135 164.645 34.289V43.747H158.746V16.1599H164.379V18.4989C165.174 17.6052 166.163 16.9033 167.27 16.4462C168.377 15.9891 169.574 15.7888 170.77 15.8604C176.479 15.8604 180.904 19.9309 180.904 26.3006M174.929 26.3006C174.929 22.795 172.698 20.6852 169.748 20.6852C166.798 20.6852 164.568 22.7962 164.568 26.3006C164.568 29.8049 166.799 31.916 169.748 31.916C172.697 31.916 174.929 29.8049 174.929 26.3006Z" fill="#002172"/>
<path d="M205.479 16.16V36.4365H199.849V34.0999C199.062 34.9931 198.08 35.6952 196.979 36.1525C195.878 36.6098 194.687 36.8102 193.496 36.7385C187.749 36.7385 183.325 32.6679 183.325 26.2982C183.325 19.9286 187.749 15.858 193.496 15.858C194.627 15.8026 195.757 15.9929 196.808 16.4159C197.858 16.8388 198.803 17.4842 199.579 18.3074V16.16H205.479ZM199.694 26.2982C199.694 22.7927 197.425 20.6828 194.514 20.6828C191.564 20.6828 189.295 22.7939 189.295 26.2982C189.295 29.8026 191.564 31.9137 194.514 31.9137C197.425 31.9137 199.694 29.8026 199.694 26.2982Z" fill="#002172"/>
<path d="M208.954 34.5522L210.92 30.3312C213.059 31.6031 215.501 32.2798 217.991 32.2907C220.714 32.2907 221.735 31.5741 221.735 30.444C221.735 27.1276 209.448 30.5192 209.448 22.4156C209.448 18.5717 212.928 15.858 218.863 15.858C221.578 15.8066 224.264 16.4146 226.69 17.6295L224.723 21.8129C222.936 20.8058 220.915 20.2859 218.862 20.3057C216.215 20.3057 215.081 21.1351 215.081 22.19C215.081 25.6567 227.368 22.3028 227.368 30.2936C227.368 34.0623 223.852 36.7384 217.763 36.7384C214.685 36.7977 211.646 36.0447 208.953 34.5558" fill="#002172"/>
<path d="M251.648 16.1597V36.4363H246.014V34.0997C245.227 34.993 244.245 35.6951 243.144 36.1524C242.043 36.6097 240.852 36.8101 239.661 36.7382C233.914 36.7382 229.49 32.6677 229.49 26.298C229.49 19.9284 233.914 15.8578 239.661 15.8578C240.793 15.8023 241.922 15.9926 242.973 16.4155C244.023 16.8385 244.969 17.4839 245.744 18.3072V16.1597H251.648ZM245.863 26.298C245.863 22.7925 243.594 20.6826 240.683 20.6826C237.734 20.6826 235.465 22.7937 235.465 26.298C235.465 29.8024 237.734 31.9134 240.683 31.9134C243.594 31.9134 245.863 29.8024 245.863 26.298Z" fill="#002172"/>
<path d="M250.848 42.9188L252.436 38.6603C253.174 39.1483 254.045 39.3985 254.931 39.3769C256.406 39.3769 257.351 38.4348 257.351 36.4364V16.1599H263.25V36.3988C263.25 41.0721 260.489 44.0502 255.573 44.0502C253.922 44.1346 252.282 43.7417 250.848 42.9188ZM256.632 10.0582C256.642 9.59828 256.747 9.14532 256.94 8.7274C257.133 8.30947 257.41 7.93547 257.754 7.62856C258.097 7.32165 258.501 7.08836 258.939 6.94313C259.377 6.79791 259.84 6.74385 260.3 6.78429C260.752 6.73516 261.21 6.77961 261.645 6.91488C262.08 7.05015 262.482 7.27332 262.826 7.57045C263.17 7.86758 263.449 8.23228 263.646 8.64176C263.842 9.05124 263.952 9.4967 263.967 9.9503C263.896 10.8622 263.486 11.7147 262.817 12.3409C262.148 12.9672 261.269 13.3221 260.352 13.3362C259.434 13.3504 258.544 13.0226 257.857 12.4172C257.169 11.8118 256.732 10.9723 256.633 10.0631" fill="#002172"/>
<path d="M284.045 30.0668L287.184 33.462C286.11 34.5859 284.802 35.4615 283.351 36.0272C281.901 36.5928 280.344 36.8347 278.79 36.7359C271.757 36.7359 267.182 32.3258 267.182 26.2957C267.182 20.2328 271.795 15.8555 278.071 15.8555C283.818 15.8555 288.545 19.6241 288.583 26.1065L273.534 29.0082C274.404 31.0065 276.295 32.0239 278.942 32.0239C279.883 32.0621 280.821 31.908 281.7 31.571C282.579 31.234 283.379 30.7212 284.051 30.0643M272.965 25.6942L282.872 23.7723C282.591 22.7345 281.962 21.8242 281.088 21.1931C280.215 20.562 279.152 20.2483 278.074 20.3044C275.126 20.3044 273.087 22.2651 272.965 25.6942Z" fill="#002172"/>
<path d="M290.585 34.5522L292.551 30.3312C294.69 31.6032 297.132 32.2799 299.623 32.2907C302.345 32.2907 303.366 31.5741 303.366 30.444C303.366 27.1276 291.079 30.5192 291.079 22.4156C291.079 18.5717 294.558 15.858 300.494 15.858C303.209 15.8066 305.895 16.4146 308.321 17.6295L306.355 21.8129C304.568 20.8061 302.547 20.2863 300.494 20.3057C297.847 20.3057 296.713 21.1351 296.713 22.19C296.713 25.6568 309 22.3028 309 30.2936C309 34.0623 305.483 36.7384 299.395 36.7384C296.317 36.7979 293.277 36.0449 290.585 34.5558" fill="#002172"/>
</g>
</g>
<defs>
<clipPath id="clip0_28_60">
<rect width="309" height="46" fill="white"/>
</clipPath>
</defs>
</svg>
