<svg width="505" height="270" viewBox="0 0 505 270" fill="none" xmlns="http://www.w3.org/2000/svg">
<g clip-path="url(#clip0_664_827)">
<path d="M260.503 3.15601C258.443 1.23711 255.232 1.37256 253.33 3.454L248.365 8.89464L232.174 26.6298L227.597 31.646L358.004 97.1684C358.446 96.464 358.861 95.7326 359.285 95.0147L260.503 3.15601Z" fill="#0C4FCF"/>
<path d="M322.05 2.88964C320.824 0.532782 317.938 -0.379258 315.602 0.857866L292.625 13.0079C289.699 14.5565 289.176 18.5659 291.606 20.8234L314.827 42.4144C331.456 57.9687 352.693 77.8711 363.235 87.6823C363.78 86.558 364.312 85.4248 364.817 84.2734L329.504 17.2385L322.055 2.88964H322.05Z" fill="#0C4FCF"/>
<path fill-rule="evenodd" clip-rule="evenodd" d="M188.518 79.2256L188.554 78.8599C189.172 72.3086 186.724 68.0735 184.564 65.676C183.725 64.7413 182.774 63.9377 181.746 63.2514L195.448 34.7659C197.906 29.6594 204.002 27.5283 209.065 30.0071L354.266 102.663C354.262 102.668 354.262 102.672 354.262 102.672C351.66 102.483 349.036 102.379 346.394 102.379C326.51 102.379 310.751 107.594 299.569 117.879C294.645 122.408 290.488 127.979 287.11 134.54C285.257 127.148 282.223 120.927 277.935 116.023C271.905 109.137 263.439 104.835 252.682 103.17L254.344 99.9496V99.9405C257.586 101.164 260.431 101.403 262.87 100.663C265.31 99.9225 267.104 98.437 268.259 96.2066C269.188 94.4096 269.49 92.73 269.169 91.1588C268.849 89.5875 268.182 88.1788 267.163 86.9372C266.144 85.691 264.805 84.3546 263.141 82.9233L266.726 75.9837C268.701 77.3382 270.4 79.1307 271.816 81.3656L276.433 77.4104C274.995 74.8865 272.686 72.62 269.512 70.6017L271.812 66.1544L267.767 64.0278L265.427 68.5564C262.172 67.2922 259.308 67.0394 256.842 67.8024C254.376 68.5609 252.559 70.0735 251.391 72.331C250.448 74.1551 250.137 75.8527 250.457 77.4195C250.778 78.9907 251.449 80.4084 252.477 81.6726C253.501 82.9414 254.854 84.3094 256.526 85.7768L253.005 92.5946C251.621 91.6915 250.372 90.6215 249.267 89.3798C248.158 88.1382 247.288 86.8695 246.656 85.5691L241.859 89.3798C242.513 90.8337 243.59 92.3327 245.087 93.8813C246.584 95.43 248.302 96.7845 250.241 97.9449L247.796 102.607C245.879 102.458 243.898 102.383 241.854 102.383C232.453 102.383 223.332 102.871 214.738 103.842C206.383 104.79 197.036 106.149 186.936 107.892L183.157 108.542L183.843 104.117C184.451 102.875 184.938 101.534 185.294 100.108L185.443 99.5163L185.533 98.9158L188.464 79.5913L188.518 79.2256ZM247.796 102.607L247.793 102.613C249.47 102.744 251.098 102.939 252.676 103.182L252.682 103.17C251.103 102.925 249.474 102.738 247.796 102.607ZM259.75 73.9519C258.993 74.2273 258.429 74.7195 258.064 75.4283H258.068C257.717 76.1056 257.681 76.8009 257.969 77.5053C258.258 78.2096 258.808 78.9681 259.624 79.7763L262.618 73.979C261.464 73.6855 260.512 73.6765 259.75 73.9519ZM261.613 91.2039C261.337 90.5086 260.814 89.7456 260.039 88.9238L257.131 94.5541C258.213 94.8476 259.124 94.8792 259.863 94.6444C260.598 94.4096 261.144 93.9491 261.495 93.2718C261.847 92.59 261.888 91.8992 261.613 91.2039Z" fill="#0C4FCF"/>
<path d="M22.8918 77.0177H78.9739C92.654 77.0177 102.258 79.6139 107.795 84.8062C113.332 90.003 116.1 97.3986 116.1 106.993C116.1 110.542 115.839 113.964 115.32 117.247C114.148 124.742 111.217 131.149 106.528 136.476C101.839 141.8 95.9094 145.321 88.7448 147.028C95.6479 148.87 100.923 152.089 104.571 156.69C108.219 161.296 110.04 167.734 110.04 176.019C110.04 179.175 109.648 183.252 108.868 188.246C106.78 200.473 101.473 209.318 92.9426 214.772C84.4072 220.231 72.3909 222.958 56.8892 222.958H0.225464L22.8918 77.0177ZM60.609 196.725C67.5122 196.725 72.5938 195.312 75.8492 192.486C79.1047 189.659 81.2509 185.022 82.297 178.579C82.5585 177.265 82.6893 175.423 82.6893 173.057C82.6893 163.987 77.1523 159.449 66.0784 159.449H39.1105L33.2489 196.721H60.6045L60.609 196.725ZM69.4014 136.973C78.9108 136.973 84.6416 132.11 86.5985 122.38C87.2478 119.093 87.5769 116.597 87.5769 114.885C87.5769 110.813 86.3685 107.855 83.9608 106.009C81.5485 104.171 77.8692 103.25 72.9184 103.25H47.9074L42.4335 136.973H69.4014Z" fill="#0C4FCF"/>
<path d="M161.158 82.4268C162.267 82.4268 163.12 82.7519 163.701 83.3975C164.355 84.1244 164.621 85.2306 164.481 86.6845L162.24 101.476H165.721L168.638 82.1965C168.706 81.4425 168.693 80.3544 168.179 79.79C167.858 79.4378 167.308 79.2572 166.537 79.2572H144.466L143.984 82.4313H161.149L161.158 82.4268Z" fill="#0C4FCF"/>
<path d="M162.66 84.3547C162.353 84.0161 161.866 83.849 161.163 83.849H143.781L143.361 86.6122H156.794C157.7 86.6122 158.399 86.8786 158.868 87.3978C159.404 87.9938 159.616 88.8968 159.503 90.0888L157.776 101.467H160.82L163.088 86.4993C163.178 85.5015 163.038 84.7656 162.664 84.3457L162.66 84.3547Z" fill="#0C4FCF"/>
<path d="M142.288 100.388C142.938 101.11 143.853 101.471 145.025 101.471H156.708L158.453 89.9624C158.534 89.109 158.408 88.4814 158.083 88.1202C157.817 87.8267 157.393 87.6823 156.794 87.6823H143.199L141.707 97.5296C141.445 98.7125 141.639 99.6697 142.293 100.388H142.288Z" fill="#0C4FCF"/>
<path d="M171.601 74.0604H149.322C146.978 74.0604 145.499 75.0853 144.876 77.1171H166.542C167.935 77.1171 169.013 77.5324 169.748 78.3497C170.577 79.2707 170.911 80.6478 170.74 82.4584L167.863 101.435C169.878 101.232 171.195 99.9406 171.795 97.5341L174.726 78.2097C174.987 75.4465 173.946 74.0694 171.601 74.0694V74.0604Z" fill="#0C4FCF"/>
<path d="M188.013 121.193C197.91 119.486 206.933 118.172 215.076 117.247C223.214 116.33 231.781 115.865 240.772 115.865C253.019 115.865 261.842 118.958 267.253 125.135C272.655 131.316 275.36 140.847 275.36 153.733C275.36 159.648 274.706 166.687 273.408 174.836C270.802 191.271 265.265 203.597 256.797 211.815C248.325 220.032 237.58 224.141 224.554 224.141C214.521 224.141 206.834 222.759 201.495 220L193.677 269.698H164.756L188.009 121.198L188.013 121.193ZM237.454 192.292C241.232 187.627 244.032 179.965 245.858 169.314C246.508 163.662 246.837 160.113 246.837 158.663C246.837 152.089 245.728 147.227 243.514 144.071C241.295 140.915 237.715 139.339 232.764 139.339L214.003 139.538L205.016 196.531C207.753 197.583 210.292 198.306 212.637 198.698C214.981 199.096 217.844 199.29 221.235 199.29C228.269 199.29 233.675 196.956 237.454 192.287V192.292Z" fill="#0C4FCF"/>
<path d="M295.488 214.971C290.145 208.857 287.476 199.755 287.476 187.655C287.476 181.74 288.256 174.376 289.82 165.567C292.557 148.604 298.32 136.084 307.112 127.997C315.905 119.911 328.638 115.87 345.316 115.87C354.041 115.87 362.383 117.021 370.327 119.319C378.272 121.622 384.657 124.615 389.477 128.295L374.624 222.958H349.027L347.463 212.307C344.203 215.201 339.549 217.896 333.489 220.393C327.434 222.89 321.599 224.141 315.999 224.141C307.662 224.141 300.822 221.084 295.484 214.971H295.488ZM340.433 198.698C343.562 197.384 346.813 195.61 350.204 193.375L358.216 142.495C357.044 141.705 355.119 140.982 352.449 140.323C349.776 139.669 346.881 139.339 343.756 139.339C336.069 139.339 330.27 141.673 326.365 146.342C322.456 151.01 319.724 158.144 318.159 167.739C317.118 174.317 316.594 179.175 316.594 182.331C316.594 187.984 317.699 192.459 319.918 195.741C322.131 199.028 325.518 200.671 330.081 200.671C333.859 200.671 337.309 200.017 340.438 198.698H340.433Z" fill="#0C4FCF"/>
<path d="M403.747 248.987C412.346 247.145 419.511 244.255 425.242 240.309C430.972 236.363 435.662 230.579 439.309 222.953C430.188 222.037 423.578 219.404 419.475 215.065C415.371 210.726 412.797 203.891 411.755 194.554L402.765 117.048H432.663L437.353 188.44C438.002 195.28 441.654 198.829 448.296 199.091L471.354 142.098C475.264 131.713 477.347 122.836 477.608 115.472H504.77C504.77 130.065 500.861 145.646 493.047 162.212L465.299 221.377C457.611 238.074 448.913 250.003 439.21 257.173C429.502 264.338 417.68 268.51 403.743 269.698V248.991L403.747 248.987Z" fill="#0C4FCF"/>
<path d="M138.97 117.053H167.885L151.473 222.958H122.354L138.97 117.053Z" fill="#0C4FCF"/>
</g>
<defs>
<clipPath id="clip0_664_827">
<rect width="505" height="270" fill="white"/>
</clipPath>
</defs>
</svg>
