<?xml version="1.0" encoding="UTF-8"?>
<svg id="Capa_1" data-name="Capa 1" xmlns="http://www.w3.org/2000/svg" viewBox="0 0 611 326">
  <defs>
    <style>
      .cls-1 {
        fill: #e8c114;
      }

      .cls-1, .cls-2 {
        stroke-width: 0px;
      }

      .cls-3 {
        letter-spacing: -.06em;
      }

      .cls-4 {
        letter-spacing: 1.2em;
      }

      .cls-5 {
        letter-spacing: 1.2em;
      }

      .cls-2, .cls-6, .cls-7 {
        fill: #002781;
      }

      .cls-6 {
        font-family: Perpetua, Perpetua;
        font-size: 86.36px;
      }

      .cls-8 {
        letter-spacing: .01em;
      }

      .cls-7 {
        font-family: Gilroy-Bold, Gilroy-Bold;
        font-size: 56.03px;
        font-weight: 700;
      }

      .cls-9 {
        letter-spacing: -.07em;
      }
    </style>
  </defs>
  <g>
    <path class="cls-1" d="M337.48,67.41c-124.97,11.96-120.11,99.31,76,91.63,46.95-4.95,88.94-13.2,103.56-39.64,1.09,29.4-72.49,56.68-183.76,55.09-25.5-.36-50.93-3.13-75.86-8.49-31.19-6.71-58.48-16.33-70.95-37.08-3.45-5.74-3.81-12.97-.5-18.79,15.52-27.21,73.67-42.37,151.51-42.73Z"/>
    <polygon class="cls-2" points="432.11 180.06 511.97 180.06 402.99 70.87 337.48 73.3 432.11 180.06"/>
    <path class="cls-2" d="M167.14,180.06h-77.44L259.83,7.78h80.48l50.55,50.96c-137.1-10.92-269.19,33.36-197.76,93.42l-25.95,27.9Z"/>
  </g>
  <text class="cls-6" transform="translate(3.38 319.14)"><tspan class="cls-8" x="0" y="0">A</tspan><tspan class="cls-3" x="52.18" y="0">L</tspan><tspan class="cls-9" x="90.2" y="0">T</tspan><tspan class="cls-8" x="132.76" y="0">AS CUMBRES</tspan></text>
  <text class="cls-7" transform="translate(86.42 247.83)"><tspan class="cls-4" x="0" y="0">B</tspan><tspan class="cls-5" x="100.86" y="0">U</tspan><tspan class="cls-4" x="204.69" y="0">S</tspan><tspan class="cls-5" x="304.32" y="0">ES</tspan></text>
</svg>