<?xml version="1.0" encoding="UTF-8"?>
<svg id="Capa_1" data-name="Capa 1" xmlns="http://www.w3.org/2000/svg" viewBox="0 0 629 148">
  <defs>
    <style>
      .cls-1 {
        fill: #ec1c24;
      }

      .cls-1, .cls-2, .cls-3 {
        stroke-width: 0px;
      }

      .cls-2 {
        fill: #2e358e;
      }

      .cls-3 {
        fill: #fff;
      }
    </style>
  </defs>
  <g id="Layer_1" data-name="Layer 1">
    <g>
      <path class="cls-2" d="M587.85,46.04c-3.49-4-8.5-6.23-14.14-6.23-1.23,0-2.52.11-3.8.31-2.11.33-4,.99-5.82,1.67-2.02-1.69-4.52-2.9-7.97-2.9-2.04,0-4.19.42-6.23.88l-1.01.24c-3.43.77-6.96,1.58-10.07,1.58-.83,0-1.6-.06-2.3-.17-1.78-.29-3.25-.42-4.63-.42-2.26,0-4.28.39-6.1,1.18-.22-.31-.48-.64-.73-.94-2.33-2.7-5.46-4.13-9.02-4.13-2.24,0-4.39.55-6.39,1.14-3.91,1.16-6.87,1.69-9.62,1.69-2.33,0-4.48-.39-6.58-1.19-1.6-.61-3.38-.9-5.42-.9s-4.02.31-5.35.53c-9.09,1.6-16.33,6.52-22.8,11.59-3.49,2.76-6.67,5.66-9.51,8.69.02-2.9-.55-6.28-2.65-9.59-4.96-7.82-13.19-12.49-21.99-12.49-3.49,0-6.96.72-10.3,2.11-3.64,1.53-7.01,3.48-10.28,5.33h0c-5.44-4.85-11.52-7.29-18.11-7.29-5.33,0-10.95,1.58-17.08,4.83-2.17-2.13-4.72-3.66-8.36-3.66-1.76,0-3.69.35-6.43,1.16-4.89,1.45-8.98,2.13-12.84,2.13-.9,0-1.8-.04-2.68-.11-.35-.04-.7-.04-1.07-.04-3.43,0-6.56,1.34-8.12,2.15-.39.2-.73.42-1.08.64-.4-.51-.83-1.01-1.3-1.49l-.02-.02c1.87-1.73,3.8-3.66,5.42-5.91,3.51-4.92,4.41-10.76,2.48-16-1.89-5.14-6.21-8.91-11.87-10.32-1.73-.44-3.6-.64-5.75-.64-1.05,0-2.17.06-3.45.15-8.5.68-15.52,4.02-20.68,9.79-2.55-4.35-6.87-7-12.1-7-1.41,0-2.87.2-4.32.61-4.98,1.38-9.94,1.56-14.14,1.56-.99,0-2.06-.02-3.34-.04-.09,0,.9,0,.81,0-4.23,0-8.18,1.86-10.77,3.41-2.77,1.68-4.59,4.23-5.16,7.18-.58,3.06.26,6.25,2.33,8.96,1.29,1.69,2.91,2.64,4.23,3.42.07.04.15.09.22.13-.07.22-.16.44-.24.66-1.58-.24-3.17-.36-4.74-.36-6.78,0-13.46,2.26-19.86,6.7-6.45,4.48-13.14,9.42-18.78,15.28.15-10.68-5.88-19.02-15.78-21.53-2.17-.55-4.52-.84-7.03-.84-2.66,0-5.39.31-8.13.91-3.24.73-6.05,2.15-8.74,3.57-2.3-2.48-5.41-4.37-10.11-4.37-1.64,0-3.46.22-5.76.67-5.54,1.11-11.15,1.89-16.71,2.33-1.69.13-3.79.31-5.85,1.06-1.89-2.31-4.72-4.26-9.02-4.26-1.77,0-3.77.31-6.3,1-2.91.78-5.78,1.33-8.49,1.6-.67.07-1.53.15-2.35.15-1.15,0-1.69-.15-1.91-.24-3.21-1.31-6.45-1.99-9.67-1.99-2.59,0-5.17.44-7.72,1.28-13.39,4.45-24.94,13.23-34.38,26.09-8.91,12.17-12.81,24.38-11.9,37.29.84,11.93,7.98,20.29,19.55,22.97,1.93.44,3.9.67,5.87.67,4.04,0,8.18-.95,12.33-2.84.8-.36,1.58-.75,2.35-1.13,1.8,2.15,4.48,4.26,8.51,4.26,1.82,0,3.77-.44,6.16-1.38,3.39-1.35,7.07-2.2,9.91-2.81,1.13-.24,2.51-.26,3.83-.26h1.29c2.17.33,5.25.33,8.37-.85,2.04,2.95,5.14,5.8,9.68,5.8,1.5,0,3.01-.33,4.52-.97,2.75-1.15,5.8-1.5,9.03-1.88,2.02-.24,4.12-.47,6.27-.91,1.06-.22,1.97-.49,2.83-.84,1.86-.75,3.41-1.7,4.65-2.86.44.73.95,1.4,1.53,2.02,2.46,2.64,5.98,4.1,9.88,4.1,1.42,0,2.88-.2,4.32-.58l.31-.07c1.48-.38,3.3-.88,5.02-2.02,2.43-1.64,5.23-2.33,9.34-2.33.51,0,1.02.02,1.6.04.26.02.51.02.77.02,2.95,0,6.09-.6,9.1-1.75.69-.26,1.51-.66,2.33-1.2,3.3,4.29,17,9.77,17,9.77h.36s8.15-1.51,11.36-2.48c2.97-.89,5.78-2.12,8.5-3.32,1.64,2.37,4.56,5.23,9.45,5.23,1.71,0,3.57-.35,5.84-1.08,2.95-.95,6.36-1.53,9.9-1.7,5.42-.24,9.72-2.22,12.51-5.71,1.02,1.68,2.39,3.21,4.07,4.54,3.28,2.61,7.42,4.1,11.32,4.1,2.35,0,4.52-.53,6.47-1.55,3.5-1.86,6.77-1.7,6.77-1.7h-.81.35c4.98,0,9.29-1.91,12.12-5.36.92-1.12,1.65-2.37,2.2-3.71.31,2.92,1.45,5.57,3.34,7.66,2.65,2.92,6.48,4.54,10.8,4.54,1.47,0,2.98-.18,4.48-.57,1.1-.28,2.19-.57,3.23-.84,3.2-.86,6.21-1.69,9.02-1.78,3.67-.15,6.87-1.41,9.37-3.73,3.12,5.75,8.01,6.7,10.87,6.7,1.98,0,4.13-.44,6.39-1.3,3.16-1.21,6.58-2.13,10.16-2.74,3.49-.59,7.05-.97,10.82-1.38.66-.07,1.34-.15,2.04-.22,2.17,2.72,5.84,6.06,11.19,6.06,2.7,0,5.51-.84,8.58-2.57,3.09-1.74,6.39-2.55,10.43-2.55.5,0,1.01.02,1.54.04.35.02.72.02,1.07.02,4.19,0,7.79-1.19,10.71-3.51,3.95,4.5,9.22,7.11,15.76,7.79,1.07.11,2.15.17,3.21.17,5.05,0,10.03-1.25,15.12-3.78,1.86,2.26,4.52,4.33,8.45,4.33,1.97,0,4.04-.51,6.54-1.63,4.26-1.91,8.16-2.85,11.87-2.85.48,0,.97.02,1.43.06.68.04,1.34.07,1.97.07,3.14,0,5.95-.55,8.47-1.65.57,1.23,1.3,2.3,2.2,3.23,1.45,1.49,4.04,3.25,8.21,3.25,2.31,0,4.83-.53,7.7-1.62,4.21-1.6,8.21-2.63,11.87-3.05,8.12-.96,12.95-6.19,12.95-14.01,0-2.68.04-5.77.55-8.5,1.25-6.59,4.08-12.77,8.21-18,2.31.77,4.7,1.54,7.38,1.54.28,0,.53,0,.81-.02,10.1-.62,19.16-9.13,20.61-19.38,1.03-7.18-.7-13.94-4.74-18.59Z"/>
      <g>
        <path class="cls-3" d="M329.88,33.46c5.14-7.24,1.91-15.98-6.35-18.05-2.37-.6-5-.55-7.46-.35-9.32.75-16.47,5.18-20.83,13.46-3.23,6.15-.75,12.47,5.6,15.32,1.62.73,3.41,1.11,5.07,1.64-5.69,1.42-11.89-1.22-17.49,2.63,2.55-6.47,4.23-12.77,3.96-19.4-.31-7.71-5.45-12.31-12.16-10.45-6.26,1.71-12.47,1.82-18.86,1.7-2.75-.05-5.82,1.19-8.26,2.66-3.21,1.93-3.68,5.53-1.39,8.53,1.08,1.4,3.05,2.12,4.52,3.25.73.55,1.88,1.55,1.73,2.04-.78,2.74-1.9,5.38-2.92,8.15-9.3-2.84-17.6-.53-24.91,4.56-6.84,4.74-13.7,9.83-19.24,15.96-9.57,10.58-15.87,22.91-14.35,37.79-1.06-.42-2.12-1.08-3.25-1.24-2.19-.33-3.14-1.53-2.61-3.57.66-2.48,1.39-5,2.52-7.31,4.5-9.26,8.99-18.51,9.88-29.03.75-8.7-3.41-15.96-11.8-18.09-4.01-1.02-8.66-.78-12.75.13-3.99.89-7.62,3.36-11.45,5.14-3.43-5.69-6.29-6.66-13.28-5.25-5.71,1.15-11.53,1.97-17.34,2.43-3.23.26-6.11.49-7.84,3.81-2.72-6.91-5.34-8.08-12.4-6.18-3.05.82-6.2,1.44-9.34,1.77-2.24.22-4.78.36-6.77-.46-4.63-1.9-9.21-2.12-13.79-.58-13.37,4.43-23.67,13.08-31.86,24.25-7.35,10.03-11.82,21.15-10.91,33.9.69,9.72,6.15,16.12,15.56,18.27,5.16,1.19,10.12.33,14.88-1.84,2.08-.95,4.09-2.06,6.18-3.14.51.8.91,1.46,1.35,2.08,2.79,4.09,5.16,4.52,9.74,2.7,3.45-1.37,7.11-2.3,10.76-3.06,5.58-1.19,11.87,1.33,16.56-3.83,2.77,6.6,5.89,9.36,10.25,7.53,5.34-2.24,10.87-1.97,16.25-3.08.66-.13,1.31-.31,1.93-.57,4.05-1.64,5.47-4.19,5.2-8.57-.13-2.1.07-4.23.36-6.31,1.2-8.3,7.39-21.05,12-25.2-1.4,4.65-3.17,9.45-4.27,14.39-1.44,6.55-2.9,13.17-3.37,19.84-.46,6.42,4.81,9.98,11.05,8.33,1.29-.35,2.68-.67,3.76-1.39,4.3-2.9,9.01-3.37,14.04-3.19,2.61.09,5.38-.46,7.82-1.39,2.66-1.02,4.03-3.46,4.1-7.13.51,1.28.67,1.82.93,2.33,3.52,6.67,8.01,12.18,16.43,12.05,3.34-.05,6.78-.35,9.96-1.29,4.16-1.26,8.1-3.26,12.27-5,.24.46.57,1.13.91,1.81,2.55,5.02,5.23,5.78,10.5,4.07,3.61-1.17,7.5-1.77,11.29-1.93,5.02-.22,8.75-2.3,10.36-6.84,1.17-3.32,1.13-7.11,1.5-10.69.16-1.6-.27-3.34.11-4.85,1.86-7.35,3.63-14.74,5.95-21.96,2.32-7.19,5.25-14.15,7.75-20.75,2.33,2.53,4.6,4.98,7.29,7.9-.69,2.04-1.57,4.98-2.68,7.81-4.27,10.92-8.72,21.77-12.84,32.75-1.08,2.9-1.88,6.2-1.64,9.23.57,7.33,10.39,12.57,16.36,9.39,2.86-1.51,6.26-2.92,9.39-2.86,7.88.15,11.6-6.02,10.25-12.91-.22-1.09-.26-2.35.09-3.37,3.06-8.99,6.18-17.98,9.41-26.92,1.9-5.23,4.32-10.3,5.93-15.63,1.37-4.58,1.64-9.45-2.15-13.26-1.48-1.48-3.54-2.37-4.71-3.1,3.06-3.1,6.88-5.91,9.48-9.56ZM76.12,95.97c2.99-11.47,6.84-22.52,14.33-32.28,1.77,1.31,3.15,2.32,4.69,3.46-4.74,10.69-10.6,20.55-19.02,28.81ZM120.13,103.58c-2.24-1.46-4.43-2.86-6.62-4.27l-1,.42c.57-1.73.95-3.54,1.75-5.16,5.82-11.71,11.14-23.6,13.91-36.78,2.72,2.48,4.43,5.73,9.3,4.45-9.14,12.93-14.08,26.94-17.34,41.34ZM246.78,71.57c-4.25,7.08-8.95,13.86-13.48,20.77-.73,1.11-1.5,2.17-2.57,2.94.58-8.46,8.37-25.82,14.08-32.53,4.67,3.67,4.96,3.85,1.97,8.83Z"/>
        <path class="cls-3" d="M570.38,45.31c-2.68.42-5.23,1.64-7.95,2.52-3.54-4.09-5.58-4.3-11.62-2.94-5,1.13-10.38,2.5-15.26,1.7-5.02-.82-8.61-.44-11.47,3.56-1.02-1.9-1.7-3.96-3.01-5.49-2.77-3.21-6.29-2.44-9.87-1.39-6.42,1.91-12.8,2.9-19.44.36-2.33-.89-5.34-.55-7.93-.11-7.81,1.37-14.22,5.69-20.32,10.49-12.27,9.65-20.99,21.68-24.07,37.22-.82,4.09-.69,8.37-.97,12.04-1.5-.91-3.32-2.02-5.38-3.28.33-.91.69-1.99,1.09-3.05,4.43-11.47,9.14-22.87,11.14-35.11.57-3.48.51-6.82-1.51-10.01-5.62-8.86-15.87-12.4-25.66-8.3-4.47,1.88-8.63,4.52-13.13,6.95-10.83-11.96-22.83-9.88-35.2-2.22-4.01-5.27-5.69-6.04-12.02-4.14-5.69,1.7-11.34,2.72-17.32,2.21-1.8-.14-3.82.39-5.55,1.18-2.46,1.11-4.02,3.59-4.02,6.29,0,3.52,1.53,5.43,4.56,6.15.89.22,1.71.75,2.59,1.13-.13.6-.15.98-.29,1.33-3.81,9.45-8.04,18.75-11.31,28.38-2.26,6.67-3.85,13.73-4.58,20.74-.73,7.08,5.09,11.05,12.05,9.32,4.38-1.09,8.79-2.61,13.22-2.77,5.78-.22,9.17-4.63,8.94-10.5-.58-15.08,7.82-26.37,15.81-38.22-3.54,9.01-6.95,17.65-10.36,26.3-2.5,6.35-3.54,12.82-1.22,19.42,2.01,5.71,5.96,7.15,11.6,5,3.56-1.37,7.31-2.35,11.07-2.99,5.22-.89,10.5-1.29,16.12-1.95,4.05,6.38,8.15,8.08,14.57,4.45,4.71-2.66,9.54-3.41,14.68-3.17,5.47.26,9.41-1.97,11.89-7.19,3.14,6.88,8.22,10.7,15.74,11.49,7.17.73,13.39-1.55,19.33-5.34.47.78.77,1.28,1.08,1.75,2.77,4.54,5.18,5.27,10.03,3.1,5-2.24,10.21-3.57,15.68-3.21,5.64.36,10.32-1.06,13.75-6.22v1.28c-.2,8.94,4.05,11.69,12.42,8.52,4.18-1.59,8.61-2.81,13.02-3.34,5.16-.6,8.24-3.48,8.24-8.75,0-3.14.05-6.35.66-9.41,1.71-8.99,5.89-16.78,11.53-22.87,3.57.91,6.62,2.46,9.54,2.28,7.7-.47,14.53-7.09,15.63-14.77,1.59-10.91-4.72-20.26-16.52-18.38ZM398.33,102.87c-.64-.4-.89-.53-1.11-.71-4.34-3.34-4.47-3.37-2.48-8.74,3.72-10.07,10.08-18.47,17.16-26.37.24-.26.6-.38,1.28-.8-4.94,12.42-12.25,23.43-14.84,36.62ZM470.71,95.39c2.97-11.42,6.78-22.43,14.22-32.04,1.57,1.15,2.99,2.19,4.69,3.41-4.63,10.65-10.5,20.44-18.91,28.63ZM530.58,65.85c-4.45,10.7-8.81,21.46-13,32.26-.98,2.53-1.28,5.34-2.01,8.52-2.97-5.84-3.94-6.66-8.68-7.24.91-2.39,1.59-4.74,2.66-6.91,4.94-9.99,9.52-20.13,12.13-31.02.35-1.48.64-2.95.91-4.21,2.35,1.5,4.58,3.06,6.93,4.38,2.01,1.13,1.86,2.3,1.06,4.23Z"/>
      </g>
      <g>
        <path class="cls-1" d="M244.56,112.62c-.49-1.77-.84-3.77-1.62-5.58-.64-1.48-1.53-3.37-2.79-3.88-1.04-.42-3.14.57-4.18,1.53-6,5.62-12.93,8.37-21.21,8.02-3.01-.13-5.07-1.26-6.84-3.48-4.6-5.71-5.69-12.16-3.63-19.02,6.07-20.26,19.55-33.54,39.23-40.67,3.85-1.39,7.75-.86,11.29,1.53,2.3,1.55,4.32,1.09,5.4-1.48,1.93-4.6,3.72-9.28,5.22-14.02.95-3.05-.89-6.18-4.16-8.15-.73-.44-1.53-.77-3.14-1.57,1.71-.24,2.66-.57,3.56-.44,6.38.86,12.66.4,18.82-1.42,3.48-1.04,4.52-.24,4.61,3.52.15,5.87-1.46,11.32-3.54,16.78-5.09,13.37-10.01,26.81-14.72,40.32-1.93,5.53-2.99,11.32-2.24,17.31.18,1.4.07,2.9-.15,4.32-.46,2.9-1.97,3.79-4.91,4.12-4.8.55-9.61,1.44-15.01,2.26M256.97,63.49c.05-3.92-1.73-6.26-4.69-6.67-1.55-.22-2.32-.67-2.81-2.24-.98-3.1-3.76-3.87-6.38-1.91-.98.75-1.82,1.7-2.64,2.64-8.7,10.07-13.29,22.18-16.85,34.72-.91,3.23-1.09,6.86-.67,10.19.47,3.67,3.19,4.65,6.44,2.88,1.75-.97,3.48-2.1,4.96-3.45,9.06-8.24,15.08-18.62,20.33-29.49,1.19-2.39,1.77-5.03,2.32-6.67"/>
        <path class="cls-1" d="M189.41,107.17c-1.77,0-2.99.09-4.18-.02-6-.49-11.63.36-16.78,3.76-.98.66-2.48.55-3.76.8-.2-1.19-.69-2.41-.53-3.54,1.97-14.7,6.18-28.7,12.64-42.07.53-1.09,1.19-2.5.89-3.5-.51-1.71-1.37-3.81-2.74-4.63-1.22-.71-3.81-.51-4.98.38-2.55,1.95-4.91,4.36-6.78,6.98-5.42,7.57-11.18,14.95-14.59,23.8-2.24,5.8-3.98,11.67-3.61,17.94.13,2.21-.91,2.94-2.75,3.15-.77.09-1.53.13-2.3.15-3.79.07-7.71-.58-11,2.21-.49.42-1.42.35-2.66.62,0-2.26-.38-4.3.05-6.18,2.64-11.14,5.4-22.27,10.96-32.41,1.93-3.54,4.16-6.91,6.2-10.39,1.64-2.81,1.82-5.71-.05-8.43-1.66-2.39-4.08-3.03-6.89-2.26-.35.09-.75.05-1.13,0-.15-.02-.31-.22-.4-.36-.09-.16-.09-.36-.2-1,1-.11,1.97-.16,2.92-.31,4.92-.67,9.83-1.5,14.77-2.02,2.46-.27,4.98-.05,7.24-.05.31.66.46.82.47,1,.64,7.33,4.92,8.22,10.34,3.9,3.15-2.52,6.91-4.74,10.76-5.8,10.12-2.79,16.18,3.25,14.37,13.51-1.39,7.88-4.54,15.05-8.08,22.12-1.15,2.32-2.3,4.67-3.08,7.13-2.35,7.35-1.46,10.21,4.87,15.52"/>
        <path class="cls-1" d="M121.5,48.54c-.47,3.67-.31,7.33-1.46,10.54-3.36,9.48-7.2,18.8-10.89,28.18-.98,2.5-2.15,4.92-3.06,7.44-2.22,6.18.64,11.34,6.67,11.49.26,0,.51.24,1.46.71-1.4.73-2.41,1.7-3.37,1.66-7.97-.22-15.68.8-23.62,4.72-.15-2.3-.47-3.96-.29-5.56.27-2.28-.13-4.12-2.44-4.89-2.08-.69-3.14.75-4.45,2.24-3.57,4.09-8.28,6.51-13.6,7.4-2.32.38-4.85.26-7.15-.29-5.45-1.29-8.46-5.93-8.64-12.8-.26-9.57,2.92-18.16,8.12-26.02,6.44-9.76,15.03-17.23,25.66-22.14,4.87-2.24,9.94-4.09,14.74.49.51.49,1.66.6,2.44.47,6.31-1.09,12.58-2.28,19.9-3.65M67.7,97.94c.13.04.26.07.38.13.07.67.11,1.35.24,1.99.98,4.92,3.48,6.07,7.84,3.57,1.24-.71,2.43-1.59,3.52-2.52,6.11-5.16,10.76-11.56,14.59-18.46,3.1-5.58,5.84-11.43,8.08-17.42,1.5-3.99-.6-6.55-4.76-7.5-.75-.16-1.66-.89-1.97-1.59-1.79-4.01-4.6-4.65-7.81-1.59-.89.86-1.68,1.86-2.48,2.81-6.97,8.24-10.85,18.07-14.3,28.08-1.4,4.07-2.24,8.32-3.34,12.47"/>
        <path class="cls-1" d="M294.71,51.8c7.88-.04,15.14-.42,22.18-2.75,2.75-.91,4.63,1.08,3.99,4.34-.57,2.9-1.4,5.8-2.46,8.55-3.98,10.41-8.33,20.68-12,31.18-1.39,3.96-1.46,8.44-1.68,12.71-.13,2.52-.58,3.32-3.36,3.56-3.87.33-7.71,1.48-11.42,2.74-2.08.71-3.92,1.2-5.67-.16-1.99-1.55-1.77-3.77-1-5.84,4.25-11.23,8.59-22.41,12.86-33.63,1.4-3.67,2.88-7.33,4.05-11.07,1.26-4.01-.15-6.4-5.49-9.63"/>
        <path class="cls-1" d="M318.91,21.49c.77.07,1.53.09,2.3.22,3.23.55,4.27,2.5,2.66,5.38-2.43,4.4-6.47,6.77-11.18,7.9-2.08.49-4.4.71-6.49.33-3.41-.62-4.19-2.74-2.37-5.69,3.12-5.03,7.97-7.26,13.64-8.06.47-.07.97,0,1.44,0,0,0,0,.25,0,.25"/>
        <path class="cls-1" d="M338.46,52.15c1.15-.16,1.51-.31,1.84-.26,6.38,1.09,12.42-.38,18.4-2.41,3.26-1.11,3.72-.77,4.36,2.66.95,5.23,3.03,5.98,7.55,2.97,3.48-2.32,6.91-5.03,10.78-6.29,3.28-1.06,7.28-.8,10.78-.18,3.79.67,6.07,3.79,7.71,7.22,1.88,3.9,3.87,4.25,7.09,1.28,4.71-4.36,9.72-8.1,16.25-9.37,5.49-1.08,11.94,1.62,13.95,6.77.77,1.97.62,4.65-.02,6.73-3.06,10.1-6.44,20.11-9.72,30.16-.33,1-.77,1.97-1.13,2.97-2.32,6.42-.88,9.72,5.42,12.77-1.13.2-2.24.58-3.37.55-6.44-.18-12.62.38-18.27,4.03-3.21,2.08-5.27.36-5.14-3.81.26-8.08,3.19-15.36,6.6-22.52,2.99-6.24,5.96-12.51,8.75-18.84,1.35-3.06,2.84-6.49-.33-9.34-3.19-2.84-6.4-.97-9.26.82-2.1,1.29-4.12,2.88-5.74,4.72-6.84,7.75-12.78,16.14-16.65,25.82-.89,2.22-1.53,4.58-2.01,6.91-1.02,4.89,1.44,9.45,5.54,10.36.42.09.77.47,1.79,1.13-1.5.4-2.43.86-3.34.86-7.99-.07-15.7,1.08-23.22,4.87-1.75-4.25-2.08-8.43-.55-12.46,3.52-9.34,7.31-18.58,11-27.87.97-2.41,2.15-4.74,2.86-7.22.64-2.17.53-4.45-1.5-6.07-1.99-1.6-4.29-1.51-6.2-.24-2.77,1.82-5.82,3.63-7.79,6.18-7.19,9.25-13.24,19.18-15.77,30.82-.69,3.15-.66,6.47-.75,9.74-.07,2.3-.57,3.56-3.3,3.92-4.16.55-8.26,1.75-12.35,2.81-3.67.95-5.12.2-4.32-3.41,1.79-8.04,3.77-16.08,6.49-23.85,2.72-7.79,6.4-15.23,9.72-22.8,1.35-3.06.42-6.07-2.74-8.21-.84-.58-1.79-1.02-3.43-1.93"/>
        <path class="cls-1" d="M516.03,48.25c-.57,3.98-.77,7.79-1.68,11.42-2.66,10.6-7.28,20.44-12.07,30.22-1.17,2.37-2.04,5.05-2.33,7.66-.55,4.8,2.06,7.59,6.86,8.08.36.04.71.16,1.06.26.11.29.24.57.35.86-1.17.55-2.39,1.66-3.52,1.59-7.88-.58-15.26,1.13-23.18,4.6,0-2.33-.16-4.19.04-6,.26-2.17-.6-3.92-2.48-4.3-1.22-.26-3.26.58-4.07,1.6-3.26,4.16-7.79,6.09-12.53,7.6-1.86.6-3.99.66-5.98.49-9.43-.73-12.49-8.24-11.32-16.83,3.03-22.47,16.47-37.09,36.84-45.76,3.76-1.6,7.82-1.81,11.36,1.39.71.66,2.33.64,3.46.46,6.13-.97,12.22-2.1,19.2-3.32M462.54,97.5c.16.95.26,1.9.49,2.83,1.06,4.27,3.39,5.34,7.19,3.21,1.42-.8,2.77-1.77,3.99-2.83,7.11-6.11,12.2-13.84,16.63-21.96,2.43-4.45,4.49-9.14,6.11-13.93,1.33-3.96-.84-6.58-4.94-7.46-.75-.16-1.64-.89-1.95-1.6-1.79-3.96-4.38-4.61-7.59-1.71-.86.77-1.55,1.7-2.32,2.57-5.95,6.88-9.74,14.97-12.77,23.42-2.02,5.67-5.03,17.4-4.85,17.47"/>
        <path class="cls-1" d="M521.81,113.57c.82-5,1.22-9.37,2.28-13.59,2.94-11.6,7.9-22.45,13.15-33.15,2.77-5.65,1.5-9.63-4.12-12.64-1.06-.57-2.13-1.09-3.17-1.62,4.21,0,8.33.35,12.38-.09,4.16-.46,8.24-1.66,12.95-2.66-.13,1.75-.16,3.39-.38,5-.13.95-.6,1.82-.78,2.77-.36,1.95.33,3.45,2.21,4.18,1.93.75,3.17-.2,4.38-1.73,2.24-2.81,4.49-5.71,7.17-8.08,3.39-2.99,9.15-1.13,10.67,3.1,2.19,6.16-.51,12.31-6.35,14.46-3.03,1.11-4.63.6-6.4-2.02-2.22-3.32-3.79-3.56-6.64-.8-10.36,9.99-16.49,22.08-17.74,36.51-.15,1.68.62,3.99-.24,4.89-.89.95-3.26.35-4.89.8-3.59,1-7.13,2.24-10.69,3.41-.97.29-1.93.64-3.77,1.28"/>
      </g>
      <path class="cls-2" d="M612.73,94.91c-.22-.62-.47-1.22-.69-1.73l-.22-.51c-.47-1.15-1.46-1.99-2.66-2.28s-2.46,0-3.43.78c-.09.07-.2.15-.29.22-.26.18-.57.4-.89.67-.88-.67-1.91-1.2-3.15-1.37-2.01-.27-5.6.09-8.12,5.22l-.04-.02c-.91-.51-2.01-.64-3.03-.35s-1.86,1-2.35,1.93c-.2.36-.4.75-.6,1.11-.49.89-.98,1.81-1.44,2.83-.53,1.2-1.06,2.39-1.59,3.59-.46-.4-.95-.75-1.48-1,.04-.05.09-.11.13-.16.8-1.04,2.3-2.97,1.26-5.36-.6-1.37-1.51-2.32-2.24-3.1-.18-.2-.38-.38-.55-.58-.26-.29-.55-.55-.88-.75-.11-1.9-1.06-3.74-2.79-5.14-1.46-1.19-3.19-1.7-4.91-1.46-1.81.26-3.45,1.31-4.61,2.99-1.09,1.55-2.57,3.92-2.97,6.6-.2,1.35-.38,2.72-.57,4.07-.58-.55-1.2-.98-1.79-1.29-2.81-1.44-6.38.73-7.6,2.86-2.24,3.9-4.14,7.55-5.8,11.16-1.09,2.37-.13,4.91.36,6.15.44,1.11,1.51,2.52,4.19,2.81.95.11,1.71,0,2.33-.2.62,3.21,1.73,6.66,4.6,9.43,1.7,1.64,4.29,2.32,6.53,2.32.51,0,.98-.04,1.44-.09,4.3-.6,5.09-6.75,5.09-6.8.24-1.99.4-3.98.57-5.93.15.05.27.09.42.13,1.11.26,2.3.02,3.21-.66.04-.02.05-.04.09-.07.98,1.2,2.32,2.48,4.08,3.08,2.43.82,4.41-.57,5.95-2.13-.02.86-.02,1.71.04,2.59.2,3.14,2.04,6.02,3.7,7.68,1.35,1.33,2.99,2.04,4.63,2.04.62,0,1.24-.11,1.86-.31,2.3-.78,3.88-2.9,4.25-5.65.29-2.17.07-4.27-.18-6.24-.29-2.26-.64-4.5-.98-6.69.27-.15.55-.35.82-.57,4.89-4.01,8.28-9.45,10.39-16.61.16-.78.33-1.95-.09-3.19Z"/>
      <g>
        <path class="cls-3" d="M566.19,126.41c.16-3.21.22-6.42.55-9.61.66-6.4,1.35-12.82,2.3-19.18.26-1.73,1.28-3.46,2.32-4.94.88-1.24,2.33-1.99,3.87-.73,1.44,1.17,1.79,2.77.77,4.21-3.03,4.25-3.56,9.25-4.27,14.13-.8,5.53-.98,11.14-1.64,16.69-.15,1.24-1,3.28-1.75,3.39-1.51.22-3.67-.15-4.71-1.15-3.19-3.08-3.5-7.46-4.12-11.6-.36-2.39-.53-4.8-.78-7.2-.31-.05-.6-.11-.91-.16-.47,1.9-.89,3.81-1.42,5.69-.27,1-.6,2.02-1.17,2.88-.16.24-1.68.04-1.79-.26-.36-.97-.82-2.28-.46-3.08,1.71-3.7,3.63-7.31,5.65-10.85.42-.73,1.95-1.57,2.43-1.33.93.47,1.93,1.62,2.08,2.63.42,2.84.29,5.76.6,8.64.44,3.98,1.06,7.91,1.6,11.87.26-.04.55-.04.86-.04"/>
        <path class="cls-3" d="M578.85,102.7c-1.04-1.51-1.99-2.35-2.15-3.32-.09-.58,1.06-1.35,1.66-2.04.77.88,1.73,1.68,2.19,2.7.18.4-.8,1.31-1.7,2.66"/>
        <path class="cls-3" d="M595.03,101.39c.35-.71.89-1.7,1.31-2.74.86-2.15,2.21-4.4,4.52-4.09,1.59.22,2.9,2.35,4.5,3.77.22-.53.62-1.71,1.24-2.77.35-.58,1.06-.93,1.62-1.39.27.67.58,1.33.82,2.02.07.24.04.53-.04.78-1.68,5.73-4.43,10.83-9.12,14.68-.6.49-1.6.51-2.74.84.51,3.26,1.08,6.58,1.51,9.92.22,1.73.42,3.52.18,5.22-.33,2.52-2.35,3.41-4.1,1.66-1.31-1.29-2.44-3.36-2.55-5.14-.22-3.54.49-7.13.47-10.7-.02-2.12-.66-4.23-1.64-6.42-1,2.61-2.01,5.22-3.03,7.81-.38.98-.64,2.1-1.29,2.84-.91,1.06-2.46,2.81-3.15,2.57-1.35-.46-2.46-1.99-3.36-3.3-.6-.88-.64-2.13-1.13-3.94-.71,1.57-1.06,2.63-1.64,3.52-.35.55-1.08.84-1.62,1.26-.36-.73-1.22-1.62-1.04-2.15.95-2.53,1.97-5.07,3.34-7.39,1.06-1.77,3.39-1.24,4.38.82.36.78.6,1.64.8,2.48.2.84.29,1.7.44,2.66.38-.11.73-.11.8-.24,1.62-3.67,3.21-7.35,4.85-11.01.57-1.28,1.29-2.48,1.93-3.72,1.2.71,2.41,1.39,3.72,2.13M596.01,107.06c3.99-1.5,5.2-4.43,3.52-8.41-1.2,2.92-2.22,5.33-3.52,8.41"/>
      </g>
      <g>
        <path class="cls-3" d="M14.88,51.24l-.77.13c-.4.09-.75-.22-1.04-.93-.22-.55.02-1.2.73-1.97.71-.75,1.15-1.22,1.29-1.42s.35-.35.64-.46c.15-.27.38-.62.75-.98.36-.38.62-.67.77-.89.15-.22.29-.38.44-.51.15-.13.26-.29.33-.49.15-.13.27-.24.36-.35.09-.09.31-.27.64-.55.33-.27.53-.46.57-.57l.33-.47c.36-.16.57-.31.62-.46s.24-.35.6-.64l.51-.38c.07-.04.2,0,.36.07-.07-.31-.02-.51.16-.58l.62-.2c.16-.26.27-.38.33-.4l.09-.13c.26-.07.44-.13.57-.15.13-.02.27.02.44.13.04-.22.11-.36.22-.4.2-.09.47-.09.82-.02l.29-.16c.33-.13.53-.11.64.09.11.18.24.33.36.4.15.07.29.22.46.4l.26.16c.15.04.24.09.29.2.11.27.11.73,0,1.35l-.11,1.24c-.05.31-.13.58-.24.84l-.02.36c-.11.29-.2.51-.27.66s-.04.44.13.89c.02.18-.02.31-.09.44-.07.11-.11.24-.11.35-.24.16-.35.38-.36.64l-.27,2.1c0,.11-.09.27-.29.47-.18.22-.26.73-.2,1.57.09-.2.18-.38.29-.57l.15-.62,1.04-2.32c.2-.46.33-.77.4-.89.05-.15.15-.24.22-.29,0-.13.07-.29.22-.51s.27-.49.36-.78l.16-.33.04-.26c0-.27.11-.46.29-.53l.09-.22c-.04-.27.07-.46.33-.57.04-.07.02-.2-.04-.36-.05-.16.02-.31.24-.4l.15-.05.02-.05c-.02-.13,0-.22.04-.29.05-.07.07-.16.07-.33.02.05.05.05.07-.02s.05-.24.09-.49c.04-.26.11-.44.24-.55s.18-.24.16-.38.04-.29.16-.44.24-.29.31-.44.16-.22.26-.26c.05-.02.15,0,.29.05-.15-.4.15-.98.88-1.73l.71-1.17c.2-.29.38-.49.51-.6.13-.11.33-.35.58-.69.26-.35.47-.58.66-.71.18-.13.51-.27.98-.47l.42-.07c.07-.09.2-.18.36-.24.33-.13.82-.13,1.51.02.67.15,1.17.55,1.44,1.24.2.51.22,1.11.05,1.82-.05.11-.07.35-.07.69,0,.36-.02.66-.05.88-.04.24-.04.47,0,.73s-.05.58-.22,1.02c-.18.42-.22.89-.11,1.39.02.07,0,.18-.04.33s-.05.33-.04.55c.02.22-.02.47-.09.78-.09.31-.11.6-.05.84.04.07-.05.42-.27,1.04l.04,1.88c-.09.16-.15.57-.15,1.19l-.05,1.81c-.05.4-.11.66-.16.77l.18.46c-.07.27-.04.62.07,1.02.11.4.18.67.22.82s.05.24.07.29c.11.26.29.33.55.22.36-.15.62-.36.71-.62.11-.26.2-.44.27-.55.09-.11.2-.36.38-.77l.84-1.57c.24-.4.38-.66.46-.8s.24-.27.47-.38c.09-1.24.36-1.95.8-2.13.42-.18.69-.15.78.09l-.04.33.27.33.04.07.15.69c0,.09-.09.27-.29.57.05.18,0,.38-.15.6-.15.2-.27.42-.36.64l-.36.11c.02.27-.04.53-.15.73l-.38.66c-.13.22-.31.49-.49.78-.2.31-.44.58-.73.84s-.46.46-.53.62c-.05.16-.16.29-.29.36l-.35.13-.4.29-1.04.58c-.11.05-.71-.02-1.77-.18s-1.84-.88-2.35-2.12c-.16-.42-.22-.77-.16-1.08l.02-.27c0-.09,0-.26.04-.49.04-.24.05-.51.04-.78.18-.22.26-.36.22-.44-.02-.02-.04-.05-.07-.07-.04-.04-.07-.07-.09-.13-.04-.11-.04-.26,0-.46l-.15-.36.4-2.21s.02-.4.05-1.17c.04-.77.09-1.19.13-1.26.04-.07.05-.15.05-.22-.02-.05-.02-.15-.02-.26s-.02-.22-.05-.35c-.04-.13,0-.33.09-.62s.16-.6.22-.93l.07-.35c.07-.24.09-.47.09-.73-.02-.24,0-.42.04-.55.35-1.04.42-1.9.22-2.57.02-.18.07-.36.13-.53s.05-.33-.02-.47l-.22-.22c-.27.24-.55.53-.78.88s-.51.66-.84.95c-.31.27-.53.51-.62.69-.09.18-.36.57-.8,1.13l-.13.44s0,.05-.04.11l-.38.11c-.04.05-.05.15-.04.31.02.15-.09.31-.31.47-.04.04-.05.22-.07.55-.07.13-.29.31-.67.6-.11.2-.16.44-.2.73-.04.29-.18.55-.44.77-.26.22-.4.36-.44.44.15.64.04,1.09-.31,1.35-.35.27-.49.6-.46.98.04.38-.07.67-.33.84-.07.13-.16.36-.27.75-.11.38-.27.77-.51,1.13s-.4.77-.51,1.2c-.11.44-.22.75-.36.95s-.38.77-.71,1.68-.51,1.46-.53,1.62-.18.6-.46,1.29c-.05.02-.16.09-.35.22,0,.13-.04.24-.07.33l-.4,1.2c-.18.49-.35,1.13-.53,1.93-.11.11-.2.2-.27.27-.04.07-.04.2,0,.36l-.02.27-.31.46c-.02.93-.35,1.51-.98,1.79-.35.15-.78,0-1.29-.4-.51-.42-.77-.62-.77-.64-.31-.73-.44-1.24-.42-1.5.02-.26.07-.53.18-.8.02-.02.04-.15.02-.44,0-.27.02-.53.09-.73.07-.22.13-.53.15-.91.04-.4.13-.62.26-.67.02-.02.09-.02.16-.02l.04-.11-.26-.42c0-.15.02-.27.07-.38.04-.11.05-.29.05-.53s.09-.47.29-.67c-.04-.11,0-.36.13-.8,0-.29.04-.64.07-1.04.05-.4.16-.69.36-.86l-.05-.15c-.05-.15,0-.47.2-.97.13-.11.18-.29.16-.51-.02-.24.02-.44.16-.64.09-.33.18-.73.27-1.15l.36-1.28c.09-.24.16-.38.22-.47-.16-.38-.11-.64.13-.73.02-.02.09-.02.16-.02-.05-.29-.05-.51,0-.67s.05-.33.02-.49c-.05-.2.11-.44.49-.73l-.18-.24c.02-.53.13-.91.31-1.15.02-.05.02-.38,0-.97-.04-.07-.2-.11-.49-.09-.04.13-.09.2-.15.22l-.66.2-.51.44c-.2.09-.31.15-.33.18l-.22.18c-.2.18-.33.35-.35.46l-.07.04-.33.05-.07.04-.64.91-.07.04-.67.18c-.04.26-.33.57-.88.89l-.05.4-.46.15c-.09.13-.18.29-.24.46-.05.18-.16.31-.29.38-.78.82-1.28,1.5-1.48,2.02-.05.16-.11.29-.18.42-.07.11-.11.29-.13.53l-.09.44c0,.24-.05.4-.18.47-.13.07-.24.24-.35.47-.09.24-.2.38-.31.42"/>
        <path class="cls-3" d="M43.54,43.7h.91c-.05-.24-.02-.47.15-.71l.15-.05c.13-.05.22-.29.29-.73l.26-.33c.05,0,.15-.02.26-.05.07-.04.13-.11.16-.24s.13-.4.29-.82l.07-.04c.07-.04.15-.13.22-.29.05-.16.18-.27.36-.35l.58-.44c.18-.13.29-.22.31-.22.09-.09.47.04,1.13.36s1.09.73,1.28,1.2c.11.27.04.49-.22.66l-.07.11.16.38-.04.86c-.02.24-.07.4-.18.51-.04.26-.05.44-.07.53l-.26.15-.07.16.2.47c-.05.2-.07.6-.09,1.22,0,.62.02.98.07,1.13.11.24.2.35.31.31.07-.04.15-.09.2-.2.05-.09.13-.22.22-.35.11-.15.16-.27.2-.38.02-.11.13-.26.31-.4s.31-.36.42-.64c.09-.27.18-.46.22-.55.05-.09.09-.22.15-.36.04-.15.07-.22.11-.24.07-.04.18-.11.33-.22-.04-.15-.05-.27-.05-.35l.36-.42.71-1.46.07-.26c.18-.13.29-.22.35-.27-.04-.38.04-.71.22-.97-.02-.05.02-.11.15-.2.02-.26.07-.47.2-.66.11-.18.18-.4.2-.62l.29-.55c.11-.11.16-.22.18-.35.42-.88.69-1.37.82-1.53.13-.15.36-.29.73-.46.36-.15.71-.13,1.06.05.35.18.67.29.98.33.33.04.57.26.73.66.15.36.16,1.2.02,2.5.07,1.26.16,2.02.26,2.28s.09.42,0,.51c-.09.07-.13.15-.09.2l.04.07c.13.31.24.44.35.4.07-.04.16-.15.24-.33.07-.18.29-.44.64-.77l.18-.04c.15-.71.26-1.13.36-1.22.11-.09.18-.27.24-.51.05-.24.16-.4.35-.49.18-.09.29-.16.31-.24-.11-.31,0-.77.33-1.35s.55-.89.62-.93c.13-.05.27,0,.42.16.16.16.29.26.4.29s.18.07.2.13l.15.35c.07.16.04.31-.11.44-.02.33-.05.55-.15.64l-.36.11c-.04.11-.05.2-.07.27-.02.09-.04.13-.05.11-.09.07-.2.31-.35.73-.13.42-.26.78-.38,1.08l-.04.15c-.07.13-.15.22-.22.27l-.22.44c-.16-.02-.26-.04-.27-.02s-.05.09-.09.22c-.04.15-.15.35-.35.6-.18.26-.29.53-.35.78l-.18.44-.38.22s-.07.09-.13.26l-.16.58c-.07.29-.29.51-.66.66-.07.04-.2,0-.38-.07-.18-.09-.35-.15-.49-.2s-.51-.24-1.09-.57-.88-.51-.88-.53l-.16-.73-.24-.46c-.04-.09-.04-.26.02-.49.04-.24.07-.36.05-.38l-.29-.75s.02-.09.04-.15l.09-.55c-.07-.11-.15-.26-.22-.4l-.18-.67c-.18.2-.31.49-.35.88s-.2.64-.49.75c-.07.55-.16.82-.29.88-.04.07-.05.15-.05.2l-.2.27-.35.09.07.53c-.22.27-.35.49-.38.64-.04.16-.11.33-.24.55l-.2.44-.31.13c.09.36.02.75-.24,1.11l-.07.26-.36.11c.04.46-.02.78-.16.95-.22.09-.44.42-.66.97-.22.55-.4.86-.55.93-1.11.46-2.32.13-3.59-.98-.05-.04-.15-.11-.31-.22-.15-.11-.29-.31-.42-.6-.2-.51-.27-.88-.22-1.11.05-.24.09-.64.11-1.22,0-.58.07-.86.2-.84,0-.05-.02-.15-.05-.26.11-.33.13-.57.07-.69-.02-.05-.05-.07-.11-.04-.02.02-.09.07-.18.22l-.24.22c-.11.07-.16.16-.18.26s-.07.2-.18.33c-.09.13-.18.24-.24.31l-.05.02c-.11-.04-.18-.05-.2-.05,0,.24,0,.4-.04.47l-.22.13c-.16.42-.29.64-.36.67-.05.02-.18.02-.4,0-.22-.02-.35-.07-.38-.16l-.16-.8-.15-.35s.02-.09.09-.22c.02-.02.07-.18.15-.55.05-.33.22-.57.46-.66"/>
        <path class="cls-3" d="M64.63,36.46l.27-.49c.29-.15.4-.38.31-.69s.02-.66.33-1.04l.09-.42c.11-.27.53-.75,1.28-1.4.16-.22.27-.4.29-.53.02-.04.04-.05.05-.07l.35-.05c.16-.07.36-.2.58-.4.22-.2.46-.35.71-.46l.8-.36c.05-.02.16-.02.36-.02.2.02.4-.04.64-.13.29-.11.6-.09.95.07s.57.35.66.57c.16.4.13.89-.11,1.48-.24.58-.47.95-.69,1.09-.13.31-.24.51-.33.62s-.18.24-.24.42c-.07.16-.15.27-.22.31-.05.02-.09.02-.13,0s-.09-.02-.13,0c-.2.09-.33.42-.36,1.04l-.36.11c-.16.24-.24.44-.24.64s-.09.33-.31.42c-.27.67-.51,1.04-.67,1.11-.02.02-.13.02-.31.04-.05.16-.05.33.02.47.05.15,0,.29-.2.4l-.16.33-.24.02-.22.57c-.2.07-.36.22-.51.44.04.16.07.38.13.64.05.26.07.4.09.42.15.36.57.42,1.26.15l.88-.51c.24-.09.46-.26.6-.47.16-.22.36-.38.6-.47.07-.04.18-.11.31-.22h.22c.02-.24.11-.47.29-.73s.35-.42.49-.47l.15-.2c-.02-.18.02-.31.11-.4l.09-.2c.05-.15.13-.24.22-.27l.27-.11.05-.07c.02-.4.15-.67.4-.86.26-.16.38-.33.4-.49.02-.16.11-.29.27-.38s.29-.26.35-.46.16-.4.29-.6.22-.35.26-.44.09-.15.15-.16c.07-.04.15.02.18.13.05.11.09.16.15.15.05-.02.07-.05.04-.11-.02-.05-.05-.11-.11-.18l-.05-.13c-.07-.2-.04-.36.15-.51l.64-.91c-.09-.27-.07-.47.04-.57s.18-.18.22-.27c.04-.09.09-.15.18-.18.16-.07.29,0,.36.18l.11.55.31.47c.04.07.02.2-.05.4-.07.18-.07.44-.02.73.05.31.02.49-.07.57l-.11.05c-.13.35-.26.57-.36.66-.11.11-.18.22-.22.36l-.35,1.02c-.07.18-.15.35-.18.47-.05.15-.09.22-.15.24l-.22-.09s-.04-.04-.09,0c-.13.05-.18.16-.15.33.04.16.02.33-.04.49-.31.35-.49.6-.55.82l-.09.09-.35.15c-.16.07-.24.24-.2.51.04.27-.09.49-.36.66-.29.16-.47.33-.55.49-.02.04-.05.09-.15.15-.07.05-.22.24-.42.53l-1.39,1.24c-.11.11-.16.18-.22.2l-.51.29c-.07.04-.18.02-.29-.05-.13-.07-.18-.11-.22-.09l-.29.26c-.22.18-.46.33-.69.42-.13.05-.29.07-.47.04-.2-.02-.35-.04-.44-.04-.38.15-.77-.04-1.15-.55l-.22.13c-.05.02-.42-.36-1.09-1.15-.13-.07-.27-.09-.46-.07-.18.02-.33-.07-.4-.27-.24-.58-.27-1.02-.11-1.33s.24-.51.24-.62l-.15-1.11c.04-.05.05-.22.04-.46l.11-1c-.02-.09.02-.36.04-.8M68.24,33.29l-.18.22c-.04.05-.15.22-.31.53-.16.31-.35.57-.53.78-.18.22-.31.64-.35,1.26-.04.62-.04.97-.02,1.04.04.07.09.09.16.07l.53-.57c.2-.22.36-.46.51-.73.15-.27.35-.62.64-1.04l.09-.22c0-.05.09-.2.24-.42.16-.22.26-.42.31-.58l.16-.16c.07-.44.2-.75.4-.91s.27-.29.24-.36c-.05-.15-.22-.18-.46-.07-.11.04-.24.16-.38.38l-.44.18c-.05.02-.16.16-.33.4l-.29.2Z"/>
        <path class="cls-3" d="M76.3,30.81l.02-.18c.42-.18.64-.46.62-.86l.04-.11c.4-.35.66-.66.78-.95.11-.27.4-.62.86-1s.69-.58.71-.58c.07-.04.36-.02.84.05.49.07.86.42,1.13,1.08.18.46.24.95.15,1.46l.24.6.02.16c-.16.24-.2.46-.11.66l.05.15.27.55-.05,1.4c-.18.2-.26.33-.22.4.02.05.11.09.24.11.15.02.24.11.29.24.05.15.13.42.2.84.04.02.07.02.09,0l.07-.04c0-.13.07-.24.22-.36l.15-.22c-.04-.15-.04-.27,0-.36l.24-.09c.11-.04.11-.16.02-.36-.04-.07.11-.53.44-1.35s.51-1.33.57-1.55c.05-.22.13-.4.22-.58.09-.16.13-.31.11-.44s0-.27.09-.42c.07-.15.13-.29.16-.44s.09-.29.2-.44.18-.36.24-.64c.05-.27.24-.71.55-1.31.05-.09.09-.26.13-.46s.15-.46.36-.75c.2-.29.38-.6.53-.97.15-.35.53-.66,1.13-.91.35-.15.75-.11,1.22.07.46.2.77.46.91.82.07.18.09.33.07.46s-.05.33-.11.62c-.05.29-.15.47-.27.51l-.4.02c-.15.35-.35.57-.6.67l-.35.11c-.16.26-.33.4-.46.47s-.22.2-.26.38-.11.31-.22.36c-.11.07-.22.18-.31.35l-.24.27c0,.38-.18.73-.53,1.06-.09.22-.16.46-.2.71.02.04-.02.11-.13.24-.09.11-.16.27-.24.51-.05.22-.13.35-.2.38l-.16.07c-.05.16-.05.36-.02.64.05.27-.09.53-.44.77-.04.05-.07.16-.11.38-.04.2-.13.38-.29.57.04.33-.02.64-.2.93l-.07.49c-.02.15-.09.33-.22.53s-.2.31-.2.35-.02.24-.04.62c-.02.38-.11.66-.26.82-.15.16-.27.38-.36.66s-.22.44-.35.49c-.46.18-1.08.02-1.9-.51s-1.26-.88-1.35-1.08c-.29-.73-.42-1.33-.4-1.81.04-.49,0-.93-.13-1.31-.11-.38-.16-.73-.18-1.04l-.13-.64.04-.33c.05-.15.05-.35.02-.62l-.04-.35c-.09-.24-.22-.31-.35-.26-.18.07-.29.26-.33.53l-.04.11c-.35.05-.53.09-.55.09-.09.04-.09.27,0,.69,0,.15-.09.29-.27.4-.18.13-.33.42-.42.89l-.07.11c-.11.07-.16.13-.2.16-.05.36-.13.57-.2.6-.07.04-.18-.02-.33-.13-.15-.11-.29-.18-.46-.2-.16-.02-.26-.09-.31-.22-.13-.29.02-.8.4-1.5.09-.16.13-.29.11-.38-.02-.11.15-.24.46-.38,0-.04.04-.22.05-.51"/>
        <path class="cls-3" d="M104.94,22.88l.2-.4c.2-.07.27-.22.24-.4s.05-.38.24-.58c.2-.2.33-.49.4-.89.07-.4.22-.64.44-.73.07-.04.2,0,.35.07.16.09.26.16.27.24.18.42.22.91.15,1.48l.15.57v.31c-.15.18-.24.35-.24.47-.02.15-.11.35-.27.6l-.07.35c-.24.2-.38.44-.38.67-.02.24-.09.42-.26.51s-.29.31-.4.62c-.11.11-.24.24-.38.36l.04.2c-.07.18-.24.36-.47.57-.24.18-.42.35-.53.47-.11.13-.18.2-.24.22-.24.11-.49.15-.73.13s-.47.02-.71.07c-.11-.04-.18-.11-.24-.2-.05-.09-.16-.18-.35-.27-.18-.09-.31-.27-.42-.53l-.07-.4c-.02-.05-.07-.11-.18-.15-.09-.05-.15-.11-.18-.15-.02-.05-.02-.09,0-.13.02-.04.02-.07,0-.13s-.07-.13-.13-.2-.09-.13-.11-.18l-.27-1c-.09-.04-.15-.05-.2-.04-.05.02-.11.13-.2.31-.07.18-.22.31-.4.38-.07.13-.09.31-.05.58-.05.16-.13.35-.24.51l-.04.15c.02.09-.05.22-.2.35s-.24.26-.26.36l-.11.27-.38.11s-.04.18-.07.42c-.04.26-.11.47-.24.67l-.98,1.81c-.11.16-.29.38-.51.66l-.07.16c-.75,1.11-1.33,1.75-1.77,1.91-.35.15-.78.22-1.33.22s-.89-.13-1.04-.38l-.51-.71c-.18-.13-.35-.36-.49-.67-.05-.15-.09-.26-.09-.33l-.05-.11-.29-.62c-.05-.15.02-.27.27-.38l-.26-.51c-.02-.05,0-.29.09-.75.07-.44.15-.71.2-.8l.09-.33c-.07-.15-.05-.35.07-.6s.2-.49.24-.73c.04-.24.18-.51.42-.88l.35-.82c.27-.64.6-1.2,1.02-1.68.07-.05.16-.26.31-.58.15-.33.35-.62.6-.84.26-.24.49-.49.71-.78s.42-.46.58-.53l.15-.05c.05-.02.33-.33.82-.91l.11-.05c.05-.02.2-.02.44,0l.04-.02.24-.27c.04-.05.09-.09.18-.11.8-.33,1.46.04,2.01,1.11.13.22.24.31.33.27.13-.05.22-.36.26-.93.04-.57.46-1,1.22-1.33.55-.22.98.02,1.28.73.35.84.29,1.79-.15,2.84-.02.13,0,.26.02.4l.05.91.02.04c.04.07.02.2-.04.38s-.05.33-.02.42l.24.47.15.57c.09.24.22.38.33.42.36-.27.6-.57.69-.88.09-.31.16-.49.24-.57l.16-.16c.09-.26.16-.46.26-.66M98.96,25.52c-.07-.31,0-.58.2-.84s.29-.47.29-.66c.16-.27.38-.75.66-1.4s.38-1.02.33-1.13c-.02-.04-.05-.05-.11-.02l-.02.02-.11.16-.36.11-.35.18-.33-.02-.24.15-.42.05c-.2.09-.36.2-.47.35-.11.15-.36.35-.73.64-.38.27-.67.6-.91,1-.24.38-.42.62-.58.67-.02.24-.2.64-.57,1.2-.27.24-.38.53-.33.93-.22.4-.33.64-.31.67v.38c-.07.13-.16.26-.29.38s-.16.29-.11.51.05.46-.02.69c-.07.24-.09.4-.05.51.26.64.51.89.75.8.11-.04.29-.2.57-.47.27-.27.42-.44.46-.51s.11-.16.24-.27l.29-.35c.04-.07.07-.13.13-.16s.11-.11.15-.2c.04-.09.13-.22.26-.38.13-.15.22-.31.26-.49.16-.22.44-.57.82-1.04l.27-.47c.24-.24.36-.42.38-.55.04-.15.13-.29.27-.46"/>
      </g>
    </g>
  </g>
</svg>