<?xml version="1.0" encoding="UTF-8"?>
<svg id="Capa_1" data-name="Capa 1" xmlns="http://www.w3.org/2000/svg" viewBox="0 0 617 139">
  <defs>
    <style>
      .cls-1 {
        fill: #fe1721;
      }

      .cls-1, .cls-2, .cls-3, .cls-4, .cls-5, .cls-6, .cls-7, .cls-8, .cls-9, .cls-10, .cls-11, .cls-12, .cls-13, .cls-14, .cls-15, .cls-16, .cls-17, .cls-18, .cls-19, .cls-20, .cls-21, .cls-22, .cls-23 {
        stroke-width: 0px;
      }

      .cls-2 {
        fill: #fe7d09;
      }

      .cls-3 {
        fill: #5cd9f8;
      }

      .cls-4 {
        fill: #0397dd;
      }

      .cls-5 {
        fill: #fe1822;
      }

      .cls-6 {
        fill: #5bd9f8;
      }

      .cls-7 {
        fill: #fe800f;
      }

      .cls-8 {
        fill: #2b2f96;
      }

      .cls-9 {
        fill: #fe1b24;
      }

      .cls-10 {
        fill: #fbaf03;
      }

      .cls-11 {
        fill: #fbb006;
      }

      .cls-12 {
        fill: #303499;
      }

      .cls-13 {
        fill: #fe151f;
      }

      .cls-14 {
        fill: #fdd204;
      }

      .cls-15 {
        fill: #2c3097;
      }

      .cls-16 {
        fill: #fe1620;
      }

      .cls-17 {
        fill: #fdd203;
      }

      .cls-18 {
        fill: #fdd206;
      }

      .cls-19 {
        fill: #fbaf02;
      }

      .cls-20 {
        fill: #0598dd;
      }

      .cls-21 {
        fill: #fe1c26;
      }

      .cls-22 {
        fill: #fe7d0a;
      }

      .cls-23 {
        fill: #0497dd;
      }
    </style>
  </defs>
  <path class="cls-8" d="M11,65.82c0-3.05,1.4-5.93,3.81-7.8,2.01-1.56,4.26-2.49,7.49-.97,4.04,1.91,5.4,5.23,5.25,9.38-.13,3.73-1.77,6.77-5.28,8.17-2.95,1.18-5.25.56-7.25-.82-2.59-1.79-4.02-4.82-4.02-7.96h0Z"/>
  <path class="cls-21" d="M611,19.65c-1.8,2.64-2.8,5.89-6.07,7.38-2.39,1.09-4.72,1.66-6.86-.21-2.38-2.08-2.07-4.7-.91-7.29,2.63-5.83,8.39-6.79,13.84-2.33v2.45Z"/>
  <path class="cls-13" d="M200.03,105.09c4.88,1.43,9.13.43,13.45.19.56,3.68-1.81,3.68-4.01,3.92-7.37.81-14.69-.5-22.03-.49-4.65.01-9.31.64-14.08.99-1.58-3.88,1.8-4.19,4.05-4.62,7.83-1.47,12.5-6.22,15.32-13.4,6.78-17.26,13.68-34.47,20.17-50.78-.11-3.6-3.18-2.56-4.33-5.19,6.16-3.73,13.34-2.55,20.84-4.65-4.16,10.44-7.96,19.96-11.77,29.52,13.09,3.48,27.35-3.9,31.49-15.94,3.29-9.59-.23-16.43-9.95-19.31-20.08-5.95-52.25,10.58-59.38,30.2-2.61,7.18-1.92,13.18,3.87,18.32,1.9,1.69,3.62,3.4,2.73,6.27-4.39,4.21-7.96,3.96-11.19-1.28-4.44-7.2-3.68-15.02-1.09-22.48,6.65-19.21,21.98-28.72,40.26-34.26,12.33-3.74,25-4.38,37.41-.25,12.88,4.28,16.46,16.14,8.54,27.2-7.37,10.3-18.19,14.7-30.56,17.31,6.09,15.4,7.13,31.96,14.49,46.64,2.22,4.43,4.91,8.46,9.14,11.24,7.26,4.77,15.06,2.9,19.03-4.73,2.1-4.04,4.4-6.98,9.37-4.35,1.33,6.44-2.18,11.99-9.97,14.45-11.81,3.73-22.61,1.77-31.62-7.25-10.13-10.14-14.15-23.14-16.99-36.66-1.34-6.36-2.52-12.76-3.75-19.05-2.22-.74-3.95-.79-4.83,1.43-4.87,12.28-9.71,24.56-14.61,36.99Z"/>
  <path class="cls-13" d="M355.76,61.34c7.5-3.98,13.48-10.41,21.54-13.45,3.92-1.48,7.93-3.59,12.01-.6,2.22,4.53-1,8.35-1.41,12.61,9.98-5.97,18.02-16.04,30.94-13.25,3.19,4.9,1.62,8.75,0,12.51-5.14,11.98-10.36,23.93-15.55,35.9-.88,2.03-1.89,4.02-1.18,6.66,6.97,1.99,10.14-7.54,16.96-5.97-5.81,5.26-11.32,10.61-18.4,13.79-2.85,1.28-5.91,2.24-8.75.28-3.04-2.1-2.42-5.49-1.92-8.45,1.31-7.73,5.06-14.6,8.08-21.73,3.22-7.62,7.28-14.92,9.3-22.78-2.54-2.56-4.55-1.15-6.55-.27-12.07,5.33-18.76,15.13-23.03,27.15-2.93,8.23-6.39,16.28-9.62,24.42-3.66.73-7.02.71-11.19-.12,6.66-17.25,13.2-34.23,19.7-51.06-2.73-2.93-4.76-.98-6.88,0-13.63,6.36-20.54,17.98-24.99,31.63-2.14,6.56-4.7,12.98-7.04,19.38-3.77,1.01-7.18.64-11.56.22,6.63-17.62,13.13-34.93,19.9-52.92-7.24.08-10.38,5.62-15.26,7.4-2.47-1.74-1.6-3.22.1-4.44,8.49-6.05,16.82-12.55,28.1-12.29,1.5,6.37-3.77,10.23-3.22,15.44l-.06-.07Z"/>
  <path class="cls-16" d="M511.2,54.91c-7.56.53-11.11,5.63-16.18,8.27-.63-.71-1.28-1.44-2.23-2.52,9.72-6.96,18.37-15.31,31.9-14.63-.55,6.77-4.32,11.13-4.41,17.09,7.74-5.56,14.87-11.02,23.08-14.69,2.03-.91,4.17-1.69,6.34-2.11,6.26-1.2,9.81,2.34,7.71,8.32-2.69,7.67-6.22,15.04-9.42,22.53-2.32,5.44-4.72,10.84-7.02,16.28-1.1,2.61-2.12,5.27-.95,8.41,6.95.18,10.29-7.79,17.57-8.36-4.74,9.55-21.28,18.34-29.17,15.9-2.65-4.58-1.48-9.36.35-13.9,4.34-10.77,9-21.42,13.48-32.13.85-2.02,2.19-3.98,1.35-6.45-1.83-1.62-3.85-.93-5.68-.1-11.09,5-20.43,11.87-24.91,23.82-3.43,9.14-6.9,18.26-10.32,27.32-3.93,1.15-7.56.62-11.87.45,6.74-17.69,13.36-35.08,20.38-53.51Z"/>
  <path class="cls-16" d="M591.93,93.35c1.54,0,2.16.95,3.02,2.54-6.35,5.17-12.53,10.36-20.16,13.48-3.09,1.26-6.35,2.39-9.26.08-3.2-2.55-1.76-6.15-.84-9.1,3.89-12.45,9.28-24.31,14.56-36.21,1.2-2.72,3.08-5.23,3.14-8.85-6.47-.64-9.38,5.14-14.32,7.5-1.46.47-2.3-.83-3.66-2.18,9.4-7.46,18.12-15.99,31.16-14.52,1.74,3.48.8,5.48-.09,7.58-5.5,12.92-10.96,25.86-16.39,38.8-1.22,2.91-2.46,5.86-1.41,9.59,6-1.7,9.75-5.91,14.25-8.69Z"/>
  <path class="cls-14" d="M97.57,77.03c-.02,5.09-3.85,9.63-8.17,9.71-4.29.08-8.23-4.45-8.32-9.55-.09-5.27,3.51-9.46,8.2-9.51,4.68-.06,8.32,4.05,8.3,9.35Z"/>
  <path class="cls-2" d="M132.46,47.28c.05,5.19-3.6,9.52-8.13,9.63-4.49.12-8.47-4.21-8.56-9.3-.09-5.08,3.68-9.44,8.24-9.53,4.7-.09,8.4,3.93,8.45,9.19Z"/>
  <path class="cls-6" d="M72.61,81.35c-.09,5.52-3.71,9.65-8.23,9.39-4.5-.26-8.11-4.67-8.05-9.83.06-5.19,3.98-9.58,8.39-9.39,4.48.19,7.97,4.54,7.89,9.83Z"/>
  <path class="cls-4" d="M48.32,75.58c.15,5.08-3.61,9.73-8,9.87-4.64.15-8.36-3.92-8.47-9.26-.11-5.41,3.25-9.6,7.87-9.81,4.5-.21,8.45,4.01,8.6,9.2Z"/>
  <path class="cls-1" d="M152.43,43.31c.01,5.49-3.53,9.59-8.24,9.53-4.53-.06-8.35-4.49-8.08-9.76.26-5,2.34-8.74,7.99-8.99,5.01-.23,8.32,3.54,8.33,9.23Z"/>
  <path class="cls-19" d="M107.71,52.56c4.8.07,8.32,4.16,7.98,9.65-.31,5.01-2.5,8.68-8.08,8.93-4.86.22-8.37-3.83-8.36-9.32.02-5.43,3.58-9.34,8.46-9.26Z"/>
  <path class="cls-5" d="M145.28,77.46c-5.32-.41-7.72-3.63-7.8-8.42-.08-4.76,2.16-8.57,7.3-8.73,5.21-.17,7.49,3.39,7.57,8.33.08,4.87-1.9,8.19-7.07,8.83Z"/>
  <path class="cls-17" d="M96.99,99.6c-.44,4.7-2.46,8.35-7.65,8.34-5.23-.01-7.35-3.54-7.35-8.49,0-4.99,2.23-8.44,7.42-8.43,5.21.01,7.19,3.72,7.59,8.57Z"/>
  <path class="cls-10" d="M102.68,81.94c2.81-2.41,7.16-2.35,9.9.15,2.02,1.84,2.86,4.52,2.48,7.82-.47,4.09-2.86,7.34-7.59,7.29-4.73-.05-6.93-3.24-7.36-7.45-.34-3.38.51-6.02,2.57-7.79Z"/>
  <path class="cls-3" d="M70.47,97.75c1.83,2.91,2.06,6.64.62,9.77-1.09,2.36-2.92,3.97-6.27,4.09-5.43.19-7.64-3.79-7.78-8.26-.14-4.51,2.02-8.55,7.31-8.74,3.1-.11,4.92,1.22,6.12,3.15Z"/>
  <path class="cls-15" d="M11.78,91.29l-.19-3.36c1.41-5.62,4.68-8.34,9.75-6.95,4.12,1.13,5.59,4.43,5.57,8.41-.01,4.11-2.09,7.16-5.98,8.21-4.87,1.32-7.54-1.96-9.16-6.31Z"/>
  <path class="cls-22" d="M132.24,73.32c.33,1.65.28,3.37-.16,4.99-.88,3.22-2.96,5.57-7.32,5.47-5.36-.13-7.24-3.65-7.2-8.55.05-5.02,2.59-8.53,7.54-8.38,4.02.12,6.37,2.61,7.13,6.47Z"/>
  <path class="cls-23" d="M47.68,98.72c-.79,4.51-2.4,8.39-7.91,8.11-5.34-.27-7.25-3.87-7.17-8.7.08-4.95,2.58-8.41,7.68-8.26,5.17.15,6.95,4.12,7.4,8.85Z"/>
  <path class="cls-11" d="M101.6,108.71c.1-3.77,1.7-6.51,5.64-6.71,4.4-.22,6.28,2.92,6.29,6.71,0,3.8-1.88,6.88-6.31,6.64-3.97-.22-5.55-2.91-5.62-6.65Z"/>
  <path class="cls-7" d="M122.02,94.54c2.28-2.45,6.32-2.53,8.7-.17,1.63,1.61,2.12,3.83,1.56,6.6-.62,3.09-2.72,5.04-5.98,4.95-3.25-.09-5.25-2.15-5.75-5.25-.42-2.59.07-4.63,1.46-6.13Z"/>
  <path class="cls-12" d="M23.69,114.16c-2.29,2.42-6.3,2.52-8.65.15-1.61-1.62-2.03-3.87-1.54-6.6.57-3.17,2.66-5,5.92-4.93,3.28.07,5.2,2.1,5.74,5.21.45,2.63-.06,4.68-1.47,6.17Z"/>
  <path class="cls-18" d="M95.33,118.52c-.44,3.37-1.69,6.49-5.72,6.57-4.21.08-6.21-2.72-6.23-6.73-.02-4.07,2.15-6.78,6.28-6.71,3.98.07,5.36,3.13,5.68,6.87Z"/>
  <path class="cls-9" d="M152.26,87.34c.15,1.01.17,2.04.02,3.05-.44,2.89-1.96,5.23-5.66,5.22-4.22,0-5.99-3.15-6.01-6.93-.01-3.55,1.73-6.46,5.61-6.68,3.78-.22,5.52,1.95,6.04,5.34Z"/>
  <path class="cls-20" d="M36.45,112.2c1.99-1.59,4.89-1.62,6.96-.15,2.09,1.49,2.88,3.85,2.38,6.97-.48,3.04-2.18,5.31-5.68,5.25-3.3-.06-5.35-1.74-5.82-5.06-.44-3.08.22-5.47,2.16-7.02Z"/>
  <path class="cls-3" d="M60.29,116.61c2.09-2.26,5.71-2.58,8.09-.62,1.68,1.38,2.35,3.46,2.13,6.04-.25,2.96-1.88,5.41-5.27,5.72-3.24.29-5.58-1.16-6.28-4.38-.6-2.75-.24-5.05,1.34-6.76Z"/>
  <path class="cls-13" d="M355.76,61.34c-.12.3-.24.61-.37.95-.67-.73-.68-1.09.43-.89,0,0-.06-.06-.06-.06Z"/>
  <path class="cls-13" d="M467.12,100.14c5.1-19.59,13.61-37.36,21.44-55.33-3.96-1.92-5.71,1.6-7.97,2.68-5.05.12-9.78-.34-14.41.77-17.73,4.22-29.27,16.27-38.55,30.96-3.71,5.87-6.77,12.14-6.99,19.35-.33,10.54,5.24,14.53,15.26,10.73,3.02-1.15,5.93-2.7,8.69-4.4,3.87-2.37,7.55-5.04,11.71-7.86-.16,4.63-4.1,7.73-3.06,11.98,7.66,3.75,25.69-4.49,32.95-16.12-7.49,1.21-11.56,8.47-19.08,7.24ZM434.87,99.95c-3.7-12.73,2.5-22.69,9.12-32.35,7.27-10.61,16.7-14.18,27.26-10.94-8.52,25.47-16.93,45.28-36.38,43.29Z"/>
  <path class="cls-13" d="M323.21,60.68c-1.21-9.99-7.26-14.96-17.58-14.42-21.39,1.12-42.72,24.49-43.24,47.4-.25,11.17,5.46,16.98,16.69,16.98,22.5,0,46.83-27.55,44.13-49.95ZM309.16,68.09c-.34,10.05-3.46,20.58-11.01,29.53-1.99,2.35-4.29,4.38-7.04,5.78-6.63,3.37-12.71.83-13.85-6.5-2.28-14.64,1.12-27.94,11.5-38.89,3.8-4,8.23-8.02,14.39-5.5,6.3,2.58,6.02,8.54,6.01,15.58Z"/>
</svg>