<?xml version="1.0" encoding="UTF-8"?>
<svg id="Capa_1" data-name="Capa 1" xmlns="http://www.w3.org/2000/svg" xmlns:xlink="http://www.w3.org/1999/xlink" viewBox="0 0 712 146">
  <defs>
    <style>
      .cls-1 {
        fill: url(#Degradado_sin_nombre_23-2);
      }

      .cls-1, .cls-2, .cls-3, .cls-4, .cls-5, .cls-6 {
        stroke-width: 0px;
      }

      .cls-2 {
        fill: #3260ad;
      }

      .cls-3 {
        fill: red;
      }

      .cls-4 {
        fill: #fff;
      }

      .cls-5 {
        fill: url(#Degradado_sin_nombre_23);
      }

      .cls-6 {
        fill: url(#Degradado_sin_nombre_23-3);
      }
    </style>
    <linearGradient id="Degradado_sin_nombre_23" data-name="Degradado sin nombre 23" x1="135" y1="31.51" x2="472" y2="31.51" gradientUnits="userSpaceOnUse">
      <stop offset=".2" stop-color="#45c8f4"/>
      <stop offset="1" stop-color="#fff"/>
    </linearGradient>
    <linearGradient id="Degradado_sin_nombre_23-2" data-name="Degradado sin nombre 23" x1="193" y1="39.96" y2="39.96" xlink:href="#Degradado_sin_nombre_23"/>
    <linearGradient id="Degradado_sin_nombre_23-3" data-name="Degradado sin nombre 23" x1="249.1" y1="51.02" y2="51.02" xlink:href="#Degradado_sin_nombre_23"/>
  </defs>
  <g>
    <path class="cls-2" d="M654.03,103.85l30.62-.06c5.44-11.16,2.88-18.01-6.05-21.43-2.84-1.09-5.88-1.55-8.92-1.54-8.34.02-30.1.06-37.62.07-2.19,0-4.37-.72-5.97-2.22-2.57-2.39-1.88-4.87,1.65-7.41,3.15-2.27,6.99-3.38,10.87-3.39l60.36-.11,7.72-14.38-79.6.15c-5.59.01-11.16,1.03-16.27,3.29-13.03,5.75-18.67,16.53-15.36,26.44,2.57,7.7,10.06,12.67,18.17,12.66l34.23-.06c1.43,0,2.87.34,4.06,1.14,2.05,1.38,2.99,3.51,2.11,6.84Z"/>
    <polygon class="cls-2" points="582.03 106.99 683.03 106.8 675.06 122.81 574.06 123 582.03 106.99"/>
  </g>
  <polygon class="cls-2" points="411 123 441 123 473 56 440.26 56 411 123"/>
  <path class="cls-2" d="M315.98,72.07l-20.98,50.93h29.15l10.85-24h39l-7.72,24h31.66l7.43-22.14c1.08-3.22,1.63-6.59,1.63-9.99h0c4.83-5.49,8.17-11.22,10.35-17.15,3.16-8.57-2.18-18.07-11.16-19.69-.06-.01-.13-.02-.19-.03h-81.34l-5.16,14.5h60.57c2.38,0,4.53,1.63,4.96,3.97.36,1.99.09,3.98-.95,5.99-1.98,3.8-6.05,6.04-10.34,6.04h-30.24l4.39-12.43h-31.91Z"/>
  <path class="cls-2" d="M587,53.5l-6,17h-61.49c-4.46,0-8.78,1.8-11.78,5.1-6.81,7.5-12.65,21.08-10.54,27.64.64,2,2.61,3.26,4.71,3.26h17.7c9.19,0,17.6-5.15,21.74-13.35,2.92-5.78,5.87-12.89,8.82-20.58h29.35s-12,27.43-12,27.43c0,0,0,0,0,0-2.31,7.3-6.93,13.39-14.72,17.84-6.12,3.5-13.12,5.16-20.17,5.16h-52.26c-1.77,0-3.54-.18-5.24-.7-8.47-2.58-11.2-10.52-6.62-25.3,4.57-15.15,10.71-27.45,19.48-34.95,5.38-4.61,12.29-7.03,19.37-7.15l79.65-1.4Z"/>
  <path class="cls-5" d="M135,23s204-19,337,28c0,0-159-64-337-28Z"/>
  <path class="cls-1" d="M193,42s120-23,279,9c0,0-165-43-279-9Z"/>
  <path class="cls-6" d="M249.1,62.09s93.44-31.59,222.9-11.23c0,0-135.23-30.88-222.9,11.23Z"/>
  <g>
    <g>
      <path class="cls-3" d="M67.15,136.29c-.67,0-1.3-.06-1.88-.17-.09-.02-.17-.05-.26-.09-.35-.18-.76-.33-1.22-.47-.49-.15-.94-.27-1.33-.37-.07-.02-.14-.04-.21-.08-.55-.28-1.19-.87-2.01-1.87-.73-.88-1.46-1.82-2.18-2.8-.74-1.01-1.38-2-1.91-2.94-.73-1.32-.88-1.89-.89-2.25-.11-1.09.71-2.43,2.75-4.46,1.75-1.75,3.87-3.59,6.31-5.45,2.41-1.85,4.82-3.5,7.15-4.89,2.52-1.51,4.26-2.21,5.5-2.21,1.36,0,2.05.68,2.39,1.25.55.91.38,1.91-.46,2.75-.15.15-.55.51-2.36,2.05-1.32,1.11-2.8,2.44-4.41,3.95-1.75,1.44-3.26,2.75-4.53,3.92-.15.13-.28.26-.4.37.62-.13,1.38-.29,2.28-.47,1.48-.31,3.6-.76,6.35-1.38,2.67-.59,5.52-1.26,8.49-1.99,2.86-.7,5.69-1.43,8.42-2.14,2.69-.71,5.21-1.41,7.49-2.06,2.28-.66,4.24-1.3,5.83-1.89,2.37-.72,5.1-1.67,8.2-2.84,3.14-1.19,6.41-2.47,9.71-3.82,3.45-1.41,6.83-2.83,10.03-4.21,3.29-1.42,6.43-2.81,9.33-4.13,2.87-1.31,5.41-2.54,7.54-3.66,2.1-1.1,3.61-1.96,4.51-2.55l3.76-2.41c.55-.54,1.27-1.1,2.15-1.66.8-.52,1.45-1.02,1.91-1.48l1.1-1.1-.91-.83c-.8-.61-1.99-1.3-3.5-1.98-1.55-.7-3.32-1.36-5.25-1.95-1.94-.6-4.01-1.16-6.15-1.67-2.11-.5-4.25-.91-6.35-1.21-1.36-.09-3.16-.2-5.35-.3-2.21-.1-4.54-.15-6.93-.15s-4.85.05-7.32.15c-2.42.1-4.56.25-6.37.46-2.53.2-4.18.4-4.93.59-.63.16-1.1.38-1.38.66-.05.05-.1.09-.15.12-.05.06-.54.64-2.46,3.89-1.51,2.57-3.27,5.51-5.37,8.98-3.07,5.01-5.4,8.82-6.98,11.42-1.61,2.65-2.75,4.47-3.47,5.56-1.01,1.52-1.52,1.98-2.18,1.98-.08,0-.19-.01-.27-.03-.39-.1-.75-.32-1.08-.65-.6-.6-.93-1.57-1.06-3.08,0-.11,0-.22.03-.32.08-.31.27-.94,1.11-3.11.62-1.59,1.4-3.46,2.32-5.56.95-2.15,1.98-4.43,3.08-6.77,1.12-2.39,2.21-4.64,3.23-6.69l1.5-3.32c-.87-.09-1.74-.53-2.59-1.33-.84-.78-1.57-1.71-2.18-2.76-.6-1.04-1.05-2.07-1.32-3.07-.35-1.24-.27-2.18.24-2.86.03-.04.06-.07.09-.11.77-.77,2.04-1.31,3.9-1.66,2.62-.68,4.75-1.27,6.25-1.74,1.45-.45,2.56-.83,3.3-1.12.74-.29,1.05-.57,1.18-.74.3-.4.69-.94,1.18-1.63,1.85-3.28,3.57-6.22,5.13-8.73,1.6-2.58,3.09-4.73,4.44-6.39l1.57-1.9h-1.71c-1.48,0-3.71.1-6.6.3-3.01.21-6.23.47-9.56.77-3.39.3-6.97.66-10.63,1.07-3.54.4-6.91.81-10.02,1.22-11.49,1.63-21.58,3.3-29.99,4.97-8.4,1.67-16.11,3.49-22.92,5.42l-.89.3c.97.69,1.42,1.29,1.46,1.94.03.44-.15.85-.49,1.16-.43.38-1.37.81-5.27,1.39-3.33.62-5.57.93-6.82.93-1.45,0-2.54-.41-3.25-1.23-1.45-1.35-2.39-2.96-2.78-4.77-.58-2.64.32-3.65,1.23-4.03.41-.23,1.25-.61,3.56-1.22,1.74-.46,3.84-.94,6.42-1.47,2.51-.51,5.33-1.05,8.38-1.61,3.07-.56,6.33-1.11,9.69-1.62,2.56-.32,5.62-.73,9.13-1.23,3.53-.5,7.45-1.01,11.67-1.54,4.14-.51,8.39-1.02,12.73-1.53,4.31-.51,8.55-.97,12.59-1.38,4.04-.41,7.77-.79,11.19-1.15,3.43-.36,6.22-.64,8.37-.84,2.89-.21,6.46-.36,10.65-.46,2.82-.07,5.69-.1,8.54-.1,1.4,0,2.81,0,4.22.02,4.26.05,8.26.13,11.9.23,3.72.11,6.36.31,8.05.63,5.11.73,8.53,1.51,10.43,2.37,2.7,1.24,3.27,3.01,3.27,4.28,0,.94-.18,1.87-.53,2.75-.36.9-1.01,1.79-1.93,2.66-.86.81-2.05,1.7-3.52,2.64-1.48.95-3.37,1.95-5.65,2.98-2.6,1.4-6.01,3.02-10.06,4.76-4.04,1.74-8.36,3.58-12.96,5.52l-.88.38h4.33c6.89.1,12.99.65,18.13,1.63,5.18.99,9.76,2.49,13.61,4.46,2.48,1.19,4.16,2.32,5.13,3.46,1.02,1.21,1.54,2.66,1.54,4.33,0,.68-.08,1.42-.25,2.2-.16.77-.36,1.38-.59,1.86-.37,1.05-1.2,2.29-2.56,3.81-1.3,1.46-2.97,3.02-4.94,4.63-1.94,1.58-4.15,3.25-6.57,4.95-2.41,1.69-4.93,3.33-7.5,4.87-2.67,1.54-5.81,3.2-9.35,4.95-3.56,1.75-7.31,3.56-11.13,5.37-3.87,1.83-7.88,3.62-11.93,5.31-4,1.67-7.8,3.2-11.3,4.53-2.43.84-5.07,1.72-7.87,2.62-2.87.92-5.72,1.78-8.47,2.54-2.73.76-5.27,1.41-7.56,1.93-2.32.52-4.07.83-5.35.94-.79.1-1.66.2-2.58.3-.98.11-1.72.16-2.26.16h-1.69ZM125.9,46.47c.21.43.41.94.61,1.56.24.72.36,1.49.36,2.31,0,.55-.03,1.04-.09,1.44-.07.45-.21.95-.44,1.53-.23.56-.55,1.2-.98,1.97-.41.72-.97,1.64-1.71,2.8-1.28,1.95-2.12,3.25-2.65,4.1.26-.09.55-.19.89-.3,1.43-.46,3.12-1,5.06-1.61,3.33-1.01,6.87-2.22,10.53-3.59,3.69-1.39,7.09-2.7,10.1-3.9,3.03-1.21,5.51-2.31,7.35-3.26.42-.22.76-.4,1.03-.55-1.31-.41-3.57-.9-7.43-1.32-4.6-.5-10.28-.86-16.87-1.07l-5.77-.11Z"/>
      <path class="cls-4" d="M123.97,43.18c1.4,0,2.8,0,4.21.02,4.29.05,8.25.13,11.88.23,3.63.1,6.26.31,7.9.61,5.01.72,8.41,1.48,10.2,2.3,1.79.82,2.68,1.94,2.68,3.37,0,.82-.15,1.61-.46,2.38-.31.77-.87,1.53-1.69,2.3-.82.77-1.94,1.61-3.37,2.53-1.43.92-3.27,1.89-5.52,2.91-2.66,1.43-6.01,3.02-10.04,4.75-4.04,1.74-8.36,3.58-12.96,5.52l-5.37,2.3h9.2c6.85.1,12.83.64,17.94,1.61,5.11.97,9.56,2.43,13.34,4.37,2.35,1.13,3.96,2.2,4.83,3.22.87,1.02,1.3,2.25,1.3,3.68,0,.61-.08,1.28-.23,1.99-.15.72-.33,1.28-.54,1.69-.31.92-1.1,2.1-2.38,3.53-1.28,1.43-2.89,2.94-4.83,4.52-1.94,1.59-4.12,3.22-6.52,4.91-2.4,1.69-4.88,3.3-7.44,4.83-2.66,1.53-5.75,3.17-9.28,4.91-3.53,1.74-7.23,3.53-11.12,5.37-3.89,1.84-7.85,3.6-11.88,5.29-4.04,1.69-7.8,3.19-11.27,4.52-2.35.82-4.96,1.69-7.82,2.61-2.86.92-5.67,1.76-8.43,2.53-2.76.77-5.27,1.4-7.51,1.92-2.25.51-3.99.82-5.21.92-.82.1-1.69.2-2.61.31-.92.1-1.64.15-2.15.15h-1.69c-.61,0-1.18-.05-1.69-.15-.41-.21-.87-.38-1.38-.54-.51-.15-.97-.28-1.38-.38-.41-.21-.97-.74-1.69-1.61-.72-.87-1.43-1.79-2.15-2.76-.72-.97-1.33-1.92-1.84-2.84-.51-.92-.77-1.53-.77-1.84-.1-.72.71-1.94,2.45-3.68,1.74-1.74,3.81-3.53,6.21-5.37,2.4-1.84,4.75-3.45,7.05-4.83,2.3-1.38,3.96-2.07,4.98-2.07.71,0,1.23.25,1.53.77.31.51.2,1.02-.31,1.53-.21.2-.97.87-2.3,1.99-1.33,1.12-2.81,2.45-4.45,3.99-1.74,1.43-3.25,2.73-4.52,3.91-1.28,1.17-1.92,1.86-1.92,2.07s.05.33.15.38c.03.01.07.02.13.02.19,0,.56-.06,1.09-.17.71-.15,1.81-.38,3.3-.69,1.48-.31,3.6-.77,6.36-1.38s5.6-1.28,8.51-1.99c2.91-.72,5.72-1.43,8.43-2.15,2.71-.72,5.21-1.41,7.51-2.07,2.3-.67,4.27-1.3,5.9-1.92,2.35-.72,5.08-1.66,8.2-2.84,3.12-1.18,6.36-2.45,9.74-3.83,3.37-1.38,6.72-2.78,10.04-4.22,3.32-1.43,6.44-2.81,9.35-4.14,2.91-1.33,5.44-2.55,7.59-3.68,2.15-1.12,3.68-1.99,4.6-2.61l3.83-2.45c.51-.51,1.2-1.05,2.07-1.61.87-.56,1.56-1.1,2.07-1.61l1.84-1.84-1.69-1.53c-.92-.71-2.17-1.43-3.76-2.15-1.59-.71-3.37-1.38-5.37-1.99-1.99-.61-4.06-1.17-6.21-1.69-2.15-.51-4.29-.92-6.44-1.23-1.43-.1-3.25-.2-5.44-.31-2.2-.1-4.52-.15-6.98-.15s-4.91.05-7.36.15c-2.45.1-4.6.26-6.44.46-2.56.21-4.24.41-5.06.61-.82.21-1.43.51-1.84.92-.31.21-1.23,1.61-2.76,4.22-1.53,2.61-3.32,5.6-5.37,8.97-3.07,5.01-5.39,8.82-6.98,11.42-1.59,2.61-2.74,4.45-3.45,5.52-.68,1.03-1.13,1.54-1.35,1.54-.01,0-.02,0-.03,0-.21-.05-.41-.18-.61-.38-.41-.41-.67-1.23-.77-2.45.1-.41.46-1.4,1.07-2.99.61-1.58,1.38-3.42,2.3-5.52.92-2.09,1.94-4.34,3.07-6.75,1.12-2.4,2.2-4.62,3.22-6.67l2.15-4.75h-1.23c-.72,0-1.46-.36-2.22-1.07-.77-.71-1.43-1.56-1.99-2.53-.56-.97-.97-1.92-1.23-2.84-.26-.92-.23-1.58.08-1.99.61-.61,1.74-1.07,3.37-1.38,2.76-.71,4.88-1.3,6.36-1.76,1.48-.46,2.61-.84,3.37-1.15s1.3-.66,1.61-1.07c.31-.41.71-.97,1.23-1.69,1.84-3.27,3.55-6.18,5.14-8.74,1.58-2.55,3.04-4.65,4.37-6.29l2.91-3.53h-3.83c-1.53,0-3.76.1-6.67.31-2.91.21-6.11.46-9.58.77-3.48.31-7.03.67-10.66,1.07-3.63.41-6.98.82-10.04,1.23-11.55,1.64-21.57,3.3-30.05,4.98-8.49,1.69-16.15,3.5-23,5.44l-2.76.92,1.23.92c1.23.82,1.63,1.41,1.23,1.76-.41.36-1.99.74-4.75,1.15-3.27.61-5.5.92-6.67.92s-2.02-.31-2.53-.92c-1.33-1.23-2.17-2.66-2.53-4.29-.36-1.63-.13-2.61.69-2.91.51-.31,1.63-.69,3.37-1.15,1.74-.46,3.86-.94,6.36-1.46,2.5-.51,5.29-1.05,8.36-1.61,3.07-.56,6.29-1.1,9.66-1.61,2.45-.31,5.49-.71,9.12-1.23,3.63-.51,7.51-1.02,11.65-1.53,4.14-.51,8.38-1.02,12.73-1.53,4.34-.51,8.53-.97,12.57-1.38,4.04-.41,7.77-.79,11.19-1.15,3.42-.36,6.21-.64,8.36-.84,2.86-.2,6.39-.36,10.58-.46,2.81-.07,5.65-.1,8.52-.1M119.47,63.86c.08,0,.17,0,.27-.03.2-.2,1.02-.54,2.45-1,1.43-.46,3.12-1,5.06-1.61,3.37-1.02,6.9-2.22,10.58-3.6,3.68-1.38,7.05-2.68,10.12-3.91,3.07-1.23,5.54-2.32,7.44-3.3,1.89-.97,2.68-1.56,2.38-1.76-1.43-.82-4.47-1.48-9.12-1.99-4.65-.51-10.3-.87-16.94-1.07l-7.82-.15,1.07,1.38c.2.41.41.92.61,1.53.2.61.31,1.28.31,1.99,0,.51-.03.95-.08,1.3-.05.36-.18.79-.38,1.3-.21.51-.51,1.13-.92,1.84-.41.72-.97,1.64-1.69,2.76-2.15,3.27-3.35,5.16-3.6,5.67-.21.43-.12.64.26.64M123.97,41.18c-2.86,0-5.74.03-8.56.1-4.21.1-7.8.26-10.67.46-2.31.22-5.13.51-8.42.85-3.42.36-7.15.74-11.19,1.15-4.05.41-8.29.88-12.61,1.38-4.61.54-8.77,1.05-12.74,1.53-4.22.52-8.16,1.04-11.69,1.54-3.51.5-6.57.91-9.09,1.22-.02,0-.03,0-.05,0-3.37.51-6.64,1.06-9.72,1.62-3.06.56-5.88,1.11-8.4,1.62-2.6.53-4.72,1.02-6.48,1.48-2.31.61-3.24,1.01-3.74,1.28-1.06.47-2.51,1.73-1.76,5.14.44,2,1.46,3.77,3.04,5.25.91,1.02,2.24,1.53,3.97,1.53,1.31,0,3.6-.31,7-.95,3.92-.58,5.07-1.03,5.74-1.62.57-.5.88-1.22.83-1.97-.04-.54-.24-1.01-.54-1.43,6.6-1.84,14.03-3.59,22.09-5.19,8.39-1.67,18.47-3.34,29.95-4.96,3.09-.41,6.46-.82,9.99-1.22,3.66-.41,7.23-.77,10.61-1.07,3.33-.29,6.54-.55,9.55-.76,2.61-.18,4.66-.28,6.11-.3l-.21.25c-1.39,1.71-2.91,3.89-4.53,6.51-1.56,2.51-3.28,5.45-5.13,8.72-.47.66-.85,1.18-1.13,1.56,0,0-.16.18-.76.42-.71.29-1.8.65-3.22,1.1-1.47.46-3.56,1.04-6.21,1.72-2.02.39-3.45,1.01-4.35,1.92-.07.07-.13.14-.19.22-.7.93-.83,2.19-.4,3.73.3,1.08.78,2.19,1.42,3.3.65,1.13,1.45,2.14,2.36,2.99.61.57,1.24.99,1.88,1.26l-1.02,2.25c-1.02,2.05-2.11,4.3-3.22,6.68-1.1,2.35-2.14,4.63-3.09,6.79-.93,2.11-1.71,4-2.33,5.6-.86,2.22-1.06,2.88-1.15,3.23-.05.21-.07.43-.05.64.14,1.75.57,2.93,1.35,3.7.46.46.97.76,1.53.91.16.04.36.07.52.07,1.29,0,2.1-1.05,3.02-2.43.73-1.1,1.87-2.93,3.5-5.59,1.58-2.61,3.91-6.41,6.97-11.42,2.11-3.49,3.87-6.43,5.38-9,1.65-2.8,2.19-3.54,2.34-3.71.04-.03.08-.07.11-.1.04-.04.25-.23.91-.39.48-.12,1.69-.31,4.73-.56.02,0,.04,0,.06,0,1.79-.2,3.91-.35,6.3-.45,2.45-.1,4.9-.15,7.28-.15s4.69.05,6.89.15c2.08.1,3.87.2,5.32.3,2.05.3,4.13.69,6.19,1.18,2.12.51,4.17,1.06,6.09,1.65,1.89.58,3.62,1.22,5.13,1.91,1.39.63,2.5,1.26,3.29,1.86l.07.07-.36.36c-.41.41-1,.86-1.74,1.34-.91.59-1.64,1.15-2.23,1.72l-3.66,2.34c-.9.6-2.38,1.44-4.45,2.52-2.12,1.11-4.64,2.33-7.49,3.63-2.9,1.32-6.03,2.71-9.32,4.12-3.2,1.38-6.56,2.79-10.01,4.2-3.29,1.35-6.55,2.63-9.69,3.81-3.08,1.16-5.8,2.1-8.08,2.79-.04.01-.08.03-.12.04-1.57.59-3.5,1.22-5.76,1.87-2.27.65-4.78,1.35-7.47,2.06-2.71.72-5.54,1.43-8.4,2.14-2.96.72-5.81,1.39-8.47,1.98-1.96.44-3.62.8-4.95,1.08.65-.56,1.33-1.13,2.06-1.73.03-.03.07-.06.1-.09,1.6-1.5,3.07-2.82,4.37-3.92,1.81-1.54,2.24-1.92,2.41-2.1,1.16-1.17,1.4-2.69.62-3.99-.67-1.12-1.82-1.74-3.25-1.74s-3.3.73-6.01,2.36c-2.36,1.42-4.8,3.08-7.24,4.96-2.47,1.89-4.63,3.76-6.41,5.54-2.28,2.28-3.18,3.82-3.03,5.25.04.67.33,1.44,1.02,2.66.55.98,1.21,2.01,1.98,3.05.73.99,1.48,1.95,2.21,2.85.93,1.12,1.65,1.78,2.33,2.13.13.07.27.12.42.15.35.09.77.2,1.29.36.4.12.76.26,1.05.41.16.08.33.14.51.18.64.13,1.34.19,2.07.19h1.69c.57,0,1.35-.05,2.36-.17.92-.1,1.78-.21,2.6-.31,1.33-.12,3.11-.43,5.45-.96,2.31-.53,4.86-1.18,7.61-1.94,2.76-.77,5.62-1.63,8.51-2.55,2.81-.9,5.46-1.79,7.86-2.62.02,0,.04-.01.06-.02,3.5-1.34,7.31-2.87,11.33-4.55,4.06-1.7,8.08-3.49,11.97-5.33,3.83-1.81,7.58-3.62,11.14-5.38,3.56-1.76,6.72-3.43,9.39-4.97,2.62-1.57,5.16-3.22,7.59-4.93,2.44-1.72,4.68-3.4,6.63-4.99,2.02-1.65,3.72-3.24,5.06-4.74,1.42-1.59,2.32-2.93,2.74-4.09.26-.54.47-1.21.64-2.03.18-.85.27-1.66.27-2.41,0-1.91-.6-3.58-1.78-4.97-1.06-1.25-2.85-2.46-5.47-3.72-3.93-2.01-8.59-3.54-13.86-4.54-5.06-.96-11.03-1.51-17.75-1.64,3.25-1.38,6.38-2.72,9.35-3.99,4.05-1.74,7.46-3.36,10.14-4.8,2.29-1.04,4.21-2.06,5.71-3.02,1.54-.99,2.74-1.89,3.66-2.75,1.03-.97,1.76-1.98,2.18-3.02.4-1,.6-2.05.6-3.12,0-1.56-.67-3.73-3.85-5.19-1.98-.9-5.48-1.71-10.71-2.46-1.75-.32-4.42-.53-8.16-.64-3.65-.1-7.66-.18-11.92-.23-1.42-.02-2.83-.02-4.24-.02h0ZM123.36,60.37c.33-.5.7-1.07,1.13-1.72.76-1.2,1.33-2.13,1.75-2.86.46-.8.8-1.49,1.04-2.09.26-.66.43-1.24.51-1.76.07-.47.1-.99.1-1.59,0-.92-.14-1.81-.41-2.62-.02-.07-.05-.14-.07-.21l4.27.08c6.54.2,12.19.56,16.77,1.06,1.97.22,3.49.45,4.67.67-1.61.77-3.59,1.62-5.89,2.54-3,1.2-6.39,2.51-10.08,3.9-3.64,1.36-7.15,2.56-10.46,3.56-1.21.38-2.32.73-3.32,1.05h0Z"/>
    </g>
    <g>
      <path class="cls-3" d="M178.67,107.77c-.94,0-1.96-.2-3.03-.6-1.04-.38-2.01-.88-2.9-1.49-.93-.63-1.69-1.43-2.28-2.36-.62-.99-.88-2.06-.76-3.19.02-1.61.78-3.8,2.34-6.71,1.5-2.79,3.22-5.7,5.1-8.65,1.89-2.97,3.71-5.78,5.45-8.44,1.69-2.58,2.84-4.54,3.44-5.81.24-.64.75-1.02,1.39-1.02.57,0,1.15.29,1.89.95.98.88,1.77,1.77,2.33,2.67.81,1.17,1.21,2.43,1.15,3.72-.06,1.19-.34,2.39-.85,3.57-.48,1.13-1.11,2.25-1.86,3.32-.71,1.02-1.37,1.98-1.98,2.9-2.16,3.57-3.97,6.62-5.35,9.02.09-.07.18-.15.28-.23,1.96-1.6,4.19-3.51,6.65-5.65,2.43-2.13,4.85-4.34,7.17-6.56,2.29-2.19,4.01-4.06,5.1-5.54,1.79-2.52,3.26-4.3,4.5-5.44,1.85-1.69,2.27-1.87,2.74-1.87,1.16,0,2.03,1.08,2.59,1.89.73,1.08,1.22,2.15,1.46,3.18.02.07.02.15.02.22,0,.73-.03,1.43-.08,2.07-.05.6-.38,1.58-2.42,4.34-.76,1.23-1.42,2.35-1.92,3.27-.49.88-.97,1.79-1.44,2.72-.45.9-.88,1.85-1.27,2.84-.41,1.03-.93,2.27-1.54,3.7-.13.26-.23.48-.31.67,1.1-.58,2.35-1.39,3.7-2.4,1.42-1.06,2.8-2.14,4.11-3.2,1.34-1.08,2.22-1.78,2.64-2.09l8.24-6.87c.22-.23.61-.56,1.11-.58.32-.13.58-.2.82-.2.43,0,.8.21,1.01.55.37.62.02,1.29-.12,1.54-.39.73-1,1.61-1.86,2.68-.83,1.04-1.78,2.14-2.8,3.27-1.01,1.12-1.75,1.9-2.18,2.33-.98,1.18-2.21,2.52-3.6,3.91-1.38,1.38-2.72,2.69-4,3.92-1.28,1.23-2.45,2.32-3.47,3.24-1.41,1.27-1.96,1.61-2.35,1.74-1.05.45-2.09.7-3,.7-.41,0-.8-.05-1.17-.15-1.24-.32-2.57-1.6-4.18-4.02-1.18-1.76-1.48-3.98-.91-6.59.2-.91.44-1.83.73-2.77l-10.67,11.48c-2.44,2.44-4.08,3.97-5.03,4.71-1.14.89-1.95,1.28-2.61,1.28Z"/>
      <path class="cls-4" d="M187.41,70.49c.29,0,.7.23,1.23.7.92.82,1.63,1.64,2.15,2.45.71,1.02,1.05,2.07,1,3.14-.05,1.07-.31,2.15-.77,3.22-.46,1.07-1.05,2.12-1.76,3.14-.72,1.02-1.38,1.99-1.99,2.91-2.35,3.89-4.24,7.08-5.67,9.58-1.32,2.32-1.82,3.47-1.48,3.47.03,0,.06,0,.1-.02.31-.31,1.46-1.28,3.45-2.91,1.99-1.63,4.22-3.53,6.67-5.67,2.45-2.15,4.85-4.34,7.21-6.59,2.35-2.25,4.09-4.14,5.21-5.67,1.74-2.45,3.19-4.22,4.37-5.29,1.17-1.07,1.86-1.61,2.07-1.61.51,0,1.1.49,1.76,1.46.66.97,1.1,1.92,1.3,2.84,0,.72-.03,1.38-.08,1.99-.05.61-.79,1.89-2.22,3.83-.82,1.33-1.48,2.45-1.99,3.37-.51.92-1,1.84-1.46,2.76s-.9,1.89-1.3,2.91c-.41,1.02-.92,2.25-1.53,3.68-.21.41-.36.77-.46,1.07-.1.31-.21.61-.31.92,0,.31.15.46.44.46s.73-.15,1.32-.46c1.17-.61,2.48-1.46,3.91-2.53,1.43-1.07,2.81-2.15,4.14-3.22,1.33-1.07,2.2-1.76,2.61-2.07l8.28-6.9c.23-.23.4-.34.52-.34.04,0,.07.01.1.04.31-.16.54-.23.68-.23.23,0,.23.21.01.62-.36.67-.95,1.51-1.76,2.53-.82,1.02-1.74,2.1-2.76,3.22-1.02,1.13-1.74,1.89-2.15,2.3-1.02,1.23-2.22,2.53-3.6,3.91-1.38,1.38-2.71,2.68-3.99,3.91-1.28,1.23-2.43,2.3-3.45,3.22-1.02.92-1.69,1.43-1.99,1.53-1.01.43-1.91.65-2.69.65-.32,0-.63-.04-.92-.11-.97-.25-2.17-1.46-3.6-3.6-1.02-1.53-1.28-3.47-.77-5.83.51-2.35,1.33-4.8,2.45-7.36l-14.11,15.18c-2.35,2.35-3.99,3.89-4.91,4.6-.92.72-1.59,1.07-1.99,1.07-.82,0-1.71-.18-2.68-.54-.97-.36-1.86-.82-2.68-1.38-.82-.56-1.48-1.25-1.99-2.07s-.71-1.69-.61-2.61c0-1.43.74-3.53,2.22-6.29,1.48-2.76,3.17-5.62,5.06-8.59,1.89-2.96,3.7-5.77,5.44-8.43,1.74-2.66,2.91-4.65,3.53-5.98.09-.26.24-.39.46-.39M187.41,68.49c-1.05,0-1.92.62-2.31,1.63-.58,1.23-1.71,3.13-3.35,5.65-1.73,2.65-3.57,5.49-5.46,8.45-1.9,2.97-3.62,5.9-5.14,8.72-1.65,3.07-2.43,5.34-2.46,7.12-.12,1.34.18,2.61.92,3.78.66,1.05,1.52,1.95,2.56,2.66.96.66,2.01,1.2,3.13,1.61,1.18.44,2.32.66,3.37.66.91,0,1.87-.45,3.22-1.49.98-.76,2.65-2.32,5.09-4.76.02-.02.03-.03.05-.05l8.06-8.68c-.37,2.49.04,4.65,1.23,6.43,1.78,2.67,3.25,4.03,4.76,4.43.45.12.92.18,1.42.18,1.05,0,2.16-.26,3.42-.79.52-.19,1.15-.6,2.6-1.91,1.03-.93,2.21-2.03,3.5-3.26,1.29-1.24,2.64-2.56,4.02-3.94,1.39-1.39,2.62-2.73,3.67-3.98.45-.45,1.17-1.23,2.15-2.3,1.04-1.14,2-2.26,2.84-3.31.9-1.12,1.54-2.05,1.96-2.83.51-.94.54-1.79.1-2.53-.39-.65-1.09-1.04-1.87-1.04-.33,0-.67.07-1.05.21-.71.09-1.23.5-1.59.84l-8.18,6.82c-.45.34-1.31,1.02-2.62,2.08-1.3,1.05-2.68,2.12-4.08,3.18-.31.23-.62.45-.91.66.22-.52.42-1.01.6-1.47.38-.96.8-1.89,1.24-2.76.46-.92.93-1.82,1.41-2.68.49-.89,1.13-1.97,1.91-3.23,2.01-2.74,2.48-3.9,2.56-4.78.06-.68.08-1.41.08-2.16,0-.15-.02-.29-.05-.44-.26-1.16-.8-2.35-1.6-3.53-.69-1-1.79-2.33-3.42-2.33-.87,0-1.54.42-3.42,2.13-1.29,1.18-2.82,3.02-4.65,5.61-1.04,1.41-2.71,3.23-4.96,5.38-2.32,2.22-4.72,4.41-7.14,6.53-.85.74-1.68,1.46-2.47,2.14.74-1.25,1.55-2.58,2.41-4.01.61-.91,1.26-1.86,1.94-2.84.79-1.13,1.45-2.31,1.96-3.5.55-1.28.86-2.6.93-3.91.07-1.51-.38-2.97-1.33-4.35-.61-.96-1.45-1.92-2.48-2.84-.58-.52-1.48-1.21-2.56-1.21h0Z"/>
    </g>
    <g>
      <path class="cls-3" d="M220.34,112.11c-.3,0-.55-.03-.76-.08-.6-.15-1.17-.55-1.7-1.18-1.05-.85-1.88-1.66-2.53-2.46-.63-.79-1.22-1.62-1.75-2.47-.04-.06-.07-.12-.09-.19-.5-1.39-.38-2.84.35-4.32.57-1.03,1.69-2.49,3.44-4.5,1.73-2,3.68-3.75,5.78-5.22.83-.52,1.59-1.06,2.33-1.65.1-.08.19-.15.27-.22-.5-.31-1.02-.6-1.55-.87-.03-.02-.07-.04-.1-.06-2.11-1.37-3.98-2.98-5.57-4.78-1.8-2.04-2.11-4.38-.91-6.78.69-1.15,1.66-2.39,2.92-3.76,1.26-1.36,2.66-2.68,4.16-3.93,1.52-1.26,3.11-2.37,4.74-3.31,1.63-.95,3.11-1.65,4.4-2.08.7-.24,1.39-.37,2.04-.37,1.78,0,3.29.88,4.5,2.63.17.11.3.27.38.47.15.39.38.73.7,1.04.21.21.33.3.38.34,0,0,.02,0,.03,0,.06.01.12.02.18.02.17,0,.34-.06.52-.18.29-.19.59-.29.89-.29.38,0,1.27.17,1.49,1.71.24.98.28,1.69.13,2.22-.12.43-.46,1.02-2.13,2.54l-4.54,4.85c-2.02,2.5-2.32,2.62-2.85,2.62-.16,0-.32-.04-.47-.11h0c-.65-.32-1.15-.97-1.49-1.94-.36-1.01-.2-2.08.48-3.16.26-.46.61-1.03,1.06-1.71-1.3.87-2.68,1.86-4.13,2.96-1.65,1.25-3.05,2.48-4.18,3.65-.57.6-.8.96-.89,1.14l2.26,1.83,2.27,1.89,7.7-3.85c2.02-1.11,4-2.1,5.87-2.93,1.86-.82,3.53-1.5,4.98-2.02,3.44-1.15,5.69-1.7,6.91-1.7.85,0,1.41.27,1.68.82.16.32.17.69.04,1.03-.27.73-1.09,1.66-7.61,4.33-1.69.7-3.39,1.48-5.06,2.34-1.71.88-3.3,1.73-4.73,2.52-1.47.81-2.71,1.55-3.69,2.19-.47.31-.87.57-1.19.79,1.44,1.9,2.11,3.29,2.11,4.35v2.46c.21,1.58-.02,3.22-.68,4.89-.66,1.65-1.72,3.21-3.14,4.63-1.05,1.27-2.81,2.51-5.18,3.65-2.33,1.11-4.4,1.79-6.13,2.01-.77.14-1.4.21-1.9.21ZM228.25,94.52c-.98.79-2.01,1.72-3.05,2.75-1.05,1.05-1.98,2.06-2.78,3-.38.45-.72.87-1.02,1.26.42-.15.85-.3,1.28-.47,2.3-.8,4.54-1.81,6.69-3,2.7-1.51,3.5-2.29,3.74-2.62.42-.67.36-.93.36-.93,0,0-.21-.4-1.68-1.27l-1.24-.52-2.3,1.79Z"/>
      <path class="cls-4" d="M235.8,64.9c1.57,0,2.88.87,3.95,2.62v-.15c.2.51.51.97.92,1.38.41.41.71.61.92.61.13.03.25.04.38.04.37,0,.73-.12,1.08-.35.13-.08.24-.13.34-.13.26,0,.43.3.51.89.2.82.25,1.41.15,1.76-.1.36-.72,1.05-1.84,2.07l-4.6,4.91c-1.25,1.54-1.96,2.31-2.12,2.31-.01,0-.02,0-.02,0-.41-.2-.74-.66-1-1.38-.26-.71-.13-1.48.38-2.3.41-.71,1-1.63,1.76-2.76.77-1.12,1.05-1.79.84-1.99,0,0-.03-.01-.05-.01-.21,0-.99.44-2.33,1.32-1.48.97-3.07,2.1-4.75,3.37-1.69,1.28-3.12,2.53-4.29,3.76-1.18,1.23-1.51,2.05-1,2.45l2.45,1.99,2.76,2.3,8.28-4.14c2.04-1.12,3.99-2.09,5.83-2.91,1.84-.82,3.47-1.48,4.91-1.99,3.29-1.1,5.48-1.64,6.57-1.64.44,0,.7.09.79.26.31.61-2.05,1.94-7.05,3.99-1.74.72-3.45,1.51-5.14,2.38-1.69.87-3.27,1.71-4.75,2.53-1.48.82-2.74,1.56-3.76,2.22-1.02.67-1.74,1.15-2.15,1.46l.46.46c1.43,1.84,2.15,3.2,2.15,4.06v2.53c.2,1.43,0,2.91-.61,4.45s-1.59,2.97-2.91,4.29c-1.02,1.23-2.66,2.38-4.91,3.45-2.25,1.07-4.19,1.71-5.83,1.92-.75.14-1.34.2-1.78.2-.21,0-.39-.02-.52-.05-.41-.1-.82-.41-1.23-.92-1.02-.82-1.84-1.61-2.45-2.38s-1.17-1.56-1.69-2.38c-.41-1.12-.31-2.3.31-3.53.51-.92,1.61-2.35,3.3-4.29,1.69-1.94,3.55-3.63,5.6-5.06.82-.51,1.61-1.07,2.38-1.69.77-.61,1.15-.97,1.15-1.07s-.28-.33-.84-.69c-.56-.36-1.15-.69-1.76-1-2.05-1.33-3.83-2.86-5.37-4.6-1.53-1.74-1.79-3.63-.77-5.67.61-1.02,1.53-2.2,2.76-3.53,1.23-1.33,2.58-2.61,4.06-3.83,1.48-1.23,3.01-2.3,4.6-3.22,1.58-.92,2.99-1.58,4.22-1.99.61-.21,1.18-.32,1.73-.32M219.35,103.24c.1,0,.54-.13,1.3-.38.77-.25,1.56-.54,2.38-.84,2.35-.82,4.62-1.84,6.82-3.07,2.2-1.23,3.55-2.2,4.06-2.91.51-.82.66-1.46.46-1.92-.21-.46-.92-1.05-2.15-1.76l-1.84-.77-2.76,2.15c-1.02.82-2.07,1.76-3.14,2.84s-2.02,2.1-2.84,3.07c-.82.97-1.46,1.82-1.92,2.53-.46.72-.59,1.07-.38,1.07M235.8,62.9c-.77,0-1.57.14-2.38.43-1.33.45-2.88,1.17-4.56,2.15-1.67.97-3.31,2.12-4.87,3.41-1.54,1.27-2.97,2.62-4.26,4.02-1.33,1.44-2.31,2.7-3.01,3.85-.03.04-.05.09-.07.14-1.38,2.76-1,5.56,1.06,7.89,1.65,1.87,3.59,3.54,5.78,4.95.06.04.13.08.19.11.07.03.13.07.2.1-.42.3-.85.59-1.28.86-.03.02-.06.04-.09.06-2.17,1.52-4.17,3.33-5.96,5.39-1.79,2.06-2.95,3.58-3.53,4.63-.01.03-.03.05-.04.08-.85,1.7-.99,3.47-.4,5.1.05.13.11.26.18.38.55.88,1.16,1.75,1.82,2.57.68.84,1.53,1.68,2.6,2.56.65.75,1.37,1.23,2.15,1.43.31.08.63.11,1.01.11.55,0,1.23-.07,2.08-.23,1.86-.24,3.94-.93,6.38-2.09,2.49-1.19,4.3-2.47,5.52-3.9,1.48-1.5,2.59-3.15,3.29-4.9.72-1.8.98-3.59.76-5.32v-2.4c0-1.12-.53-2.42-1.69-4.1.1-.07.21-.14.32-.21.96-.63,2.18-1.35,3.63-2.15,1.42-.78,3-1.63,4.7-2.5,1.64-.84,3.32-1.62,4.98-2.31,6.92-2.82,7.77-3.85,8.17-4.9.23-.61.2-1.26-.09-1.83-.26-.51-.93-1.37-2.58-1.37-.85,0-2.51.18-7.2,1.75-1.51.54-3.21,1.23-5.09,2.06-1.88.84-3.88,1.84-5.95,2.97l-.05.03c.42-.44.92-1.04,1.57-1.85l4.5-4.8c1.71-1.56,2.17-2.28,2.36-2.94.2-.71.17-1.54-.11-2.69-.36-2.39-2.12-2.52-2.47-2.52-.46,0-.9.13-1.32.38-.21-.21-.36-.43-.45-.68-.13-.32-.33-.59-.58-.8-1.72-2.4-3.76-2.92-5.22-2.92h0ZM227.22,82.51c.07-.08.16-.17.25-.27,1.09-1.14,2.45-2.33,4.06-3.55.29-.22.58-.43.86-.64-.14.85,0,1.57.19,2.1.43,1.21,1.1,2.05,1.99,2.5h0c.22.11.46.18.7.21l-4.75,2.38-1.76-1.46-1.54-1.25h0ZM224.69,99.24c.39-.41.79-.83,1.22-1.26,1.01-1.01,2.01-1.92,2.98-2.69l1.82-1.41.64.27c.48.29.79.5.99.66-.02.03-.04.07-.06.1-.15.19-.83.87-3.38,2.29-1.36.76-2.77,1.44-4.2,2.04h0Z"/>
    </g>
    <g>
      <path class="cls-3" d="M251.05,109.01c-2.01,0-4.08-.71-6.14-2.1-2.19-1.48-3.81-3.35-4.8-5.56-.91-1.92-1.06-4.19-.44-6.7.59-2.39,1.63-4.81,3.11-7.19,1.46-2.34,3.28-4.69,5.41-6.98,2.13-2.29,4.35-4.26,6.59-5.88,2.25-1.62,4.48-2.9,6.64-3.79,1.54-.64,2.95-.96,4.2-.96.62,0,1.2.08,1.75.23,3.04.87,5.16,1.87,6.46,3.06,1.41,1.29,2.06,2.77,1.93,4.42-.12,1.51-.77,3.12-1.94,4.79-1.1,1.57-2.5,3.22-4.18,4.89-.85.85-1.86,1.73-3.01,2.61-1.13.87-2.31,1.72-3.51,2.5-1.23.8-2.28,1.44-3.21,1.95-1.31.73-1.78.92-2.01,1-.7.18-1.19.26-1.57.26-.28,0-.52-.04-.73-.13-.24-.09-.64-.3-1.57-1.08-.92-.8-1.54-1.48-1.9-2.09-.06-.09-.11-.19-.17-.28-.26.43-.54.93-.86,1.49-.39.69-.76,1.43-1.1,2.2-.37.84-.71,1.57-1.02,2.19-.41,1.06-.54,2.15-.37,3.14.19,1.11.47,1.32.47,1.32.11.05.29.1.61.1.54,0,1.27-.15,2.16-.43,1.53-.49,3.31-1.25,5.3-2.24,2.01-1,4.18-2.18,6.46-3.5,2.28-1.31,4.5-2.7,6.62-4.11,2.11-1.41,4.05-2.79,5.77-4.1,1.7-1.29,3.07-2.41,4.08-3.32,1.05-.95,1.76-1.55,2.16-1.83.38-.27.72-.4,1.06-.4.44,0,.82.22,1.05.58.93,1.3-.55,3-2.3,4.65-1.84,1.74-4.16,3.81-7.09,6.32-1.71,1.61-3.66,3.3-5.77,5-2.12,1.71-4.29,3.3-6.44,4.73-2.16,1.44-4.23,2.67-6.15,3.66-2.06,1.05-3.74,1.57-5.13,1.57-.1,0-.25.01-.4.01ZM270.44,77.61c-.3.16-.67.35-1.11.59-1.67.91-3.54,1.99-5.56,3.2-1.99,1.19-3.96,2.47-5.84,3.79-1.36.96-2.24,1.68-2.8,2.21.21-.06.44-.14.68-.22.75-.25,1.36-.47,1.86-.67,2.41-.8,4.52-1.82,6.33-3.04,1.83-1.23,3.35-2.46,4.53-3.64.82-.82,1.46-1.57,1.91-2.23Z"/>
      <path class="cls-4" d="M265.61,70.85c.53,0,1.02.07,1.48.2,2.86.82,4.88,1.76,6.06,2.84,1.17,1.07,1.71,2.28,1.61,3.6-.1,1.33-.69,2.76-1.76,4.29-1.07,1.53-2.43,3.12-4.06,4.75-.82.82-1.79,1.66-2.91,2.53-1.13.87-2.28,1.69-3.45,2.45-1.18.77-2.22,1.41-3.14,1.92-.92.51-1.53.82-1.84.92-.54.14-.96.21-1.26.21-.15,0-.27-.02-.35-.05-.26-.1-.69-.41-1.3-.92-.82-.71-1.38-1.33-1.69-1.84-.31-.51-.61-.97-.92-1.38-.21,0-.46.26-.77.77-.31.51-.67,1.13-1.07,1.84-.41.72-.79,1.48-1.15,2.3-.36.82-.69,1.53-1,2.15-.51,1.33-.67,2.58-.46,3.76.2,1.18.56,1.87,1.07,2.07.27.11.6.17.99.17.65,0,1.47-.16,2.46-.48,1.58-.51,3.4-1.28,5.44-2.3,2.04-1.02,4.22-2.2,6.52-3.53,2.3-1.33,4.52-2.71,6.67-4.14,2.15-1.43,4.09-2.81,5.83-4.14,1.74-1.33,3.12-2.45,4.14-3.37,1.02-.92,1.71-1.51,2.07-1.76.2-.14.36-.21.48-.21.1,0,.17.05.21.14.41.51-.31,1.64-2.15,3.37-1.84,1.74-4.19,3.83-7.05,6.29-1.74,1.64-3.66,3.3-5.75,4.98-2.1,1.69-4.22,3.25-6.36,4.68-2.15,1.43-4.17,2.63-6.06,3.6-1.89.97-3.45,1.46-4.68,1.46-.13,0-.27.01-.4.01-1.82,0-3.68-.64-5.58-1.93-2.04-1.38-3.53-3.09-4.45-5.14-.82-1.74-.94-3.76-.38-6.06.56-2.3,1.56-4.6,2.99-6.9,1.43-2.3,3.19-4.57,5.29-6.82,2.09-2.25,4.24-4.16,6.44-5.75,2.2-1.58,4.34-2.81,6.44-3.68,1.42-.59,2.7-.89,3.82-.89M252.98,88.98l1.23-.31c.51-.1,1.15-.28,1.92-.54.77-.25,1.4-.48,1.92-.69,2.45-.82,4.62-1.86,6.52-3.14,1.89-1.28,3.45-2.53,4.68-3.76,1.23-1.23,2.07-2.3,2.53-3.22.46-.92.43-1.38-.08-1.38-.21,0-1.15.46-2.84,1.38-1.69.92-3.55,1.99-5.6,3.22-2.05,1.23-4.01,2.51-5.9,3.83-1.89,1.33-3.14,2.4-3.76,3.22l-.61,1.38M265.61,68.85c-1.38,0-2.92.35-4.58,1.04-2.23.92-4.53,2.24-6.84,3.9-2.29,1.65-4.56,3.68-6.73,6.01-2.18,2.34-4.04,4.74-5.53,7.13-1.54,2.47-2.62,4.99-3.23,7.48-.67,2.75-.5,5.23.52,7.38,1.05,2.35,2.79,4.36,5.14,5.94,2.23,1.51,4.48,2.27,6.7,2.27.15,0,.3,0,.45-.01,1.55-.01,3.36-.56,5.54-1.68,1.96-1,4.06-2.26,6.26-3.72,2.17-1.45,4.36-3.06,6.51-4.78,2.12-1.71,4.08-3.41,5.83-5.05,2.93-2.51,5.25-4.58,7.09-6.32,1.3-1.23,3.99-3.77,2.43-5.95-.41-.63-1.11-1.02-1.87-1.02-.55,0-1.09.19-1.64.58-.28.2-.81.61-2.25,1.91-.99.89-2.34,1.99-4.02,3.27-1.7,1.3-3.63,2.67-5.72,4.07-2.1,1.4-4.3,2.77-6.56,4.07-2.27,1.31-4.42,2.48-6.41,3.47-1.95.97-3.69,1.71-5.16,2.19-.94.3-1.49.38-1.81.38-.04-.13-.09-.32-.13-.58-.14-.79-.03-1.67.32-2.61.3-.61.63-1.31.99-2.15.33-.75.68-1.46,1.06-2.11.03-.05.06-.1.09-.15.36.4.79.83,1.31,1.28.86.72,1.4,1.08,1.89,1.27.31.12.67.19,1.08.19.47,0,1.03-.08,1.75-.27.05-.01.09-.02.14-.04.32-.1.83-.31,2.19-1.07.94-.52,2.01-1.17,3.26-1.99,1.22-.8,2.43-1.66,3.58-2.55,1.18-.91,2.23-1.82,3.1-2.7,1.71-1.71,3.15-3.4,4.29-5.02,1.28-1.82,1.99-3.6,2.12-5.28.1-1.36-.21-3.36-2.26-5.23-1.42-1.29-3.66-2.37-6.86-3.28-.64-.18-1.32-.27-2.03-.27h0Z"/>
    </g>
    <g>
      <path class="cls-3" d="M278.7,112.11c-.3,0-.55-.03-.76-.08-.6-.15-1.17-.55-1.7-1.18-1.05-.85-1.88-1.66-2.53-2.46-.63-.79-1.22-1.62-1.75-2.47-.04-.06-.07-.12-.09-.19-.5-1.39-.38-2.84.35-4.32.57-1.03,1.69-2.49,3.44-4.5,1.73-2,3.68-3.75,5.78-5.22.83-.52,1.59-1.06,2.33-1.65.1-.08.19-.15.27-.22-.5-.31-1.02-.6-1.55-.87-.03-.02-.07-.04-.1-.06-2.11-1.37-3.98-2.98-5.57-4.78-1.8-2.04-2.11-4.38-.91-6.78.69-1.15,1.66-2.39,2.92-3.76,1.26-1.36,2.66-2.68,4.16-3.93,1.52-1.26,3.11-2.37,4.74-3.31,1.63-.95,3.11-1.65,4.4-2.08.7-.24,1.39-.37,2.04-.37,1.78,0,3.29.88,4.5,2.63.17.11.3.27.38.47.15.39.38.73.7,1.04.21.21.33.3.38.34,0,0,.02,0,.03,0,.06.01.12.02.18.02.17,0,.34-.06.52-.18.29-.19.59-.29.89-.29.38,0,1.27.17,1.49,1.71.24.98.28,1.69.13,2.22-.12.43-.46,1.02-2.13,2.54l-4.54,4.85c-2.02,2.5-2.32,2.62-2.85,2.62-.16,0-.32-.04-.47-.11h0c-.65-.32-1.15-.97-1.49-1.94-.36-1.01-.2-2.08.48-3.16.26-.46.61-1.03,1.06-1.71-1.3.87-2.68,1.86-4.13,2.96-1.65,1.25-3.05,2.48-4.18,3.65-.57.6-.8.96-.89,1.14l2.26,1.83,2.27,1.89,7.7-3.85c2.02-1.11,4-2.1,5.87-2.93,1.86-.82,3.53-1.5,4.98-2.02,3.44-1.15,5.69-1.7,6.91-1.7.85,0,1.41.27,1.68.82.16.32.17.69.04,1.03-.27.73-1.09,1.66-7.61,4.33-1.69.7-3.39,1.48-5.06,2.34-1.71.88-3.3,1.73-4.73,2.52-1.47.81-2.71,1.55-3.69,2.19-.47.31-.87.57-1.19.79,1.44,1.9,2.11,3.29,2.11,4.35v2.46c.21,1.58-.02,3.22-.68,4.89-.66,1.65-1.72,3.21-3.14,4.63-1.05,1.27-2.81,2.51-5.18,3.65-2.33,1.11-4.4,1.79-6.13,2.01-.77.14-1.4.21-1.9.21ZM286.61,94.52c-.98.79-2.01,1.72-3.05,2.75-1.05,1.05-1.98,2.06-2.78,3-.38.45-.72.87-1.02,1.26.42-.15.85-.3,1.28-.47,2.3-.8,4.54-1.81,6.69-3,2.7-1.51,3.5-2.29,3.74-2.62.42-.67.36-.93.36-.93,0,0-.21-.4-1.68-1.27l-1.24-.52-2.3,1.79Z"/>
      <path class="cls-4" d="M294.16,64.9c1.57,0,2.88.87,3.95,2.62v-.15c.2.51.51.97.92,1.38.41.41.71.61.92.61.13.03.25.04.38.04.37,0,.73-.12,1.08-.35.13-.08.24-.13.34-.13.26,0,.43.3.51.89.2.82.25,1.41.15,1.76-.1.36-.72,1.05-1.84,2.07l-4.6,4.91c-1.25,1.54-1.96,2.31-2.12,2.31-.01,0-.02,0-.02,0-.41-.2-.74-.66-1-1.38-.26-.71-.13-1.48.38-2.3.41-.71,1-1.63,1.76-2.76.77-1.12,1.05-1.79.84-1.99,0,0-.03-.01-.05-.01-.21,0-.99.44-2.33,1.32-1.48.97-3.07,2.1-4.75,3.37-1.69,1.28-3.12,2.53-4.29,3.76-1.18,1.23-1.51,2.05-1,2.45l2.45,1.99,2.76,2.3,8.28-4.14c2.04-1.12,3.99-2.09,5.83-2.91,1.84-.82,3.47-1.48,4.91-1.99,3.29-1.1,5.48-1.64,6.57-1.64.44,0,.7.09.79.26.31.61-2.05,1.94-7.05,3.99-1.74.72-3.45,1.51-5.14,2.38-1.69.87-3.27,1.71-4.75,2.53-1.48.82-2.74,1.56-3.76,2.22-1.02.67-1.74,1.15-2.15,1.46l.46.46c1.43,1.84,2.15,3.2,2.15,4.06v2.53c.2,1.43,0,2.91-.61,4.45-.61,1.53-1.59,2.97-2.91,4.29-1.02,1.23-2.66,2.38-4.91,3.45-2.25,1.07-4.19,1.71-5.83,1.92-.75.14-1.34.2-1.78.2-.21,0-.39-.02-.52-.05-.41-.1-.82-.41-1.23-.92-1.02-.82-1.84-1.61-2.45-2.38-.61-.77-1.17-1.56-1.69-2.38-.41-1.12-.31-2.3.31-3.53.51-.92,1.61-2.35,3.3-4.29,1.69-1.94,3.55-3.63,5.6-5.06.82-.51,1.61-1.07,2.38-1.69.77-.61,1.15-.97,1.15-1.07s-.28-.33-.84-.69c-.56-.36-1.15-.69-1.76-1-2.05-1.33-3.83-2.86-5.37-4.6-1.53-1.74-1.79-3.63-.77-5.67.61-1.02,1.53-2.2,2.76-3.53,1.23-1.33,2.58-2.61,4.06-3.83,1.48-1.23,3.01-2.3,4.6-3.22,1.58-.92,2.99-1.58,4.22-1.99.61-.21,1.18-.32,1.73-.32M277.71,103.24c.1,0,.54-.13,1.3-.38.77-.25,1.56-.54,2.38-.84,2.35-.82,4.62-1.84,6.82-3.07,2.2-1.23,3.55-2.2,4.06-2.91.51-.82.66-1.46.46-1.92-.21-.46-.92-1.05-2.15-1.76l-1.84-.77-2.76,2.15c-1.02.82-2.07,1.76-3.14,2.84s-2.02,2.1-2.84,3.07c-.82.97-1.46,1.82-1.92,2.53-.46.72-.59,1.07-.38,1.07M294.16,62.9c-.77,0-1.57.14-2.38.43-1.33.45-2.88,1.17-4.56,2.15-1.67.97-3.31,2.12-4.87,3.41-1.54,1.27-2.97,2.62-4.26,4.02-1.33,1.44-2.31,2.7-3.01,3.85-.03.04-.05.09-.07.14-1.38,2.76-1,5.56,1.06,7.89,1.65,1.87,3.59,3.54,5.78,4.95.06.04.13.08.19.11.07.03.13.07.2.1-.42.3-.85.59-1.28.86-.03.02-.06.04-.09.06-2.17,1.52-4.17,3.33-5.96,5.39-1.79,2.06-2.95,3.58-3.53,4.63-.01.03-.03.05-.04.08-.85,1.7-.99,3.47-.4,5.1.05.13.11.26.18.38.55.88,1.16,1.75,1.82,2.57.68.84,1.53,1.68,2.6,2.56.65.75,1.37,1.23,2.15,1.43.31.08.63.11,1.01.11.55,0,1.23-.07,2.08-.23,1.86-.24,3.94-.93,6.38-2.09,2.49-1.19,4.3-2.47,5.52-3.9,1.48-1.5,2.59-3.15,3.29-4.9.72-1.8.98-3.59.76-5.32v-2.4c0-1.12-.53-2.42-1.69-4.1.1-.07.21-.14.32-.21.96-.63,2.18-1.35,3.63-2.15,1.42-.78,3-1.63,4.7-2.5,1.64-.84,3.32-1.62,4.98-2.31,6.92-2.82,7.77-3.85,8.17-4.9.23-.61.2-1.26-.09-1.83-.26-.51-.93-1.37-2.58-1.37-.85,0-2.51.18-7.2,1.75-1.51.54-3.21,1.23-5.09,2.06-1.88.84-3.88,1.84-5.95,2.97l-.05.03c.42-.44.92-1.04,1.57-1.85l4.5-4.8c1.71-1.56,2.17-2.28,2.36-2.94.2-.71.17-1.54-.11-2.69-.36-2.39-2.12-2.52-2.47-2.52-.46,0-.9.13-1.32.38-.21-.21-.36-.43-.45-.68-.13-.32-.33-.59-.58-.8-1.72-2.4-3.76-2.92-5.22-2.92h0ZM285.58,82.51c.07-.08.16-.17.25-.27,1.09-1.14,2.45-2.33,4.06-3.55.29-.22.58-.43.86-.64-.14.85,0,1.57.19,2.1.43,1.21,1.1,2.05,1.99,2.5h0c.22.11.46.18.7.21l-4.75,2.38-1.76-1.46-1.54-1.25h0ZM283.05,99.24c.39-.41.79-.83,1.22-1.26,1.01-1.01,2.01-1.92,2.98-2.69l1.82-1.41.64.27c.48.29.79.5.99.66-.02.03-.04.07-.06.1-.15.19-.83.87-3.38,2.29-1.36.76-2.77,1.44-4.2,2.04h0Z"/>
    </g>
  </g>
</svg>