<?xml version="1.0" encoding="UTF-8"?>
<svg id="Capa_1" data-name="Capa 1" xmlns="http://www.w3.org/2000/svg" viewBox="0 0 626 177">
  <defs>
    <style>
      .cls-1 {
        fill: #ff8b00;
        stroke: #ff0;
        stroke-miterlimit: 10;
        stroke-width: 3px;
      }
    </style>
  </defs>
  <path class="cls-1" d="M88.47,101.4l-32.29-.18c-1.31,0-2.37,1.05-2.37,2.36h0c0,4.62,1.33,8.82,3.99,12.58,2.66,3.77,5.6,5.65,8.83,5.65s8.06-1.2,14.29-3.61c6.24-2.41,13.34-5.86,21.32-10.35l3.32-1.99c1.71-.95,3.01-1.72,3.9-2.31.76-.51,1.53-1.02,2.32-1.49,2.83-1.7,4.66-2.55,5.47-2.55,1.14,0,1.71,1.04,1.71,3.13,0,2.28-.41,4.88-1.24,7.79-.82,2.91-1.87,5.71-3.13,8.4-1.27,2.69-2.53,4.61-3.8,5.75-3.61,3.23-9.78,6.74-18.52,10.54-8.74,3.8-17.6,6.78-26.59,8.93-3.04.63-5.83.95-8.36.95-8.68,0-16.61-1.76-23.79-5.27-7.19-3.51-12.76-8.34-16.72-14.48-3.96-6.14-5.94-12.98-5.94-20.51,0-6.2,1.3-13.04,3.89-20.51,2.6-7.47,6.24-14.93,10.92-22.37,4.68-7.44,9.97-14.2,15.86-20.28,5.13-5.32,10.86-10.15,17.19-14.48,6.33-4.34,12.49-7.68,18.47-10.02,5.98-2.34,11.48-3.51,16.48-3.51,7.85,0,14.58,2.23,20.18,6.7,5.6,4.46,8.41,9.86,8.41,16.19,0,2.79-.51,5.83-1.52,9.12-1.01,3.29-2.37,6.17-4.08,8.64-1.77,2.66-4.4,5.26-7.88,7.79-3.48,2.53-7.41,4.72-11.78,6.55-5.26,2.09-9.75,3.13-13.49,3.13s-5.6-.92-5.6-2.75c0-1.08,1.04-2.75,3.13-5.03,2.28-2.03,4.46-4.81,6.55-8.36,2.03-3.74,3.8-8.14,5.32-13.2,1.52-5.06,2.28-9.02,2.28-11.87,0-2.34-.7-3.51-2.09-3.51-2.22,0-6.21,2.44-11.97,7.31-5.76,4.88-10.32,9.69-13.68,14.44-3.17,4.43-5.76,8.94-7.79,13.53-2.03,4.59-3.39,9.1-4.08,13.53h50.72c5.57,0,8.36,1.42,8.36,4.27,0,2.66-3.1,7-9.31,13.01-6.14,5.57-11.78,8.36-16.91,8.36Z"/>
  <path class="cls-1" d="M157.71,43.27l2.56-6.46c-1.9.19-3.86.47-5.89.85-1.27.25-3.01.38-5.22.38-3.1,0-4.65-1.55-4.65-4.65,0-1.33.39-2.9,1.19-4.7.79-1.8,1.69-3.18,2.71-4.13,2.22-2.09,6.85-3.8,13.91-5.13,7.06-1.33,15.34-1.99,24.84-1.99,7.28,0,14.23.98,20.85,2.94,6.62,1.96,12.33,4.67,17.14,8.12,4.81,3.45,8.56,7.41,11.25,11.87,2.69,4.46,4.04,9.32,4.04,14.58,0,5.64-1.17,10.87-3.51,15.72-2.34,4.84-5.67,9.07-9.97,12.68-2.85,2.41-5.51,4.24-7.98,5.51-2.47,1.27-6.02,2.6-10.64,3.99,1.2,2.22,2.26,3.93,3.18,5.13.92,1.2,2.45,2.88,4.61,5.03,5.7,5.13,13.87,9.78,24.5,13.96.51.25,1.14.51,1.9.76-1.14,5.38-2.22,9.31-3.23,11.78-1.01,2.47-2.6,5.16-4.75,8.07-3.93,5.19-8.64,7.79-14.15,7.79-3.04,0-6.79-1.12-11.25-3.37s-8.12-4.89-10.97-7.93c-2.22-2.59-4.26-5.35-6.13-8.26-1.87-2.91-3.75-6.22-5.65-9.92-1.9-3.7-3.53-7.31-4.89-10.83-1.36-3.51-2.36-6.6-2.99-9.26-.13-.51-.19-1.23-.19-2.18,0-1.33.38-2.37,1.14-3.13.76-.76,2.15-1.46,4.18-2.09,2.85-1.01,5.19-2.14,7.03-3.37,1.84-1.23,4.15-3.15,6.93-5.75,3.17-3.48,5.65-7.55,7.46-12.2,1.8-4.65,2.71-9.35,2.71-14.1,0-5.63-1.29-10.02-3.88-13.15-2.59-3.13-6.72-5.33-12.4-6.6-5.45,19.82-10.84,38.46-16.17,55.93l-2,7.22c-3.3,11.4-6.07,19.85-8.32,25.36-2.25,5.51-4.48,9.37-6.7,11.58-2.22,2.22-5.67,4.4-10.36,6.55-4.69,2.15-8.36,3.23-11.02,3.23-5.2,0-7.79-2.91-7.79-8.74,0-2.41.71-6.54,2.14-12.39,1.42-5.86,3.62-13.52,6.6-22.98,2.98-9.47,6.09-18.73,9.35-27.78,3.26-9.05,6.76-18.36,10.5-27.92Z"/>
  <path class="cls-1" d="M258.85,96.36l11.11-34.19c2.15-6.14,4.75-12.12,7.79-17.95-.32.06-1.04.41-2.18,1.04-4.37,1.77-7.47,2.66-9.31,2.66-2.6,0-3.89-.98-3.89-2.94,0-2.09,1.01-5.1,3.04-9.02,2.03-3.93,4.05-6.87,6.08-8.83,4.62-4.24,11.66-7.6,21.13-10.07,9.46-2.47,20.05-3.7,31.77-3.7,7.09,0,13.5.6,19.23,1.8,5.73,1.2,10.62,2.99,14.67,5.37,4.05,2.37,7.14,5.24,9.26,8.6,2.12,3.36,3.18,7.09,3.18,11.21,0,5.76-1.2,10.89-3.61,15.39-2.41,4.5-6.21,8.71-11.4,12.63-5.76,4.31-11.21,7.16-16.34,8.55-.57.19-1.55.38-2.94.57v.47c22.22,2.85,33.34,12.03,33.34,27.54,0,3.1-.52,6.33-1.57,9.69-1.04,3.36-2.56,6.65-4.56,9.88-1.99,3.23-4.39,6.17-7.17,8.83-6.02,5.89-13.15,11.36-21.42,16.43-8.26,5.06-16.57,9.15-24.93,12.25-8.36,3.1-15.51,4.65-21.46,4.65-5,0-9.8-.57-14.39-1.71-4.59-1.14-8.25-2.64-10.97-4.51-2.72-1.87-4.08-3.88-4.08-6.03,0-1.96.55-3.8,1.66-5.51,1.11-1.71,3.15-3.83,6.13-6.36l-.38-.38c-1.71.63-3.39.95-5.03.95-3.48,0-6.3-1.01-8.45-3.04-2.15-2.03-3.23-4.78-3.23-8.26,0-1.96.89-6.54,2.66-13.72,1.77-7.19,3.86-14.61,6.27-22.27ZM300.3,83.93c-.26.82-.51,1.74-.77,2.75s-.51,1.96-.76,2.85c-2.99,10.06-5.74,18.23-8.24,24.5-2.5,6.27-5.15,11.59-7.93,15.96-1.58,2.66-3.86,5.48-6.84,8.45,7.66,2.34,13.12,3.86,16.38,4.56,3.26.7,6.51,1.04,9.73,1.04,3.74,0,7.04-.55,9.93-1.66,2.88-1.11,5.59-2.9,8.12-5.37,3.74-3.67,6.78-8.04,9.12-13.11,2.34-5.07,3.51-9.97,3.51-14.72,0-5.19-1.8-9.59-5.41-13.2-1.77-1.77-3.75-3.13-5.93-4.08-2.18-.95-5.2-1.74-9.06-2.37-3.54-.69-6.01-1.36-7.4-1.99-1.39-.63-2.88-1.83-4.46-3.6ZM314.5,35.1l-12.1,41.6c.76.13,1.51.19,2.27.19,3.34,0,7.22-1.55,11.63-4.65,5.55-3.86,9.85-7.99,12.91-12.39,3.06-4.4,4.59-8.69,4.59-12.87,0-8.67-4.56-13.01-13.68-13.01-2.53,0-4.4.38-5.61,1.14Z"/>
  <path class="cls-1" d="M449.47,99.69h.19-.38c-4.81,8.36-9.02,15.1-12.63,20.23-3.61,5.13-7.06,9.34-10.35,12.63-4.05,4.05-8.11,7.14-12.16,9.26-4.05,2.12-7.92,3.18-11.59,3.18-7.73,0-13.74-2.33-18.05-6.98-4.31-4.65-6.46-11.19-6.46-19.61,0-10.89,2.98-26.91,8.93-48.06,2.03-7.03,4.08-13.61,6.17-19.75,2.09-6.14,4.34-12.09,6.74-17.86,2.41-5.76,4.28-9.84,5.61-12.25.95-1.65,2.23-2.96,3.85-3.94,1.61-.98,3.91-1.79,6.89-2.42,4.56-.89,8.84-1.33,12.83-1.33,6.72,0,10.07,2.91,10.07,8.74,0,3.29-1.42,8.2-4.27,14.72-2.59,6.21-4.65,11.59-6.17,16.15-.13.38-.35,1.03-.67,1.95-.32.92-.7,2.04-1.14,3.37-1.2,3.8-2.82,9.5-4.84,17.1-2.03,7.6-3.61,14.06-4.76,19.37-1.15,5.32-1.72,8.77-1.72,10.35,0,2.34.66,3.51,1.99,3.51,1.45,0,4.75-3.29,9.88-9.88,4.87-6.27,10.43-14.23,16.67-23.89,6.24-9.65,11.38-18.25,15.43-25.79,2.66-4.87,4.61-8.22,5.84-10.02,1.23-1.8,2.48-3.18,3.75-4.13,3.35-2.47,7.31-3.7,11.87-3.7,5.82,0,8.74,2.66,8.74,7.98,0,1.08-.19,3.29-.57,6.65-1.71,13.8-2.56,26.56-2.56,38.27,0,5.32.16,10.13.47,14.44.32,4.31.79,8.52,1.43,12.63.63,4.12,1.49,8.45,2.56,13.01,1.33,6.14,1.99,9.91,1.99,11.3,0,1.01-.35,1.96-1.04,2.85-1.01,1.52-3.01,2.75-5.98,3.7-5.51,2.09-9.72,3.13-12.63,3.13-3.67,0-7.14-1.33-10.4-3.99-3.26-2.66-5.97-6.39-8.12-11.21-2.47-5.63-4.08-13.01-4.84-22.13-.19-1.52-.38-4.05-.57-7.6Z"/>
  <path class="cls-1" d="M570.85,75.57c2.47-6.33,4.57-13.44,6.32-21.32,1.74-7.88,2.61-14.39,2.61-19.52,0-3.36-.79-5.03-2.37-5.03-1.46,0-4.12,1.93-7.98,5.79-5.76,6.21-10.89,13.34-15.39,21.42-4.5,8.07-7.95,16.32-10.35,24.74-2.41,8.42-3.61,16.65-3.61,24.69,0,6.33.68,10.67,2.04,13.01,1.36,2.34,3.94,3.51,7.74,3.51,3.29,0,7.38-.92,12.25-2.75,11.02-4.37,22.67-10.6,34.95-18.71,5.44-3.48,8.89-5.22,10.35-5.22,2.09,0,3.13,1.04,3.13,3.13v.19c-.32,2.85-1.3,6.08-2.94,9.69-3.29,6.97-6.14,11.52-8.55,13.68-4.05,3.61-9.61,7.16-16.67,10.64-7.06,3.48-14.29,6.33-21.7,8.55-7.41,2.22-13.61,3.32-18.62,3.32-5.76,0-11.21-1.09-16.34-3.28-5.13-2.18-9.59-5.18-13.39-8.97-3.8-3.8-6.78-8.23-8.93-13.3-2.15-5.06-3.23-10.48-3.23-16.24,0-4.37.7-9.1,2.09-14.2,1.39-5.1,3.42-10.43,6.08-16,2.66-5.57,5.67-10.79,9.02-15.67,1.96-2.91,4-5.7,6.13-8.36,2.12-2.66,4.46-5.25,7.03-7.79,2.56-2.53,5.37-4.97,8.41-7.31,3.04-2.34,5.82-4.34,8.36-5.98,4.43-2.98,9.02-5.57,13.77-7.79,4.75-2.22,9.15-3.86,13.2-4.94,4.05-1.08,7.76-1.61,11.11-1.61,8.29,0,14.78,2.15,19.47,6.46,4.68,4.31,7.03,10.26,7.03,17.86,0,7.98-1.96,16.32-5.89,25.03-3.93,8.71-9.15,16.32-15.67,22.84-4.5,4.62-8.96,8.26-13.39,10.92-4.43,2.66-8.42,3.99-11.97,3.99-3.1,0-4.65-1.49-4.65-4.46,0-1.39.85-3.32,2.57-5.79,2.4-3.42,5.06-8.48,7.98-15.2Z"/>
</svg>