<?xml version="1.0" encoding="UTF-8"?>
<svg id="Capa_1" data-name="Capa 1" xmlns="http://www.w3.org/2000/svg" viewBox="0 0 617 131">
  <defs>
    <style>
      .cls-1 {
        fill: #feac00;
      }

      .cls-1, .cls-2 {
        stroke-width: 0px;
      }

      .cls-2 {
        fill: #73d600;
      }
    </style>
  </defs>
  <path class="cls-2" d="M82.93,56.86c0,4.51.32,8.57-.08,12.55-.55,5.55-4.71,8.85-10.72,8.89-11.19.06-22.39.02-33.58.02-1,0-2.01,0-3.34,0v40.78H9c-.77-.81-.47-1.78-.47-2.67-.02-29.96-.02-59.92,0-89.89,0-7.61,3.93-11.55,11.49-11.55,24.15,0,48.31,0,72.46,0,.83,0,1.65,0,2.74,0,.12,4.72.58,9.26-.19,13.7-.84,4.82-5.06,7.78-10.38,7.78-14.22.02-28.45,0-42.67.01-5.32,0-6.79,1.45-6.79,6.69,0,4.45,0,8.9,0,13.69h47.75Z"/>
  <path class="cls-2" d="M461.7,15.06c0,1.28,0,2.29,0,3.29,0,22.05.18,44.11-.07,66.16-.13,11.73,7.11,16.44,16.52,16.62,2.94.06,5.88.17,8.82-.29,8.59-1.35,13.01-6.39,13.02-15.15.03-19.78,0-39.56,0-59.34,0-7.72,3.7-11.42,11.45-11.44,3.18,0,6.37,0,9.4,0,.86,1,.58,1.97.58,2.85.05,23.57.06,47.13.11,70.7.02,8.8-1.95,16.85-8.54,23.21-4.64,4.47-10.28,7.19-16.54,8-10.95,1.42-22.03,1.83-32.91-.36-14.24-2.87-23-13.24-23.2-27.76-.31-22.3-.15-44.61-.11-66.91.01-5.09,3.33-9.02,8.33-9.5,4.23-.41,8.53-.08,13.14-.08Z"/>
  <path class="cls-2" d="M607.03,14.96c0,4.12.18,7.99-.04,11.84-.31,5.37-4.56,9.26-10.07,9.29-10.77.07-21.55.01-32.33.04-4.25.01-7.48,1.9-9.36,5.72-1.79,3.64-1.38,7.22,1.03,10.47,1.98,2.66,4.71,3.93,8.05,3.99,5.63.1,11.29-.44,16.9.3,13.74,1.82,24.25,11.77,26.75,25.18,2.43,13.02-4.18,26.74-16.02,33.24-4.58,2.52-9.47,3.91-14.71,3.92-11.28.02-22.56.06-33.84,0-6.07-.03-10.1-4.09-10.23-10.14-.08-3.6-.01-7.21-.01-10.71,1.05-.66,2-.41,2.9-.42,13.05-.02,26.1,0,39.14-.01,6.56,0,11.14-4.19,11.09-10.13-.05-5.89-4.68-9.96-11.23-10.07-5.71-.09-11.46.54-17.14-.42-13.19-2.23-23.48-12.59-25.53-25.59-2.08-13.22,4.77-26.75,16.66-32.94,4.4-2.29,9.08-3.63,14.03-3.65,14.14-.08,28.29-.04,42.43-.04.41,0,.81.07,1.51.13Z"/>
  <path class="cls-2" d="M107.05,14.98c6.29.16,12.51-.5,18.68.35,4.86.66,7.98,4.86,7.99,10.15.03,15.91.01,31.82.02,47.74,0,6.23-.02,12.46,0,18.69.02,4.08,1.77,5.83,5.88,5.83,12.97.02,25.93,0,38.9.01.92,0,1.84,0,3.08,0-.04,4.87.75,9.66-.42,14.33-1.14,4.58-5.07,7.15-10.36,7.16-14.82.03-29.64.01-44.45.01-3.12,0-6.23.07-9.34-.03-6.01-.19-10.13-4.32-10.14-10.3-.03-30.65-.02-61.29-.01-91.94,0-.57.1-1.14.18-2Z"/>
  <path class="cls-1" d="M297.03,67.16c-10.12,13.83-20.15,27.54-30.18,41.25-1.64,2.24-3.26,4.5-4.96,6.69-4.5,5.76-12.34,6.7-18.2,2.24-5.03-3.83-6.01-11.42-2-17.03,7.48-10.47,15.08-20.86,22.63-31.28.49-.67.94-1.37,1.52-2.22-4.06-5.61-8.09-11.18-12.13-16.75-3.85-5.31-7.73-10.6-11.56-15.93-4.46-6.21-3.66-13.94,1.79-17.78,6.46-4.55,13.89-3.31,18.59,3.16,11.46,15.79,22.89,31.6,34.51,47.66Z"/>
  <path class="cls-2" d="M219.88,119.06h-26.5c0-1,0-1.82,0-2.64,0-16.66,0-33.33,0-49.99,0-7.72,3.95-11.65,11.65-11.65,4.88,0,9.75,0,14.85,0v64.29Z"/>
  <path class="cls-2" d="M287.9,97.21c5.22-7.18,10.31-14.15,15.36-21.09.97.18,1.16.91,1.53,1.41,5.61,7.77,11.21,15.55,16.78,23.35,3.83,5.36,2.88,12.97-2.07,16.83-5.56,4.34-13.47,3.81-17.69-1.56-4.77-6.08-9.17-12.45-13.92-18.93Z"/>
  <path class="cls-2" d="M303.54,58.44c-5.35-7.25-10.52-14.25-15.87-21.5,4.88-6.51,9.48-13.24,14.72-19.42,4.17-4.92,11.69-4.9,16.93-.75,4.52,3.59,5.99,10.72,2.62,15.74-5.85,8.69-12.1,17.11-18.39,25.94Z"/>
  <path class="cls-2" d="M193.53,45.1c0-7.34-.31-14.4.11-21.42.3-4.96,4.34-8.31,9.34-8.64,2.51-.16,5.05-.16,7.57,0,5.57.36,9.46,4.54,9.54,10.11.05,3.28.05,6.56,0,9.84-.08,5.52-4.1,9.83-9.61,10.05-4.87.19-9.76.05-14.64.06-.67,0-1.34,0-2.31,0Z"/>
  <path class="cls-2" d="M427.4,83.19c-1.1-7.07-4.64-12.9-10.29-17.44.24-.36.4-.64.59-.9,8.56-11.25,8.36-23.38,2.52-35.41-4.75-9.79-13.86-13.8-24.28-14.12-14.38-.44-28.77-.26-43.16-.26-7.17,0-11.03,3.96-11.04,11.14-.02,27.26-.02,54.53,0,81.79,0,7.29,3.88,11.14,11.26,11.19,6.4.04,12.79.06,19.19,0,9.93-.09,19.87.5,29.78-.33,9.57-.81,17.5-4.77,22.24-13.59,3.72-6.93,4.39-14.45,3.2-22.08ZM363.09,32.01c8.96,0,17.61-.2,26.25.07,6.08.18,10.83,5.85,10.78,12.14-.05,6.37-4.93,11.73-11.28,11.97-5.87.22-11.76.15-17.64.03-4.11-.09-7.85-3.37-8.04-7.33-.26-5.52-.07-11.06-.07-16.87ZM404.53,89.37c-.23,6.9-5.84,12.54-13.14,12.79-6.48.22-12.97.16-19.45.04-4.42-.09-8.58-3.62-8.8-7.93-.33-6.28-.08-12.59-.08-19.16,9.97,0,19.66-.36,29.31.12,7.45.37,12.41,6.68,12.16,14.15Z"/>
</svg>