<?xml version="1.0" encoding="UTF-8"?>
<svg id="Capa_1" data-name="Capa 1" xmlns="http://www.w3.org/2000/svg" viewBox="0 0 632 197">
  <defs>
    <style>
      .cls-1 {
        fill: #000;
      }

      .cls-1, .cls-2 {
        stroke-width: 0px;
      }

      .cls-2 {
        fill: #fff;
      }
    </style>
  </defs>
  <g>
    <path class="cls-2" d="M104.8,45.92l-15.6,117.25h-21.86l15.6-117.25h21.86Z"/>
    <path class="cls-2" d="M166.73,101.47l-33.48,59.2h-12.4l-19.39-59.2h19.07l5.58,17.99c.97,3.15,2.18,8.07,3.63,14.75,2.49-5.99,4.89-11.11,7.2-15.33l9.43-17.4h20.37Z"/>
    <path class="cls-2" d="M180.88,135.85c0,3.9.7,6.63,2.11,8.21,1.82,1.95,4.46,2.92,7.9,2.92,4.48,0,7.15-1.95,8.02-5.85h22.88c-2.2,5.64-4.85,9.89-7.96,12.75-5.64,5.22-13.45,7.83-23.44,7.83-8.87,0-15.79-2.2-20.77-6.59-2.74-2.4-4.87-5.47-6.4-9.2-1.53-3.73-2.3-7.73-2.3-12,0-9.16,2.98-16.85,8.95-23.07,5.97-6.26,14.18-9.39,24.62-9.39s17.45,2.96,22.51,8.89c4.43,5.22,6.65,11.98,6.65,20.27,0,1.04-.08,2.78-.25,5.22h-42.53ZM202.21,123.97c-.17-2.11-.62-3.75-1.37-4.91-1.74-2.57-4.41-3.85-8.02-3.85-5.72,0-9.22,2.92-10.51,8.77h19.9Z"/>
    <path class="cls-2" d="M252.38,101.47l-1.49,7.11c2.98-2.72,5.72-4.58,8.2-5.59,2.49-1.01,5.58-1.52,9.29-1.52.88,0,2.14.04,3.79.11l-2.18,18.02c-2.79-1.61-5.72-2.41-8.78-2.41-4.44,0-7.69,1.49-9.75,4.48-1.23,1.87-2.14,5.2-2.75,9.98l-4.07,31.53h-19.33l7.74-61.71h19.34Z"/>
    <path class="cls-2" d="M365.35,101.47l-1.49,7.11c2.98-2.72,5.72-4.58,8.2-5.59,2.49-1.01,5.58-1.52,9.29-1.52.88,0,2.14.04,3.79.11l-2.18,18.02c-2.79-1.61-5.72-2.41-8.78-2.41-4.44,0-7.69,1.49-9.75,4.48-1.23,1.87-2.14,5.2-2.75,9.98l-4.07,31.53h-19.33l7.74-61.71h19.34Z"/>
    <path class="cls-2" d="M338.45,103.06l-6.14,49.98c-1.38,11.25-3.54,19.06-6.49,23.42-2.68,4.01-6.22,6.88-10.62,8.61-4.37,1.73-9.83,2.6-16.4,2.6-9.68,0-16.95-2.2-21.83-6.61-2.12-1.93-3.71-4.1-4.75-6.52-1.04-2.42-1.82-5.73-2.33-9.94h19c.31,2.08,1.04,3.64,2.18,4.66,2.08,1.81,4.74,2.71,7.97,2.71,3.78,0,6.64-.98,8.59-2.95,1.95-1.97,3.19-5.09,3.75-9.38l1-8.2c-2.44,2.28-4.48,3.89-6.14,4.84-2.87,1.57-6.12,2.36-9.74,2.36-3.34,0-6.59-.66-9.74-1.98-3.15-1.32-5.74-3.12-7.79-5.4-4.17-4.6-6.25-11.07-6.25-19.41,0-8.89,2.48-16.11,7.43-21.65,5.23-5.82,11.8-8.73,19.71-8.73,3.89,0,7.24.71,10.03,2.12,2.79,1.42,5.57,3.84,8.32,7.26l.35-7.79h19.89ZM304.93,117.16c-4.13,0-7.32,1.73-9.56,5.19-1.57,2.44-2.36,5.31-2.36,8.61s.89,6.16,2.66,8.32c2.01,2.44,4.76,3.66,8.26,3.66,3.85,0,6.79-1.49,8.79-4.48,1.85-2.75,2.77-6,2.77-9.74,0-4.09-1.14-7.12-3.42-9.09-1.93-1.65-4.31-2.48-7.14-2.48Z"/>
    <path class="cls-2" d="M614.85,103.27l-6.87,58.83h-20.49l1.46-6.43c-2.39,2.31-4.5,4.01-6.32,5.08-3.73,2.1-7.92,3.15-12.58,3.15-7.05,0-12.6-2.46-16.66-7.39-4.34-5.23-6.51-12.06-6.51-20.51,0-6.9,1.5-13.22,4.5-18.97,3-5.74,7.09-9.96,12.28-12.67,3.73-1.93,7.9-2.89,12.52-2.89,3.89,0,7.12.61,9.7,1.83,2.57,1.22,5.36,3.44,8.36,6.65l.06-6.69h20.55ZM580.99,118.63c-3.77,0-6.91,1.51-9.42,4.53-2.51,3.02-3.77,6.8-3.77,11.35,0,3.17.71,5.76,2.13,7.78,2.07,3,5.09,4.5,9.06,4.5,4.3,0,7.66-1.89,10.09-5.66,1.9-2.91,2.86-6.26,2.86-10.03,0-4.33-1.16-7.56-3.47-9.71-1.94-1.84-4.44-2.76-7.48-2.76Z"/>
    <path class="cls-2" d="M451.67,103.27l-6.87,58.83h-20.49l1.46-6.43c-2.39,2.31-4.5,4.01-6.32,5.08-3.73,2.1-7.92,3.15-12.58,3.15-7.05,0-12.6-2.46-16.66-7.39-4.34-5.23-6.51-12.06-6.51-20.51,0-6.9,1.5-13.22,4.5-18.97,3-5.74,7.09-9.96,12.28-12.67,3.73-1.93,7.9-2.89,12.52-2.89,3.89,0,7.12.61,9.7,1.83,2.57,1.22,5.36,3.44,8.36,6.65l.06-6.69h20.55ZM417.81,118.63c-3.77,0-6.91,1.51-9.42,4.53-2.51,3.02-3.77,6.8-3.77,11.35,0,3.17.71,5.76,2.13,7.78,2.07,3,5.09,4.5,9.06,4.5,4.3,0,7.66-1.89,10.09-5.66,1.9-2.91,2.86-6.26,2.86-10.03,0-4.33-1.16-7.56-3.47-9.71-1.94-1.84-4.44-2.76-7.48-2.76Z"/>
    <path class="cls-2" d="M478.49,103.28l-1.48,7.85c2.01-2.46,3.79-4.3,5.34-5.51,3.6-2.77,7.8-4.15,12.61-4.15,3.82,0,6.87.78,9.15,2.34,2.27,1.56,4.24,4.19,5.91,7.91,3.22-3.68,6.32-6.29,9.29-7.85,2.97-1.56,6.32-2.33,10.03-2.33,4.73,0,8.58,1.43,11.53,4.28,3.3,3.11,4.94,7.44,4.94,12.97,0,2.25-.34,6.47-1.02,12.65l-3.41,31.2h-19.09l3.12-28.93c.3-2.81.45-4.89.45-6.23,0-5.15-2.14-7.72-6.42-7.72-3.67,0-6.33,1.75-7.95,5.25-.79,1.69-1.44,4.8-1.93,9.34l-3.07,28.28h-19.15l3.35-30.94c.23-2.08.34-3.74.34-4.99,0-2.16-.55-3.86-1.65-5.09-1.1-1.23-2.63-1.85-4.6-1.85-2.76,0-4.92,1.18-6.48,3.54-1.55,2.36-2.61,6.04-3.18,11.06l-3.07,28.28h-19.15l6.42-59.35h19.15Z"/>
    <path class="cls-2" d="M113.72,47.69h8.07c3.66,0,6.38.53,8.17,1.59,1.57.93,2.78,2.31,3.64,4.17.79,1.7,1.19,3.51,1.19,5.42,0,4.81-2.19,8.31-6.58,10.52,2.27.62,3.97,1.46,5.09,2.51,2.05,1.94,3.07,4.62,3.07,8.04,0,2.71-.72,5.15-2.15,7.31-1.74,2.65-4.13,4.32-7.18,5.03-1.59.38-3.75.56-6.48.56h-12.4l5.56-45.14ZM115.71,72.06l-1.98,16.17h7.18c2.16,0,3.81-.15,4.96-.45,1.15-.3,2.12-.84,2.91-1.64,1.7-1.61,2.55-3.76,2.55-6.45s-.98-4.85-2.94-6.15c-1.08-.75-2.27-1.19-3.57-1.32-1.12-.11-2.49-.17-4.1-.17h-4.99ZM118.12,52.29l-1.89,15.41h3.47c2.87,0,4.83-.28,5.89-.83,1.61-.82,2.8-2.18,3.57-4.1.51-1.21.76-2.48.76-3.8,0-2.36-.72-4.1-2.15-5.22-.82-.64-1.73-1.05-2.74-1.22-.99-.15-2.13-.23-3.41-.23h-3.51Z"/>
    <path class="cls-2" d="M168.98,66.52l-1.95,16.07c-.38,2.98-.87,5.08-1.49,6.32-.99,1.96-2.56,3.44-4.7,4.43-1.74.82-3.67,1.22-5.79,1.22-3.64,0-6.42-1.07-8.33-3.21-1.37-1.5-2.05-3.53-2.05-6.08,0-1.01.09-2.19.26-3.54l1.85-15.21h4.73l-1.92,15.71c-.13,1.1-.2,2.08-.2,2.94,0,1.63.54,2.88,1.62,3.74,1.1.88,2.52,1.32,4.27,1.32,2.49,0,4.33-.82,5.52-2.45.66-.9,1.14-2.51,1.42-4.83l2.02-16.44h4.73Z"/>
    <path class="cls-2" d="M194.8,69.28l-3.01,2.94c-1.76-1.39-3.5-2.08-5.22-2.08-1.37,0-2.5.4-3.41,1.19-.75.68-1.12,1.51-1.12,2.48,0,1.04.48,1.94,1.46,2.71.53.44,1.64,1.07,3.34,1.88,2.34,1.1,3.97,2.13,4.89,3.08,1.21,1.26,1.82,2.93,1.82,5.03,0,2.31-.84,4.27-2.51,5.85-1.83,1.74-4.24,2.61-7.24,2.61-2.29,0-4.29-.61-5.99-1.82-1.24-.88-2.37-2.22-3.41-4l3.61-2.25c1.5,2.49,3.43,3.74,5.79,3.74,1.59,0,2.83-.45,3.74-1.36.73-.71,1.09-1.61,1.09-2.71s-.44-2.07-1.32-2.78c-.55-.44-1.85-1.15-3.9-2.12-2.29-1.1-3.89-2.24-4.8-3.41-.95-1.23-1.42-2.66-1.42-4.27,0-2.53,1.04-4.61,3.11-6.22,1.72-1.32,3.82-1.98,6.32-1.98,3.02,0,5.75,1.16,8.2,3.47Z"/>
    <path class="cls-2" d="M252.54,69.28l-3.01,2.94c-1.76-1.39-3.5-2.08-5.22-2.08-1.37,0-2.5.4-3.41,1.19-.75.68-1.12,1.51-1.12,2.48,0,1.04.48,1.94,1.46,2.71.53.44,1.64,1.07,3.34,1.88,2.34,1.1,3.97,2.13,4.89,3.08,1.21,1.26,1.82,2.93,1.82,5.03,0,2.31-.84,4.27-2.51,5.85-1.83,1.74-4.24,2.61-7.24,2.61-2.29,0-4.29-.61-5.99-1.82-1.24-.88-2.37-2.22-3.41-4l3.61-2.25c1.5,2.49,3.43,3.74,5.79,3.74,1.59,0,2.83-.45,3.74-1.36.73-.71,1.09-1.61,1.09-2.71s-.44-2.07-1.32-2.78c-.55-.44-1.85-1.15-3.9-2.12-2.29-1.1-3.89-2.24-4.8-3.41-.95-1.23-1.42-2.66-1.42-4.27,0-2.53,1.04-4.61,3.11-6.22,1.72-1.32,3.82-1.98,6.32-1.98,3.02,0,5.75,1.16,8.2,3.47Z"/>
    <path class="cls-2" d="M204.09,80.3c.07,2.38.57,4.26,1.52,5.62,1.65,2.34,4.1,3.51,7.34,3.51s5.65-1.22,7.64-3.67l3.67,2.12c-1.08,1.5-2.16,2.65-3.24,3.44-2.23,1.63-4.93,2.45-8.1,2.45-4.19,0-7.55-1.28-10.09-3.84-2.4-2.42-3.61-5.63-3.61-9.62,0-4.74,1.48-8.62,4.43-11.64,2.67-2.71,5.91-4.07,9.72-4.07,4.37,0,7.73,1.68,10.09,5.03,1.61,2.25,2.46,5.2,2.55,8.86v1.82h-21.92ZM221.19,76.36c-.13-1.68-.56-3.04-1.29-4.1-1.52-2.23-3.76-3.34-6.71-3.34s-5.06,1-6.71,3.01c-.84,1.01-1.49,2.49-1.95,4.43h16.67Z"/>
  </g>
  <path class="cls-1" d="M42.46,157.53l22.59-85.36s56.49,0,64.02-16.32c0,0-8.16,13.18-60.88,5.65,0,0,3.77-23.85,31.38-22.59l515.9-6.28-515.9-3.77s-33.89-3.77-40.17,32.64h-17.7c-8.54,0-16.26,5.08-19.61,12.93-3.47,8.13-5.42,19.95-6.62,36.02,6.78-17.58,11.91-32.14,21.74-37.85,1.25-.72,2.68-1.06,4.13-1.06h15.56s-14.44,85.98-14.44,85.98Z"/>
</svg>