<?xml version="1.0" encoding="UTF-8"?>
<svg id="Capa_1" data-name="Capa 1" xmlns="http://www.w3.org/2000/svg" viewBox="0 0 622 98">
  <defs>
    <style>
      .cls-1 {
        fill: #f15a24;
        stroke-width: 0px;
      }
    </style>
  </defs>
  <path class="cls-1" d="M600.21,56.5c6.44,5.3,6.78,11.64,1.17,17.83-4.14,4.57-9.14,6.78-15.3,6.74-13.58-.08-27.16-.03-40.74-.06-1.27,0-2.6.26-4.03-.56.45-3.64,2.01-6.98,3.43-10.91,7.04,0,14.09.22,21.13-.06,6.75-.27,13.74,1.42,20.36-1.67-.55-2.87-2.48-2.52-4.12-2.53-7.22-.04-14.45-.02-21.67-.05-1.87,0-3.72.04-5.53-.74-4.1-1.78-5.86-5.05-4.92-9.41,1.62-7.51,7.91-13.31,15.6-14.13,11.52-1.22,23.09-.35,34.63-.51,2.67-.04,5.43-.54,8.17.49.5,3.31-1.94,5.76-2.18,8.73-.55.82-.46,2-1.9,2.83-9.36,1.5-19.19-.96-30.83,1.61,6.63.58,13.26.3,19.88.41,2.46.04,4.97-.06,6.83,2.01Z"/>
  <path class="cls-1" d="M353.5,80.83c-6.18.3-12.35.26-18.91.06,1.67-6.32,4.1-11.86,6.01-17.56.41-1.23.79-2.46,1.26-3.67,1.14-2.96.6-5.37-2.28-7.16-2.79-.44-5.7-.44-8.55-.19-5.4.48-9.07,3.82-11.09,8.5-2.79,6.46-4.97,13.18-7.48,19.99h-18.03c-.92-1.86.24-3.25.72-4.63,1.99-5.71,4.11-11.36,6.01-17.11,2.73-8.26,8.36-14,16.4-17.34,2.72-1.13,5.64-1.27,8.5-1.31,8.52-.11,17.04-.1,25.57-.03,2.15.02,4.3.42,6.45.65,1.08.72,2.55.55,3.47,1.56,3.48,3.41,3.14,7.92,2.17,11.78-2.31,9.19-6.09,17.92-10.22,26.46Z"/>
  <path class="cls-1" d="M90.63,74.76c-5.33,4.09-11.57,5.65-18.08,6.14-8.93.67-17.88.82-26.83.76-10.83-.07-21.67,0-32.5-.01-1.43,0-2.88.22-4.53-.35-.79-2.24.78-3.94,1.3-5.76,1.9-.81,3.66-.5,5.36-.5,12.86-.03,25.71-.18,38.56.03,11.2.18,13.93-2.05,17.85-12.98,1.02-2.86,2.89-5.78,1.33-9.03-2.12-1.63-4.74-1.07-7.15-1.84,1.38-2.58,4.25-3.29,5.7-5.55-.09-1.47-1.45-1.97-2.36-2.78-.84-.75-1.91-1.24-2.35-2.38.84-1.45,2.11-.51,3.14-.55,6.22-.26,12.45.04,18.52,1.26,8.07,1.62,13.27,4.94,11.06,14.41-.19.83-.15,1.72-.21,2.59-.7,6.71-3.5,12.3-8.81,16.55Z"/>
  <path class="cls-1" d="M44.77,39.65c2.73,2.31,6.09,3.18,8.74,5.65-1.49,2.91-4.77,3.86-6.93,6.28-6.74,0-13.52.14-20.29-.05-4.84-.13-6.9-2.41-6.47-7.18.63-6.87,3.2-13.1,7.25-18.68,3.04-4.2,7.84-5.14,12.45-6.24,3.36-.8,6.83-1.04,10.3-1.04,18.77-.01,37.54-.04,56.3-.05,1.15,0,2.32-.06,3.52.61-.21,2.41-1.34,4.54-2.17,7.03-4.96,0-9.7.18-14.43-.04-11.83-.55-23.67-.11-35.5-.34-5.77-.12-9.64,2.07-11.14,7.93-.49,1.93-1.47,3.74-1.63,6.11Z"/>
  <path class="cls-1" d="M480.81,52.19c-6.68,0-13.02-.01-19.36,0-6.83.01-10.02,2.24-12.35,8.63-2.41,6.61-4.82,13.22-7.28,19.96h-18.3c.03-3.03,1.28-5.47,2.2-7.99,2.33-6.36,4.39-12.84,7.05-19.05,3.37-7.86,9.17-12.55,18.17-13.03,9.68-.51,19.35-.2,29.03-.34,1.57-.02,3.19-.13,4.81,1.15-.89,3.47-2.11,6.91-3.98,10.66Z"/>
  <path class="cls-1" d="M549.03,41.91c.55-2.92,2.72-5.53,1.12-9.9-1.12-1.91-3.72-3.25-7.2-3.27-4.76-.03-9.52-.14-14.15,1.17-1.42.4-2.8.62-4.31.46-.25-1.21.83-1.25,1.46-1.58,9.52-5.14,19.38-9.42,30.02-11.7,3.13-.67,6.3-.63,9.46-.33,1.93.18,3.64.87,4.88,2.62.9,2.19.18,4.3-1.21,5.96-5.31,6.32-11.53,11.64-18.49,16.1-.45.29-1.09.29-1.64.42l.07.07Z"/>
  <path class="cls-1" d="M548.96,41.84c-.11.15-.22.31-.2.29-.02.02.12-.1.27-.22,0,0-.07-.07-.07-.07Z"/>
  <path class="cls-1" d="M309.05,17.68c-7.81,0-15.59-.02-23.36.02-1.52,0-2.62,1.07-3.79,1.92-16.86,12.33-33.74,24.64-50.61,36.96-4.88,2.38-9.19,5.57-13.13,8.6.38-.31.75-.62,1.13-.94,3.01-2.5,6.5-4.85,6.88-9.37,1.95-5.3,1.35-9.93-3.84-13.61-1.49-.27-3.22-.94-5.15-.93-9.39.06-18.79-.13-28.17.07-11.1.23-20.05,7-23.78,17.54-1.49,4.21-3.17,8.35-4.54,12.6-1.05,3.25-2.96,6.26-3,10.15h17.75c.91-.69,1.14-1.37,1.38-2.06,1.71-4.89,3.39-9.79,5.16-14.65,3.25-8.94,7.4-11.83,16.78-11.76,1.43,0,2.86,0,3.76,0,3.6,2.07,4.02,4.63,2.88,7.73-1.99,5.4-3.96,10.8-5.85,16.24-.49,1.4-1.54,2.8-.6,4.64h13.15c5.54-3.39,10.94-6.7,16.34-10,2.38-1.46,4.84-2.29,7.74-2.22,5.48.14,10.96.04,16.44-.35,5-.36,10.05-.08,15.1-.08.79,4.64-2.78,8.11-2.4,12.75,5.84,0,11.57.38,17.31-.43,4.96-.7,8.09-3.44,9.64-8.13.36-1.09.82-2.16,1.17-3.25,4.74-14.81,9.54-29.61,14.14-44.46.65-2.11,2.06-4.15,1.5-6.97ZM270.94,59.07c-9.82-.2-19.27.33-28.85-.8,11.27-9.24,22.94-17.64,34.63-25.99.27.16.54.33.82.49-2.15,8.56-4.3,17.12-6.6,26.3Z"/>
  <path class="cls-1" d="M422.72,22.07c-1.3,0-2.61-.08-3.73.79-3.72,5.44-4.01,12.44-7.24,17.63-9.57-.62-18.35-.4-27.12-.22-5.72.11-10.57,2.67-14.2,7.08-4.87,5.92-7.41,13.09-9.15,20.35-1.96,8.19,2.58,14.65,10.88,14.05,9.37-.68,18.73-.35,28.09-.33,8.89.03,15.4-3.86,20.25-11.03,7.16-15.38,11.66-31.71,18.01-48.3-5.81,0-10.8,0-15.79,0ZM400.78,67.39c-5.96,3.31-14,2.89-17.47-.91-.69-8.81,4.22-14.28,12.95-14.28,3.24,0,6.71-.7,9.25,2.22,1.58,4.91-.51,10.64-4.72,12.97Z"/>
  <path class="cls-1" d="M533.04,40.43c-9.09-.27-18.19-.03-27.29-.03-8.44,0-14.93,4.02-18.85,11.02-2.98,5.32-4.7,11.45-6.33,17.4-1.97,7.19,2.18,12.15,9.7,12.17,12.56.05,25.12.03,37.69-.02,2.57-.01,5.18.43,8.1-.38.95-3.41,2.83-6.67,3.26-10.43-1.72-.99-3.49-.59-5.18-.6-9.39-.05-18.77-.03-28.16-.05-1.84,0-3.8.34-5.28-1.3-.37-1.12-.5-2.2.85-3.5h40c1.15-3.04,2.18-5.42,2.96-7.89,3.04-9.57-1.39-16.1-11.45-16.39ZM526.26,56.34h-22.1c-.19-2.17,1.44-2.83,2.66-4.01h18.65c.36.88.66,1.38.76,1.92.11.55.02,1.13.02,2.09Z"/>
  <path class="cls-1" d="M156.04,40.7c-1.12-.22-2.28-.34-3.43-.34-12.43-.03-24.86-.02-37.29-.01-.99,0-2.05-.21-3.15.88-.81,3.32-3.13,6.58-2.87,10.9h31.47c2.34,1.4,3.53,2.79,2.3,5.36-7.74-1.34-15.52-.64-23.27-.78-4.21-.08-8.32.58-12.37,1.73-1.22,1.27-3.49.79-4.38,2.61-5.6,3.33-7.96,9.09-6,14.63,1.96,3.4,4.95,5.26,8.83,5.28,11.71.07,23.42.15,35.12-.08,6.68-.13,12.01-3.45,15.18-9.24,3.39-6.2,5.52-13.01,7.27-19.85,1.43-5.58-1.71-9.94-7.42-11.08ZM135.68,70.97c-5.96.68-11.99.94-17.95-.23-.24-.05-.42-.37-.73-.65-.3-2.97,1.76-4.32,4.08-4.44,5.57-.29,11.17-.1,16.95-.1.68,3.65.24,5.12-2.35,5.42Z"/>
</svg>